<svg width="421" height="247" viewBox="0 0 421 247" fill="none" xmlns="http://www.w3.org/2000/svg">
<path d="M169.349 231.7C150.225 229.852 133.079 234.523 126.896 237.089C105.464 240.212 85.7623 246.559 178.417 246.97C294.235 247.483 381.613 241.324 374.606 237.089C367.6 232.855 336.275 237.089 335.451 233.111C334.627 229.134 272.802 226.952 250.133 231.7C227.464 236.448 193.255 234.01 169.349 231.7Z" fill="#C4C4C4" fill-opacity="0.25"/>
<path d="M169.349 231.7C150.225 229.852 133.079 234.523 126.896 237.089C105.464 240.212 85.7623 246.559 178.417 246.97C294.235 247.483 381.613 241.324 374.606 237.089C367.6 232.855 336.275 237.089 335.451 233.111C334.627 229.134 272.802 226.952 250.133 231.7C227.464 236.448 193.255 234.01 169.349 231.7Z" fill="url(#paint0_linear)"/>
<g opacity="0.55">
<path d="M361.443 196.284C351.162 195.258 341.944 197.852 338.62 199.278C327.098 201.013 316.509 204.327 366.318 204.767C398.581 205.053 423.767 201.637 420 199.284C416.233 196.932 407.943 198.494 407.5 196.284C407.057 194.074 403.82 192.862 391.634 195.5C379.447 198.138 374.294 197.567 361.443 196.284Z" fill="#C4C4C4" fill-opacity="0.25"/>
<path d="M361.443 196.284C351.162 195.258 341.944 197.852 338.62 199.278C327.098 201.013 316.509 204.327 366.318 204.767C398.581 205.053 423.767 201.637 420 199.284C416.233 196.932 407.943 198.494 407.5 196.284C407.057 194.074 403.82 192.862 391.634 195.5C379.447 198.138 374.294 197.567 361.443 196.284Z" fill="url(#paint1_linear)"/>
</g>
<g opacity="0.38">
<path d="M24.7295 206.2C16.8928 205.379 9.86683 207.455 7.33342 208.595C-1.44907 209.983 -9.5222 212.804 28.4452 212.987C75.9044 213.215 111.71 210.477 108.839 208.595C105.968 206.713 93.1316 208.595 92.7938 206.827C92.456 205.059 67.1219 204.09 57.8327 206.2C48.5436 208.31 34.5254 207.227 24.7295 206.2Z" fill="#C4C4C4" fill-opacity="0.25"/>
<path d="M24.7295 206.2C16.8928 205.379 9.86683 207.455 7.33342 208.595C-1.44907 209.983 -9.5222 212.804 28.4452 212.987C75.9044 213.215 111.71 210.477 108.839 208.595C105.968 206.713 93.1316 208.595 92.7938 206.827C92.456 205.059 67.1219 204.09 57.8327 206.2C48.5436 208.31 34.5254 207.227 24.7295 206.2Z" fill="url(#paint2_linear)"/>
</g>
<path d="M276.979 142.171C276.582 140.717 276.075 137.521 278.298 135.617C280.521 133.714 278.166 128.478 276.71 126.099C275.254 122.133 274.408 114.121 282.665 113.804C292.986 113.407 295.368 122.132 302.117 116.58C308.866 111.027 312.041 104.285 318.79 107.061C325.539 109.838 333.478 114.597 337.051 105.475M149.917 118.375C142.295 117.105 147.535 106.741 151.108 101.717C152.751 102.814 152.354 102.814 154.681 103.304L269.409 99.3374C286.876 98.5442 321.945 96.4727 322.262 96.4727C332.584 94.8862 336.157 90.9203 337.347 89.7303C339.332 88.9371 340.071 93.3881 338.086 100.924C336.101 108.459 341.262 107.27 341.262 109.649C341.262 112.029 335.704 122.341 337.292 123.927C338.88 125.514 343.247 133.446 333.323 131.066C325.383 129.162 320.277 137.015 317.84 139.792C315.403 142.568 307.574 134.944 306.328 137.015C305.082 139.087 303.628 144.392 296.006 138.998C288.384 133.604 282.454 146.226 278.936 143.758C275.418 141.29 274.514 138.293 270.599 142.171C266.685 146.049 260.62 141.07 257.896 143.758C255.172 146.446 251.465 154.942 244.796 150.5C238.126 146.058 235.136 146.798 234.474 147.724C230.901 154.466 226.534 151.69 224.55 147.724C222.962 144.551 218.253 146.446 216.268 147.239M149.917 118.375C159.445 119.961 159.445 113.615 166.59 118.375C172.307 122.182 180.352 116.788 183.66 113.615C184.587 112.69 187.868 112.267 193.585 117.978C199.257 123.645 204.617 119.628 207.802 117.24C211.168 114.718 219.444 114.025 216.213 123.927C212.982 133.829 208.67 131.463 215.022 138.998C216.61 141.378 219.047 140.893 216.268 147.239M149.917 118.375C146.686 120.957 142.008 127.48 150.996 131.007C151.37 131.153 151.594 131.545 151.521 131.939C150.607 136.868 150.835 145.532 158.409 145.532C168.334 145.532 167.54 140.773 173.098 144.739C178.656 148.705 184.61 149.895 187.389 143.946C190.168 137.997 195.329 150.688 197.711 148.705C200.093 146.722 204.856 139.187 210.414 143.946C214.384 147.515 215.307 146.842 216.268 147.239M255.249 179.949C258.956 171.649 261.007 160.306 260.092 144.651C260.092 143.381 258.769 143.857 258.107 144.254L253.74 149.41C252.02 151.129 248.024 154.09 245.801 152.186C245.639 152.025 245.402 152.062 245.174 152.172C244.771 152.366 244.623 152.836 244.635 153.282C244.76 157.741 244.185 163.772 242.278 169.637M233.298 183.915C229.801 186.889 225.314 188.956 219.6 189.468C198.322 191.371 191.414 188.41 190.62 186.691C191.414 185.369 192.049 182.725 188.238 182.725C183.474 182.725 177.917 199.779 189.826 199.779C196.575 200.573 198.163 208.108 217.218 204.935C236.273 201.762 236.216 201.569 245.801 193.063M316.356 146.157C309.078 145.628 295.026 152.346 295.026 183.441C292.247 204.064 289.469 213.583 277.162 226.275M108.136 150.125C107.871 153.563 107.74 157.264 114.913 161.231M116.781 151.315C116.516 154.753 115.846 158.323 121.121 162.289M124.324 139.417C126.177 142.061 128.532 147.666 126.309 153.695M126.706 143.78C127.765 143.648 130.993 144.176 132.264 145.763M175.932 201.685C178.711 201.685 184.507 201.05 185.459 198.512M179.108 207.634C185.062 207.105 196.972 205.413 196.972 202.875M187.841 181.854C184.93 180.003 178.075 176.857 175.534 179.078C172.359 181.854 159.258 223.895 171.962 225.878C184.665 227.861 204.911 229.051 206.896 227.861M339.479 130L367.279 122.759C382.364 118 382.761 118.793 382.761 114.827C382.761 110.861 337.505 90.6339 337.505 89.0475C337.505 87.7783 336.709 77.9424 335.915 74.3729L405.389 109.275C410.55 111.654 410.947 119.348 398.244 124.742C385.54 130.136 350.341 141.532 340.681 143.78C342.837 143.967 346.28 144.964 347.428 147.447C347.429 150.323 347.263 153 342.664 153.298C338.065 153.597 342.954 157.253 341.763 159L340.681 160.21C336.312 164.8 330.465 163.139 325.197 153.298M316.066 145.498C315.447 143.409 316.049 141.068 318.845 138.624M329.167 150.919C328.637 153.166 328.135 158.414 330.041 160M208.484 37.0915C206.632 37.2237 202.926 38.44 202.926 42.2475M230.715 39.8678C231.112 41.7186 231.668 45.8963 230.715 47.8M179.505 67.6305C177.387 68.9525 173.788 72.1519 176.329 74.3729M192.605 86.6678C191.811 88.122 190.461 91.3478 191.414 92.617M177.123 44.6271C175.27 45.8169 171.962 48.9898 173.55 52.1627M225.554 12.8985C225.157 11.7087 219.6 12.1053 216.821 16.8646M243.419 15.278C244.742 15.5424 247.388 16.9437 247.388 20.4339M266.841 31.9356C267.37 34.8441 269.381 40.0264 273.192 37.4881M287.881 43.0407C287.351 44.7593 286.848 48.5139 289.072 49.7831M259.695 52.9559C258.107 54.0136 255.407 56.5254 257.313 58.1119M245.801 80.322C244.874 81.2475 243.578 83.4949 245.801 85.0814M305.348 34.7119C306.539 35.2407 308.921 37.4088 308.921 41.8508M270.81 11.7084C272.795 11.5762 276.765 13.2948 276.765 21.227M313.684 62.4746C313.42 64.9864 314.081 69.9308 318.845 69.6136M156.083 130.295C158.332 132.675 164.102 135.53 169.183 127.915M171.565 137.831C174.211 139.153 179.425 139.893 179.108 132.278M184.268 124.346C185.856 128.312 190.541 134.578 196.575 127.915M196.575 135.847C198.427 137.698 203.323 140.289 208.087 135.847M218.409 127.915C219.07 129.502 221.267 132.199 224.76 130.295M224.76 137.831C227.539 135.847 230.715 143.383 236.273 137.831M246.198 137.831C248.844 140.342 254.455 143.859 255.725 137.831M265.253 132.278C268.032 134.393 273.589 136.958 273.589 130.295M284.705 127.915C284.969 132.014 286.928 138.624 292.644 132.278M292.644 122.363C296.35 123.949 304.262 127 308.127 122.363M311.7 127.915C313.287 129.105 317.257 130.771 320.433 127.915M320.433 117.603C322.55 120.38 327.579 124.663 330.755 119.586M149.334 85.5558C151.452 58.4541 173.55 3.61614 245.007 1.07783C316.464 -1.46047 336.445 58.7185 337.504 89.1253C336.048 91.7694 329.802 97.1368 316.464 97.4541C303.125 97.7714 203.192 101.552 154.892 103.403C149.731 103.601 146.684 99.1992 149.334 85.5558ZM241.434 111.732C237.993 108.956 229.127 106.1 229.127 116.888C229.127 130.373 267.238 126.406 265.253 111.732C264.233 104.197 254.931 107.369 251.755 111.335C248.579 115.301 245.404 114.905 241.434 111.732ZM208.087 142.668L275.971 196.607C276.897 193.963 279.306 190.816 281.529 199.383C279.676 180.61 280.02 143.064 296.217 143.064C316.463 143.064 332.343 148.142 327.976 175.983C323.609 203.823 299.79 233.491 292.247 233.095C284.705 232.698 272.001 232.698 275.971 211.678C275.971 210.885 272.001 222.783 270.81 210.488L181.886 148.22C182.945 148.352 185.301 148.141 186.253 146.237C187.444 143.857 189.032 141.478 190.62 143.461C191.89 145.047 194.855 147.824 196.178 149.013C196.707 149.542 198.083 149.965 199.354 147.427C200.942 144.254 206.896 141.739 208.087 142.668ZM189.032 182.251C185.194 179.078 176.646 173.684 173.153 177.492C168.786 182.251 154.494 231.431 167.198 232.224C177.361 232.858 192.87 234.339 199.354 235C205.97 231.563 215.709 220.96 201.736 206.047C200.28 204.725 191.811 198.512 189.032 199.305C186.121 199.305 180.854 197.005 183.077 187.803C185.062 182.251 187.312 182.251 189.032 182.251ZM171.565 179.871C168.919 178.549 163.308 178.681 162.038 189.786C160.767 200.892 163.626 201.288 165.213 200.098L171.565 179.871ZM225.377 78.7115C225.753 83.9551 220.561 88.5985 213.782 89.0827C207.002 89.567 201.202 85.7087 200.827 80.4651C200.452 75.2215 205.643 70.5782 212.423 70.0939C219.202 69.6097 225.002 73.4679 225.377 78.7115ZM287.306 76.3318C287.682 81.5755 282.49 86.2188 275.711 86.7031C268.931 87.1873 263.131 83.3291 262.756 78.0855C262.381 72.8418 267.573 68.1985 274.352 67.7142C281.131 67.23 286.931 71.0882 287.306 76.3318ZM150.525 76.7527C136.763 75.5629 108.683 78.2598 106.46 98.5663C104.237 118.873 105.534 128.709 106.46 131.088C102.755 139.814 99.2627 159 111.621 162.42C116.384 162.817 114.797 159.644 119.56 161.627C124.324 163.61 134.646 169.163 132.264 145.366C135.44 143.383 138.457 140.052 131.47 134.658C122.736 127.915 119.957 133.071 121.148 109.275C122.101 94.9966 139.939 90.7661 148.54 90.6339L150.525 76.7527Z" stroke="white" stroke-width="2" stroke-linecap="round" stroke-linejoin="round"/>
<ellipse cx="218" cy="79" rx="3" ry="2" fill="white"/>
<ellipse cx="279" cy="76" rx="3" ry="2" fill="white"/>
<defs>
<linearGradient id="paint0_linear" x1="242.302" y1="232.342" x2="242.273" y2="247.001" gradientUnits="userSpaceOnUse">
<stop stop-color="#4E4E4E"/>
<stop offset="0.917581" stop-color="#262A2E"/>
</linearGradient>
<linearGradient id="paint1_linear" x1="400.662" y1="196.641" x2="400.646" y2="204.784" gradientUnits="userSpaceOnUse">
<stop stop-color="#4E4E4E"/>
<stop offset="0.917581" stop-color="#262A2E"/>
</linearGradient>
<linearGradient id="paint2_linear" x1="54.6237" y1="206.485" x2="54.6096" y2="213" gradientUnits="userSpaceOnUse">
<stop stop-color="#4E4E4E"/>
<stop offset="0.917581" stop-color="#262A2E"/>
</linearGradient>
</defs>
</svg>
