<svg width="18" height="18" viewBox="0 0 18 18" fill="none" xmlns="http://www.w3.org/2000/svg">
<rect width="18" height="18" rx="9" fill="#3A3939"/>
<g clip-path="url(#clip0)">
<path fill-rule="evenodd" clip-rule="evenodd" d="M5.46626 11.8285C5.21573 11.6743 5.0625 11.3997 5.0625 11.1048V9.45801C5.0625 9.39496 5.07928 9.33418 5.11059 9.28016C5.2079 9.11132 5.42376 9.05391 5.59153 9.15297L9.28464 11.3198C9.5005 11.447 9.63361 11.6788 9.63361 11.931V13.6374C9.63361 13.7151 9.61235 13.7927 9.57208 13.8592C9.45018 14.0595 9.19068 14.1225 8.99161 13.9998L5.46626 11.8285ZM10.9713 8.70159C11.1871 8.82878 11.3202 9.06067 11.3202 9.31281V12.7752C11.3202 12.8776 11.2654 12.9721 11.1771 13.0217L10.3684 13.4798C10.3584 13.4854 10.3472 13.4899 10.336 13.4933V11.5708C10.336 11.322 10.2063 11.0913 9.99374 10.9629L6.75024 9.01002V6.83982C6.75024 6.7768 6.76702 6.71602 6.79833 6.66198C6.89564 6.49314 7.1115 6.43573 7.27927 6.53479L10.9713 8.70159ZM12.5874 6.1442C12.8044 6.27027 12.9375 6.5044 12.9375 6.75655V11.8139C12.9375 11.9175 12.8804 12.0131 12.7899 12.0627L12.0237 12.4791V8.95824C12.0237 8.70947 11.894 8.47985 11.6826 8.35153L8.36753 6.35019V4.29145C8.36753 4.22841 8.38428 4.16763 8.41448 4.1136C8.5118 3.94476 8.72766 3.88735 8.89543 3.98528L12.5874 6.1442Z" fill="#00D395"/>
</g>
<defs>
<clipPath id="clip0">
<rect width="7.875" height="10.125" fill="white" transform="translate(5.0625 3.9375)"/>
</clipPath>
</defs>
</svg>
