<svg width="390" height="207" viewBox="0 0 390 207" fill="none" xmlns="http://www.w3.org/2000/svg">
<path opacity="0.15" d="M0 207C0 207 5.71409 127.37 43.7469 152.918C43.7469 152.918 56.1187 79.184 81.8059 82.1187C107.493 85.0533 129.353 171.496 159.811 144.507C190.269 117.518 207.359 63.4363 234.959 100.801C262.56 138.166 253.019 97.8402 279.676 101.797C306.307 105.727 304.42 171.6 326.28 170.605C348.14 169.609 384.312 131.275 390 201.078C390 201.104 73.2348 176.526 0 207Z" fill="url(#paint0_linear)"/>
<path opacity="0.4" d="M149.379 41.9241C147.597 42.1599 145.972 40.9284 145.736 39.1466L144.53 30.3163C144.294 28.5346 145.526 26.91 147.308 26.6742C149.091 26.4384 150.716 27.6699 150.952 29.4517L152.157 38.2819C152.393 40.0637 151.161 41.6882 149.379 41.9241Z" fill="#C7D5EB"/>
<path opacity="0.4" d="M184.345 39.6182C182.484 39.8802 180.754 38.5701 180.492 36.6835L179.312 27.9842C179.05 26.1239 180.361 24.3945 182.248 24.1325C184.109 23.8704 185.839 25.1806 186.101 27.0672L187.281 35.7664C187.543 37.653 186.232 39.3561 184.345 39.6182Z" fill="#C7D5EB"/>
<path d="M232.941 137.537C226.126 116.575 214.908 29.7922 214.908 29.7922L187.805 31.443L188.486 36.4477C188.853 39.0941 186.992 41.5048 184.371 41.8716C181.724 42.2384 179.312 40.3781 178.945 37.7578L178.159 32.0457L153.416 33.5654L154.123 38.8321C154.49 41.4786 152.629 43.8892 150.008 44.256C147.361 44.6229 144.949 42.7625 144.582 40.1422L143.77 34.1681L111.503 36.1332C111.503 36.1332 122.722 118.514 125.658 142.882C128.593 167.251 145.631 163.949 145.631 163.949L235.877 145.817L232.941 137.537Z" fill="url(#paint1_linear)"/>
<path d="M199.81 69.6986L135.775 76.2755C133.574 76.5113 131.581 74.8867 131.372 72.6857C131.136 70.4847 132.761 68.4933 134.963 68.2837L198.997 61.7068C201.199 61.471 203.191 63.0956 203.401 65.2966C203.637 67.4976 202.012 69.4628 199.81 69.6986Z" fill="#1E2226"/>
<path d="M171.501 100.775L138.632 104.155C136.431 104.391 134.438 102.766 134.229 100.565C133.993 98.3644 135.618 96.373 137.82 96.1634L170.689 92.7833C172.891 92.5474 174.883 94.172 175.092 96.373C175.328 98.574 173.703 100.565 171.501 100.775Z" fill="#1E2226"/>
<path d="M145.631 163.949C145.631 163.949 157.845 163.609 156.744 143.485L239.756 136.175C239.756 136.175 244.5 154.464 222.928 157.006C201.356 159.573 145.631 163.949 145.631 163.949Z" fill="url(#paint2_linear)"/>
<path opacity="0.2" d="M253.465 62.1C270.619 62.1 284.525 48.1984 284.525 31.05C284.525 13.9016 270.619 0 253.465 0C236.31 0 222.404 13.9016 222.404 31.05C222.404 48.1984 236.31 62.1 253.465 62.1Z" fill="url(#paint3_linear)"/>
<path d="M255.693 38.3081H250.136C250.136 37.6792 250.136 37.129 250.136 36.6049C250.031 33.6178 251.368 31.2072 254.146 29.3468C256.715 27.3816 257.947 25.5474 257.842 23.7919C257.527 21.6433 256.243 20.4379 253.989 20.2545C251.001 20.1497 249.14 21.9577 248.432 25.6523L242.246 24.4207C243.688 17.7391 247.908 14.49 254.906 14.6996C260.882 15.014 264.106 17.7915 264.631 23.032C264.84 26.3335 263.084 29.2158 259.388 31.6788C256.715 33.3296 255.483 35.1376 255.693 37.0766C255.693 37.4958 255.693 37.915 255.693 38.3081ZM256.295 47.4266H249.664V41.0855H256.295V47.4266Z" fill="#1E2226"/>
<defs>
<linearGradient id="paint0_linear" x1="194.785" y1="183.543" x2="194.054" y2="111.882" gradientUnits="userSpaceOnUse">
<stop stop-color="#E9ECF6" stop-opacity="0"/>
<stop offset="1" stop-color="#C6D4EA"/>
</linearGradient>
<linearGradient id="paint1_linear" x1="123.522" y1="26.2942" x2="214.186" y2="150.268" gradientUnits="userSpaceOnUse">
<stop stop-color="#666B71"/>
<stop offset="1" stop-color="#1E2226"/>
</linearGradient>
<linearGradient id="paint2_linear" x1="190.565" y1="142.499" x2="197.144" y2="165.9" gradientUnits="userSpaceOnUse">
<stop stop-color="#676A71"/>
<stop offset="1" stop-color="#1E2226"/>
</linearGradient>
<linearGradient id="paint3_linear" x1="248.196" y1="0.443346" x2="258.732" y2="61.8001" gradientUnits="userSpaceOnUse">
<stop stop-color="#E9ECF6"/>
<stop offset="1" stop-color="#C6D4EA"/>
</linearGradient>
</defs>
</svg>
