<svg width="48" height="48" viewBox="0 0 48 48" fill="none" xmlns="http://www.w3.org/2000/svg">
<path d="M0 24C0 30.3652 2.52856 36.4697 7.02944 40.9706C11.5303 45.4714 17.6348 48 24 48C30.3652 48 36.4697 45.4714 40.9706 40.9706C45.4714 36.4697 48 30.3652 48 24C48 17.6348 45.4714 11.5303 40.9706 7.02944C36.4697 2.52856 30.3652 0 24 0C17.6348 0 11.5303 2.52856 7.02944 7.02944C2.52856 11.5303 0 17.6348 0 24H0Z" fill="#F0F0F0"/>
<path d="M4.96119 9.38831C3.07597 11.8411 1.65444 14.6681 0.826721 17.7393H13.3122L4.96119 9.38831ZM47.1732 17.7393C46.3454 14.6682 44.9238 11.8412 43.0387 9.38841L34.6879 17.7393H47.1732ZM0.826721 30.261C1.65453 33.3321 3.07606 36.1591 4.96119 38.6118L13.3119 30.261H0.826721ZM38.6116 4.96134C36.1588 3.07613 33.3319 1.65459 30.2608 0.826782V13.3121L38.6116 4.96134ZM9.38825 43.0387C11.841 44.9239 14.6681 46.3454 17.7391 47.1732V34.688L9.38825 43.0387ZM17.739 0.826782C14.668 1.65459 11.8409 3.07613 9.38825 4.96125L17.739 13.312V0.826782ZM30.2608 47.1732C33.3319 46.3454 36.1589 44.9239 38.6116 43.0387L30.2608 34.688V47.1732ZM34.6879 30.261L43.0387 38.6119C44.9238 36.1592 46.3454 33.3321 47.1732 30.261H34.6879Z" fill="#0052B4"/>
<path d="M47.7968 20.8696H27.1305V0.203156C26.0925 0.067913 25.0468 5.21444e-05 24 0C22.9532 4.29331e-05 21.9076 0.0679038 20.8696 0.203156V20.8695H0.203156C0.067913 21.9075 5.21444e-05 22.9532 0 24C0 25.0612 0.06975 26.1057 0.203156 27.1304H20.8695V47.7968C22.9477 48.0677 25.0522 48.0677 27.1304 47.7968V27.1305H47.7968C47.9321 26.0925 48 25.0468 48 24C48 22.939 47.9303 21.8943 47.7968 20.8696Z" fill="#D80027"/>
<path d="M30.261 30.261L40.9706 40.9706C41.4629 40.4777 41.9336 39.9636 42.3813 39.4299L33.2124 30.2609H30.261V30.261ZM17.7391 30.261H17.739L7.02943 40.9706C7.52236 41.4629 8.03644 41.9336 8.57021 42.3813L17.7391 33.2122V30.261ZM17.7391 17.7393V17.7391L7.02952 7.0294C6.53719 7.52232 6.06649 8.0364 5.61877 8.57018L14.7878 17.7392H17.7391V17.7393ZM30.261 17.7393L40.9707 7.02949C40.4778 6.53716 39.9637 6.0665 39.4299 5.61884L30.261 14.7879V17.7393Z" fill="#D80027"/>
</svg>
