<svg width="20" height="20" viewBox="0 0 20 20" fill="none" xmlns="http://www.w3.org/2000/svg">
<path fill-rule="evenodd" clip-rule="evenodd" d="M4 0C1.79086 0 0 1.79086 0 4V16C0 18.2091 1.79086 20 4 20H16C18.2091 20 20 18.2091 20 16V4C20 1.79086 18.2091 0 16 0H4ZM5.63748 8.97879C3.1599 15.0307 8.70331 16.25 8.70331 16.25C7.34931 14.88 8.70331 13.3622 8.70475 13.3608C9.18995 12.7637 10.0015 11.07 10.0015 11.07C13.4438 14.2327 11.8207 16.0756 11.8207 16.0756C17.2353 14.2578 14.0936 8.87974 14.0936 8.87974C13.7873 7.83343 14.0936 7.13588 14.0936 7.13588C13.0974 7.26144 12.6122 8.53097 12.6122 8.53097C12.19 4.5466 8.39702 3.75 8.39702 3.75C9.16276 4.5466 8.33261 6.75084 7.51534 7.53488C6.56352 8.44727 6.12269 9.97489 6.12269 9.97489C6.19998 9.65123 5.63748 8.97879 5.63748 8.97879Z" fill="url(#paint0_linear)"/>
<defs>
<linearGradient id="paint0_linear" x1="10" y1="0" x2="10" y2="20" gradientUnits="userSpaceOnUse">
<stop stop-color="#FFD700"/>
<stop offset="1" stop-color="#F5841F"/>
</linearGradient>
</defs>
</svg>
