<svg width="20" height="20" viewBox="0 0 20 20" fill="none" xmlns="http://www.w3.org/2000/svg">
<path d="M6.56227 19C5.37477 16.5 5.99977 15.0625 6.93727 13.75C7.93727 12.25 8.18727 10.8125 8.18727 10.8125C8.18727 10.8125 8.99977 11.8125 8.68727 13.4375C10.0623 11.875 10.3123 9.375 10.1248 8.4375C13.2498 10.625 14.6248 15.4375 12.8123 18.9375C22.4373 13.4375 15.1873 5.25 13.9373 4.375C14.3748 5.3125 14.4373 6.875 13.5623 7.625C12.1248 2.125 8.56227 1.0625 8.56227 1.0625C8.99977 3.875 7.06227 6.9375 5.18727 9.25C5.12477 8.125 5.06227 7.375 4.43727 6.25C4.31227 8.3125 2.74977 9.9375 2.31227 12C1.74977 14.8125 2.74977 16.8125 6.56227 19Z" fill="#F0B80B"/>
</svg>
