<svg width="36" height="36" viewBox="0 0 36 36" fill="none" xmlns="http://www.w3.org/2000/svg">
<path fill-rule="evenodd" clip-rule="evenodd" d="M2.88588e-05 18.0088C0.0176471 28.0169 8.06331 36.0234 18.0822 36C28.013 35.9706 36.0117 27.9054 36 17.9383C35.9882 8.05934 27.9308 0 18.0705 0C8.03395 0 -0.0175894 8.02412 2.88588e-05 18.0088ZM22.945 15.866C22.5044 15.4005 22.0665 14.9438 21.6327 14.4913L21.6326 14.4913C20.6441 13.4602 19.6767 12.4512 18.7462 11.4109C18.1989 10.8012 17.8453 10.7889 17.3147 11.3525C17.8471 10.795 18.1946 10.8094 18.74 11.4169C19.7174 12.5095 20.7324 13.5678 21.7735 14.6532L21.7736 14.6533C22.1586 15.0548 22.5473 15.4601 22.939 15.8721L22.945 15.866ZM25.4315 12.9551C24.6949 12.2106 23.9653 11.4726 23.2442 10.7432C22.3075 9.79588 21.3851 8.86291 20.48 7.94857C22.0785 9.56801 23.7352 11.2441 25.4315 12.9551ZM18.047 5.49427C16.6169 6.90723 15.1757 8.32939 13.7525 9.7338L13.7493 9.737C12.6392 10.8325 11.54 11.9171 10.4656 12.9782C11.0678 13.6429 11.6871 14.3249 12.3842 15.0924L13.0494 15.8248L13.0434 15.8311L12.3784 15.0988C11.6812 14.3311 11.0617 13.6491 10.4594 12.9842L11.8856 11.5756L11.8859 11.5753L11.8912 11.5701L11.8925 11.5688C13.9078 9.57833 15.985 7.52671 18.047 5.4942L18.047 5.49427ZM13.7607 15.0859C13.9588 14.8808 14.1562 14.6769 14.3528 14.4736C15.2853 13.51 16.2014 12.5634 17.0929 11.5941C16.2073 12.5607 15.2925 13.5047 14.3615 14.4654C14.162 14.6714 13.9616 14.8781 13.7607 15.0859ZM10.4595 22.9043L10.5013 22.9466L10.4594 22.9043C11.0858 22.2733 11.7755 21.587 12.642 20.7287C11.7816 21.5885 11.0909 22.278 10.4595 22.9043ZM14.4078 21.4126C14.0128 20.9869 13.6203 20.564 13.2342 20.1425L13.2372 20.1395C13.5874 20.5202 13.9425 20.902 14.2995 21.286L14.2995 21.2861L14.2996 21.2861L14.2997 21.2862L14.2997 21.2863C15.3135 22.3766 16.3431 23.484 17.3246 24.63C17.7693 25.1461 18.0815 25.1798 18.4611 24.8958C18.0817 25.1857 17.7649 25.1525 17.3189 24.63C16.3711 23.5283 15.3818 22.4622 14.4079 21.4127L14.4078 21.4126ZM25.5407 23.0623L25.5376 23.059L25.5376 23.059C24.7017 22.1651 23.866 21.2713 23.0534 20.4008L23.0564 20.3978C23.8727 21.2724 24.7126 22.1705 25.5524 23.0686C23.0858 25.4811 20.5194 27.9934 17.9765 30.4881L17.9737 30.4853C20.5157 27.9974 23.0869 25.4803 25.5466 23.0687L25.5437 23.0655L25.5407 23.0623ZM15.4219 17.8562C16.1618 17.14 17.0662 16.2654 18.0529 15.3145L18.0529 15.3145C17.4744 15.8754 16.9205 16.4097 16.4115 16.9007L16.4111 16.9011C16.0574 17.2423 15.7254 17.5625 15.4221 17.8561C16.2912 18.848 17.1075 19.7813 17.8944 20.6853L17.8943 20.6854C17.1015 19.7815 16.291 18.854 15.4219 17.8562ZM17.9077 20.672C18.4016 20.1753 18.8727 19.6999 19.339 19.2294L19.3396 19.2287L19.3403 19.228L19.3432 19.225L19.3526 19.2156C19.7274 18.8374 20.0992 18.4622 20.4773 18.0815C19.6243 18.9395 18.8035 19.7658 17.9077 20.672ZM10.5709 17.9735C9.70173 17.1341 8.80911 16.2772 7.93409 15.4378L7.93411 15.4378C8.80328 16.2713 9.70181 17.1342 10.571 17.9736L10.5701 17.9744L10.5701 17.9745L10.5683 17.9762L10.3013 18.2431L10.5709 17.9735ZM7.86364 20.6854L7.86356 20.6854L7.88988 20.659L7.86364 20.6854ZM26.1395 17.2816C25.8878 17.5298 25.634 17.7794 25.3762 18.0323C26.2688 18.9245 27.1439 19.7932 27.9426 20.5857C27.9436 20.5847 27.9445 20.5837 27.9455 20.5827C27.5358 20.1761 27.1075 19.7495 26.6662 19.3099C26.2483 18.8937 25.8187 18.4658 25.3823 18.0324C25.6376 17.7788 25.8894 17.5292 26.1395 17.2816ZM28.113 15.3323C28.113 15.3322 28.1129 15.3322 28.1129 15.3321C27.968 15.475 27.8242 15.6171 27.681 15.7586C27.7557 15.6849 27.8306 15.6109 27.9058 15.5368L28.113 15.3323Z" fill="#0A51BE"/>
<path fill-rule="evenodd" clip-rule="evenodd" d="M20.6061 13.1539C20.6061 9.64148 18.8943 6.62095 17.5922 5.63734C17.5869 5.63425 17.4926 5.58124 17.5006 5.7217L17.4988 5.72603C17.3906 12.5077 13.9245 14.3458 12.0189 16.8219C7.62128 22.5358 11.711 28.8005 15.8757 29.9583C18.2059 30.6062 15.3375 28.812 14.9682 25.0224C14.5214 20.442 20.6061 16.9456 20.6061 13.1539Z" fill="#F0F0F0"/>
<path fill-rule="evenodd" clip-rule="evenodd" d="M22.6041 15.4629C22.5775 15.4448 22.5395 15.4324 22.5133 15.4757C22.4417 16.3294 21.5693 18.1555 20.4635 19.8324C16.713 25.5201 18.8503 28.262 20.0521 29.7346C20.7499 30.5895 20.0521 29.7346 21.7963 28.8609C21.9329 28.7925 25.1995 26.9614 25.5532 22.7894C25.8957 18.7493 23.4681 16.2028 22.6041 15.4629Z" fill="#2EA7E0"/>
</svg>
