<svg width="24" height="24" viewBox="0 0 24 24" fill="none" xmlns="http://www.w3.org/2000/svg">
<path d="M12 0C5.3544 0 0 5.3544 0 12C0 18.6456 5.3544 24 12 24C18.6456 24 24 18.6456 24 12C24 5.3544 18.6456 0 12 0ZM17.8152 8.5848C17.7228 8.6772 17.7228 8.7696 17.6304 8.7696C17.4456 8.9544 17.2608 9.0468 17.076 9.1392C16.9836 9.1392 16.9836 9.2316 16.9836 9.324C17.076 10.3392 16.8912 11.3544 16.5216 12.3696C15.876 14.124 14.4912 15.5076 12.8292 16.3392C11.4444 17.1696 9.7836 17.4468 8.3064 17.0772C7.5684 16.9848 6.9216 16.7076 6.3684 16.3392L6.276 16.2468C6.276 16.1544 6.3684 16.062 6.4608 16.062C6.9228 16.062 7.3836 15.9696 7.8456 15.7848C8.3076 15.6 8.7684 15.3228 9.138 15.0468L9.2304 14.9544C9.2304 14.862 9.2304 14.7696 9.138 14.7696C8.7684 14.6772 8.4924 14.4924 8.2152 14.3076C7.8456 14.1228 7.5696 13.7532 7.3848 13.3848V13.2924C7.3848 13.2 7.4772 13.1076 7.5696 13.1076H7.8468C7.9392 13.1076 7.9392 13.1076 7.9392 13.0152C8.0316 12.9228 7.9392 12.8304 7.8468 12.738C7.4772 12.5532 7.2012 12.276 6.924 12C6.5544 11.6304 6.3696 11.1696 6.3696 10.7076V10.6152C6.3696 10.5228 6.5544 10.5228 6.5544 10.5228C6.6468 10.5228 6.7392 10.6152 6.8316 10.6152H7.0164C7.1088 10.6152 7.1088 10.6152 7.2012 10.5228C7.2936 10.4304 7.2936 10.338 7.2012 10.2456C6.8316 9.876 6.5556 9.4152 6.4632 8.8608C6.3708 8.3988 6.4632 7.8456 6.648 7.3836V7.2912C6.4632 7.3836 6.5556 7.3836 6.648 7.476C7.2936 8.1216 7.9404 8.676 8.7708 9.138C9.6936 9.6 10.7088 9.876 11.7252 9.876C11.8176 9.876 11.91 9.7836 11.91 9.6912C11.91 9.1368 12.0948 7.2912 13.7556 6.8292C14.586 6.552 15.6012 6.7368 16.248 7.4748C16.248 7.4748 16.3404 7.5672 16.4328 7.5672C16.6176 7.5672 16.8024 7.4748 17.0784 7.4748C17.2632 7.3824 17.448 7.3824 17.6328 7.29H17.8176C17.91 7.29 17.91 7.4748 17.91 7.5672C17.8176 7.752 17.6328 7.9368 17.448 8.1216L17.3556 8.214C17.2632 8.214 17.2632 8.3064 17.2632 8.3988C17.2632 8.4912 17.3556 8.5836 17.448 8.5836C17.5404 8.5836 17.6328 8.5836 17.8176 8.4912H18C17.9076 8.4 17.9076 8.5848 17.8152 8.5848Z" fill="#F0B80B"/>
</svg>
