<svg width="24" height="24" viewBox="0 0 24 24" fill="none" xmlns="http://www.w3.org/2000/svg">
<path d="M12 0C5.4 0 0 5.4 0 12C0 18.6 5.4 24 12 24C18.6 24 24 18.6 24 12C24 5.4 18.6 0 12 0ZM17.028 15.672C17.028 15.816 17.184 15.972 17.184 16.344L18.156 17.088H13.956L14.928 16.344C15.072 16.188 15.156 16.044 15.156 15.888C15.228 15.588 15.228 15.36 15.228 15.06V9.3C15.228 9.228 15.156 9.228 15.084 9.228C15.012 9.228 14.928 9.228 14.928 9.3L12.672 14.544C12.528 14.916 12.372 15.288 12.216 15.744C12.06 16.2 11.916 16.572 11.76 17.016H11.304L7.872 9.144C7.8 9.144 7.8 9.072 7.728 9.072C7.656 9 7.656 9.072 7.656 9.144V14.916C7.656 15.216 7.656 15.516 7.728 15.816C7.8 15.972 7.872 16.116 8.028 16.272C8.1 16.344 8.256 16.416 8.328 16.416L9.228 16.944H5.4L6.444 16.416L6.588 16.272C6.732 16.2 6.816 15.972 6.816 15.816C6.888 15.516 6.888 15.216 6.888 14.916V8.4C6.888 8.1 6.888 7.872 6.816 7.656C6.816 7.428 6.744 7.284 6.588 7.2C6.588 7.128 6.516 7.056 6.444 7.056L5.328 6.6H8.772L11.916 14.028C11.916 14.1 11.988 14.1 11.988 14.1L12.06 14.028L15.228 6.6H18.528L17.328 7.128L17.1 7.356C17.028 7.5 16.944 7.728 16.944 7.956V14.856C16.944 15.144 16.944 15.372 17.028 15.672Z" fill="#F0B80B"/>
</svg>
