<svg width="24" height="24" viewBox="0 0 24 24" fill="none" xmlns="http://www.w3.org/2000/svg">
<path d="M15.924 17.5044L17.8932 8.2236C18.0672 7.4064 17.598 7.0848 17.0628 7.2864L5.4912 11.7456C4.7004 12.0528 4.7148 12.4956 5.358 12.696L8.3172 13.62L15.1884 9.294C15.51 9.0792 15.8052 9.2004 15.564 9.4152L10.0068 14.4372L9.792 17.4912C10.0992 17.4912 10.2348 17.358 10.3944 17.196L11.8404 15.8028L14.8404 18.012C15.3888 18.3204 15.7776 18.1608 15.924 17.5044ZM24 12C24 18.6288 18.6288 24 12 24C5.3712 24 0 18.6288 0 12C0 5.3712 5.3712 0 12 0C18.6288 0 24 5.3712 24 12Z" fill="#F0B80B"/>
</svg>
