<svg width="24" height="24" viewBox="0 0 24 24" fill="none" xmlns="http://www.w3.org/2000/svg">
<g clip-path="url(#clip0)">
<path d="M0 12C0 17.2372 3.36336 21.6937 8.03604 23.3273C8.66066 23.4835 8.56456 23.039 8.56456 22.7387V20.6607C4.92493 21.0931 4.78078 18.6787 4.52853 18.2823C4.03604 17.4414 2.87087 17.2252 3.21922 16.8168C4.04805 16.3844 4.88889 16.9249 5.87387 18.3664C6.58258 19.4114 7.96396 19.2312 8.66066 19.0631C8.81682 18.4384 9.12913 17.8739 9.5976 17.4294C5.82583 16.7568 4.25225 14.4505 4.25225 11.7117C4.25225 10.3904 4.6967 9.16516 5.54955 8.18018C5.00901 6.55856 5.5976 5.16517 5.68168 4.96096C7.24324 4.81682 8.85285 6.07808 8.98499 6.17417C9.87387 5.93393 10.8829 5.81381 12.012 5.81381C13.1532 5.81381 14.1622 5.94595 15.0511 6.18619C15.3514 5.95796 16.8529 4.87688 18.3063 5.00901C18.3784 5.21321 18.967 6.57057 18.4505 8.16817C19.3153 9.15315 19.7598 10.3904 19.7598 11.7237C19.7598 14.4625 18.1742 16.7688 14.4024 17.4294C15.0511 18.0781 15.4234 18.955 15.4234 19.8679V22.8829C15.4474 23.1231 15.4234 23.3634 15.8318 23.3634C20.5766 21.7658 24 17.2733 24 11.988C24 5.36937 18.6306 0 12 0C5.36937 0 0 5.36937 0 12Z" fill="#F0B80B"/>
</g>
<defs>
<clipPath id="clip0">
<rect width="24" height="23.3754" fill="white"/>
</clipPath>
</defs>
</svg>
