<svg width="24" height="24" viewBox="0 0 24 24" fill="none" xmlns="http://www.w3.org/2000/svg">
<path d="M22.3977 12.5455H1.75564C1.29541 12.5455 0.92041 12.1705 0.92041 11.7102C0.92041 11.25 1.29541 10.875 1.75564 10.875H22.3977C22.8579 10.875 23.2329 11.25 23.2329 11.7102C23.25 12.1705 22.875 12.5455 22.3977 12.5455Z" fill="#F0B80B"/>
<path d="M11.1479 22.3296V1.68752C11.1479 1.22729 11.5229 0.852295 11.9832 0.852295C12.4434 0.852295 12.8184 1.22729 12.8184 1.68752V22.3296C12.8184 22.7898 12.4434 23.1648 11.9832 23.1648C11.5229 23.1648 11.1479 22.7898 11.1479 22.3296Z" fill="#F0B80B"/>
<path d="M12 24C5.38636 24 0 18.6136 0 12C0 5.38636 5.38636 0 12 0C18.6136 0 24 5.38636 24 12C24 18.6136 18.6136 24 12 24ZM12 1.63636C6.28977 1.63636 1.63636 6.28977 1.63636 12C1.63636 17.7102 6.28977 22.3636 12 22.3636C17.7102 22.3636 22.3636 17.7102 22.3636 12C22.3636 6.28977 17.7102 1.63636 12 1.63636Z" fill="#F0B80B"/>
<path d="M10.2275 23.6079C-0.613403 10.2784 10.2105 0.426125 10.3127 0.323853L11.4036 1.55113L10.8582 0.937489L11.4036 1.55113C10.9946 1.90908 1.65364 10.4829 11.4889 22.5852L10.2275 23.6079ZM14.0627 23.6079L12.8014 22.5852C22.6366 10.5 13.2957 1.92613 12.8866 1.55113L13.9775 0.323853C14.0798 0.426125 24.9036 10.2954 14.0627 23.6079Z" fill="#F0B80B"/>
</svg>
