<svg width="162" height="200" viewBox="0 0 162 200" fill="none" xmlns="http://www.w3.org/2000/svg">
<path d="M0 200H11.0348V184.244H25.6421V200H36.6769V159.664H25.6421V175.42H11.0348V159.664H0V200Z" fill="white"/>
<path d="M57.5557 200C69.9401 200 77.7995 192.437 77.7995 179.832C77.7995 167.227 69.9401 159.664 57.3969 159.664H41.9164V200H57.5557ZM52.9513 190.704V168.96H56.8412C63.1922 168.96 66.6852 171.403 66.6852 179.832C66.6852 188.262 63.1922 190.704 57.1588 190.704H52.9513Z" fill="white"/>
<path d="M82.905 200H112.12V191.177H93.9399V184.244H110.691V175.42H93.9399V168.488H112.199V159.664H82.905V200Z" fill="white"/>
<path d="M117.672 200H128.706V184.244H144.505V175.42H128.706V168.488H146.251V159.664H117.672V200Z" fill="white"/>
<path d="M161.345 159.664H150.31V200H161.345V159.664Z" fill="white"/>
<circle cx="68.3747" cy="54.9293" r="54.9293" fill="#0A51BE"/>
<circle cx="106.825" cy="71.4079" r="41.1969" fill="#F2C94C"/>
</svg>
