<svg width="279" height="48" viewBox="0 0 279 48" fill="none" xmlns="http://www.w3.org/2000/svg">
    <path
        d="M71.9716 18.5455H79.8466V39H86.8523V18.5455H94.7273V12.8182H71.9716V18.5455ZM104.117 39.358C110.509 39.358 114.293 35.267 114.293 29.233C114.293 23.1989 110.509 19.108 104.117 19.108C97.7251 19.108 93.9411 23.1989 93.9411 29.233C93.9411 35.267 97.7251 39.358 104.117 39.358ZM104.168 34.142C102.276 34.142 101.151 32.2628 101.151 29.1818C101.151 26.1009 102.276 24.2216 104.168 24.2216C105.958 24.2216 107.083 26.1009 107.083 29.1818C107.083 32.2628 105.958 34.142 104.168 34.142ZM117.157 39H124.214V33.4261L125.275 32.0838L129.276 39H137.356L130.478 27.9673L137.151 19.3636H129.225L124.469 25.9602H124.214V12.8182H117.157V39ZM147.589 39.358C153.036 39.358 156.538 36.75 157.203 32.6591H150.76C150.351 33.7713 149.188 34.3977 147.743 34.3977C145.646 34.3977 144.419 33.017 144.419 31.125V30.8182H157.203V29.1818C157.203 22.9304 153.368 19.108 147.436 19.108C141.351 19.108 137.464 23.1477 137.464 29.233C137.464 35.5866 141.3 39.358 147.589 39.358ZM144.419 26.9318C144.457 25.2315 145.864 24.0682 147.589 24.0682C149.341 24.0682 150.67 25.2443 150.709 26.9318H144.419ZM167.14 27.9545C167.152 26.0114 168.252 24.8352 170.003 24.8352C171.78 24.8352 172.828 26.0114 172.816 27.9545V39H179.873V26.4716C179.885 22.2017 177.188 19.108 173.02 19.108C170.131 19.108 167.843 20.6165 166.986 23.0966H166.782V19.3636H160.083V39H167.14V27.9545ZM201.305 25.7557C201.126 21.6009 197.674 19.108 191.998 19.108C186.386 19.108 182.922 21.4091 182.947 25.5C182.922 28.5938 184.929 30.5753 188.93 31.2784L192.407 31.892C193.941 32.1733 194.632 32.5824 194.657 33.3239C194.632 34.142 193.699 34.6023 192.407 34.6023C190.809 34.6023 189.684 33.9119 189.493 32.6591H182.487C182.87 36.6861 186.348 39.358 192.356 39.358C197.789 39.358 201.791 36.7116 201.816 32.5057C201.791 29.6037 199.848 27.9162 195.833 27.1875L191.845 26.4716C190.349 26.2031 189.927 25.6662 189.953 25.0909C189.927 24.2727 190.937 23.8125 192.152 23.8125C193.545 23.8125 194.708 24.554 194.811 25.7557H201.305ZM207.998 39H215.617L218.378 28.4659H218.583L221.344 39H228.963L233.873 19.3636H226.816L224.668 31.2273H224.515L221.907 19.3636H215.054L212.549 31.3295H212.395L210.145 19.3636H203.088L207.998 39ZM241.492 39.3068C244.049 39.3068 245.979 38.4375 247.168 36.2386H247.321V39H253.918V25.5511C253.918 21.9205 250.479 19.108 244.867 19.108C238.999 19.108 236.11 22.1761 235.867 25.7557H242.361C242.527 24.5412 243.422 23.9659 244.765 23.9659C245.992 23.9659 246.861 24.5284 246.861 25.5511V25.6023C246.861 26.7401 245.608 27.098 242.31 27.3409C238.257 27.6349 235.1 29.2713 235.1 33.5795C235.1 37.4915 237.733 39.3068 241.492 39.3068ZM243.793 34.858C242.591 34.858 241.748 34.2699 241.748 33.1705C241.748 32.1605 242.463 31.3807 244.1 31.125C245.225 30.946 246.171 30.7159 246.912 30.4091V32.0455C246.912 33.8352 245.391 34.858 243.793 34.858ZM257.29 46.3636H264.347V35.7784H264.449C265.267 37.7727 267.159 39.2557 269.92 39.2557C274.114 39.2557 277.642 35.983 277.642 29.1818C277.642 22.0739 273.858 19.108 269.972 19.108C267.057 19.108 265.216 20.7955 264.449 22.7898H264.295V19.3636H257.29V46.3636ZM264.193 29.1818C264.193 26.267 265.369 24.5284 267.312 24.5284C269.256 24.5284 270.381 26.267 270.381 29.1818C270.381 32.0966 269.256 33.8352 267.312 33.8352C265.369 33.8352 264.193 32.0455 264.193 29.1818Z"
        fill="white" />
    <circle cx="20" cy="20" r="20" fill="#0A51BE" />
    <circle cx="34" cy="26" r="15" fill="#F2C94C" />
</svg>