<svg width="20" height="20" viewBox="0 0 20 20" fill="none" xmlns="http://www.w3.org/2000/svg">
<path d="M16.6667 0H3.33333C1.5 0 0 1.49725 0 3.32723V18.8488C0 19.8802 1.23333 20.3793 1.96667 19.6639L4.3 17.3349C4.75 16.8857 5.36667 16.6362 6 16.6362H16.6667C18.5 16.6362 20 15.1389 20 13.3089V3.32723C20 1.48062 18.5 0 16.6667 0ZM15 12.4771C15 12.9429 14.6333 13.3089 14.1667 13.3089C14.05 13.3089 13.9333 13.2923 13.8333 13.2424C13.6667 13.2091 13.5167 13.1426 13.4 13.0095L6.66667 6.28847V12.4771C6.66667 12.9429 6.3 13.3089 5.83333 13.3089C5.36667 13.3089 5 12.9429 5 12.4771V4.37531C4.95 4.09249 5.01667 3.79304 5.23333 3.56014C5.6 3.19414 6.16667 3.19414 6.53333 3.56014L13.3333 10.3477V4.15904C13.3333 3.69323 13.7 3.32723 14.1667 3.32723C14.6333 3.32723 15 3.69323 15 4.15904V12.4771Z" fill="url(#paint0_linear)"/>
<defs>
<linearGradient id="paint0_linear" x1="10" y1="0" x2="10" y2="20" gradientUnits="userSpaceOnUse">
<stop stop-color="#21DAB6"/>
<stop offset="1" stop-color="#F2C94C"/>
</linearGradient>
</defs>
</svg>
