<svg width="48" height="48" viewBox="0 0 48 48" fill="none" xmlns="http://www.w3.org/2000/svg">
<circle cx="24" cy="24" r="24" fill="#C1312C"/>
<path d="M34.5 19.3636L36.375 22.2614L39.7841 21.2386L37.7386 24.1364L39.7841 27.0341L36.375 25.8409L34.1591 28.7386L34.3295 25.1591L30.9205 23.9659L34.3295 22.9432L34.5 19.3636ZM23.0795 33.5114C17.7955 33.5114 13.5341 29.25 13.5341 23.9659C13.5341 18.6818 17.7955 14.4205 23.0795 14.4205C25.4659 14.4205 27.8523 15.4432 29.5568 16.9773C27.3409 14.0795 23.9318 12.375 20.1818 12.375C13.7045 12.375 8.25 17.6591 8.25 24.3068C8.25 30.7841 13.5341 36.2386 20.1818 36.2386C24.2727 36.2386 27.8523 34.1932 29.8977 31.125C28.1932 32.4886 25.8068 33.5114 23.0795 33.5114Z" fill="white"/>
</svg>
