<svg width="164" height="38" viewBox="0 0 164 38" fill="none" xmlns="http://www.w3.org/2000/svg">
<path fill-rule="evenodd" clip-rule="evenodd" d="M1.29438 6.48375C0 9.025 0 12.35 0 19C0 25.65 0 28.975 1.29438 31.5163C2.43438 33.7488 4.25125 35.5656 6.48375 36.7056C9.025 38 12.35 38 19 38C25.65 38 28.975 38 31.5163 36.7056C33.7488 35.5656 35.5656 33.7488 36.7056 31.5163C38 28.975 38 25.65 38 19C38 12.35 38 9.025 36.7056 6.48375C35.5656 4.25125 33.7488 2.43438 31.5163 1.29438C28.975 0 25.65 0 19 0C12.35 0 9.025 0 6.48375 1.29438C4.25125 2.43438 2.43438 4.25125 1.29438 6.48375ZM28.4822 10.2481C28.8147 10.2481 29.1294 10.3847 29.361 10.6163C29.5925 10.8538 29.7232 11.1744 29.7172 11.5009C29.6579 15.0397 29.5213 17.7472 29.266 19.8906C29.0166 22.0341 28.6425 23.6253 28.0785 24.9138C27.6985 25.7747 27.2294 26.4872 26.6772 27.0928C25.935 27.8944 25.086 28.4763 24.1597 29.0285C23.7637 29.2653 23.352 29.4991 22.9201 29.7444C21.9986 30.2677 20.9854 30.8431 19.8372 31.6113C19.4216 31.8903 18.8813 31.8903 18.4657 31.6113C17.2999 30.8341 16.2733 30.2516 15.3434 29.7241C15.1366 29.6068 14.9346 29.4922 14.7369 29.3788C13.6504 28.7494 12.6707 28.1497 11.8157 27.2828C11.2457 26.7128 10.7529 26.0181 10.361 25.1928C9.82661 24.0884 9.46442 22.7525 9.19724 21.0247C8.84098 18.715 8.66286 15.6928 8.59755 11.5009C8.59161 11.1744 8.7163 10.8538 8.94786 10.6163C9.17942 10.3847 9.50005 10.2481 9.83255 10.2481H10.3432C11.9166 10.2541 15.39 10.0997 18.3944 7.76032C18.8397 7.41594 19.4632 7.41594 19.9085 7.76032C22.9129 10.0997 26.3863 10.2541 27.9657 10.2481H28.4822ZM25.7213 24.1241C26.1072 23.3284 26.4279 22.23 26.6713 20.6506C26.9622 18.7625 27.1404 16.1975 27.2235 12.7063C25.371 12.6528 22.1885 12.2966 19.1544 10.2541C16.1204 12.2906 12.9379 12.6469 11.0913 12.7063C11.1566 15.5919 11.2872 17.8363 11.495 19.5997C11.7325 21.6066 12.071 22.9663 12.4925 23.9222C12.7716 24.5575 13.0804 25.0147 13.4485 25.4184C13.9413 25.9588 14.5647 26.4041 15.4138 26.9147C15.766 27.126 16.1543 27.3458 16.577 27.5851C17.3301 28.0113 18.1923 28.4993 19.1544 29.1116C20.0988 28.5093 20.9486 28.0263 21.6929 27.6032C21.9173 27.4757 22.132 27.3536 22.3369 27.2353C23.3819 26.6356 24.1538 26.1369 24.7297 25.555C25.1157 25.1572 25.4304 24.7238 25.7213 24.1241Z" fill="#3375BB"/>
<path d="M53.3322 15.2083H49.0762V12.7003H60.6662V15.2083H56.4102V26.0003H53.3322V15.2083ZM64.1517 17.1273C64.5063 16.6333 64.9813 16.2596 65.5767 16.0063C66.1847 15.753 66.8813 15.6263 67.6667 15.6263V18.3623C67.3373 18.337 67.1157 18.3243 67.0017 18.3243C66.153 18.3243 65.488 18.565 65.0067 19.0463C64.5253 19.515 64.2847 20.2243 64.2847 21.1743V26.0003H61.3207V15.7783H64.1517V17.1273ZM79.2313 15.7783V26.0003H76.4193V24.7843C76.0266 25.2276 75.558 25.5696 75.0133 25.8103C74.4686 26.0383 73.8796 26.1523 73.2463 26.1523C71.9036 26.1523 70.8396 25.766 70.0543 24.9933C69.2689 24.2206 68.8763 23.0743 68.8763 21.5543V15.7783H71.8403V21.1173C71.8403 22.764 72.5306 23.5873 73.9113 23.5873C74.6206 23.5873 75.1906 23.3593 75.6213 22.9033C76.052 22.4346 76.2673 21.7443 76.2673 20.8323V15.7783H79.2313ZM84.8462 26.1523C83.9976 26.1523 83.1679 26.051 82.3572 25.8483C81.5466 25.633 80.9006 25.367 80.4192 25.0503L81.4072 22.9223C81.8632 23.2136 82.4142 23.4543 83.0602 23.6443C83.7062 23.8216 84.3396 23.9103 84.9602 23.9103C86.2142 23.9103 86.8412 23.6 86.8412 22.9793C86.8412 22.688 86.6702 22.479 86.3282 22.3523C85.9862 22.2256 85.4606 22.118 84.7512 22.0293C83.9152 21.9026 83.2249 21.757 82.6802 21.5923C82.1356 21.4276 81.6606 21.1363 81.2552 20.7183C80.8626 20.3003 80.6662 19.705 80.6662 18.9323C80.6662 18.2863 80.8499 17.7163 81.2172 17.2223C81.5972 16.7156 82.1419 16.323 82.8512 16.0443C83.5732 15.7656 84.4219 15.6263 85.3972 15.6263C86.1192 15.6263 86.8349 15.7086 87.5442 15.8733C88.2662 16.0253 88.8616 16.2406 89.3302 16.5193L88.3422 18.6283C87.4429 18.1216 86.4612 17.8683 85.3972 17.8683C84.7639 17.8683 84.2889 17.957 83.9722 18.1343C83.6556 18.3116 83.4972 18.5396 83.4972 18.8183C83.4972 19.135 83.6682 19.3566 84.0102 19.4833C84.3522 19.61 84.8969 19.7303 85.6442 19.8443C86.4802 19.9836 87.1642 20.1356 87.6962 20.3003C88.2282 20.4523 88.6906 20.7373 89.0832 21.1553C89.4759 21.5733 89.6722 22.156 89.6722 22.9033C89.6722 23.5366 89.4822 24.1003 89.1022 24.5943C88.7222 25.0883 88.1649 25.4746 87.4302 25.7533C86.7082 26.0193 85.8469 26.1523 84.8462 26.1523ZM97.524 25.5063C97.2327 25.7216 96.8717 25.8863 96.441 26.0003C96.023 26.1016 95.5797 26.1523 95.111 26.1523C93.895 26.1523 92.9513 25.842 92.28 25.2213C91.6213 24.6006 91.292 23.6886 91.292 22.4853V18.2863H89.715V16.0063H91.292V13.5173H94.256V16.0063H96.802V18.2863H94.256V22.4473C94.256 22.878 94.3637 23.2136 94.579 23.4543C94.807 23.6823 95.1237 23.7963 95.529 23.7963C95.9977 23.7963 96.3967 23.6696 96.726 23.4163L97.524 25.5063ZM123.739 12.7003L119.388 26.0003H116.082L113.156 16.9943L110.135 26.0003H106.848L102.478 12.7003H105.67L108.672 22.0483L111.807 12.7003H114.657L117.697 22.1243L120.794 12.7003H123.739ZM128.041 15.6263C129.624 15.6263 130.84 16.0063 131.689 16.7663C132.538 17.5136 132.962 18.6473 132.962 20.1673V26.0003H130.188V24.7273C129.631 25.6773 128.592 26.1523 127.072 26.1523C126.287 26.1523 125.603 26.0193 125.02 25.7533C124.45 25.4873 124.013 25.12 123.709 24.6513C123.405 24.1826 123.253 23.6506 123.253 23.0553C123.253 22.1053 123.608 21.358 124.317 20.8133C125.039 20.2686 126.147 19.9963 127.642 19.9963H129.998C129.998 19.3503 129.802 18.8563 129.409 18.5143C129.016 18.1596 128.427 17.9823 127.642 17.9823C127.097 17.9823 126.559 18.071 126.027 18.2483C125.508 18.413 125.064 18.641 124.697 18.9323L123.633 16.8613C124.19 16.4686 124.855 16.1646 125.628 15.9493C126.413 15.734 127.218 15.6263 128.041 15.6263ZM127.813 24.1573C128.32 24.1573 128.769 24.0433 129.162 23.8153C129.555 23.5746 129.833 23.2263 129.998 22.7703V21.7253H127.965C126.749 21.7253 126.141 22.1243 126.141 22.9223C126.141 23.3023 126.287 23.6063 126.578 23.8343C126.882 24.0496 127.294 24.1573 127.813 24.1573ZM135.075 11.9023H138.039V26.0003H135.075V11.9023ZM140.219 11.9023H143.183V26.0003H140.219V11.9023ZM155.377 20.9273C155.377 20.9653 155.358 21.2313 155.32 21.7253H147.587C147.727 22.3586 148.056 22.859 148.575 23.2263C149.095 23.5936 149.741 23.7773 150.513 23.7773C151.045 23.7773 151.514 23.7013 151.919 23.5493C152.337 23.3846 152.724 23.1313 153.078 22.7893L154.655 24.4993C153.693 25.6013 152.287 26.1523 150.437 26.1523C149.285 26.1523 148.265 25.9306 147.378 25.4873C146.492 25.0313 145.808 24.4043 145.326 23.6063C144.845 22.8083 144.604 21.9026 144.604 20.8893C144.604 19.8886 144.839 18.9893 145.307 18.1913C145.789 17.3806 146.441 16.7536 147.264 16.3103C148.1 15.8543 149.031 15.6263 150.057 15.6263C151.058 15.6263 151.964 15.8416 152.774 16.2723C153.585 16.703 154.218 17.3236 154.674 18.1343C155.143 18.9323 155.377 19.8633 155.377 20.9273ZM150.076 17.8683C149.405 17.8683 148.841 18.0583 148.385 18.4383C147.929 18.8183 147.651 19.3376 147.549 19.9963H152.584C152.483 19.3503 152.204 18.8373 151.748 18.4573C151.292 18.0646 150.735 17.8683 150.076 17.8683ZM163.374 25.5063C163.082 25.7216 162.721 25.8863 162.291 26.0003C161.873 26.1016 161.429 26.1523 160.961 26.1523C159.745 26.1523 158.801 25.842 158.13 25.2213C157.471 24.6006 157.142 23.6886 157.142 22.4853V18.2863H155.565V16.0063H157.142V13.5173H160.106V16.0063H162.652V18.2863H160.106V22.4473C160.106 22.878 160.213 23.2136 160.429 23.4543C160.657 23.6823 160.973 23.7963 161.379 23.7963C161.847 23.7963 162.246 23.6696 162.576 23.4163L163.374 25.5063Z" fill="#3375BB"/>
</svg>
