<svg width="49" height="48" viewBox="0 0 49 48" fill="none" xmlns="http://www.w3.org/2000/svg">
<path d="M0.705344 18.3521C1.82464 13.7294 4.29227 9.54345 7.79495 6.32573C11.2976 3.10801 15.6774 1.0036 20.3783 0.279652C25.0792 -0.444296 29.8892 0.244863 34.1977 2.25964C38.5062 4.27442 42.1189 7.52396 44.5772 11.5957C47.0355 15.6675 48.2285 20.3779 48.0047 25.129C47.781 29.88 46.1506 34.4575 43.3206 38.2802C40.4905 42.103 36.5884 44.9986 32.1097 46.5996C27.6309 48.2005 22.7774 48.4346 18.1653 47.2721C15.1175 46.5241 12.2472 45.1819 9.71902 43.3224C7.19086 41.463 5.05454 39.1229 3.43251 36.4362C1.81048 33.7496 0.734642 30.7692 0.266659 27.6659C-0.201323 24.5627 -0.052247 21.3976 0.705344 18.3521Z" fill="#E72D14"/>
<path d="M25.3953 23.3021L24.2853 24.6521L22.6653 24.0821L23.5953 25.5521L22.4853 26.9021L24.1653 26.4821L25.1253 27.9521V26.2121L26.8353 25.7621L25.2153 25.1321L25.3953 23.3021ZM31.8753 19.6421H30.1353L29.5953 18.0821L29.0553 19.7621H27.3153L28.7253 20.7821L28.1853 22.4621L29.5953 21.4121L31.0053 22.4621L30.4653 20.7821L31.8753 19.6421ZM29.0253 13.2221L29.2953 15.0821L30.1053 13.5221L31.8453 13.7921L30.5853 12.5621L31.3953 11.0021L29.8953 11.6621L28.6653 10.4321L28.9353 12.1721L27.3753 12.9521L29.0253 13.2221ZM25.4253 5.2121L24.3153 6.5621L22.6653 5.9021L23.6253 7.4021L22.4853 8.7221L24.1953 8.3021L25.1253 9.7721V8.0321L26.8953 7.6121L25.2753 6.9521L25.4253 5.2121ZM13.2153 12.9221L11.5653 7.8521L9.91528 12.9221H4.60529L8.89528 16.0421L7.24528 21.0821L11.5653 18.0821L15.8553 21.0821L14.2053 16.0421L18.5253 13.0421L13.2153 12.9221Z" fill="#FFD700"/>
</svg>
