<svg width="32" height="32" viewBox="0 0 32 32" fill="none" xmlns="http://www.w3.org/2000/svg">
<circle cx="16" cy="16" r="16" fill="#3375E0"/>
<path d="M21.2153 8.11375C21.5108 7.94226 21.8019 7.76376 22.0953 7.58917C23.3966 8.01075 24.698 8.43274 25.9995 8.85512V23.5145C24.6978 23.9591 23.3962 24.4038 22.0949 24.8488C21.8019 24.6729 21.5089 24.4982 21.2166 24.3211C21.1187 23.485 20.8744 22.6752 20.6588 21.8635C20.4151 20.9416 20.1023 20.039 19.8605 19.1173C20.1611 18.6381 20.4205 18.1353 20.6819 17.6338C21.1174 18.8192 21.5287 20.0137 21.8979 21.2212C22.1045 21.9038 22.2996 22.5911 22.4279 23.2925C22.8111 23.0494 23.1944 22.8061 23.5778 22.5625C23.5765 18.3335 23.5763 14.1043 23.5772 9.87497C23.1709 9.63125 22.7641 9.38816 22.3567 9.14571C21.8059 11.6725 21.0867 14.1794 19.9968 16.5316C19.4556 17.6515 18.8332 18.7715 17.9005 19.6149C17.3453 20.1163 16.6013 20.4765 15.8369 20.369C14.9599 20.2532 14.2632 19.6291 13.71 18.9809C13.8712 18.4922 14.0835 18.0233 14.3183 17.5659C14.6854 18.1259 15.0993 18.7295 15.7483 18.9816C16.221 19.1639 16.7192 18.9105 17.0608 18.5881C17.6708 18.0143 18.0825 17.2682 18.4567 16.5282C19.0766 15.2692 19.5511 13.9438 19.981 12.6095C20.4541 11.129 20.8578 9.62658 21.2153 8.11375Z" fill="white"/>
<path d="M6.00048 8.92611C7.29456 8.47893 8.58907 8.03329 9.88401 7.58917C10.1773 7.7651 10.4703 7.94102 10.763 8.11695C10.8378 8.79052 11.022 9.44489 11.1909 10.0993C11.4708 11.1804 11.8242 12.2404 12.1208 13.3163C11.8214 13.798 11.5591 14.3014 11.2976 14.8049C10.8852 13.6815 10.4943 12.55 10.1403 11.4074C9.91191 10.6628 9.69312 9.91317 9.55303 9.14621C9.16864 9.38989 8.78306 9.63228 8.40038 9.87737C8.40098 14.1057 8.40098 18.3335 8.40038 22.561C8.80786 22.8137 9.21594 23.0644 9.62402 23.3165C9.96172 21.7191 10.3936 20.1431 10.9175 18.5967C11.3266 17.4087 11.7928 16.2345 12.3902 15.1272C12.8565 14.2726 13.3984 13.4365 14.1401 12.7936C14.703 12.3024 15.4601 11.9678 16.2177 12.1037C17.0634 12.2444 17.7277 12.8527 18.2706 13.4777C18.1113 13.9683 17.8951 14.4366 17.6622 14.8959C17.3001 14.3438 16.8939 13.7534 16.2622 13.4924C15.8305 13.3069 15.3514 13.5001 15.0174 13.7886C14.4411 14.2786 14.0502 14.942 13.6932 15.5985C12.8764 17.1677 12.3058 18.8507 11.7844 20.5368C11.3993 21.7875 11.0783 23.0567 10.7623 24.3251C10.4993 24.531 10.1884 24.6679 9.90821 24.8489C8.60573 24.4282 7.30336 24.0061 6.00108 23.5826C5.99988 18.6973 5.99968 13.8118 6.00048 8.92611Z" fill="white"/>
</svg>
