<svg width="200" height="56" viewBox="0 0 200 56" fill="none" xmlns="http://www.w3.org/2000/svg">
<g clip-path="url(#clip0)">
<path d="M25.1758 1.16603L1.16596 25.1833C-0.388929 26.7386 -0.388932 29.2604 1.16595 30.8157L25.1758 54.833C26.7307 56.3884 29.2517 56.3884 30.8066 54.833L54.8165 30.8157C56.3714 29.2604 56.3713 26.7386 54.8165 25.1833L30.8066 1.16603C29.2517 -0.389338 26.7307 -0.389338 25.1758 1.16603Z" fill="#F0B80B"/>
<path d="M28.342 16.0718C29.6462 16.1781 31.4674 16.2356 33.26 16.4913C35.5151 16.816 37.704 17.4482 39.5799 18.8361C40.9128 19.8304 41.9384 21.089 42.2975 22.7729C42.4985 23.7183 42.668 24.6752 42.8289 25.6293C42.9093 26.1034 42.6795 26.362 42.1969 26.2815C40.7606 26.0517 39.3501 25.8103 37.9339 25.543C37.703 25.483 37.5 25.3449 37.3593 25.1522C36.8997 24.5172 36.1384 24.2902 35.5524 24.7672C34.9664 25.2442 34.3832 25.2068 33.7053 25.1867C30.5683 25.0919 27.4284 25.0545 24.2886 25.0028C23.7141 25.0028 23.2401 25.0747 22.8523 24.3879C22.3553 23.5086 20.7753 23.6379 20.2669 24.5287C20.1468 24.7652 19.9652 24.965 19.7413 25.107C19.5174 25.2491 19.2593 25.3283 18.9943 25.3362C17.6383 25.4712 16.2911 25.6781 14.9409 25.8563C14.8576 25.8563 14.7772 25.8764 14.6938 25.8821C13.6367 25.9511 13.4557 25.7729 13.5275 24.7068C13.6654 22.5775 14.4382 20.7068 16.0009 19.2471C17.015 18.3017 18.2991 17.727 19.609 17.2758C22.2605 16.3735 25.0413 16.2356 28.342 16.0718ZM25.2797 18.2586C25.7479 17.9252 26.2736 17.7413 26.4288 17.3965C26.5839 17.0517 26.084 16.9999 25.7939 16.9971C25.3601 16.9971 24.8689 16.9971 24.8114 17.5718C24.7913 17.7471 25.0585 17.9425 25.2797 18.2586ZM30.5683 16.793L29.6462 17.3678C29.9854 17.5856 30.3539 17.7539 30.7407 17.8678C30.9245 17.8965 31.1716 17.5545 31.3899 17.3793L30.5683 16.793ZM19.9394 19.2155L21.1114 18.2758C20.9362 18.1465 20.7724 17.9281 20.5857 17.908C20.0773 17.8476 19.4165 18.2442 19.474 18.5459C19.5027 18.7183 19.6981 18.8764 19.9336 19.2011L19.9394 19.2155ZM27.4601 18.9022C27.7473 18.862 27.8967 18.885 27.9743 18.8189C28.1975 18.6152 28.4104 18.4004 28.612 18.1752C28.3566 18.0711 28.0958 17.9809 27.8306 17.9051C27.7699 17.893 27.7074 17.8931 27.6467 17.9054C27.586 17.9177 27.5284 17.9421 27.4773 17.977C27.276 18.1464 27.0842 18.3267 26.9028 18.5172L27.4601 18.9022ZM35.0296 17.9856C35.2738 18.6091 35.719 18.9166 36.2533 18.8132C36.4275 18.7774 36.5803 18.6741 36.6785 18.5258C36.7216 18.454 36.5952 18.2212 36.4889 18.1292C36.2936 17.9498 36.046 17.8376 35.7823 17.8092C35.5187 17.7807 35.2529 17.8375 35.0238 17.9712L35.0296 17.9856ZM32.0707 19.0488C32.358 19.0057 32.5246 19.0315 32.6223 18.954C32.8205 18.7959 33.125 18.566 33.1106 18.3792C33.079 18.0143 32.7487 17.9252 32.4011 18.0459C32.2594 18.0753 32.1242 18.1298 32.0018 18.2068C31.8572 18.3515 31.7265 18.5093 31.6111 18.6781L32.0707 19.0488ZM23.2602 19.3361C23.5475 19.0488 23.8807 18.8821 23.8749 18.7155C23.8577 18.1407 23.3004 18.2212 22.9413 18.1896C22.746 18.1724 22.5277 18.4166 22.3208 18.543L23.2602 19.3361Z" fill="#1E2125"/>
<path d="M26.8193 39.9281C24.593 39.8046 22.3609 39.7615 20.1461 39.5373C17.3941 39.25 15.1046 38.1264 13.8837 35.4569C13.692 34.9796 13.5897 34.4711 13.582 33.9569C13.582 33.8046 13.9325 33.4827 14.1106 33.4913C15.5096 33.5689 16.9028 33.727 18.3018 33.8218C19.6204 33.908 20.939 33.9483 22.2575 34.0029C22.6827 34.0201 22.9901 34.112 23.1394 34.5977C23.283 34.9396 23.4852 35.2537 23.737 35.5258C24.2627 36.2126 24.8573 36.2758 25.5439 35.75C25.7938 35.6085 26.0254 35.4367 26.2333 35.2385C27.0204 34.2097 28.0661 34.0402 29.2956 34.0345C33.0533 34.0012 36.8031 33.6852 40.5134 33.0891C40.9587 33.0201 41.3925 32.8822 41.8349 32.8017C42.3548 32.7098 42.5875 32.931 42.6047 33.477C42.6708 35.5086 41.4557 37.2442 39.6373 38.1408C36.7071 39.5775 33.5529 39.6781 30.4131 39.8821C29.2209 39.9597 28.0201 39.8821 26.8222 39.8821L26.8193 39.9281Z" fill="#1E2125"/>
<path d="M42.906 29.3046C41.9035 28.9224 40.9469 28.6178 40.0333 28.1954C39.4215 27.9081 38.9274 27.773 38.327 28.2385C38.0375 28.4652 37.6831 28.5933 37.3156 28.6041C36.9482 28.615 36.5869 28.508 36.2845 28.2989C36.0656 28.1491 35.8073 28.0673 35.5421 28.0637C35.2769 28.0601 35.0165 28.1349 34.7936 28.2788C34.2984 28.5396 33.7485 28.6797 33.1889 28.6876C32.6293 28.6956 32.0758 28.5713 31.5733 28.3247C31.3435 28.1921 31.086 28.115 30.8212 28.0995C30.5563 28.0841 30.2915 28.1307 30.0479 28.2357C29.7887 28.3725 29.4933 28.425 29.2029 28.3859C28.9124 28.3467 28.6414 28.2179 28.4277 28.0173C28.2714 27.8508 28.0621 27.744 27.8356 27.7151C27.6092 27.6863 27.3797 27.7372 27.1867 27.8592C26.6993 28.0891 26.1671 28.2083 25.6283 28.2083C25.0894 28.2083 24.5573 28.0891 24.0699 27.8592C23.6074 27.6696 23.3 27.6179 22.9208 28.1265C22.6508 28.4943 22.0791 28.7012 21.5994 28.842C21.1565 28.9917 20.6876 29.0491 20.2217 29.0106C19.7558 28.972 19.3027 28.8384 18.8904 28.6179C18.6471 28.4828 18.3778 28.401 18.1005 28.3777C17.8232 28.3544 17.5442 28.3902 17.2817 28.4828C16.4486 28.7127 15.6156 28.7414 14.8227 28.2845C14.3774 28.0288 14.0212 28.2845 13.6219 28.5029C13.109 28.7861 12.5544 28.9859 11.9787 29.0949C11.8149 29.0914 11.6548 29.0457 11.5139 28.9621C11.373 28.8785 11.256 28.7599 11.1744 28.6179C11.1537 28.4452 11.1765 28.2701 11.2407 28.1085C11.305 27.9469 11.4086 27.8039 11.5421 27.6926C12.3177 27.2874 13.1393 26.8449 13.9867 26.7299C15.9976 26.4426 18.0516 26.3334 20.0912 26.1897C24.5841 25.8246 29.0989 25.8179 33.5928 26.1696C35.8909 26.3736 38.1891 26.569 40.4872 26.8592C41.4122 26.977 42.3056 27.3391 43.2134 27.5891C43.7276 27.7328 44.1614 28.046 43.9488 28.5862C43.8339 28.8908 43.3226 29.0345 42.906 29.3046Z" fill="#1E2125"/>
<path d="M22.0051 33.1465C19.4197 32.9914 16.8601 32.842 14.2862 32.6724C13.7634 32.6408 13.5451 32.2299 13.568 31.523C13.5881 30.9943 13.9041 30.8448 14.3523 30.8736C16.3057 31 18.2591 31.1609 20.2154 31.2586C25.0214 31.4655 29.8274 31.5288 34.6248 31.0259C36.9402 30.7816 39.2613 30.592 41.5796 30.3822C42.0133 30.342 42.4931 30.2529 42.5994 30.8736C42.6741 31.3046 42.2546 31.8046 41.706 31.8937C40.4718 32.1389 39.2251 32.3164 37.9715 32.4253C33.3953 32.6523 28.8162 32.8104 24.2401 32.9828C23.496 33.0115 22.7549 32.9828 22.0109 32.9828L22.0051 33.1465Z" fill="#1E2125"/>
<path d="M66.9004 32.1637V20.4712H71.1749C71.9796 20.4575 72.783 20.5404 73.5679 20.7183C74.1404 20.8458 74.6879 21.0672 75.1881 21.3735C75.5671 21.6041 75.8791 21.9301 76.093 22.3189C76.2705 22.6617 76.3631 23.0421 76.363 23.4281V23.8534C76.3719 24.1274 76.328 24.4005 76.2337 24.658C76.1504 24.8761 76.0188 25.0726 75.8488 25.2327C75.4139 25.599 74.9055 25.8675 74.3579 26.02C74.9321 26.1441 75.4593 26.4292 75.8775 26.8419C76.2197 27.2554 76.3931 27.7829 76.363 28.3189V28.9769C76.3795 29.4522 76.2669 29.9231 76.0373 30.3395C75.8076 30.7559 75.4695 31.1023 75.0588 31.3419C74.1893 31.8879 72.799 32.1618 70.8877 32.1637H66.9004ZM69.8277 22.0488V25.2643H71.1462C72.121 25.2643 72.776 25.1254 73.1111 24.8476C73.2821 24.6951 73.4159 24.5055 73.5026 24.2934C73.5892 24.0812 73.6263 23.8521 73.611 23.6235C73.6241 23.3939 73.5782 23.1648 73.4776 22.958C73.3771 22.7513 73.2251 22.5738 73.0364 22.4425C72.6659 22.1781 71.9908 22.0488 71.0256 22.0488H69.8277ZM69.8277 26.7442V30.4798H71.0888C71.5568 30.4932 72.0246 30.4429 72.4791 30.3304C72.7627 30.2599 73.0236 30.1185 73.2375 29.9195C73.4071 29.751 73.5179 29.5323 73.5535 29.2959C73.5942 29.0355 73.6134 28.7721 73.611 28.5086C73.615 28.2483 73.586 27.9885 73.5248 27.7356C73.4682 27.5194 73.3481 27.3253 73.1801 27.1781C72.9515 27.0086 72.6872 26.8936 72.4073 26.8419C71.9822 26.7616 71.55 26.726 71.1175 26.7356L69.8277 26.7442Z" fill="#F0B80B"/>
<path d="M87.6878 23.8364V32.1698H84.7634V31.3652H84.7117C84.3829 31.641 84.01 31.8596 83.6086 32.0117C83.0794 32.198 82.5204 32.2847 81.9597 32.2675C81.5942 32.2664 81.2297 32.2308 80.8709 32.1611C80.5283 32.0972 80.1984 31.9778 79.8942 31.8077C79.619 31.6537 79.3838 31.4372 79.2077 31.1755C79.0284 30.8936 78.9383 30.5641 78.9491 30.2301V23.8364H81.8678V29.6008C81.8631 29.7433 81.895 29.8847 81.9604 30.0114C82.0257 30.1382 82.1224 30.2461 82.2412 30.3249C82.5599 30.5175 82.9296 30.6086 83.3012 30.5864C83.8557 30.5864 84.2377 30.4887 84.4503 30.2991C84.5619 30.1866 84.6479 30.0514 84.7025 29.9026C84.757 29.7538 84.7788 29.595 84.7663 29.437V23.8364H87.6878Z" fill="#F0B80B"/>
<path d="M90.0977 32.1637V23.8304H93.022V24.7183C93.5824 24.4252 94.1679 24.1829 94.7715 23.9942C95.4619 23.8054 96.176 23.7173 96.8916 23.7327V25.5057C96.6003 25.4395 96.3025 25.4067 96.0039 25.408C95.6726 25.4111 95.3422 25.4409 95.0157 25.497C94.6819 25.5515 94.3577 25.6541 94.0533 25.8016C93.7671 25.9299 93.5129 26.1204 93.3093 26.3591C93.1117 26.6019 93.0096 26.9084 93.022 27.2212V32.1637H90.0977Z" fill="#F0B80B"/>
<path d="M100.993 33.1324C101.017 33.2504 101.067 33.3617 101.139 33.4581C101.211 33.5546 101.304 33.6337 101.41 33.6899C101.753 33.8865 102.147 33.9775 102.542 33.9514C102.904 33.9829 103.267 33.894 103.573 33.6985C103.673 33.6225 103.754 33.5242 103.808 33.4114C103.863 33.2986 103.891 33.1745 103.889 33.0491V31.4083H103.832C103.492 31.6895 103.102 31.904 102.683 32.0404C102.177 32.1956 101.649 32.2703 101.12 32.2617C99.8961 32.2617 99.0448 31.9983 98.5661 31.4715C98.388 31.2765 98.2607 31.0406 98.1955 30.7847C98.1088 30.4245 98.0702 30.0544 98.0806 29.6841V26.5232C98.0691 26.078 98.098 25.6327 98.1668 25.1928C98.2817 24.6439 98.7413 24.2359 99.5141 23.96C100.042 23.7948 100.596 23.7228 101.149 23.7474C101.46 23.7441 101.771 23.7662 102.079 23.8134C102.319 23.8519 102.555 23.9125 102.783 23.9945C102.983 24.0651 103.176 24.1556 103.358 24.2646L103.904 24.6008V23.8451H106.828V33.1726C106.823 33.4764 106.739 33.7736 106.584 34.0347C106.391 34.3561 106.12 34.6238 105.797 34.8134C105.372 35.0782 104.907 35.2723 104.421 35.3882C103.773 35.5474 103.108 35.6218 102.441 35.6094C101.98 35.608 101.52 35.5666 101.065 35.4858C100.608 35.4115 100.164 35.2712 99.7468 35.0692C99.3418 34.8939 98.9756 34.64 98.6695 34.3221C98.3659 33.9834 98.1665 33.5644 98.095 33.1152L100.993 33.1324ZM100.993 29.6008C100.993 29.7304 101.02 29.8587 101.072 29.9775C101.123 30.0962 101.2 30.2028 101.295 30.2904C101.493 30.4887 101.87 30.5778 102.427 30.5778C102.793 30.5927 103.155 30.504 103.473 30.3221C103.594 30.2625 103.697 30.1707 103.771 30.0568C103.844 29.9428 103.885 29.811 103.889 29.6755V26.4485C103.89 26.3002 103.854 26.154 103.784 26.0234C103.713 25.8928 103.611 25.782 103.487 25.7014C103.173 25.4959 102.802 25.3953 102.427 25.414C102.038 25.3797 101.65 25.4913 101.338 25.7272C101.224 25.8302 101.134 25.9569 101.075 26.0984C101.015 26.2399 100.988 26.3928 100.993 26.5462V29.6008Z" fill="#F0B80B"/>
<path d="M117.681 28.6321H111.889V29.7643C111.889 29.8924 111.925 30.0179 111.994 30.126C112.063 30.234 112.161 30.32 112.277 30.3735C112.603 30.5298 112.962 30.6029 113.323 30.5861C113.877 30.5861 114.245 30.4942 114.426 30.2988C114.587 30.1485 114.702 29.955 114.756 29.7413H117.681C117.681 30.4731 117.289 31.0641 116.506 31.5143C116.077 31.7632 115.613 31.9453 115.13 32.0545C114.538 32.193 113.931 32.2596 113.323 32.2528C112.531 32.2711 111.741 32.1605 110.985 31.9252C110.431 31.7582 109.925 31.4628 109.508 31.0631C109.302 30.8524 109.155 30.5921 109.08 30.3074C109 30.0016 108.962 29.6866 108.965 29.3706V26.6293C108.962 26.3133 109 25.9982 109.08 25.6925C109.155 25.4078 109.302 25.1474 109.508 24.9367C109.925 24.537 110.431 24.2417 110.985 24.0747C111.741 23.8394 112.531 23.7288 113.323 23.7471C113.936 23.741 114.547 23.8075 115.144 23.9453C115.633 24.0531 116.102 24.2353 116.535 24.4856C117.301 24.9798 117.684 25.5986 117.684 26.3419L117.681 28.6321ZM111.889 27.3189H114.762V26.3649C114.769 26.222 114.736 26.0799 114.668 25.9543C114.6 25.8286 114.498 25.7241 114.374 25.6522C114.048 25.4953 113.691 25.4138 113.329 25.4138C112.967 25.4138 112.609 25.4953 112.283 25.6522C112.159 25.7241 112.058 25.8286 111.989 25.9543C111.921 26.0799 111.888 26.222 111.895 26.3649L111.889 27.3189Z" fill="#F0B80B"/>
<path d="M119.833 32.1637V23.8303H122.757V24.7183C123.318 24.4252 123.903 24.1828 124.507 23.9941C125.198 23.8055 125.913 23.7175 126.63 23.7326V25.5056C126.338 25.4396 126.039 25.4068 125.739 25.4079C125.408 25.4111 125.078 25.4409 124.751 25.497C124.417 25.5515 124.093 25.6541 123.789 25.8016C123.502 25.9299 123.248 26.1203 123.045 26.3591C122.847 26.6018 122.745 26.9084 122.757 27.2211V32.1637H119.833Z" fill="#F0B80B"/>
<path d="M137.44 23.8363H134.515V23.4599C134.515 23.2694 134.472 23.0814 134.39 22.9095C134.308 22.7376 134.189 22.586 134.041 22.4656C133.725 22.186 133.195 22.0471 132.45 22.049C132.119 22.0389 131.79 22.0826 131.473 22.1783C131.255 22.251 131.052 22.362 130.873 22.5059C130.728 22.6381 130.619 22.8053 130.557 22.9915C130.498 23.1774 130.469 23.3713 130.471 23.5662C130.468 23.7587 130.482 23.9511 130.514 24.1409C130.543 24.2963 130.618 24.4394 130.729 24.5519C130.873 24.6906 131.044 24.7974 131.232 24.8651C131.526 24.9744 131.827 25.0618 132.134 25.1266L134.372 25.6352C134.914 25.7438 135.443 25.9125 135.949 26.1381C136.304 26.2959 136.625 26.5214 136.894 26.8019C137.103 27.0633 137.251 27.3689 137.325 27.6955C137.405 28.0733 137.444 28.4588 137.44 28.845C137.444 29.3144 137.356 29.7801 137.181 30.2157C137.004 30.6418 136.717 31.0129 136.348 31.2904C135.875 31.6315 135.339 31.8766 134.771 32.0116C133.993 32.2024 133.193 32.2913 132.392 32.276C131.727 32.28 131.063 32.2087 130.413 32.0634C129.86 31.9363 129.329 31.7291 128.836 31.4484C128.439 31.2303 128.088 30.9376 127.802 30.5863C127.552 30.2772 127.415 29.8919 127.414 29.4944V28.8622H130.338V29.3881C130.346 29.5537 130.394 29.715 130.476 29.8589C130.558 30.0027 130.674 30.125 130.812 30.2157C131.128 30.4628 131.657 30.5863 132.404 30.5863C132.791 30.5981 133.177 30.5566 133.553 30.4628C133.795 30.4012 134.017 30.2797 134.199 30.1093C134.348 29.9619 134.444 29.7686 134.469 29.5605C134.501 29.3233 134.516 29.0842 134.515 28.845C134.519 28.5918 134.5 28.3389 134.458 28.0892C134.428 27.9125 134.348 27.7481 134.228 27.6151C134.072 27.4851 133.891 27.3874 133.697 27.3277C133.475 27.2501 133.185 27.1697 132.835 27.0806L130.741 26.5892C129.479 26.2923 128.633 25.9005 128.204 25.4139C127.766 24.9071 127.535 24.2533 127.558 23.5835C127.556 23.1478 127.665 22.7188 127.874 22.3363C128.099 21.9233 128.424 21.5727 128.819 21.3162C129.287 21.002 129.806 20.7716 130.353 20.6352C131.08 20.4535 131.827 20.3685 132.576 20.3823C133.248 20.3749 133.918 20.4521 134.57 20.6122C135.116 20.7428 135.641 20.9468 136.133 21.2185C136.994 21.7444 137.451 22.3478 137.451 23.026L137.44 23.8363Z" fill="#F0B80B"/>
<path d="M153.581 23.8364L150.134 32.1698H147.548L145.942 27.2272H145.899L144.293 32.1698H141.708L138.261 23.8364H141.357L143.136 29.0088H143.193L144.828 23.8364H147.126L148.674 29.0088H148.732L150.481 23.8364H153.581Z" fill="#F0B80B"/>
<path d="M160.176 32.1637V31.3016H160.119C159.77 31.5895 159.384 31.8275 158.97 32.0085C158.441 32.1949 157.881 32.2787 157.321 32.2556C156.97 32.2546 156.62 32.2238 156.275 32.1637C155.92 32.1049 155.576 31.9915 155.255 31.8274C154.913 31.6761 154.625 31.4233 154.43 31.1033C154.235 30.7832 154.143 30.4112 154.167 30.0372C154.158 29.6156 154.226 29.196 154.368 28.7987C154.513 28.4276 154.774 28.1132 155.112 27.9022C155.542 27.6409 156.019 27.4662 156.516 27.3878C157.265 27.2604 158.024 27.2027 158.783 27.2154H159.099C159.204 27.2092 159.31 27.2092 159.415 27.2154C159.528 27.2278 159.643 27.2336 159.757 27.2326C159.891 27.2326 160.035 27.2384 160.188 27.2499V26.3878C160.19 26.254 160.163 26.1212 160.109 25.999C160.054 25.8768 159.973 25.7681 159.872 25.6809C159.662 25.4941 159.28 25.3935 158.723 25.3935C158.363 25.3892 158.006 25.4617 157.677 25.6062C157.536 25.661 157.408 25.7448 157.302 25.8522C157.195 25.9596 157.113 26.0883 157.059 26.2297H154.221C154.296 25.4855 154.738 24.8849 155.54 24.4251C155.971 24.1881 156.435 24.0139 156.916 23.9079C157.509 23.7752 158.115 23.7115 158.723 23.7183C159.301 23.7147 159.879 23.7696 160.446 23.882C160.936 23.9765 161.41 24.1431 161.851 24.3763C162.214 24.5776 162.528 24.8573 162.77 25.1953C163 25.5338 163.12 25.9354 163.112 26.3447V32.1435L160.176 32.1637ZM160.176 28.5832C159.91 28.5531 159.643 28.5368 159.375 28.5343C158.824 28.5208 158.275 28.6065 157.755 28.7872C157.554 28.8438 157.379 28.9661 157.256 29.1344C157.134 29.3027 157.072 29.5073 157.079 29.7154C157.077 29.8674 157.113 30.0177 157.183 30.1526C157.253 30.2875 157.356 30.4028 157.482 30.4884C157.814 30.6999 158.206 30.8005 158.599 30.7757C159.002 30.7947 159.402 30.6948 159.748 30.4884C159.88 30.4088 159.988 30.2966 160.063 30.1627C160.138 30.0287 160.177 29.8776 160.176 29.724V28.5832Z" fill="#F0B80B"/>
<path d="M165.253 35.5286V23.8361H168.177V24.5919C168.53 24.356 168.905 24.153 169.295 23.9855C169.828 23.7966 170.393 23.7127 170.958 23.7384C172.162 23.7384 173.015 23.9999 173.512 24.5258C173.69 24.7222 173.817 24.9589 173.882 25.2154C173.969 25.5756 174.008 25.9457 173.997 26.316V29.4769C174.01 29.9221 173.981 30.3675 173.911 30.8074C173.796 31.3534 173.357 31.7643 172.593 32.0401C172.054 32.2034 171.492 32.2753 170.929 32.2528C170.41 32.26 169.892 32.1853 169.395 32.0315C168.976 31.8951 168.586 31.6806 168.246 31.3993H168.189V35.5286H165.253ZM171.073 26.5459C171.079 26.3925 171.051 26.2396 170.992 26.0981C170.932 25.9566 170.842 25.8299 170.728 25.7269C170.417 25.491 170.029 25.3793 169.64 25.4137C169.265 25.395 168.894 25.4956 168.579 25.701C168.454 25.7803 168.351 25.8908 168.28 26.0217C168.21 26.1526 168.174 26.2995 168.177 26.4482V29.6838C168.181 29.8193 168.222 29.9511 168.296 30.0651C168.369 30.179 168.472 30.2707 168.594 30.3304C168.911 30.5123 169.274 30.601 169.64 30.5861C170.194 30.5861 170.57 30.4884 170.771 30.2988C170.864 30.2099 170.938 30.1027 170.987 29.984C171.037 29.8653 171.061 29.7377 171.059 29.6091L171.073 26.5459Z" fill="#F0B80B"/>
</g>
<path d="M186.311 19.1C186.311 17.89 185.431 16.88 183.961 16.88H181.201V24H182.591V21.32H183.961C185.431 21.32 186.311 20.31 186.311 19.1ZM184.921 19.1C184.921 19.68 184.521 20.07 183.891 20.07H182.591V18.12H183.891C184.521 18.12 184.921 18.52 184.921 19.1ZM192.87 24L191.28 20.93C191.97 20.68 192.58 20.06 192.58 19.06C192.58 17.87 191.72 16.88 190.27 16.88H187.48V24H188.87V21.16H189.87L191.26 24H192.87ZM191.19 19.06C191.19 19.61 190.79 20 190.18 20H188.87V18.12H190.18C190.79 18.12 191.19 18.51 191.19 19.06ZM199.043 20.44C199.043 19.21 199.053 18.32 198.333 17.6C197.833 17.1 197.223 16.82 196.413 16.82C195.603 16.82 194.983 17.1 194.483 17.6C193.763 18.32 193.783 19.21 193.783 20.44C193.783 21.67 193.763 22.56 194.483 23.28C194.983 23.78 195.603 24.06 196.413 24.06C197.223 24.06 197.833 23.78 198.333 23.28C199.053 22.56 199.043 21.67 199.043 20.44ZM197.653 20.44C197.653 21.81 197.573 22.14 197.303 22.44C197.103 22.67 196.793 22.82 196.413 22.82C196.033 22.82 195.713 22.67 195.513 22.44C195.243 22.14 195.173 21.81 195.173 20.44C195.173 19.07 195.243 18.74 195.513 18.44C195.713 18.21 196.033 18.06 196.413 18.06C196.793 18.06 197.103 18.21 197.303 18.44C197.573 18.74 197.653 19.07 197.653 20.44Z" fill="#F0B80B"/>
<defs>
<clipPath id="clip0">
<rect width="178" height="56" fill="white"/>
</clipPath>
</defs>
</svg>
