<svg width="137" height="32" viewBox="0 0 137 32" fill="none" xmlns="http://www.w3.org/2000/svg">
<path d="M55.1709 27.3169H60.7186V19.3347H68.0623V27.3169H73.6099V6.88232H68.0623V14.8646H60.7186V6.88232H55.1709V27.3169Z" fill="white"/>
<path d="M84.1066 27.3169C90.3328 27.3169 94.284 23.4854 94.284 17.0996C94.284 10.7138 90.3328 6.88232 84.0268 6.88232H76.2441V27.3169H84.1066ZM81.7917 22.6074V11.5919H83.7474C86.9403 11.5919 88.6964 12.8291 88.6964 17.0996C88.6964 21.3701 86.9403 22.6074 83.907 22.6074H81.7917Z" fill="white"/>
<path d="M96.8508 27.3169H111.538V22.8468H102.398V19.3347H110.82V14.8646H102.398V11.3524H111.578V6.88232H96.8508V27.3169Z" fill="white"/>
<path d="M114.329 27.3169H119.877V19.3347H127.819V14.8646H119.877V11.3524H128.698V6.88232H114.329V27.3169Z" fill="white"/>
<path d="M136.286 6.88232H130.738V27.3169H136.286V6.88232Z" fill="white"/>
<circle cx="15.6098" cy="15.6098" r="15.6098" fill="#0A51BE"/>
<circle cx="26.5364" cy="20.2928" r="11.7073" fill="#F2C94C"/>
</svg>
