<svg width="34" height="34" viewBox="0 0 34 34" fill="none" xmlns="http://www.w3.org/2000/svg">
<path d="M17.4996 1.99841H16.0008C7.18023 1.99841 0 9.17422 0 17.9992C0 26.8197 7.17581 34 16.0008 34C24.8213 34 32.0016 26.8242 32.0016 17.9992V16.5004H17.4996V1.99841V1.99841ZM28.911 19.498C28.1638 25.962 22.6593 30.9979 15.9964 30.9979C8.82939 30.9979 2.99766 25.1662 2.99766 17.9992C2.99766 11.3407 8.03355 5.8317 14.4975 5.0845V19.498H28.911Z" fill="#F0B80B"/>
<path d="M21.3461 0H19.8473V14.0023H33.8541V12.5035C33.8496 5.61066 28.239 0 21.3461 0V0ZM22.845 11.0047V3.12146C26.886 3.76697 30.0871 6.96359 30.7282 11.0047H22.845Z" fill="#F0B80B"/>
</svg>
