<svg width="32" height="32" viewBox="0 0 32 32" fill="none" xmlns="http://www.w3.org/2000/svg">
<path fill-rule="evenodd" clip-rule="evenodd" d="M7 5.71429H1.14286C0.510714 5.71429 0 5.20357 0 4.57143C0 3.93929 0.510714 3.42857 1.14286 3.42857H7C7.50714 1.45714 9.3 0 11.4286 0C13.5607 0 15.35 1.45714 15.8571 3.42857H30.8571C31.4893 3.42857 32 3.93929 32 4.57143C32 5.20357 31.4893 5.71429 30.8571 5.71429H15.8571C15.35 7.68571 13.5571 9.14286 11.4286 9.14286C9.29643 9.14286 7.50714 7.68571 7 5.71429ZM13.75 4.57143C13.75 3.28929 12.7107 2.25 11.4286 2.25C10.1464 2.25 9.10714 3.28929 9.10714 4.57143C9.10714 5.85357 10.1464 6.89286 11.4286 6.89286C12.7107 6.89286 13.75 5.85357 13.75 4.57143ZM30.8571 14.8572H25C24.4929 12.8857 22.7036 11.4286 20.5714 11.4286C18.4393 11.4286 16.65 12.8857 16.1429 14.8572H1.14286C0.510714 14.8572 0 15.3679 0 16C0 16.6322 0.510714 17.1429 1.14286 17.1429H16.1429C16.65 19.1143 18.4393 20.5715 20.5714 20.5715C22.7036 20.5715 24.4929 19.1143 25 17.1429H30.8571C31.4893 17.1429 32 16.6322 32 16C32 15.3679 31.4893 14.8572 30.8571 14.8572ZM20.5714 18.3215C19.2893 18.3215 18.25 17.2822 18.25 16C18.25 14.7179 19.2893 13.6786 20.5714 13.6786C21.8536 13.6786 22.8929 14.7179 22.8929 16C22.8929 17.2822 21.8536 18.3215 20.5714 18.3215ZM30.8571 26.2858H15.8571C15.35 24.3143 13.5607 22.8572 11.4286 22.8572C9.3 22.8572 7.50714 24.3143 7 26.2858H1.14286C0.510714 26.2858 0 26.7965 0 27.4286C0 28.0608 0.510714 28.5715 1.14286 28.5715H7C7.50714 30.5429 9.29643 32.0001 11.4286 32.0001C13.5571 32.0001 15.35 30.5429 15.8571 28.5715H30.8571C31.4893 28.5715 32 28.0608 32 27.4286C32 26.7965 31.4893 26.2858 30.8571 26.2858ZM11.4286 29.7501C10.1464 29.7501 9.10714 28.7108 9.10714 27.4286C9.10714 26.1465 10.1464 25.1072 11.4286 25.1072C12.7107 25.1072 13.75 26.1465 13.75 27.4286C13.75 28.7108 12.7107 29.7501 11.4286 29.7501Z" fill="#5EA6EE"/>
</svg>
