<svg width="32" height="32" viewBox="0 0 32 32" fill="none" xmlns="http://www.w3.org/2000/svg">
<path d="M16 0C24.8366 0 32 7.16344 32 16C32 24.8366 24.8366 32 16 32C7.16344 32 0 24.8366 0 16C0 7.16344 7.16344 0 16 0ZM16 2.38017C8.47798 2.38017 2.38017 8.47798 2.38017 16C2.38017 23.522 8.47798 29.6198 16 29.6198C23.522 29.6198 29.6198 23.522 29.6198 16C29.6198 8.47798 23.522 2.38017 16 2.38017ZM9.52066 14.1488C10.5431 14.1488 11.3719 14.9776 11.3719 16C11.3719 17.0224 10.5431 17.8512 9.52066 17.8512C8.49825 17.8512 7.66942 17.0224 7.66942 16C7.66942 14.9776 8.49825 14.1488 9.52066 14.1488ZM16 14.1488C17.0224 14.1488 17.8512 14.9776 17.8512 16C17.8512 17.0224 17.0224 17.8512 16 17.8512C14.9776 17.8512 14.1488 17.0224 14.1488 16C14.1488 14.9776 14.9776 14.1488 16 14.1488ZM22.4793 14.1488C23.5018 14.1488 24.3306 14.9776 24.3306 16C24.3306 17.0224 23.5018 17.8512 22.4793 17.8512C21.4569 17.8512 20.6281 17.0224 20.6281 16C20.6281 14.9776 21.4569 14.1488 22.4793 14.1488Z" fill="#5EA6EE"/>
</svg>
