<svg width="48" height="40" viewBox="0 0 48 40" fill="none" xmlns="http://www.w3.org/2000/svg">
<path d="M48 19C48 8.50659 39.4934 0 29 0H0V30C0 35.5228 4.47715 40 10 40H48V19Z" fill="#1F2226" fill-opacity="0.7"/>
<path d="M33.7992 22.9602C33.443 22.6813 32.9273 22.7446 32.6484 23.1032L28.9969 27.7836L26.5805 25.8992C26.2242 25.6203 25.7086 25.6836 25.4297 26.0422C25.1508 26.3985 25.214 26.9141 25.5726 27.193L28.6359 29.5813C28.7812 29.6938 28.9594 29.7547 29.1398 29.7547C29.1726 29.7547 29.2078 29.7524 29.2406 29.7477C29.4562 29.7219 29.6531 29.6094 29.7867 29.4383L33.9422 24.1086C34.2211 23.7524 34.1555 23.2391 33.7992 22.9602Z" fill="#F0B80B"/>
<path d="M24.1688 29.1359H15.525V28.9742C15.532 24.364 19.2891 20.6164 23.8992 20.6164C25.3031 20.6164 26.6906 20.9703 27.9141 21.6406C28.3125 21.8585 28.8094 21.7132 29.0273 21.3148C29.2453 20.9164 29.1 20.4195 28.7016 20.2015C28.2281 19.9437 27.7359 19.7234 27.2273 19.5453C27.4734 19.3671 27.7078 19.1679 27.9258 18.95C29.0016 17.8742 29.5945 16.4445 29.5945 14.9234C29.5945 13.4023 29.0016 11.9726 27.9258 10.8968C26.85 9.82104 25.4203 9.22339 23.8992 9.22339C22.3781 9.22339 20.9484 9.81636 19.8727 10.8921C18.7969 11.9679 18.2039 13.3976 18.2039 14.9187C18.2039 16.4398 18.7969 17.8695 19.8727 18.9453C20.0906 19.1632 20.325 19.3624 20.5711 19.5406C20.3813 19.6085 20.1938 19.6812 20.0063 19.7585C18.8156 20.2625 17.7445 20.982 16.8258 21.9007C15.907 22.8195 15.1852 23.8882 14.6789 25.0789C14.1563 26.3117 13.8891 27.6218 13.8867 28.9718V29.9562C13.8867 30.4085 14.2547 30.7765 14.707 30.7765H24.1711C24.6234 30.7765 24.9914 30.4085 24.9914 29.9562C24.9914 29.5039 24.6211 29.1359 24.1688 29.1359ZM19.8445 14.9187C19.8445 12.6828 21.6633 10.864 23.8992 10.864C26.1352 10.864 27.9539 12.6828 27.9539 14.9187C27.9539 17.1546 26.1352 18.9734 23.8992 18.9734C21.6633 18.9734 19.8445 17.1546 19.8445 14.9187Z" fill="#F0B80B"/>
</svg>
