<svg width="32" height="32" viewBox="0 0 32 32" fill="none" xmlns="http://www.w3.org/2000/svg">
    <circle cx="16" cy="16" r="15" fill="#ACACAC" stroke="black" stroke-width="2" />
    <path
        d="M22.396 20.4305L23.8835 21.9179C21.9098 23.8914 19.2329 25 16.4418 25C13.6506 25 10.9738 23.8914 9 21.9179L10.4875 20.4305C11.2694 21.2124 12.1977 21.8327 13.2193 22.256C14.2409 22.6792 15.3359 22.897 16.4418 22.897C17.5476 22.897 18.6426 22.6792 19.6642 22.256C20.6859 21.8327 21.6141 21.2124 22.396 20.4305ZM22.5111 7L24 8.48744L21.5189 10.9684L24 13.4493L22.5125 14.9368L18.5425 10.9684L22.5111 7ZM11.526 7.46026V14.4765H9.42099V7.46026H11.526Z"
        fill="black" />
</svg>