<svg width="48" height="48" viewBox="0 0 48 48" fill="none" xmlns="http://www.w3.org/2000/svg">
<path d="M23.9004 16.9048C23.9004 16.943 23.901 16.9808 23.9021 17.0162C23.9031 17.0515 23.9048 17.0835 23.9068 17.1106C23.9088 17.1376 23.9112 17.159 23.9139 17.1737C23.9165 17.1883 23.9194 17.1958 23.9222 17.1958C23.9251 17.1958 23.9279 17.1883 23.9306 17.1737C23.9332 17.159 23.9356 17.1376 23.9377 17.1106C23.9397 17.0835 23.9413 17.0515 23.9424 17.0162C23.9435 16.9808 23.944 16.943 23.944 16.9048C23.944 16.8666 23.9435 16.8287 23.9424 16.7934C23.9413 16.7581 23.9397 16.726 23.9377 16.699C23.9356 16.672 23.9332 16.6505 23.9306 16.6359C23.9279 16.6213 23.9251 16.6138 23.9222 16.6138C23.9194 16.6138 23.9165 16.6213 23.9139 16.6359C23.9112 16.6505 23.9088 16.672 23.9068 16.699C23.9048 16.726 23.9031 16.7581 23.9021 16.7934C23.901 16.8287 23.9004 16.8666 23.9004 16.9048Z" fill="#AEE249"/>
<path d="M10.1773 22.7105C10.432 15.1768 16.3397 9.09448 23.5278 9.09448H23.6588C30.7924 9.09448 36.6673 15.0858 37.002 22.5432L10.1773 22.7105ZM37.0165 30.7717V32.9107C37.0165 36.0173 34.8448 38.6474 32.1856 38.6474H14.8118C12.0726 38.6474 9.82812 36.0246 9.82812 32.8234V30.7754" fill="#C76516"/>
<path d="M37.2215 26.5957C37.709 27.1741 38 28.189 38 29.0002V29.033C38 30.8664 36.4976 32.3688 34.6642 32.3688H12.3358C10.5024 32.3688 9 30.8664 9 29.033V29.0002C9 28.1272 9.34195 27.0613 9.89488 26.4647" fill="#BF0404"/>
<path d="M35.5955 21.4301H11.4045C10.0804 21.4301 9 22.6996 9 24.2566C9 26.6284 10.6515 28.5673 12.6705 28.5673C13.7327 28.5673 14.6967 28.0289 15.366 27.174C15.8535 26.552 16.7957 26.552 17.2831 27.174C17.9561 28.0289 18.9165 28.5673 19.9787 28.5673C20.99 28.5673 21.9067 28.0835 22.5724 27.3014C23.0635 26.7266 23.9438 26.7266 24.4313 27.3014C25.097 28.0835 26.0137 28.5673 27.025 28.5673C28.0872 28.5673 29.0475 28.0289 29.7205 27.174C30.2043 26.5556 31.1501 26.5556 31.634 27.174C32.3069 28.0289 33.2673 28.5673 34.3295 28.5673C36.3485 28.5673 38 26.6284 38 24.2566C38 22.7033 36.9196 21.4301 35.5955 21.4301V21.4301Z" fill="#78B209"/>
<path d="M10.9972 21.6448C11.2446 14.6458 17.0431 9 24.0967 9H24.224C31.223 9 36.9888 14.5657 37.3162 21.4883L10.9972 21.6448ZM37.3271 30.2407V32.3506C37.3271 35.4136 35.1954 38.0036 32.5872 38.0036H15.5444C12.8561 38.0036 10.6553 35.4208 10.6553 32.2597V30.2444" fill="#D8903A"/>
<path d="M36.6904 26.1774C37.167 26.7449 37.4543 27.7416 37.4543 28.5383V28.571C37.4543 30.3717 35.9811 31.845 34.1804 31.845H12.274C10.4733 31.845 9 30.3717 9 28.571V28.5383C9 27.6798 9.33467 26.6321 9.88033 26.05" fill="#D61817"/>
<path d="M35.0971 21.1063H11.3609C10.0622 21.1063 9 22.3541 9 23.8783C9 26.2064 10.6188 28.109 12.6014 28.109C13.6454 28.109 14.5876 27.5815 15.246 26.7412C15.7225 26.13 16.6502 26.13 17.1267 26.7412C17.7851 27.5815 18.7309 28.109 19.7713 28.109C20.7608 28.109 21.6629 27.6324 22.3141 26.8649C22.7943 26.2974 23.6601 26.2974 24.1402 26.8649C24.7914 27.6324 25.6936 28.109 26.683 28.109C27.727 28.109 28.6692 27.5815 29.3276 26.7412C29.8042 26.1337 30.7282 26.1337 31.2047 26.7412C31.8631 27.5815 32.8053 28.109 33.8493 28.109C35.8283 28.109 37.4507 26.2064 37.4507 23.8783C37.458 22.3541 36.3958 21.1063 35.0971 21.1063V21.1063Z" fill="#84B72C"/>
</svg>
