<svg xmlns="http://www.w3.org/2000/svg" viewBox="0 0 357.7 469.8"><defs><style>.cls-1{fill:#498210;}.cls-2{fill:#75b41a;}.cls-3{fill:#8ad02c;}.cls-4{fill:#c4ff7c;}.cls-5{fill:#ede043;}.cls-6{fill:#1a450a;}</style></defs><g id="圖層_2" data-name="圖層 2"><g id="圖層_24" data-name="圖層 24"><path class="cls-1" d="M357.48,101.12a5.62,5.62,0,0,0-1.59-2.46,4.75,4.75,0,0,0-.14-.63,434.22,434.22,0,0,0-20.65-47.1,4.36,4.36,0,0,0-.71-1c-1.31-2.31-4.06-3.13-6.82-2.74A173.76,173.76,0,0,0,282.5,60q6.83-5.56,13.95-10.83a4.16,4.16,0,0,0,1.44-2,5.5,5.5,0,0,0-1.68-8.1,305.59,305.59,0,0,0-62.13-28.85,5.37,5.37,0,0,0-4,.33,6.74,6.74,0,0,0-1.85.56l-.43.23L171.9.14A6.63,6.63,0,0,0,166,1.76a6.37,6.37,0,0,0-4.29,4c-3.42,9-6.37,18.05-9,27.23A130.32,130.32,0,0,0,141.91,8.79a5.84,5.84,0,0,0-1.07-1.34,5.11,5.11,0,0,0-5.4-3.33A168.79,168.79,0,0,0,67.12,22a4.83,4.83,0,0,0-2.78,5.8,5,5,0,0,0,.72,3.89,250.1,250.1,0,0,1,13.41,24.7q-8-7-16.56-13.22a5.09,5.09,0,0,0-4.36-.61,5.81,5.81,0,0,0-4.07.68A243.23,243.23,0,0,0,1.71,81.83c-4.11,4-.09,9.7,4.43,9.73a313.26,313.26,0,0,1,61.4,71q7.06,11.28,13.11,23.1c-2.15,50.23-6.44,100.37-7.86,150.63-.37,12.88-.55,25.77-.45,38.65q.07,10,.38,20A73.52,73.52,0,0,0,74,408.61c3.87,17.55,17.86,31.41,33.14,41,19,11.87,41.7,18.4,64.28,20.12a4.78,4.78,0,0,0,1.32.11,4.94,4.94,0,0,0,1.39-.13c20.29-1.56,40.42-7,58.16-16.59,16.22-8.76,31-21.58,37.45-38.63,3.53-9.42,3.07-19.63,3.26-29.49.24-12.9.19-25.81-.07-38.72-.53-26-1.93-52-3.49-78-1.74-29-3.66-58-4.82-87.06a5.45,5.45,0,0,0-.54-2.21,195.12,195.12,0,0,1,89.23-70.85C356.29,107,358.41,104.33,357.48,101.12Z"/><path class="cls-2" d="M325.9,58.92a410.47,410.47,0,0,1,17.84,40.85,207.33,207.33,0,0,0-74.15,53,205.22,205.22,0,0,0-14.53,18.59,91.87,91.87,0,0,1-52.72-17.24c16.28-38.59,50-70.24,90.33-86A169.54,169.54,0,0,1,325.9,58.92Z"/><path class="cls-3" d="M283.23,44.76a364.37,364.37,0,0,0-48,43.84,6.4,6.4,0,0,0-1.46,2.64,174.72,174.72,0,0,0-26.2,29.21,158.83,158.83,0,0,0-16.89,30.75,64.2,64.2,0,0,1-47.93-1.73c3.89-41.91,26.38-81.41,59.91-108.62A163.74,163.74,0,0,1,231,22.6a5.58,5.58,0,0,0,1.63-.83A290.63,290.63,0,0,1,283.23,44.76Z"/><path class="cls-2" d="M172.11,11.78l40.28,8.08A178.38,178.38,0,0,0,155.5,76.92,316.06,316.06,0,0,1,172.11,11.78Z"/><path class="cls-3" d="M146.32,56.79a7.78,7.78,0,0,0,.35,1.46,327.14,327.14,0,0,0-5.61,42.51,5,5,0,0,0,.73,3.08c-1.18,3-2.34,6-3.35,9a158.7,158.7,0,0,0-5,18.43A215.29,215.29,0,0,0,100,78.18a3.21,3.21,0,0,0-.11-.52,261.26,261.26,0,0,0-22.28-48,154.69,154.69,0,0,1,54.63-14A117.35,117.35,0,0,1,146.32,56.79Z"/><path class="cls-2" d="M120.29,130.73A185.5,185.5,0,0,1,129.8,155c-10,12.26-26.92,19.37-42.92,17.31a319.65,319.65,0,0,0-53.75-71.68c-5.55-5.59-11.38-10.93-17.37-16.11A233.15,233.15,0,0,1,57.5,54.21,206.77,206.77,0,0,1,120.29,130.73Z"/><path class="cls-4" d="M261.25,387.19c-.12,5.26.07,10.69-.6,15.92-1.9,14.78-13.82,27.55-26.86,36-17.89,11.57-39.54,18.12-61,19.58A132.15,132.15,0,0,1,118,442.86c-14.1-7.82-27.65-19.4-32-34.59A40.9,40.9,0,0,1,84.5,397.2c-.18-6.3-.35-12.59-.42-18.89q-.21-18.8.3-37.58c.62-24.92,2-49.81,3.49-74.7,1.65-27.38,3.43-54.76,4.57-82.17,18.65-.14,36.71-8.6,47.77-23.06a76.24,76.24,0,0,0,53.3,1.5,7.28,7.28,0,0,0,.77.13A105.3,105.3,0,0,0,253,182.65c2,49.42,6.23,98.74,7.83,148.17.41,12.5.65,25,.64,37.52Q261.45,377.76,261.25,387.19Z"/><path class="cls-3" d="M83.07,391.52l9.76-12.38,4,19.28,14.52-14,7,17.68,14.36-14.17,6.89,19.53,14.58-15.9,10.47,18.09,10-16.72,10.94,15.57L196,393.23l11.3,13.5,9.39-16.89,10.67,13.61,8.34-17,11.35,14.31,5.33-18.57,12.29,14.29c0-1-3.46-8.36-3.44-9.33q.19-9.44.2-18.85c0-12.51-.23-25-.64-37.52-1.6-49.43-5.81-98.75-7.83-148.17a105.3,105.3,0,0,1-58.7-20.22,7.28,7.28,0,0,1-.77-.13,76.24,76.24,0,0,1-53.3-1.5c-11.06,14.46-29.12,22.92-47.77,23.06-1.14,27.41-2.92,54.79-4.57,82.17-1.5,24.89-2.87,49.78-3.49,74.7q-.48,18.79-.3,37.58C84.1,380.15,83,389.67,83.07,391.52Z"/><path class="cls-1" d="M85.43,393.88l9.76-12.38L89.61,380l4,19.28c.54,2.53,3.87,3.12,5.58,1.47l14.52-14-5.58-1.48,7,17.69c.9,2.27,3.64,3.38,5.58,1.47l14.36-14.17-5.58-1.48,6.89,19.53c.79,2.24,3.77,3.45,5.58,1.48l12.73-13.88,1.85-2-5.24-.68,10.47,18.09a3.37,3.37,0,0,0,5.76,0l10-16.71h-5.76l10.94,15.56a3.38,3.38,0,0,0,5.76,0l10.4-15.23-5.25.68,11.3,13.5c1.38,1.64,4.27,1.08,5.25-.68l9.38-16.89-5.24.68L225,405.81c1.28,1.64,4.37,1.1,5.24-.67l8.34-17-5.24.68,11.35,14.31c1.63,2,4.95.72,5.58-1.47l5.33-18.57L250,384.59l12.28,14.29c1.87,2.16,5.86.44,5.7-2.36a15.32,15.32,0,0,0-1.58-4.92c-.65-1.6-1.25-3.21-1.88-4.82,0-.06,0-.28-.08-.33l.1.74,0-1c0-.82,0-1.65,0-2.48,0-2,.06-4,.09-5.95q0-5.44.05-10.91c0-14.83-.37-29.66-.94-44.49-1.14-29.85-3.13-59.67-4.91-89.49-1-16.73-1.93-33.47-2.62-50.22a3.42,3.42,0,0,0-3.34-3.34,101.75,101.75,0,0,1-42.76-11,104.25,104.25,0,0,1-9.71-5.63c-.77-.5-1.54-1-2.29-1.54a15.83,15.83,0,0,0-2.65-1.76,5,5,0,0,0-3.78,0c-.9.3-1.81.59-2.73.86A71.61,71.61,0,0,1,166.27,163a75,75,0,0,1-25.17-5.43c-1.48-.6-2.93.45-3.77,1.53a54,54,0,0,1-14.76,13,58.24,58.24,0,0,1-18.76,7.26,56.8,56.8,0,0,1-11.37,1.18,3.4,3.4,0,0,0-3.34,3.34C87.89,212.93,86,242,84.23,271s-3.22,58.15-3.5,87.27q-.06,6.06,0,12.12c0,3,.2,6.12,0,9.16-.26,4-1,8-1,12,0,4.29,6.71,4.3,6.68,0,0-3.58.58-7.2.87-10.75.17-2.14.12-4.27.1-6.42q0-5.43,0-10.88c.07-14.39.44-28.78,1-43.17,1.15-29.15,3.1-58.26,4.83-87.38,1-16.35,1.88-32.7,2.56-49.06l-3.33,3.33a66,66,0,0,0,41.81-15.32,60.55,60.55,0,0,0,8.85-9.39L139.33,164a79.43,79.43,0,0,0,55.07,1.5h-1.78c.55.11,1.11.17,1.66.24l-1.68-.45a108.14,108.14,0,0,0,45.82,19.22A111.16,111.16,0,0,0,253,186l-3.34-3.34c1.23,29.85,3.24,59.67,5,89.49s3.26,59.49,3.45,89.28q.07,12.39-.16,24.77a14.11,14.11,0,0,0,1.55,5.91c.44,1.06.89,2.12,1.3,3.19.16.39.31.78.44,1.18s.21,1.43.13,0l5.7-2.36-12.29-14.29c-1.68-2-4.92-.79-5.58,1.48l-5.33,18.56,5.58-1.47-11.35-14.31c-1.29-1.63-4.36-1.11-5.24.67l-8.34,17,5.24-.68-10.67-13.61c-1.33-1.71-4.29-1-5.24.67L204.44,405l5.24-.67-11.3-13.5c-1.47-1.76-4.13-.95-5.24.67l-10.39,15.23h5.76l-10.94-15.56a3.38,3.38,0,0,0-5.76,0l-10,16.71h5.76l-10.47-18.09a3.36,3.36,0,0,0-5.24-.67L139.15,403l-1.85,2,5.58,1.47L136,387a3.38,3.38,0,0,0-5.58-1.47L116.05,399.7l5.58,1.47-7-17.68c-.91-2.29-3.63-3.36-5.58-1.47l-14.52,14,5.58,1.47-4-19.28c-.49-2.29-4-3.42-5.58-1.47l-9.76,12.38a3.44,3.44,0,0,0,0,4.72C81.87,395,84.31,395.3,85.43,393.88Z"/><ellipse class="cls-5" cx="116.87" cy="355.17" rx="16.02" ry="11.7"/><ellipse class="cls-5" cx="101.59" cy="309.73" rx="10.56" ry="7.72"/><ellipse class="cls-5" cx="235" cy="199.69" rx="10.56" ry="7.72"/><ellipse class="cls-5" cx="188.39" cy="225.52" rx="12.84" ry="9.38"/><ellipse class="cls-5" cx="191.69" cy="371.42" rx="12.84" ry="9.38"/><ellipse class="cls-5" cx="235" cy="330.75" rx="17.4" ry="12.72"/><ellipse class="cls-5" cx="120.05" cy="204.45" rx="17.4" ry="12.72"/><circle class="cls-6" cx="132.89" cy="269.38" r="18.68"/><circle class="cls-6" cx="212.4" cy="269.38" r="18.68"/><path class="cls-6" d="M139.54,303.86c2.53,5.94,8.46,10.64,15.1,10.58,3.47,0,6.78-1.46,9.8-3,2.87-1.51,6.86-5.18,10.24-4.1s6.11,3.66,9.29,5a20,20,0,0,0,10.3,1.82A13.55,13.55,0,0,0,206.37,302c.4-4.15-6.09-4.12-6.49,0-.56,5.84-7.69,6.42-12,4.93-5.15-1.79-9.44-6.71-15.2-6.37-5.55.32-9.89,5.1-15,6.78-5.64,1.85-10.37-1.67-12.53-6.76-1.63-3.83-7.22-.53-5.61,3.27Z"/><ellipse class="cls-5" cx="116.87" cy="355.17" rx="16.02" ry="11.7"/><ellipse class="cls-5" cx="101.59" cy="309.73" rx="10.56" ry="7.72"/><ellipse class="cls-5" cx="235" cy="199.69" rx="10.56" ry="7.72"/><ellipse class="cls-5" cx="188.39" cy="225.52" rx="12.84" ry="9.38"/><ellipse class="cls-5" cx="191.69" cy="371.42" rx="12.84" ry="9.38"/><ellipse class="cls-5" cx="235" cy="330.75" rx="17.4" ry="12.72"/><ellipse class="cls-5" cx="120.05" cy="204.45" rx="17.4" ry="12.72"/></g></g></svg>