<svg width="34" height="34" viewBox="0 0 34 34" fill="none" xmlns="http://www.w3.org/2000/svg">
<rect width="34" height="34" rx="17" fill="#F8BE2B"/>
<path d="M8.7875 21.9549C7.90859 21.9549 7.19141 21.24 7.19141 20.3588C7.19141 19.4775 7.90625 18.7627 8.7875 18.7627H25.2336C26.1125 18.7627 26.8297 19.4775 26.8297 20.3588C26.8297 21.24 26.1148 21.9549 25.2336 21.9549H8.7875Z" fill="#E95655"/>
<path d="M25.234 19.1773C25.8832 19.1773 26.4152 19.7094 26.4152 20.3586C26.4152 21.0078 25.8832 21.5398 25.234 21.5398H8.78789C8.13867 21.5398 7.60664 21.0078 7.60664 20.3586C7.60664 19.7094 8.13867 19.1773 8.78789 19.1773H25.234ZM25.234 18.3477H8.78789C7.6793 18.3477 6.7793 19.25 6.7793 20.3563C6.7793 21.4625 7.68164 22.3648 8.78789 22.3648H25.234C26.3426 22.3648 27.2426 21.4625 27.2426 20.3563C27.2426 19.25 26.3402 18.3477 25.234 18.3477Z" fill="#662F0A"/>
<path d="M8.45723 24.7976C7.6252 24.7976 6.9502 24.0077 6.9502 23.0351C6.9502 22.2335 7.38613 21.9077 8.45723 21.9077H25.5643C26.6354 21.9077 27.0713 22.2335 27.0713 23.0351C27.0713 24.0054 26.3963 24.7976 25.5643 24.7976H8.45723Z" fill="#F4C239"/>
<path d="M25.5641 22.3229C26.5812 22.3229 26.6562 22.6065 26.6562 23.0378C26.6562 23.7808 26.1664 24.3855 25.5641 24.3855H8.45703C7.85469 24.3855 7.36484 23.7808 7.36484 23.0378C7.36484 22.6065 7.43984 22.3229 8.45703 22.3229H25.5641ZM25.5641 21.4956H8.45703C7.98125 21.4956 6.53516 21.4956 6.53516 23.0378C6.53516 24.2378 7.39766 25.2128 8.45703 25.2128H25.5641C26.6234 25.2128 27.4859 24.2378 27.4859 23.0378C27.4836 21.4956 26.0398 21.4956 25.5641 21.4956Z" fill="#662F0A"/>
<path d="M8.90723 17.0797C7.8291 17.0797 6.9502 16.2008 6.9502 15.1227C6.9502 13.5242 7.99082 12.0195 9.88457 10.8828C11.7877 9.74141 14.3189 9.11328 17.0119 9.11328C19.7049 9.11328 22.2361 9.74141 24.1393 10.8828C26.0307 12.0172 27.0736 13.5242 27.0736 15.1227C27.0736 16.2031 26.1947 17.0797 25.1166 17.0797H8.90723Z" fill="#FFB000"/>
<path d="M17.0094 9.52803C19.6297 9.52803 22.0836 10.1351 23.9234 11.239C25.6859 12.296 26.6562 13.6765 26.6562 15.1226C26.6562 15.9733 25.9648 16.6671 25.1117 16.6671H8.90703C8.05625 16.6671 7.3625 15.9757 7.3625 15.1226C7.3625 13.6765 8.33281 12.296 10.0953 11.239C11.9352 10.1351 14.3914 9.52803 17.0094 9.52803ZM17.0094 8.70068C14.2414 8.70068 11.6352 9.3499 9.66875 10.5288C7.64844 11.7405 6.53516 13.3741 6.53516 15.1226C6.53516 16.4304 7.59922 17.4944 8.90703 17.4944H25.1141C26.4219 17.4944 27.4859 16.4304 27.4859 15.1226C27.4859 13.3741 26.3727 11.7405 24.3523 10.5288C22.3836 9.3499 19.7773 8.70068 17.0094 8.70068Z" fill="#662F0A"/>
<path d="M8.50391 19.1772C8.50391 19.1772 12.6406 21.514 13.1398 22.9788C13.1398 22.9788 16.0648 20.0022 20.7828 19.1772H8.50391Z" fill="#F6C75E"/>
<path d="M13.1408 23.3916C13.1104 23.3916 13.0799 23.3893 13.0494 23.3822C12.9088 23.3494 12.7963 23.2486 12.7494 23.1127C12.4237 22.1541 9.84787 20.4104 8.301 19.5385C8.13693 19.4471 8.05725 19.2549 8.10412 19.0721C8.151 18.8893 8.3174 18.7627 8.5049 18.7627H20.7838C20.9994 18.7627 21.1776 18.9268 21.1963 19.14C21.2151 19.3533 21.0674 19.5455 20.8565 19.583C16.3213 20.3752 13.4643 23.2393 13.4362 23.2674C13.3588 23.3494 13.251 23.3916 13.1408 23.3916ZM9.98615 19.59C11.0877 20.2979 12.583 21.3619 13.2487 22.3135C13.9494 21.7018 15.5268 20.4783 17.7908 19.59H9.98615Z" fill="#662F0A"/>
<path d="M13.7669 11.7156C13.7782 11.7588 13.8022 11.7983 13.8375 11.8318C13.8727 11.8652 13.9186 11.892 13.9725 11.9106C14.0264 11.9291 14.0872 11.9391 14.1514 11.94C14.2157 11.9409 14.2822 11.9326 14.3471 11.9156C14.4119 11.8986 14.4739 11.8733 14.5295 11.8411C14.5851 11.8088 14.6333 11.7703 14.6711 11.7277C14.709 11.6851 14.7359 11.6393 14.7502 11.5928C14.7646 11.5464 14.7662 11.5002 14.7549 11.457C14.7435 11.4137 14.7196 11.3742 14.6843 11.3408C14.649 11.3073 14.6031 11.2805 14.5492 11.262C14.4953 11.2434 14.4345 11.2334 14.3703 11.2325C14.306 11.2317 14.2395 11.24 14.1747 11.2569C14.1098 11.2739 14.0478 11.2992 13.9922 11.3315C13.9366 11.3637 13.8885 11.4022 13.8506 11.4448C13.8127 11.4874 13.7858 11.5332 13.7715 11.5797C13.7571 11.6261 13.7555 11.6723 13.7669 11.7156Z" fill="#FFE200"/>
<path d="M22.4475 13.2473C22.4588 13.2905 22.4828 13.33 22.5181 13.3635C22.5534 13.3969 22.5993 13.4237 22.6532 13.4423C22.707 13.4609 22.7678 13.4709 22.8321 13.4717C22.8964 13.4726 22.9628 13.4643 23.0277 13.4473C23.0926 13.4304 23.1546 13.405 23.2102 13.3728C23.2658 13.3406 23.3139 13.302 23.3518 13.2595C23.3897 13.2169 23.4165 13.171 23.4309 13.1246C23.4453 13.0781 23.4468 13.032 23.4355 12.9887C23.4242 12.9455 23.4002 12.906 23.3649 12.8725C23.3297 12.8391 23.2838 12.8123 23.2299 12.7937C23.176 12.7751 23.1152 12.7651 23.0509 12.7643C22.9867 12.7634 22.9202 12.7717 22.8553 12.7887C22.7905 12.8057 22.7284 12.831 22.6728 12.8632C22.6172 12.8955 22.5691 12.934 22.5313 12.9766C22.4934 13.0191 22.4665 13.065 22.4521 13.1114C22.4378 13.1579 22.4362 13.2041 22.4475 13.2473Z" fill="#FFE200"/>
<path d="M16.3887 15.1889C16.3684 15.2528 16.3672 15.3221 16.3852 15.3928C16.4032 15.4635 16.44 15.5342 16.4934 15.6009C16.5469 15.6676 16.616 15.729 16.6969 15.7815C16.7777 15.834 16.8687 15.8767 16.9645 15.9071C17.0604 15.9375 17.1594 15.955 17.2557 15.9586C17.352 15.9623 17.4439 15.9519 17.526 15.9282C17.6082 15.9045 17.6789 15.8679 17.7344 15.8205C17.7898 15.773 17.8287 15.7157 17.849 15.6518C17.8692 15.5879 17.8704 15.5186 17.8524 15.4479C17.8345 15.3772 17.7977 15.3065 17.7442 15.2398C17.6908 15.1731 17.6216 15.1118 17.5408 15.0592C17.46 15.0067 17.369 14.964 17.2731 14.9336C17.1772 14.9032 17.0783 14.8857 16.982 14.8821C16.8856 14.8785 16.7938 14.8888 16.7116 14.9125C16.6295 14.9362 16.5587 14.9728 16.5033 15.0203C16.4479 15.0677 16.4089 15.125 16.3887 15.1889Z" fill="#FFE200"/>
<path d="M17.9199 12.125C17.8997 12.1889 17.8985 12.2582 17.9165 12.3288C17.9344 12.3995 17.9712 12.4702 18.0247 12.5369C18.0782 12.6036 18.1473 12.665 18.2281 12.7175C18.3089 12.7701 18.3999 12.8128 18.4958 12.8432C18.5917 12.8736 18.6906 12.8911 18.7869 12.8947C18.8833 12.8983 18.9751 12.888 19.0573 12.8642C19.1394 12.8405 19.2102 12.8039 19.2656 12.7565C19.321 12.7091 19.36 12.6518 19.3802 12.5878C19.4005 12.5239 19.4017 12.4546 19.3837 12.3839C19.3657 12.3133 19.329 12.2425 19.2755 12.1758C19.222 12.1092 19.1529 12.0478 19.072 11.9952C18.9912 11.9427 18.9003 11.9 18.8044 11.8696C18.7085 11.8392 18.6096 11.8217 18.5132 11.8181C18.4169 11.8145 18.325 11.8248 18.2429 11.8485C18.1608 11.8723 18.09 11.9089 18.0346 11.9563C17.9791 12.0037 17.9402 12.061 17.9199 12.125Z" fill="#FFE200"/>
<path d="M23.5323 15.1905C23.5127 15.2546 23.5122 15.3239 23.5309 15.3944C23.5496 15.4649 23.5871 15.5352 23.6412 15.6014C23.6954 15.6675 23.7651 15.7282 23.8465 15.7799C23.9278 15.8316 24.0192 15.8734 24.1154 15.9028C24.2116 15.9322 24.3107 15.9487 24.4071 15.9513C24.5035 15.954 24.5952 15.9427 24.6771 15.9182C24.759 15.8936 24.8294 15.8563 24.8843 15.8083C24.9393 15.7603 24.9776 15.7026 24.9972 15.6385C25.0168 15.5744 25.0173 15.5051 24.9986 15.4346C24.9799 15.3641 24.9424 15.2937 24.8883 15.2276C24.8342 15.1614 24.7644 15.1008 24.683 15.0491C24.6017 14.9973 24.5103 14.9556 24.4141 14.9262C24.3179 14.8967 24.2188 14.8802 24.1224 14.8776C24.0261 14.875 23.9343 14.8862 23.8524 14.9108C23.7705 14.9353 23.7001 14.9727 23.6452 15.0206C23.5903 15.0686 23.5519 15.1263 23.5323 15.1905Z" fill="#FFE200"/>
<path d="M9.77009 14.1733C9.793 14.2363 9.83429 14.292 9.89163 14.337C9.94897 14.3821 10.0212 14.4158 10.1043 14.436C10.1873 14.4563 10.2795 14.4628 10.3756 14.4552C10.4717 14.4476 10.5699 14.426 10.6644 14.3916C10.7589 14.3573 10.848 14.3109 10.9266 14.255C11.0052 14.1992 11.0717 14.135 11.1224 14.0661C11.173 13.9972 11.2068 13.9251 11.2218 13.8537C11.2369 13.7823 11.2328 13.7131 11.2099 13.6501C11.187 13.5871 11.1457 13.5315 11.0884 13.4864C11.031 13.4413 10.9588 13.4076 10.8757 13.3874C10.7927 13.3671 10.7005 13.3606 10.6044 13.3682C10.5083 13.3758 10.4101 13.3974 10.3156 13.4318C10.2211 13.4661 10.132 13.5126 10.0534 13.5684C9.97481 13.6243 9.90829 13.6885 9.85764 13.7573C9.80698 13.8262 9.77318 13.8983 9.75816 13.9697C9.74314 14.0411 9.74719 14.1103 9.77009 14.1733Z" fill="#FFE200"/>
<path d="M12.1109 20.0821C11.9257 20.0821 11.7499 20.0563 11.5859 20.0024C11.1265 19.8548 10.8007 19.522 10.5124 19.2267C10.4421 19.154 10.3718 19.0813 10.2992 19.0134L10.271 19.0251C9.97572 19.1493 9.60775 19.304 9.21635 19.304C8.88822 19.304 8.59994 19.1962 8.35853 18.9853C8.17807 18.8259 8.05619 18.779 7.9601 18.7415C7.40932 18.5259 7.5476 18.0899 7.62025 17.8556C7.81478 17.2298 8.314 17.1946 8.64447 17.1712C8.77103 17.1618 8.89291 17.1524 9.01478 17.122C9.0476 17.1126 9.08275 17.1079 9.11791 17.1079L25.5523 17.2181C25.6414 17.2181 25.7281 17.2485 25.7984 17.3024L25.8312 17.3259C26.5015 17.8321 26.7031 18.104 26.1617 18.9524C25.8265 19.4751 25.2101 19.7985 24.5539 19.7985C24.2398 19.7985 23.9328 19.7212 23.6703 19.5759C23.3632 19.4048 23.1218 19.161 22.9085 18.9431L22.8804 18.9126C22.7984 18.9712 22.7187 19.0438 22.6343 19.1212C22.5265 19.2173 22.414 19.3181 22.2851 19.4095C22.032 19.5853 21.7507 19.6837 21.4882 19.6837C21.3523 19.6837 21.221 19.6579 21.0992 19.6087C20.8085 19.4892 20.6304 19.2571 20.4898 19.0603C20.1781 19.5735 19.6437 19.9462 19.0413 20.0353C18.9476 20.0493 18.8538 20.0563 18.7578 20.0563C18.1976 20.0563 17.6562 19.822 17.2671 19.4353C16.8359 19.8431 16.4117 20.0423 15.9851 20.0423C15.8913 20.0423 15.7999 20.0329 15.7085 20.0142C15.1249 19.8923 14.764 19.4188 14.539 18.9923C14.0398 19.3884 13.482 19.7728 12.8281 19.972C12.5726 20.0446 12.3335 20.0821 12.1109 20.0821Z" fill="#8FC31F"/>
<path d="M9.11499 17.5202L25.547 17.6304C26.1376 18.078 26.2056 18.1108 25.8095 18.7296C25.5423 19.1468 25.0431 19.3858 24.5486 19.3858C24.3119 19.3858 24.0751 19.3319 23.8642 19.2147C23.597 19.0671 23.3814 18.8421 23.1681 18.6241C23.0908 18.5444 23.0017 18.4624 22.8916 18.4601H22.8892C22.8166 18.4601 22.7486 18.4976 22.6876 18.5397C22.4556 18.6944 22.2681 18.9101 22.0408 19.0694C21.8767 19.1843 21.6775 19.2687 21.4806 19.2687C21.4033 19.2687 21.3236 19.2546 21.2509 19.2241C20.8525 19.0601 20.7306 18.4952 20.3251 18.3476C20.1892 18.9968 19.6267 19.5265 18.9728 19.6249C18.9001 19.6366 18.8251 19.6413 18.7501 19.6413C18.1666 19.6413 17.5806 19.3132 17.2876 18.7976C16.9431 19.2054 16.4861 19.6249 15.9751 19.6249C15.9119 19.6249 15.8486 19.6179 15.783 19.6038C15.2111 19.4843 14.9064 18.8702 14.6814 18.3288C14.0767 18.8304 13.4509 19.3413 12.6962 19.571C12.5064 19.6296 12.3048 19.6671 12.1056 19.6671C11.9697 19.6671 11.8361 19.6483 11.7072 19.6085C11.2455 19.4608 10.9291 19.0483 10.5798 18.7132C10.5189 18.6546 10.4509 18.596 10.3689 18.5819C10.3548 18.5796 10.3431 18.5796 10.3291 18.5796C10.2658 18.5796 10.2001 18.603 10.1416 18.6288C9.86265 18.746 9.53218 18.889 9.21109 18.889C9.00718 18.889 8.80796 18.8304 8.62515 18.671C8.05093 18.1671 7.84937 18.4882 8.00874 17.9749C8.1728 17.4663 8.59702 17.6538 9.11499 17.5202ZM9.11499 16.6929C9.04468 16.6929 8.97437 16.7022 8.90874 16.7187C8.82202 16.7397 8.72593 16.7491 8.61343 16.7562C8.28062 16.7796 7.50484 16.8382 7.22359 17.7312C6.95405 18.589 7.39234 18.964 7.80718 19.1257C7.88687 19.1562 7.95718 19.1843 8.08374 19.2968C8.40015 19.5733 8.78921 19.7187 9.21577 19.7187C9.58374 19.7187 9.92124 19.6108 10.2025 19.503C10.2072 19.5077 10.2119 19.5124 10.2166 19.5194C10.5212 19.8312 10.9033 20.2202 11.4587 20.4007C11.6626 20.4663 11.883 20.4991 12.1103 20.4991C12.3728 20.4991 12.6541 20.4546 12.9423 20.3655C13.5025 20.1944 13.9876 19.9085 14.4212 19.5944C14.6908 19.9624 15.0728 20.3022 15.6142 20.4171C15.7337 20.4429 15.8556 20.4546 15.9775 20.4546C16.4884 20.4546 16.9267 20.2319 17.2619 19.9788C17.6884 20.2905 18.2134 20.471 18.7501 20.471C18.865 20.471 18.9822 20.4616 19.0947 20.4452C19.6337 20.3655 20.1259 20.0983 20.4962 19.7116C20.6158 19.8194 20.7564 19.9179 20.9322 19.9905C21.1033 20.0608 21.2884 20.0983 21.4783 20.0983C21.9212 20.0983 22.2845 19.9085 22.5119 19.7491C22.6408 19.6601 22.7509 19.564 22.8494 19.4772C23.0228 19.6413 23.222 19.8077 23.4634 19.939C23.7869 20.1171 24.1619 20.2132 24.5486 20.2132C25.3455 20.2132 26.0955 19.8147 26.5056 19.1749C27.183 18.1155 26.8923 17.6093 26.0767 16.9929L26.0439 16.9694C25.9009 16.8616 25.7275 16.803 25.5494 16.803L9.11734 16.6929H9.11499Z" fill="#662F0A"/>
</svg>
