<svg width="80" height="80" viewBox="0 0 80 80" fill="none" xmlns="http://www.w3.org/2000/svg">
<path d="M40.1827 79.9999C17.9185 80.0521 0.0392158 62.2598 6.41306e-05 40.0195C-0.0390875 17.8314 17.8532 0 40.1566 0C62.0685 0 79.9738 17.9096 79.9999 39.863C80.026 62.012 62.2512 79.9347 40.1827 79.9999ZM56.9527 29.232C51.093 23.3099 45.429 17.5705 40.1044 12.2093C34.4274 17.8053 28.6982 23.4665 23.2431 28.8537C24.9919 30.7842 26.8059 32.78 28.9853 35.1801C32.1958 31.8278 35.354 28.658 38.3556 25.3579C39.6085 23.9882 40.3915 23.9752 41.6444 25.3709C44.6199 28.6972 47.752 31.8799 50.9755 35.2714C53.3116 32.8974 55.2039 30.9929 56.9527 29.232ZM23.2431 50.8983C28.8809 56.5856 34.5579 62.312 39.9478 67.7514C45.5987 62.2076 51.3018 56.6247 56.783 51.2636C54.9168 49.2678 53.0506 47.2721 51.2365 45.3285C48 48.5113 44.7896 51.6158 41.6313 54.7855C40.4829 55.9334 39.7129 56.1421 38.4992 54.7333C35.5498 51.2897 32.4046 48.0025 29.416 44.7545C26.845 47.2982 24.9397 49.1896 23.2431 50.8983ZM40.1175 34.0322C37.925 36.1454 35.9152 38.089 34.2708 39.6804C36.2023 41.8979 38.0033 43.9589 39.7651 45.9677C41.9184 43.8023 43.876 41.8196 45.938 39.7456C44.0457 37.8803 42.0881 35.9628 40.1175 34.0322ZM17.6314 34.3062C15.6607 36.1584 13.6379 38.0368 11.863 39.7065C13.8075 41.8718 15.6477 43.9197 17.4748 45.9677C19.5628 43.8675 21.5074 41.924 23.4911 39.9412C21.5596 38.0759 19.5628 36.1584 17.6314 34.3062ZM62.4731 34.0714C60.4241 36.0932 58.4665 38.0368 56.3915 40.0717C58.3752 42.0544 60.3197 43.9849 62.0946 45.7459C64.1696 43.6719 66.1272 41.7022 68.0326 39.7847C66.2838 37.9846 64.4045 36.0541 62.4731 34.0714Z" fill="black"/>
<path d="M56.9529 29.233C55.2041 30.9939 53.3248 32.8984 50.9888 35.2594C47.7783 31.8679 44.6332 28.6851 41.6576 25.3588C40.4048 23.9631 39.6087 23.9761 38.3689 25.3458C35.3542 28.646 32.209 31.8157 28.9986 35.168C26.8191 32.7679 25.0051 30.7722 23.2563 28.8416C28.7115 23.4544 34.4537 17.7932 40.1177 12.1973C45.4162 17.5715 51.0801 23.3109 56.9529 29.233Z" fill="#F0B80B"/>
<path d="M23.2432 50.8977C24.9528 49.202 26.8582 47.2975 29.403 44.7539C32.3786 48.0019 35.5237 51.289 38.4862 54.7327C39.6999 56.1545 40.4829 55.9458 41.6183 54.7849C44.7635 51.6151 47.987 48.4976 51.2236 45.3278C53.0376 47.2714 54.9038 49.2672 56.77 51.2629C51.3019 56.6241 45.5857 62.2201 39.9348 67.7508C34.5449 62.3114 28.868 56.585 23.2432 50.8977Z" fill="#F0B80B"/>
<path d="M40.1181 34.0332C42.0888 35.9637 44.0463 37.8812 45.9387 39.7466C43.8767 41.8206 41.9191 43.7902 39.7658 45.9686C38.017 43.9598 36.203 41.8858 34.2715 39.6813C35.9159 38.0899 37.9387 36.1464 40.1181 34.0332Z" fill="#F0B80B"/>
<path d="M17.6316 34.3066C19.5762 36.172 21.5598 38.0764 23.4913 39.9417C21.5076 41.9244 19.5762 43.868 17.475 45.9681C15.6349 43.9202 13.8078 41.8723 11.8633 39.7069C13.6382 38.0373 15.6479 36.1459 17.6316 34.3066Z" fill="#F0B80B"/>
<path d="M62.4738 34.0723C64.4053 36.055 66.2846 37.9855 68.0464 39.7856C66.141 41.7031 64.1704 43.6728 62.1084 45.7468C60.3335 43.9858 58.402 42.0553 56.4053 40.0726C58.4673 38.0246 60.4248 36.0941 62.4738 34.0723Z" fill="#F0B80B"/>
</svg>
