<svg width="64" height="64" viewBox="0 0 64 64" fill="none" xmlns="http://www.w3.org/2000/svg">
<rect x="8" y="8" width="48" height="48" rx="24" fill="#F0B80B"/>
<path d="M32.7247 20.75C33.9758 20.8503 35.7229 20.9045 37.4425 21.1457C39.6057 21.4519 41.7056 22.0482 43.505 23.3572C44.7837 24.2949 45.7675 25.4819 46.1119 27.0701C46.3048 27.9617 46.4674 28.8642 46.6217 29.764C46.6989 30.2112 46.4784 30.4551 46.0155 30.3792C44.6376 30.1624 43.2846 29.9347 41.926 29.6827C41.7046 29.626 41.5099 29.4958 41.3749 29.3141C40.9339 28.7152 40.2037 28.5011 39.6415 28.9509C39.0794 29.4008 38.5199 29.3656 37.8696 29.3466C34.8604 29.2572 31.8484 29.222 28.8364 29.1732C28.2852 29.1732 27.8305 29.2409 27.4585 28.5932C26.9818 27.7639 25.4661 27.8859 24.9784 28.726C24.8632 28.9491 24.689 29.1375 24.4742 29.2715C24.2594 29.4055 24.0119 29.4801 23.7576 29.4876C22.4569 29.6149 21.1645 29.8101 19.8693 29.9781C19.7894 29.9781 19.7122 29.9971 19.6323 30.0025C18.6182 30.0675 18.4446 29.8995 18.5135 28.894C18.6458 26.8858 19.3871 25.1215 20.8862 23.7447C21.8589 22.8531 23.0907 22.3111 24.3473 21.8856C26.8909 21.0346 29.5584 20.9045 32.7247 20.75ZM29.7871 22.8124C30.2363 22.4981 30.7406 22.3246 30.8894 21.9994C31.0382 21.6742 30.5587 21.6254 30.2804 21.6227C29.8643 21.6227 29.393 21.6227 29.3379 22.1647C29.3186 22.33 29.5749 22.5143 29.7871 22.8124ZM34.8604 21.4303L33.9758 21.9723C34.3012 22.1777 34.6547 22.3365 35.0257 22.4438C35.2021 22.471 35.4391 22.1484 35.6485 21.9831L34.8604 21.4303ZM24.6642 23.7149L25.7886 22.8287C25.6205 22.7067 25.4634 22.5008 25.2843 22.4818C24.7965 22.4249 24.1627 22.7989 24.2178 23.0835C24.2454 23.2461 24.4328 23.3951 24.6587 23.7014L24.6642 23.7149ZM31.8787 23.4195C32.1543 23.3816 32.2976 23.4032 32.372 23.3409C32.5861 23.1488 32.7903 22.9462 32.9837 22.7338C32.7388 22.6356 32.4885 22.5506 32.2342 22.4791C32.1759 22.4676 32.116 22.4677 32.0578 22.4794C31.9996 22.491 31.9443 22.5139 31.8952 22.5468C31.7022 22.7066 31.5182 22.8767 31.3441 23.0563L31.8787 23.4195ZM39.14 22.555C39.3742 23.1431 39.8014 23.4331 40.3139 23.3355C40.481 23.3017 40.6276 23.2043 40.7218 23.0645C40.7631 22.9967 40.6418 22.7772 40.5399 22.6905C40.3526 22.5212 40.115 22.4154 39.8621 22.3886C39.6092 22.3618 39.3542 22.4153 39.1345 22.5414L39.14 22.555ZM36.3016 23.5577C36.5772 23.5171 36.737 23.5415 36.8307 23.4683C37.0208 23.3192 37.3129 23.1024 37.2992 22.9263C37.2689 22.5821 36.952 22.4981 36.6185 22.6119C36.4826 22.6396 36.3529 22.691 36.2355 22.7637C36.0968 22.9001 35.9714 23.0489 35.8607 23.2081L36.3016 23.5577ZM27.8498 23.8287C28.1254 23.5577 28.4451 23.4005 28.4396 23.2433C28.423 22.7013 27.8884 22.7772 27.544 22.7474C27.3566 22.7311 27.1471 22.9615 26.9487 23.0807L27.8498 23.8287Z" fill="#1E2125"/>
<path d="M31.2641 43.25C29.1284 43.1335 26.9872 43.0928 24.8626 42.8814C22.2226 42.6104 20.0263 41.5507 18.8551 39.033C18.6712 38.5829 18.5732 38.1033 18.5658 37.6183C18.5658 37.4747 18.902 37.1711 19.0728 37.1792C20.4148 37.2524 21.7514 37.4015 23.0934 37.4909C24.3583 37.5722 25.6231 37.6102 26.888 37.6617C27.2959 37.6779 27.5907 37.7646 27.734 38.2227C27.8717 38.5451 28.0657 38.8414 28.3072 39.098C28.8115 39.7458 29.3819 39.8054 30.0405 39.3094C30.2803 39.176 30.5025 39.014 30.7019 38.827C31.457 37.8568 32.4601 37.6969 33.6395 37.6915C37.2442 37.6601 40.8413 37.3621 44.4005 36.7998C44.8277 36.7348 45.2438 36.6047 45.6682 36.5288C46.167 36.4421 46.3902 36.6508 46.4067 37.1657C46.4701 39.0818 45.3044 40.7187 43.5601 41.5643C40.7492 42.9194 37.7235 43.0142 34.7115 43.2066C33.5678 43.2798 32.416 43.2066 31.2668 43.2066L31.2641 43.25Z" fill="#1E2125"/>
<path d="M46.6967 33.2303C45.7349 32.8698 44.8173 32.5825 43.9409 32.1841C43.354 31.9131 42.88 31.7857 42.3041 32.2248C42.0263 32.4385 41.6864 32.5593 41.3339 32.5696C40.9814 32.5798 40.6348 32.4789 40.3448 32.2817C40.1347 32.1404 39.887 32.0633 39.6326 32.0599C39.3781 32.0565 39.1284 32.1271 38.9145 32.2627C38.4395 32.5087 37.9121 32.6408 37.3752 32.6484C36.8384 32.6559 36.3074 32.5386 35.8254 32.3061C35.605 32.181 35.3579 32.1083 35.1039 32.0937C34.8498 32.0791 34.5958 32.1231 34.3621 32.2221C34.1135 32.3511 33.8301 32.4007 33.5515 32.3637C33.2729 32.3268 33.0129 32.2053 32.8079 32.0161C32.658 31.8591 32.4571 31.7583 32.2399 31.7311C32.0227 31.7039 31.8026 31.752 31.6174 31.8671C31.1499 32.0839 30.6394 32.1963 30.1224 32.1963C29.6055 32.1963 29.095 32.0839 28.6275 31.8671C28.1838 31.6882 27.889 31.6394 27.5252 32.1191C27.2662 32.466 26.7178 32.6611 26.2576 32.7939C25.8327 32.9352 25.3829 32.9893 24.936 32.9529C24.489 32.9166 24.0544 32.7905 23.6589 32.5825C23.4255 32.4552 23.1672 32.378 22.9012 32.356C22.6352 32.3341 22.3675 32.3679 22.1157 32.4552C21.3166 32.672 20.5174 32.6991 19.7568 32.2681C19.3297 32.0269 18.988 32.2682 18.605 32.4741C18.1129 32.7412 17.5809 32.9297 17.0287 33.0324C16.8716 33.0292 16.718 32.986 16.5828 32.9072C16.4476 32.8284 16.3354 32.7165 16.2571 32.5825C16.2373 32.4197 16.2591 32.2545 16.3208 32.1021C16.3824 31.9497 16.4817 31.8149 16.6098 31.7099C17.3539 31.3277 18.142 30.9104 18.9549 30.802C20.8839 30.5309 22.8543 30.428 24.8108 30.2925C29.1207 29.9481 33.4517 29.9418 37.7627 30.2735C39.9672 30.4659 42.1718 30.6502 44.3764 30.9239C45.2637 31.035 46.1207 31.3765 46.9915 31.6123C47.4848 31.7478 47.9009 32.0432 47.697 32.5527C47.5868 32.84 47.0962 32.9755 46.6967 33.2303Z" fill="#1E2125"/>
<path d="M26.6459 36.8536C24.1657 36.7072 21.7104 36.5663 19.2413 36.4064C18.7397 36.3766 18.5303 35.9891 18.5523 35.3224C18.5716 34.8237 18.8748 34.6828 19.3047 34.7099C21.1785 34.8291 23.0524 34.9809 24.9291 35.073C29.5394 35.2682 34.1497 35.3278 38.7517 34.8535C40.9728 34.6231 43.1994 34.4443 45.4233 34.2464C45.8394 34.2085 46.2996 34.1245 46.4015 34.7099C46.4732 35.1164 46.0709 35.588 45.5445 35.672C44.3606 35.9033 43.1646 36.0707 41.9621 36.1734C37.5723 36.3875 33.1797 36.5365 28.7898 36.6991C28.0761 36.7262 27.3651 36.6991 26.6514 36.6991L26.6459 36.8536Z" fill="#1E2125"/>
</svg>
