<svg width="64" height="64" viewBox="0 0 64 64" fill="none" xmlns="http://www.w3.org/2000/svg">
<circle cx="32" cy="32" r="23.4375" fill="#EFBF4E" stroke="#1A1E23" stroke-width="1.12503"/>
<path d="M22.3681 37.4392C21.2969 37.4392 20.4229 36.5456 20.4229 35.444C20.4229 34.3423 21.2941 33.4487 22.3681 33.4487H42.4123C43.4835 33.4487 44.3576 34.3423 44.3576 35.444C44.3576 36.5456 43.4864 37.4392 42.4123 37.4392H22.3681Z" fill="#E95655"/>
<path d="M42.4131 33.9673C43.2044 33.9673 43.8528 34.6324 43.8528 35.444C43.8528 36.2555 43.2044 36.9206 42.4131 36.9206H22.3689C21.5777 36.9206 20.9292 36.2555 20.9292 35.444C20.9292 34.6324 21.5777 33.9673 22.3689 33.9673H42.4131ZM42.4131 32.9302H22.3689C21.0178 32.9302 19.9209 34.0582 19.9209 35.4411C19.9209 36.8239 21.0207 37.9519 22.3689 37.9519H42.4131C43.7643 37.9519 44.8612 36.8239 44.8612 35.4411C44.8612 34.0582 43.7614 32.9302 42.4131 32.9302Z" fill="#662F0A"/>
<path d="M21.9637 40.9943C20.9496 40.9943 20.127 40.007 20.127 38.7911C20.127 37.7891 20.6583 37.3818 21.9637 37.3818H42.8134C44.1189 37.3818 44.6502 37.7891 44.6502 38.7911C44.6502 40.004 43.8275 40.9943 42.8134 40.9943H21.9637Z" fill="#F4C239"/>
<path d="M42.8161 37.9009C44.0558 37.9009 44.1472 38.2554 44.1472 38.7945C44.1472 39.7233 43.5502 40.4792 42.8161 40.4792H21.9664C21.2322 40.4792 20.6352 39.7233 20.6352 38.7945C20.6352 38.2554 20.7266 37.9009 21.9664 37.9009H42.8161ZM42.8161 36.8667H21.9664C21.3865 36.8667 19.624 36.8667 19.624 38.7945C19.624 40.2946 20.6752 41.5134 21.9664 41.5134H42.8161C44.1072 41.5134 45.1584 40.2946 45.1584 38.7945C45.1556 36.8667 43.396 36.8667 42.8161 36.8667Z" fill="#662F0A"/>
<path d="M22.5121 31.3457C21.1981 31.3457 20.127 30.2471 20.127 28.8993C20.127 26.9012 21.3952 25.0202 23.7033 23.5992C26.0228 22.1724 29.1078 21.3872 32.39 21.3872C35.6721 21.3872 38.7572 22.1724 41.0767 23.5992C43.3819 25.0173 44.653 26.9012 44.653 28.8993C44.653 30.25 43.5818 31.3457 42.2678 31.3457H22.5121Z" fill="#FFB000"/>
<path d="M32.3898 21.9063C35.5834 21.9063 38.5742 22.6651 40.8165 24.0451C42.9646 25.3665 44.1472 27.0921 44.1472 28.8998C44.1472 29.9634 43.3046 30.8306 42.2648 30.8306H22.5148C21.4779 30.8306 20.6324 29.9663 20.6324 28.8998C20.6324 27.0921 21.815 25.3665 23.9631 24.0451C26.2054 22.6651 29.1991 21.9063 32.3898 21.9063ZM32.3898 20.8721C29.0163 20.8721 25.8398 21.6836 23.4432 23.1573C20.9809 24.6721 19.624 26.7142 19.624 28.8998C19.624 30.5347 20.9209 31.8648 22.5148 31.8648H42.2676C43.8616 31.8648 45.1584 30.5347 45.1584 28.8998C45.1584 26.7142 43.8016 24.6721 41.3393 23.1573C38.9398 21.6836 35.7634 20.8721 32.3898 20.8721Z" fill="#662F0A"/>
<path d="M22.0225 33.9683C22.0225 33.9683 27.0642 36.8893 27.6727 38.7205C27.6727 38.7205 31.2376 34.9996 36.9878 33.9683H22.0225Z" fill="#F6C75E"/>
<path d="M27.6724 39.2352C27.6353 39.2352 27.5982 39.2322 27.561 39.2235C27.3897 39.1824 27.2525 39.0565 27.1954 38.8865C26.7984 37.6882 23.659 35.5084 21.7737 34.4185C21.5738 34.3042 21.4767 34.064 21.5338 33.8355C21.5909 33.6069 21.7937 33.4487 22.0223 33.4487H36.9876C37.2504 33.4487 37.4674 33.6538 37.4903 33.9204C37.5132 34.1871 37.3332 34.4273 37.0761 34.4742C31.5487 35.4645 28.0666 39.0447 28.0324 39.0799C27.9381 39.1824 27.8067 39.2352 27.6724 39.2352ZM23.8276 34.483C25.1701 35.3678 26.9926 36.6979 27.8038 37.8874C28.6579 37.1228 30.5804 35.5934 33.3398 34.483H23.8276Z" fill="#662F0A"/>
<path d="M28.4342 24.6407C28.448 24.6948 28.4772 24.7441 28.5202 24.7859C28.5632 24.8278 28.6191 24.8612 28.6848 24.8845C28.7504 24.9077 28.8246 24.9202 28.9029 24.9213C28.9812 24.9223 29.0622 24.912 29.1413 24.8908C29.2204 24.8695 29.2959 24.8379 29.3637 24.7976C29.4315 24.7573 29.4901 24.7091 29.5362 24.6559C29.5824 24.6026 29.6152 24.5454 29.6327 24.4873C29.6502 24.4292 29.6521 24.3715 29.6383 24.3174C29.6245 24.2634 29.5953 24.214 29.5523 24.1722C29.5093 24.1304 29.4533 24.0969 29.3877 24.0737C29.322 24.0504 29.2479 24.0379 29.1696 24.0369C29.0913 24.0358 29.0102 24.0462 28.9312 24.0674C28.8521 24.0886 28.7765 24.1203 28.7088 24.1606C28.641 24.2009 28.5824 24.249 28.5362 24.3022C28.4901 24.3555 28.4573 24.4128 28.4398 24.4708C28.4223 24.5289 28.4204 24.5866 28.4342 24.6407Z" fill="#FFE200"/>
<path d="M39.0172 26.5552C39.031 26.6093 39.0602 26.6587 39.1032 26.7005C39.1462 26.7423 39.2021 26.7758 39.2678 26.799C39.3335 26.8222 39.4076 26.8347 39.4859 26.8358C39.5642 26.8369 39.6452 26.8265 39.7243 26.8053C39.8034 26.7841 39.8789 26.7524 39.9467 26.7121C40.0145 26.6718 40.0731 26.6237 40.1193 26.5704C40.1654 26.5172 40.1982 26.4599 40.2157 26.4018C40.2332 26.3438 40.2351 26.2861 40.2213 26.232C40.2075 26.1779 40.1783 26.1286 40.1353 26.0867C40.0923 26.0449 40.0364 26.0114 39.9707 25.9882C39.905 25.965 39.8309 25.9525 39.7526 25.9514C39.6743 25.9503 39.5933 25.9607 39.5142 25.9819C39.4351 26.0032 39.3595 26.0348 39.2918 26.0751C39.224 26.1154 39.1654 26.1636 39.1192 26.2168C39.0731 26.27 39.0403 26.3273 39.0228 26.3854C39.0053 26.4435 39.0034 26.5012 39.0172 26.5552Z" fill="#FFE200"/>
<path d="M31.6303 28.9825C31.6056 29.0624 31.6042 29.149 31.6261 29.2374C31.648 29.3258 31.6928 29.4142 31.758 29.4975C31.8232 29.5809 31.9074 29.6576 32.0059 29.7233C32.1044 29.789 32.2153 29.8423 32.3322 29.8803C32.449 29.9183 32.5696 29.9402 32.687 29.9447C32.8044 29.9492 32.9164 29.9363 33.0165 29.9067C33.1166 29.877 33.2029 29.8313 33.2704 29.772C33.3379 29.7127 33.3854 29.6411 33.4101 29.5611C33.4348 29.4812 33.4362 29.3946 33.4143 29.3063C33.3924 29.2179 33.3476 29.1295 33.2824 29.0461C33.2173 28.9628 33.133 28.8861 33.0345 28.8204C32.936 28.7547 32.8251 28.7013 32.7083 28.6633C32.5914 28.6253 32.4708 28.6035 32.3534 28.5989C32.236 28.5944 32.124 28.6073 32.0239 28.637C31.9238 28.6666 31.8375 28.7124 31.77 28.7717C31.7025 28.831 31.655 28.9026 31.6303 28.9825Z" fill="#FFE200"/>
<path d="M33.4985 25.1529C33.4738 25.2328 33.4723 25.3194 33.4942 25.4078C33.5162 25.4962 33.561 25.5846 33.6261 25.6679C33.6913 25.7513 33.7756 25.828 33.8741 25.8937C33.9726 25.9594 34.0835 26.0127 34.2003 26.0507C34.3172 26.0887 34.4378 26.1106 34.5552 26.1151C34.6726 26.1197 34.7846 26.1067 34.8847 26.0771C34.9848 26.0475 35.071 26.0017 35.1386 25.9424C35.2061 25.8831 35.2536 25.8115 35.2783 25.7316C35.303 25.6517 35.3044 25.565 35.2825 25.4767C35.2606 25.3883 35.2158 25.2999 35.1506 25.2166C35.0854 25.1332 35.0012 25.0565 34.9027 24.9908C34.8041 24.9251 34.6933 24.8717 34.5764 24.8337C34.4596 24.7958 34.339 24.7739 34.2216 24.7694C34.1041 24.7648 33.9922 24.7778 33.8921 24.8074C33.792 24.837 33.7057 24.8828 33.6382 24.9421C33.5706 25.0014 33.5232 25.073 33.4985 25.1529Z" fill="#FFE200"/>
<path d="M40.3385 28.9844C40.3146 29.0646 40.314 29.1512 40.3368 29.2394C40.3596 29.3275 40.4053 29.4154 40.4713 29.4981C40.5372 29.5808 40.6223 29.6566 40.7214 29.7213C40.8206 29.7859 40.932 29.8381 41.0492 29.8749C41.1664 29.9117 41.2872 29.9323 41.4047 29.9356C41.5221 29.9389 41.6339 29.9248 41.7337 29.8941C41.8335 29.8634 41.9194 29.8168 41.9863 29.7568C42.0533 29.6968 42.1 29.6247 42.1239 29.5445C42.1478 29.4644 42.1484 29.3777 42.1256 29.2896C42.1028 29.2015 42.0572 29.1135 41.9912 29.0309C41.9252 28.9482 41.8402 28.8723 41.741 28.8077C41.6418 28.743 41.5305 28.6908 41.4132 28.6541C41.296 28.6173 41.1752 28.5967 41.0577 28.5934C40.9403 28.5901 40.8285 28.6042 40.7287 28.6348C40.6289 28.6655 40.543 28.7122 40.4761 28.7722C40.4092 28.8321 40.3624 28.9043 40.3385 28.9844Z" fill="#FFE200"/>
<path d="M23.5651 27.7123C23.593 27.791 23.6433 27.8606 23.7132 27.917C23.7831 27.9733 23.8712 28.0154 23.9724 28.0407C24.0736 28.0661 24.186 28.0742 24.3031 28.0647C24.4202 28.0552 24.5398 28.0282 24.655 27.9852C24.7703 27.9423 24.8789 27.8842 24.9746 27.8144C25.0704 27.7446 25.1515 27.6643 25.2132 27.5783C25.2749 27.4922 25.3161 27.402 25.3344 27.3127C25.3528 27.2235 25.3478 27.137 25.3199 27.0583C25.292 26.9795 25.2417 26.9099 25.1718 26.8536C25.1019 26.7972 25.0138 26.7551 24.9126 26.7298C24.8114 26.7045 24.699 26.6963 24.5819 26.7058C24.4648 26.7154 24.3452 26.7424 24.2299 26.7853C24.1147 26.8282 24.0061 26.8863 23.9104 26.9561C23.8146 27.0259 23.7335 27.1062 23.6718 27.1923C23.61 27.2783 23.5688 27.3686 23.5505 27.4578C23.5322 27.547 23.5372 27.6335 23.5651 27.7123Z" fill="#FFE200"/>
<path d="M26.4193 35.0979C26.1936 35.0979 25.9794 35.0656 25.7794 34.9982C25.2196 34.8137 24.8225 34.3976 24.4712 34.0285C24.3855 33.9376 24.2998 33.8468 24.2112 33.7618L24.1769 33.7765C23.817 33.9318 23.3685 34.1251 22.8915 34.1251C22.4916 34.1251 22.1402 33.9904 21.846 33.7267C21.6261 33.5275 21.4775 33.4689 21.3604 33.422C20.6891 33.1524 20.8577 32.6075 20.9462 32.3145C21.1833 31.5322 21.7917 31.4883 22.1945 31.459C22.3488 31.4473 22.4973 31.4356 22.6458 31.3975C22.6858 31.3857 22.7287 31.3799 22.7715 31.3799L42.8014 31.5176C42.91 31.5176 43.0157 31.5557 43.1014 31.6231L43.1414 31.6524C43.9583 32.2852 44.204 32.6251 43.5441 33.6857C43.1357 34.339 42.3844 34.7433 41.5846 34.7433C41.2018 34.7433 40.8276 34.6467 40.5077 34.465C40.1335 34.2511 39.8392 33.9464 39.5793 33.6739L39.545 33.6359C39.445 33.7091 39.3479 33.7999 39.2451 33.8966C39.1137 34.0167 38.9766 34.1427 38.8195 34.257C38.511 34.4767 38.1682 34.5998 37.8482 34.5998C37.6826 34.5998 37.5226 34.5676 37.3741 34.506C37.0198 34.3566 36.8028 34.0665 36.6314 33.8204C36.2514 34.4621 35.6002 34.9279 34.866 35.0393C34.7518 35.0568 34.6375 35.0656 34.5204 35.0656C33.8377 35.0656 33.1778 34.7726 32.7036 34.2892C32.178 34.799 31.661 35.048 31.1411 35.048C31.0269 35.048 30.9155 35.0363 30.8041 35.0129C30.0928 34.8605 29.6529 34.2687 29.3787 33.7355C28.7702 34.2306 28.0904 34.7111 27.2934 34.9601C26.982 35.051 26.6907 35.0979 26.4193 35.0979Z" fill="#8FC31F"/>
<path d="M22.7657 31.897L42.7927 32.0347C43.5126 32.5943 43.5954 32.6353 43.1127 33.4088C42.787 33.9303 42.1786 34.2292 41.5759 34.2292C41.2874 34.2292 40.9989 34.1618 40.7418 34.0153C40.4161 33.8307 40.1533 33.5495 39.8934 33.277C39.7991 33.1774 39.6906 33.0748 39.5563 33.0719H39.5535C39.4649 33.0719 39.3821 33.1188 39.3078 33.1715C39.025 33.3649 38.7965 33.6344 38.5194 33.8337C38.3194 33.9772 38.0766 34.0827 37.8367 34.0827C37.7424 34.0827 37.6453 34.0651 37.5567 34.027C37.0711 33.8219 36.9226 33.1158 36.4284 32.9313C36.2627 33.7428 35.5772 34.405 34.7802 34.528C34.6917 34.5427 34.6003 34.5485 34.5088 34.5485C33.7976 34.5485 33.0834 34.1384 32.7264 33.4938C32.3065 34.0036 31.7494 34.528 31.1267 34.528C31.0496 34.528 30.9725 34.5192 30.8925 34.5017C30.1955 34.3522 29.8242 33.5846 29.5499 32.9078C28.8129 33.5348 28.0503 34.1735 27.1305 34.4606C26.8991 34.5339 26.6534 34.5808 26.4106 34.5808C26.2449 34.5808 26.0821 34.5573 25.925 34.5075C25.3623 34.3229 24.9766 33.8073 24.551 33.3883C24.4768 33.3151 24.3939 33.2418 24.2939 33.2242C24.2768 33.2213 24.2625 33.2213 24.2454 33.2213C24.1682 33.2213 24.0883 33.2506 24.0169 33.2828C23.6769 33.4293 23.2742 33.6081 22.8828 33.6081C22.6343 33.6081 22.3915 33.5348 22.1687 33.3356C21.4688 32.7057 21.2232 33.1071 21.4174 32.4654C21.6174 31.8296 22.1344 32.064 22.7657 31.897ZM22.7657 30.8628C22.68 30.8628 22.5943 30.8745 22.5143 30.895C22.4086 30.9214 22.2915 30.9331 22.1544 30.9419C21.7488 30.9712 20.8033 31.0444 20.4605 32.1607C20.132 33.233 20.6662 33.7018 21.1718 33.904C21.2689 33.9421 21.3546 33.9772 21.5088 34.1178C21.8945 34.4636 22.3686 34.6452 22.8885 34.6452C23.337 34.6452 23.7483 34.5104 24.0911 34.3757C24.0968 34.3815 24.1025 34.3874 24.1083 34.3962C24.4796 34.7859 24.9452 35.2722 25.6222 35.4978C25.8707 35.5798 26.1392 35.6209 26.4163 35.6209C26.7363 35.6209 27.079 35.5652 27.4304 35.4539C28.1131 35.24 28.7044 34.8825 29.2329 34.4899C29.5614 34.9499 30.027 35.3748 30.6868 35.5183C30.8325 35.5505 30.981 35.5652 31.1296 35.5652C31.7523 35.5652 32.2865 35.2869 32.695 34.9704C33.2148 35.3601 33.8547 35.5857 34.5088 35.5857C34.6488 35.5857 34.7916 35.574 34.9288 35.5535C35.5858 35.4539 36.1856 35.1199 36.6369 34.6364C36.7826 34.7712 36.954 34.8943 37.1683 34.9851C37.3768 35.073 37.6025 35.1199 37.8338 35.1199C38.3737 35.1199 38.8165 34.8825 39.0936 34.6833C39.2507 34.572 39.3849 34.4519 39.5049 34.3434C39.7163 34.5485 39.9591 34.7566 40.2533 34.9206C40.6475 35.1433 41.1045 35.2634 41.5759 35.2634C42.5471 35.2634 43.4612 34.7653 43.9611 33.9655C44.7866 32.6412 44.4324 32.0084 43.4383 31.2378L43.3983 31.2085C43.2241 31.0737 43.0127 31.0005 42.7956 31.0005L22.7686 30.8628H22.7657Z" fill="#662F0A"/>
</svg>
