<svg width="64" height="64" viewBox="0 0 64 64" fill="none" xmlns="http://www.w3.org/2000/svg">
<path d="M31.7502 30.1479C31.7502 35.0294 27.6895 38.9974 22.6671 38.9974C17.6446 38.9974 13.584 35.0294 13.584 30.1479C13.584 25.2663 17.6446 21.2983 22.6671 21.2983C27.6895 21.2983 31.7502 25.2663 31.7502 30.1479Z" fill="#EFBF4E" stroke="#1A1E23" stroke-width="0.5"/>
<path d="M19.5781 32.0645C19.2119 32.0645 18.9131 31.7666 18.9131 31.3994C18.9131 31.0322 19.2109 30.7344 19.5781 30.7344H26.4307C26.7969 30.7344 27.0957 31.0322 27.0957 31.3994C27.0957 31.7666 26.7979 32.0645 26.4307 32.0645H19.5781Z" fill="#E95655"/>
<path d="M26.4307 30.9072C26.7012 30.9072 26.9229 31.1289 26.9229 31.3994C26.9229 31.6699 26.7012 31.8916 26.4307 31.8916H19.5781C19.3076 31.8916 19.0859 31.6699 19.0859 31.3994C19.0859 31.1289 19.3076 30.9072 19.5781 30.9072H26.4307V30.9072ZM26.4307 30.5615H19.5781C19.1162 30.5615 18.7412 30.9375 18.7412 31.3984C18.7412 31.8594 19.1172 32.2354 19.5781 32.2354H26.4307C26.8926 32.2354 27.2676 31.8594 27.2676 31.3984C27.2676 30.9375 26.8916 30.5615 26.4307 30.5615Z" fill="#662F0A"/>
<path d="M19.4404 33.249C19.0938 33.249 18.8125 32.9199 18.8125 32.5146C18.8125 32.1807 18.9941 32.0449 19.4404 32.0449H26.5684C27.0146 32.0449 27.1963 32.1807 27.1963 32.5146C27.1963 32.9189 26.915 33.249 26.5684 33.249H19.4404Z" fill="#F4C239"/>
<path d="M26.5684 32.2183C26.9922 32.2183 27.0234 32.3364 27.0234 32.5161C27.0234 32.8257 26.8193 33.0776 26.5684 33.0776H19.4404C19.1895 33.0776 18.9854 32.8257 18.9854 32.5161C18.9854 32.3364 19.0166 32.2183 19.4404 32.2183H26.5684ZM26.5684 31.8735H19.4404C19.2422 31.8735 18.6396 31.8735 18.6396 32.5161C18.6396 33.0161 18.999 33.4224 19.4404 33.4224H26.5684C27.0098 33.4224 27.3691 33.0161 27.3691 32.5161C27.3682 31.8735 26.7666 31.8735 26.5684 31.8735Z" fill="#662F0A"/>
<path d="M19.6279 30.0332C19.1787 30.0332 18.8125 29.667 18.8125 29.2178C18.8125 28.5518 19.2461 27.9248 20.0352 27.4512C20.8281 26.9756 21.8828 26.7139 23.0049 26.7139C24.127 26.7139 25.1816 26.9756 25.9746 27.4512C26.7627 27.9238 27.1973 28.5518 27.1973 29.2178C27.1973 29.668 26.8311 30.0332 26.3818 30.0332H19.6279Z" fill="#FFB000"/>
<path d="M23.0039 26.8867C24.0957 26.8867 25.1182 27.1396 25.8848 27.5996C26.6191 28.04 27.0234 28.6152 27.0234 29.2178C27.0234 29.5723 26.7354 29.8613 26.3799 29.8613H19.6279C19.2734 29.8613 18.9844 29.5732 18.9844 29.2178C18.9844 28.6152 19.3887 28.04 20.123 27.5996C20.8896 27.1396 21.9131 26.8867 23.0039 26.8867ZM23.0039 26.542C21.8506 26.542 20.7646 26.8125 19.9453 27.3037C19.1035 27.8086 18.6396 28.4893 18.6396 29.2178C18.6396 29.7627 19.083 30.2061 19.6279 30.2061H26.3809C26.9258 30.2061 27.3691 29.7627 27.3691 29.2178C27.3691 28.4893 26.9053 27.8086 26.0635 27.3037C25.2432 26.8125 24.1572 26.542 23.0039 26.542V26.542Z" fill="#662F0A"/>
<path d="M19.46 30.9072C19.46 30.9072 21.1836 31.8809 21.3916 32.4912C21.3916 32.4912 22.6104 31.251 24.5762 30.9072H19.46V30.9072Z" fill="#F6C75E"/>
<path d="M21.3913 32.6631C21.3786 32.6631 21.3659 32.6621 21.3532 32.6592C21.2946 32.6455 21.2477 32.6035 21.2282 32.5469C21.0925 32.1475 20.0192 31.4209 19.3747 31.0576C19.3063 31.0195 19.2731 30.9395 19.2927 30.8633C19.3122 30.7871 19.3815 30.7344 19.4596 30.7344H24.5759C24.6657 30.7344 24.7399 30.8027 24.7477 30.8916C24.7555 30.9805 24.694 31.0605 24.6061 31.0762C22.7165 31.4063 21.526 32.5996 21.5143 32.6113C21.4821 32.6455 21.4372 32.6631 21.3913 32.6631V32.6631ZM20.0768 31.0791C20.5358 31.374 21.1589 31.8174 21.4362 32.2139C21.7282 31.959 22.3854 31.4492 23.3288 31.0791H20.0768V31.0791Z" fill="#662F0A"/>
<path d="M21.6521 27.7984C21.6568 27.8164 21.6668 27.8328 21.6815 27.8468C21.6962 27.8607 21.7154 27.8719 21.7378 27.8796C21.7603 27.8873 21.7856 27.8915 21.8124 27.8919C21.8391 27.8922 21.8668 27.8888 21.8939 27.8817C21.9209 27.8746 21.9467 27.8641 21.9699 27.8506C21.9931 27.8372 22.0131 27.8212 22.0289 27.8034C22.0447 27.7857 22.0559 27.7666 22.0619 27.7472C22.0679 27.7279 22.0685 27.7086 22.0638 27.6906C22.0591 27.6726 22.0491 27.6561 22.0344 27.6422C22.0197 27.6283 22.0006 27.6171 21.9781 27.6094C21.9557 27.6016 21.9303 27.5974 21.9035 27.5971C21.8768 27.5967 21.8491 27.6002 21.822 27.6073C21.795 27.6143 21.7692 27.6249 21.746 27.6383C21.7228 27.6518 21.7028 27.6678 21.687 27.6855C21.6712 27.7033 21.66 27.7224 21.6541 27.7417C21.6481 27.7611 21.6474 27.7803 21.6521 27.7984V27.7984Z" fill="#FFE200"/>
<path d="M25.2703 28.4365C25.275 28.4546 25.285 28.471 25.2997 28.4849C25.3144 28.4989 25.3335 28.51 25.356 28.5178C25.3784 28.5255 25.4038 28.5297 25.4305 28.5301C25.4573 28.5304 25.485 28.527 25.512 28.5199C25.5391 28.5128 25.5649 28.5023 25.5881 28.4888C25.6112 28.4754 25.6313 28.4593 25.6471 28.4416C25.6628 28.4239 25.674 28.4048 25.68 28.3854C25.686 28.366 25.6867 28.3468 25.682 28.3288C25.6772 28.3108 25.6672 28.2943 25.6525 28.2804C25.6378 28.2664 25.6187 28.2553 25.5963 28.2475C25.5738 28.2398 25.5485 28.2356 25.5217 28.2353C25.4949 28.2349 25.4672 28.2384 25.4402 28.2454C25.4132 28.2525 25.3873 28.2631 25.3642 28.2765C25.341 28.2899 25.321 28.306 25.3052 28.3237C25.2894 28.3415 25.2782 28.3606 25.2722 28.3799C25.2662 28.3993 25.2656 28.4185 25.2703 28.4365V28.4365Z" fill="#FFE200"/>
<path d="M22.7453 29.2453C22.7368 29.2719 22.7363 29.3008 22.7438 29.3303C22.7513 29.3597 22.7666 29.3892 22.7889 29.417C22.8112 29.4447 22.84 29.4703 22.8737 29.4922C22.9074 29.5141 22.9453 29.5319 22.9852 29.5446C23.0252 29.5572 23.0664 29.5645 23.1065 29.566C23.1467 29.5675 23.185 29.5632 23.2192 29.5533C23.2534 29.5435 23.2829 29.5282 23.306 29.5084C23.3291 29.4887 23.3453 29.4648 23.3537 29.4382C23.3622 29.4115 23.3627 29.3827 23.3552 29.3532C23.3477 29.3238 23.3324 29.2943 23.3101 29.2665C23.2878 29.2387 23.259 29.2131 23.2253 29.1913C23.1917 29.1694 23.1538 29.1516 23.1138 29.1389C23.0738 29.1263 23.0326 29.119 22.9925 29.1174C22.9523 29.1159 22.9141 29.1203 22.8798 29.1301C22.8456 29.14 22.8161 29.1553 22.793 29.175C22.77 29.1948 22.7537 29.2187 22.7453 29.2453V29.2453Z" fill="#FFE200"/>
<path d="M23.383 27.9689C23.3745 27.9956 23.374 28.0244 23.3815 28.0539C23.389 28.0833 23.4043 28.1128 23.4266 28.1406C23.4489 28.1684 23.4777 28.194 23.5114 28.2158C23.5451 28.2377 23.583 28.2555 23.6229 28.2682C23.6629 28.2809 23.7041 28.2881 23.7442 28.2897C23.7844 28.2912 23.8227 28.2869 23.8569 28.277C23.8911 28.2671 23.9206 28.2518 23.9437 28.2321C23.9668 28.2123 23.983 28.1884 23.9914 28.1618C23.9999 28.1352 24.0004 28.1063 23.9929 28.0768C23.9854 28.0474 23.9701 28.0179 23.9478 27.9901C23.9255 27.9624 23.8967 27.9368 23.863 27.9149C23.8293 27.893 23.7914 27.8752 23.7515 27.8625C23.7115 27.8499 23.6703 27.8426 23.6302 27.8411C23.59 27.8396 23.5518 27.8439 23.5175 27.8538C23.4833 27.8636 23.4538 27.8789 23.4307 27.8987C23.4076 27.9184 23.3914 27.9423 23.383 27.9689V27.9689Z" fill="#FFE200"/>
<path d="M25.722 29.2459C25.7138 29.2727 25.7136 29.3015 25.7214 29.3309C25.7292 29.3603 25.7448 29.3896 25.7673 29.4172C25.7899 29.4447 25.819 29.47 25.8529 29.4915C25.8868 29.5131 25.9248 29.5305 25.9649 29.5427C26.005 29.555 26.0463 29.5619 26.0865 29.563C26.1266 29.5641 26.1648 29.5594 26.199 29.5492C26.2331 29.5389 26.2624 29.5234 26.2853 29.5034C26.3082 29.4834 26.3242 29.4593 26.3323 29.4326C26.3405 29.4059 26.3407 29.377 26.3329 29.3477C26.3251 29.3183 26.3095 29.289 26.287 29.2614C26.2644 29.2339 26.2353 29.2086 26.2014 29.187C26.1675 29.1655 26.1295 29.1481 26.0894 29.1358C26.0493 29.1236 26.008 29.1167 25.9678 29.1156C25.9277 29.1145 25.8895 29.1192 25.8553 29.1294C25.8212 29.1396 25.7919 29.1552 25.769 29.1752C25.7461 29.1952 25.7301 29.2192 25.722 29.2459V29.2459Z" fill="#FFE200"/>
<path d="M19.9877 28.822C19.9972 28.8483 20.0145 28.8715 20.0383 28.8903C20.0622 28.9091 20.0923 28.9231 20.1269 28.9315C20.1615 28.94 20.2 28.9427 20.24 28.9395C20.28 28.9363 20.3209 28.9273 20.3603 28.913C20.3997 28.8987 20.4368 28.8794 20.4696 28.8561C20.5023 28.8328 20.53 28.8061 20.5511 28.7774C20.5723 28.7487 20.5863 28.7186 20.5926 28.6889C20.5989 28.6591 20.5972 28.6303 20.5876 28.6041C20.5781 28.5778 20.5609 28.5546 20.537 28.5358C20.5131 28.517 20.483 28.503 20.4484 28.4946C20.4138 28.4861 20.3754 28.4834 20.3353 28.4866C20.2953 28.4898 20.2544 28.4988 20.215 28.5131C20.1756 28.5274 20.1385 28.5467 20.1057 28.57C20.073 28.5933 20.0453 28.62 20.0242 28.6487C20.0031 28.6774 19.989 28.7075 19.9827 28.7372C19.9765 28.767 19.9782 28.7958 19.9877 28.822V28.822Z" fill="#FFE200"/>
<path d="M20.9629 31.2842C20.8858 31.2842 20.8126 31.2734 20.7442 31.251C20.5528 31.1895 20.417 31.0508 20.2969 30.9277C20.2676 30.8975 20.2383 30.8672 20.2081 30.8389L20.1963 30.8437C20.0733 30.8955 19.92 30.96 19.7569 30.96C19.6202 30.96 19.5001 30.915 19.3995 30.8271C19.3243 30.7607 19.2735 30.7412 19.2335 30.7256C19.004 30.6357 19.0616 30.4541 19.0919 30.3564C19.1729 30.0957 19.3809 30.0811 19.5186 30.0713C19.5713 30.0674 19.6221 30.0635 19.6729 30.0508C19.6866 30.0469 19.7012 30.0449 19.7159 30.0449L26.5635 30.0908C26.6006 30.0908 26.6368 30.1035 26.6661 30.126L26.6797 30.1357C26.959 30.3467 27.043 30.46 26.8174 30.8135C26.6778 31.0312 26.421 31.166 26.1475 31.166C26.0167 31.166 25.8887 31.1338 25.7794 31.0732C25.6514 31.002 25.5508 30.9004 25.462 30.8096L25.4503 30.7969C25.4161 30.8213 25.3829 30.8516 25.3477 30.8838C25.3028 30.9238 25.2559 30.9658 25.2022 31.0039C25.0967 31.0771 24.9796 31.1182 24.8702 31.1182C24.8135 31.1182 24.7588 31.1074 24.7081 31.0869C24.587 31.0371 24.5128 30.9404 24.4542 30.8584C24.3243 31.0723 24.1016 31.2275 23.8506 31.2646C23.8116 31.2705 23.7725 31.2734 23.7325 31.2734C23.4991 31.2734 23.2735 31.1758 23.1114 31.0146C22.9317 31.1846 22.7549 31.2676 22.5772 31.2676C22.5381 31.2676 22.5001 31.2637 22.462 31.2559C22.2188 31.2051 22.0684 31.0078 21.9747 30.8301C21.7667 30.9951 21.5342 31.1553 21.2618 31.2383C21.1553 31.2686 21.0557 31.2842 20.9629 31.2842V31.2842Z" fill="#8FC31F"/>
<path d="M19.7143 30.2168L26.5609 30.2627C26.807 30.4492 26.8353 30.4629 26.6703 30.7207C26.559 30.8945 26.351 30.9941 26.1449 30.9941C26.0463 30.9941 25.9477 30.9717 25.8598 30.9229C25.7484 30.8613 25.6586 30.7676 25.5697 30.6768C25.5375 30.6436 25.5004 30.6094 25.4545 30.6084H25.4535C25.4232 30.6084 25.3949 30.624 25.3695 30.6416C25.2728 30.7061 25.1947 30.7959 25.1 30.8623C25.0316 30.9102 24.9486 30.9453 24.8666 30.9453C24.8344 30.9453 24.8012 30.9395 24.7709 30.9268C24.6049 30.8584 24.5541 30.623 24.3852 30.5615C24.3285 30.832 24.0941 31.0527 23.8217 31.0937C23.7914 31.0986 23.7602 31.1006 23.7289 31.1006C23.4857 31.1006 23.2416 30.9639 23.1195 30.749C22.976 30.9189 22.7855 31.0937 22.5727 31.0937C22.5463 31.0937 22.5199 31.0908 22.4926 31.085C22.2543 31.0352 22.1273 30.7793 22.0336 30.5537C21.7816 30.7627 21.5209 30.9756 21.2064 31.0713C21.1273 31.0957 21.0434 31.1113 20.9603 31.1113C20.9037 31.1113 20.848 31.1035 20.7943 31.0869C20.6019 31.0254 20.4701 30.8535 20.3246 30.7139C20.2992 30.6895 20.2709 30.665 20.2367 30.6592C20.2309 30.6582 20.226 30.6582 20.2201 30.6582C20.1937 30.6582 20.1664 30.668 20.142 30.6787C20.0258 30.7275 19.8881 30.7871 19.7543 30.7871C19.6693 30.7871 19.5863 30.7627 19.5102 30.6963C19.2709 30.4863 19.1869 30.6201 19.2533 30.4062C19.3217 30.1943 19.4984 30.2725 19.7143 30.2168V30.2168ZM19.7143 29.8721C19.685 29.8721 19.6557 29.876 19.6283 29.8828C19.5922 29.8916 19.5521 29.8955 19.5053 29.8984C19.3666 29.9082 19.0434 29.9326 18.9262 30.3047C18.8139 30.6621 18.9965 30.8184 19.1693 30.8857C19.2025 30.8984 19.2318 30.9102 19.2846 30.957C19.4164 31.0723 19.5785 31.1328 19.7562 31.1328C19.9096 31.1328 20.0502 31.0879 20.1674 31.043C20.1693 31.0449 20.1713 31.0469 20.1732 31.0498C20.3002 31.1797 20.4594 31.3418 20.6908 31.417C20.7758 31.4443 20.8676 31.458 20.9623 31.458C21.0717 31.458 21.1889 31.4395 21.309 31.4023C21.5424 31.3311 21.7445 31.2119 21.9252 31.0811C22.0375 31.2344 22.1967 31.376 22.4223 31.4238C22.4721 31.4346 22.5228 31.4395 22.5736 31.4395C22.7865 31.4395 22.9691 31.3467 23.1088 31.2412C23.2865 31.3711 23.5053 31.4463 23.7289 31.4463C23.7768 31.4463 23.8256 31.4424 23.8725 31.4355C24.0971 31.4023 24.3021 31.291 24.4564 31.1299C24.5062 31.1748 24.5648 31.2158 24.6381 31.2461C24.7094 31.2754 24.7865 31.291 24.8656 31.291C25.0502 31.291 25.2016 31.2119 25.2963 31.1455C25.35 31.1084 25.3959 31.0684 25.4369 31.0322C25.5092 31.1006 25.5922 31.1699 25.6928 31.2246C25.8275 31.2988 25.9838 31.3389 26.1449 31.3389C26.4769 31.3389 26.7894 31.1729 26.9603 30.9062C27.2426 30.4648 27.1215 30.2539 26.7816 29.9971L26.768 29.9873C26.7084 29.9424 26.6361 29.918 26.5619 29.918L19.7152 29.8721H19.7143V29.8721Z" fill="#662F0A"/>
<path d="M47.7488 38.8267C47.7488 44.4261 43.0912 48.9761 37.3324 48.9761C31.5736 48.9761 26.916 44.4261 26.916 38.8267C26.916 33.2272 31.5736 28.6772 37.3324 28.6772C43.0912 28.6772 47.7488 33.2272 47.7488 38.8267Z" fill="#F0B80B" stroke="#1A1E23" stroke-width="0.5"/>
<path d="M37.5601 35C38.0492 35.037 38.7322 35.057 39.4045 35.1459C40.2502 35.2588 41.0711 35.4787 41.7746 35.9613C42.2745 36.3071 42.6591 36.7448 42.7938 37.3304C42.8692 37.6591 42.9328 37.9919 42.9931 38.3236C43.0233 38.4885 42.9371 38.5785 42.7561 38.5505C42.2174 38.4705 41.6885 38.3866 41.1573 38.2937C41.0708 38.2728 40.9946 38.2248 40.9419 38.1578C40.7695 37.9369 40.484 37.858 40.2642 38.0239C40.0444 38.1897 39.8257 38.1768 39.5715 38.1698C38.395 38.1368 37.2175 38.1238 36.0399 38.1058C35.8245 38.1058 35.6467 38.1308 35.5013 37.892C35.3149 37.5862 34.7224 37.6311 34.5317 37.9409C34.4866 38.0232 34.4185 38.0926 34.3346 38.142C34.2506 38.1915 34.1538 38.219 34.0544 38.2217C33.5459 38.2687 33.0406 38.3406 32.5343 38.4026C32.503 38.4026 32.4729 38.4096 32.4416 38.4116C32.0452 38.4356 31.9773 38.3736 32.0042 38.0029C32.0559 37.2624 32.3457 36.6119 32.9318 36.1042C33.3121 35.7755 33.7937 35.5756 34.285 35.4187C35.2793 35.1049 36.3222 35.057 37.5601 35ZM36.4116 35.7605C36.5872 35.6445 36.7844 35.5806 36.8426 35.4607C36.9007 35.3408 36.7133 35.3228 36.6045 35.3218C36.4418 35.3218 36.2576 35.3218 36.236 35.5216C36.2285 35.5826 36.3287 35.6505 36.4116 35.7605ZM38.395 35.2508L38.0492 35.4507C38.1764 35.5264 38.3146 35.585 38.4597 35.6246C38.5286 35.6346 38.6213 35.5156 38.7031 35.4547L38.395 35.2508ZM34.4089 36.0932L34.8484 35.7665C34.7827 35.7215 34.7213 35.6455 34.6513 35.6385C34.4606 35.6176 34.2128 35.7555 34.2343 35.8604C34.2451 35.9204 34.3184 35.9753 34.4067 36.0882L34.4089 36.0932ZM37.2293 35.9843C37.3371 35.9703 37.3931 35.9783 37.4222 35.9553C37.5059 35.8845 37.5857 35.8098 37.6613 35.7315C37.5656 35.6953 37.4678 35.6639 37.3683 35.6375C37.3455 35.6333 37.3221 35.6334 37.2993 35.6377C37.2766 35.6419 37.255 35.6504 37.2358 35.6625C37.1603 35.7214 37.0884 35.7842 37.0203 35.8504L37.2293 35.9843ZM40.0681 35.6655C40.1597 35.8824 40.3267 35.9893 40.5271 35.9533C40.5924 35.9409 40.6497 35.905 40.6865 35.8534C40.7027 35.8284 40.6553 35.7475 40.6154 35.7155C40.5422 35.6531 40.4493 35.6141 40.3504 35.6042C40.2516 35.5943 40.1519 35.614 40.066 35.6605L40.0681 35.6655ZM38.9585 36.0353C39.0662 36.0203 39.1287 36.0293 39.1653 36.0023C39.2397 35.9473 39.3539 35.8674 39.3485 35.8024C39.3366 35.6755 39.2127 35.6445 39.0824 35.6865C39.0292 35.6967 38.9785 35.7157 38.9326 35.7425C38.8784 35.7928 38.8294 35.8476 38.7861 35.9064L38.9585 36.0353ZM35.6543 36.1352C35.762 36.0353 35.887 35.9773 35.8848 35.9194C35.8783 35.7195 35.6693 35.7475 35.5347 35.7365C35.4614 35.7305 35.3795 35.8154 35.302 35.8594L35.6543 36.1352Z" fill="#1E2125"/>
<path d="M37.0167 43.0002C36.1729 42.954 35.327 42.938 34.4877 42.8543C33.4447 42.7471 32.577 42.3279 32.1143 41.3318C32.0417 41.1537 32.0029 40.964 32 40.7721C32 40.7152 32.1328 40.5952 32.2003 40.5984C32.7305 40.6273 33.2585 40.6863 33.7887 40.7217C34.2884 40.7538 34.7881 40.7689 35.2878 40.7892C35.449 40.7957 35.5655 40.83 35.6221 41.0112C35.6765 41.1387 35.7531 41.256 35.8485 41.3575C36.0477 41.6138 36.2731 41.6374 36.5333 41.4411C36.628 41.3883 36.7158 41.3242 36.7946 41.2503C37.0929 40.8664 37.4892 40.8032 37.9551 40.801C39.3792 40.7886 40.8003 40.6707 42.2065 40.4483C42.3752 40.4225 42.5396 40.3711 42.7073 40.341C42.9043 40.3067 42.9925 40.3893 42.999 40.593C43.0241 41.3511 42.5636 41.9987 41.8744 42.3332C40.764 42.8693 39.5686 42.9069 38.3786 42.983C37.9268 43.0119 37.4718 42.983 37.0178 42.983L37.0167 43.0002Z" fill="#1E2125"/>
<path d="M42.5987 39.4446C42.2323 39.3445 41.8828 39.2646 41.5489 39.1539C41.3253 39.0786 41.1448 39.0432 40.9254 39.1652C40.8196 39.2246 40.6901 39.2582 40.5558 39.261C40.4215 39.2639 40.2895 39.2358 40.179 39.181C40.0989 39.1418 40.0046 39.1203 39.9076 39.1194C39.8107 39.1185 39.7156 39.1381 39.6341 39.1758C39.4531 39.2441 39.2522 39.2808 39.0477 39.2829C38.8432 39.285 38.6409 39.2524 38.4573 39.1878C38.3733 39.1531 38.2792 39.1328 38.1824 39.1288C38.0856 39.1247 37.9889 39.137 37.8999 39.1645C37.8051 39.2003 37.6972 39.2141 37.591 39.2038C37.4849 39.1936 37.3859 39.1598 37.3078 39.1072C37.2507 39.0636 37.1741 39.0356 37.0914 39.0281C37.0086 39.0205 36.9248 39.0338 36.8543 39.0658C36.6761 39.1261 36.4817 39.1573 36.2847 39.1573C36.0878 39.1573 35.8933 39.1261 35.7152 39.0658C35.5462 39.0161 35.4339 39.0026 35.2953 39.1359C35.1966 39.2322 34.9877 39.2865 34.8124 39.3234C34.6506 39.3626 34.4792 39.3777 34.3089 39.3675C34.1387 39.3574 33.9731 39.3224 33.8225 39.2646C33.7335 39.2292 33.6351 39.2078 33.5338 39.2017C33.4325 39.1956 33.3305 39.205 33.2346 39.2292C32.9301 39.2895 32.6257 39.297 32.3359 39.1773C32.1732 39.1102 32.0431 39.1773 31.8971 39.2345C31.7097 39.3087 31.507 39.3611 31.2966 39.3896C31.2368 39.3887 31.1783 39.3767 31.1268 39.3548C31.0753 39.3329 31.0325 39.3019 31.0027 39.2646C30.9951 39.2194 31.0035 39.1735 31.027 39.1311C31.0504 39.0888 31.0883 39.0513 31.1371 39.0221C31.4205 38.916 31.7208 38.8 32.0305 38.7699C32.7653 38.6945 33.5159 38.6659 34.2613 38.6283C35.9031 38.5326 37.553 38.5308 39.1953 38.623C40.0351 38.6765 40.875 38.7277 41.7148 38.8037C42.0528 38.8346 42.3793 38.9295 42.7111 38.995C42.899 39.0327 43.0575 39.1148 42.9798 39.2563C42.9378 39.3362 42.7509 39.3738 42.5987 39.4446Z" fill="#1E2125"/>
<path d="M35.1963 40.3338C34.217 40.2844 33.2476 40.2368 32.2726 40.1828C32.0746 40.1727 31.9919 40.0419 32.0006 39.8168C32.0082 39.6484 32.1279 39.6009 32.2977 39.61C33.0376 39.6503 33.7774 39.7015 34.5184 39.7326C36.3388 39.7985 38.1591 39.8186 39.9762 39.6585C40.8532 39.5807 41.7324 39.5203 42.6105 39.4535C42.7748 39.4407 42.9565 39.4124 42.9967 39.61C43.025 39.7473 42.8662 39.9065 42.6583 39.9348C42.1909 40.0129 41.7187 40.0694 41.2438 40.1041C39.5105 40.1764 37.7761 40.2267 36.0428 40.2816C35.761 40.2908 35.4803 40.2816 35.1985 40.2816L35.1963 40.3338Z" fill="#1E2125"/>
<path d="M46.2593 12.6067C47.7356 13.6133 49.8625 14.9083 51.813 16.425C54.2646 18.3366 56.4172 20.5775 57.6551 23.5263C58.529 25.6314 58.8475 27.8511 58.0676 30.1394C57.6292 31.4237 57.1449 32.7008 56.6524 33.9686C56.4082 34.599 55.9492 34.7587 55.4324 34.3363C53.8873 33.0907 52.3813 31.8485 50.887 30.571C50.6553 30.3426 50.5127 30.0383 50.4833 29.7095C50.3915 28.6284 49.648 27.8404 48.6084 28.026C47.5688 28.2115 46.9013 27.7738 46.1087 27.2933C42.4424 25.0678 38.7315 22.9103 35.0308 20.7353C34.3469 20.3488 33.7311 20.1173 33.7619 19.0216C33.8007 17.6186 31.8272 16.7129 30.5832 17.4536C30.2707 17.6603 29.9113 17.781 29.5429 17.803C29.1745 17.8251 28.8105 17.7477 28.4894 17.579C26.7784 16.831 25.0263 16.1762 23.2913 15.4845C23.1921 15.4284 23.0819 15.3988 22.9786 15.3497C21.6707 14.7224 21.583 14.3841 22.4329 13.1367C24.1237 10.6413 26.3848 8.88744 29.2917 8.1644C31.1767 7.69746 33.1173 7.86272 35.0002 8.19555C38.8035 8.88249 42.2126 10.5854 46.2593 12.6067ZM41.046 13.2047C41.8424 13.1145 42.6001 13.2446 43.032 12.9298C43.4639 12.6151 42.9059 12.216 42.5626 12.0173C42.0462 11.7255 41.4615 11.395 40.981 12.0549C40.8314 12.2545 41.0093 12.6717 41.046 13.2047ZM48.3924 14.981L46.8826 15.0592C47.1303 15.5522 47.4483 16.0047 47.8271 16.4032C48.0253 16.5618 48.5646 16.3124 48.9501 16.2462L48.3924 14.981ZM34.0028 10.7753L36.0717 10.4217C35.9558 10.1466 35.9175 9.77103 35.7096 9.62097C35.1476 9.20559 34.0767 9.24312 33.9288 9.6485C33.8394 9.87738 33.9586 10.2009 34.0062 10.754L34.0028 10.7753ZM43.1801 15.4537C43.5509 15.5981 43.7122 15.7265 43.852 15.6984C44.2638 15.601 44.6712 15.483 45.0726 15.345C44.8433 15.0466 44.5974 14.7616 44.3361 14.4911C44.2726 14.4355 44.1981 14.3935 44.117 14.3677C44.0359 14.3419 43.9499 14.3327 43.864 14.3407C43.503 14.4112 43.1453 14.5014 42.7927 14.6108L43.1801 15.4537ZM52.8482 19.4315C52.6918 20.3537 53.0014 21.0269 53.7116 21.2606C53.9446 21.3343 54.2006 21.3115 54.4238 21.1974C54.5266 21.139 54.543 20.7711 54.4824 20.5878C54.3786 20.2383 54.1642 19.9354 53.8708 19.7235C53.5773 19.5116 53.2201 19.4018 52.8516 19.4102L52.8482 19.4315ZM48.5636 18.7334C48.9365 18.8743 49.1163 19.0178 49.2882 18.9892C49.6375 18.9304 50.1648 18.8559 50.2816 18.6192C50.5056 18.1543 50.1762 17.8238 49.6759 17.7367C49.4862 17.6771 49.2862 17.6524 49.0852 17.6637C48.8094 17.7423 48.5406 17.8461 48.2822 17.9737L48.5636 18.7334ZM37.8694 13.1559C38.4174 12.9999 38.9336 13.0215 39.0462 12.815C39.4377 12.1049 38.7166 11.8278 38.3118 11.5478C38.0917 11.3955 37.6567 11.5455 37.3198 11.56L37.8694 13.1559Z" fill="#F4B23E"/>
<path d="M53.2349 38.0096C52.2783 37.0026 51.3332 36.0967 50.5016 35.1112C49.947 34.4471 49.4468 33.9996 48.499 34.0322C48.0408 34.0498 47.5606 33.9348 47.1285 33.7039C46.6964 33.473 46.335 33.1382 46.0972 32.7486C45.9241 32.4679 45.6687 32.2238 45.363 32.0466C45.0573 31.8695 44.7148 31.7673 44.3786 31.7529C43.6633 31.667 42.9499 31.4348 42.2965 31.0753C41.643 30.7158 41.0681 30.2391 40.6183 29.6841C40.4234 29.4121 40.1663 29.1727 39.8675 28.9849C39.5686 28.7972 39.2363 28.6663 38.897 28.6027C38.5225 28.558 38.1515 28.4125 37.8357 28.1863C37.5199 27.96 37.2752 27.6644 37.1356 27.3407C37.0442 27.0859 36.859 26.8509 36.6119 26.676C36.3648 26.5012 36.0711 26.3974 35.7814 26.3826C35.0919 26.2736 34.4102 26.0338 33.7851 25.6806C33.1601 25.3274 32.6071 24.8694 32.1659 24.3395C31.7318 23.8627 31.4032 23.6139 30.6887 23.8309C30.1768 23.9906 29.402 23.8053 28.7695 23.6197C28.1749 23.4665 27.6 23.2117 27.0804 22.871C26.5607 22.5303 26.1074 22.111 25.7482 21.6389C25.5388 21.3558 25.2707 21.1044 24.9616 20.9013C24.6526 20.6982 24.3095 20.5481 23.9551 20.4608C22.8646 20.1251 21.8827 19.6054 21.2097 18.6674C20.8313 18.1414 20.28 18.142 19.6989 18.0802C18.9511 18.0032 18.1998 17.8226 17.4732 17.545C17.2851 17.4345 17.1241 17.2876 17.0057 17.1188C16.8874 16.9499 16.8157 16.7647 16.7978 16.5811C16.867 16.4095 16.988 16.2642 17.1498 16.1583C17.3116 16.0525 17.5089 15.9895 17.724 15.9751C18.8424 16.1126 20.0344 16.2461 21.0795 16.6963C23.5672 17.7514 26.0088 18.9978 28.4522 20.2032C33.861 22.8141 39.1017 25.7673 44.1247 29.035C46.6803 30.7282 49.2406 32.4135 51.7497 34.1855C52.759 34.8997 53.5998 35.8168 54.5178 36.6407C55.0367 37.1093 55.3708 37.6803 54.8325 38.0355C54.5347 38.239 53.864 38.0354 53.2349 38.0096Z" fill="#C05243"/>
<path d="M53.0884 37.1751C52.1319 36.1681 51.1867 35.2622 50.3551 34.2767C49.8005 33.6126 49.3003 33.1651 48.3525 33.1977C47.8943 33.2154 47.4141 33.1004 46.982 32.8694C46.5499 32.6385 46.1885 32.3037 45.9507 31.9141C45.7776 31.6335 45.5222 31.3893 45.2165 31.2122C44.9108 31.035 44.5684 30.9328 44.2321 30.9184C43.5169 30.8325 42.8034 30.6004 42.15 30.2409C41.4966 29.8814 40.9216 29.4047 40.4719 28.8496C40.277 28.5776 40.0198 28.3382 39.721 28.1504C39.4221 27.9627 39.0898 27.8318 38.7505 27.7682C38.376 27.7236 38.005 27.578 37.6892 27.3518C37.3734 27.1256 37.1287 26.83 36.9891 26.5063C36.8977 26.2514 36.7125 26.0164 36.4654 25.8416C36.2183 25.6667 35.9246 25.5629 35.6349 25.5481C34.9454 25.4391 34.2637 25.1994 33.6386 24.8461C33.0136 24.4929 32.4606 24.035 32.0194 23.505C31.5853 23.0283 31.2567 22.7794 30.5422 22.9965C30.0304 23.1562 29.2555 22.9708 28.623 22.7853C28.0284 22.6321 27.4535 22.3772 26.9339 22.0365C26.4143 21.6958 25.9609 21.2765 25.6017 20.8044C25.3923 20.5213 25.1243 20.2699 24.8152 20.0668C24.5061 19.8637 24.163 19.7136 23.8086 19.6263C22.7181 19.2907 21.7362 18.7709 21.0632 17.8329C20.6848 17.3069 20.1336 17.3076 19.5524 17.2457C18.8046 17.1688 18.0533 16.9881 17.3268 16.7105C17.1386 16.6 16.9776 16.4532 16.8592 16.2843C16.7409 16.1154 16.6693 15.9302 16.6513 15.7466C16.7206 15.575 16.8416 15.4297 17.0033 15.3238C17.1651 15.218 17.3624 15.155 17.5775 15.1406C18.696 15.2781 19.8879 15.4116 20.933 15.8619C23.4208 16.9169 25.8623 18.1633 28.3058 19.3687C33.7145 21.9796 38.9552 24.9328 43.9782 28.2005C46.5338 29.8937 49.0941 31.579 51.6032 33.3511C52.6125 34.0653 53.4533 34.9823 54.3713 35.8062C54.8902 36.2748 55.2243 36.8458 54.686 37.201C54.3882 37.4045 53.7175 37.2009 53.0884 37.1751Z" fill="#9AC043"/>
<path d="M15.9231 53.227C13.34 51.5524 10.6881 49.9789 8.19615 48.181C5.10664 45.9355 3.21679 42.9138 3.80177 38.6024C3.93835 37.8496 4.20652 37.117 4.59287 36.4411C4.71003 36.2425 5.37921 36.061 5.58683 36.1933C7.21008 37.2455 8.7645 38.3987 10.3745 39.4734C11.8943 40.4821 13.4496 41.4309 14.9937 42.3985C15.4919 42.71 15.7909 43.0388 15.597 43.7737C15.5067 44.3171 15.5083 44.8643 15.6018 45.3904C15.7059 46.6434 16.3726 47.13 17.603 46.911C18.0126 46.8963 18.4233 46.8297 18.8259 46.7126C20.5641 45.906 21.9524 46.3957 23.4359 47.224C27.9818 49.735 32.7358 51.8719 37.6577 53.6167C38.2464 53.8294 38.8743 53.9444 39.4684 54.1402C40.1646 54.3737 40.2743 54.8205 39.8751 55.5442C38.3916 58.2387 35.5947 59.6762 32.7175 59.6093C28.0874 59.4913 24.2156 57.4783 20.2816 55.6099C18.7878 54.9007 17.403 53.9833 15.9619 53.169L15.9231 53.227Z" fill="#F4B23E"/>
<path d="M15.6431 40.6437C12.6366 38.7146 9.65727 36.8095 6.67393 34.8722C6.06608 34.4818 6.07319 33.8765 6.5646 33.1058C6.93567 32.5314 7.41362 32.5799 7.93356 32.9163C10.1992 34.3841 12.4421 35.8902 14.7301 37.328C20.3725 40.8233 26.1091 44.1588 32.2069 46.8588C35.1508 48.1602 38.0659 49.5262 40.9907 50.8679C41.5387 51.1178 42.1739 51.3447 41.8944 52.1073C41.7015 52.6374 40.8692 52.9086 40.151 52.6349C38.5063 52.0692 36.891 51.4196 35.3124 50.689C29.6616 47.8324 24.0526 44.8972 18.4376 41.98C17.5242 41.5064 16.652 40.9709 15.7575 40.4655L15.6431 40.6437Z" fill="#C05243"/>
<path d="M15.5289 40.9958C12.5223 39.0667 9.54302 37.1615 6.55967 35.2242C5.95183 34.8339 5.95894 34.2285 6.45035 33.4579C6.82142 32.8835 7.29937 32.932 7.8193 33.2684C10.0849 34.7362 12.3279 36.2423 14.6158 37.6801C20.2582 41.1753 25.9949 44.5108 32.0926 47.2108C35.0366 48.5122 37.9517 49.8782 40.8765 51.2199C41.4244 51.4699 42.0596 51.6968 41.7802 52.4593C41.5872 52.9895 40.7549 53.2606 40.0368 52.987C38.392 52.4212 36.7767 51.7716 35.1981 51.041C29.5473 48.1845 23.9383 45.2493 18.3234 42.332C17.41 41.8585 16.5378 41.323 15.6432 40.8175L15.5289 40.9958Z" fill="#9AC043"/>
</svg>
