<svg width="48" height="48" viewBox="0 0 48 48" fill="none" xmlns="http://www.w3.org/2000/svg">
<mask id="path-1-inside-1" fill="white">
<path d="M10.8333 36.425C9.72876 36.425 8.83333 35.5296 8.83333 34.425V10.9167C8.83333 10.4104 8.42293 10 7.91667 10V10C7.41041 10 7 10.4104 7 10.9167V36C7 37.1046 7.89543 38 9 38H39.2125C39.6474 38 40 37.6474 40 37.2125V37.2125C40 36.7776 39.6474 36.425 39.2125 36.425H10.8333Z"/>
</mask>
<path d="M11.8333 34.425V10.9167H5.83333V34.425H11.8333ZM4 10.9167V36H10V10.9167H4ZM9 41H39.2125V35H9V41ZM39.2125 33.425H10.8333V39.425H39.2125V33.425ZM43 37.2125C43 35.1207 41.3043 33.425 39.2125 33.425V39.425C37.9906 39.425 37 38.4344 37 37.2125H43ZM39.2125 41C41.3043 41 43 39.3043 43 37.2125H37C37 35.9906 37.9906 35 39.2125 35V41ZM4 36C4 38.7614 6.23858 41 9 41V35C9.55229 35 10 35.4477 10 36H4ZM7.91667 7C5.75355 7 4 8.75355 4 10.9167H10C10 12.0673 9.06726 13 7.91667 13V7ZM11.8333 10.9167C11.8333 8.75355 10.0798 7 7.91667 7V13C6.76607 13 5.83333 12.0673 5.83333 10.9167H11.8333ZM5.83333 34.425C5.83333 37.1864 8.07191 39.425 10.8333 39.425V33.425C11.3856 33.425 11.8333 33.8727 11.8333 34.425H5.83333Z" fill="white" mask="url(#path-1-inside-1)"/>
<path fill-rule="evenodd" clip-rule="evenodd" d="M30 14H34V32H30V14Z" stroke="white" stroke-width="2" stroke-linecap="round" stroke-linejoin="round"/>
<path fill-rule="evenodd" clip-rule="evenodd" d="M22 19H26V32H22V19Z" stroke="white" stroke-width="2" stroke-linecap="round" stroke-linejoin="round"/>
<path fill-rule="evenodd" clip-rule="evenodd" d="M14 24H18V32H14V24Z" stroke="white" stroke-width="2" stroke-linecap="round" stroke-linejoin="round"/>
</svg>
