<svg width="344" height="437" viewBox="0 0 344 437" fill="none" xmlns="http://www.w3.org/2000/svg">
<g opacity="0.3">
<path d="M21.806 86.4651C21.806 81.6709 25.6886 77.7844 30.478 77.7844H312.651C317.44 77.7844 322.5 81.9191 322.5 86.7133L321.323 372.788C321.323 377.582 317.44 381.469 312.651 381.469H30.478C25.6886 381.469 21.806 377.582 21.806 372.788V86.4651Z" fill="black"/>
<path d="M21.806 86.4651C21.806 81.6709 25.6886 77.7844 30.478 77.7844H313.044C317.834 77.7844 322.5 81.9191 322.5 86.7133L321.716 372.315C321.716 377.109 317.834 380.996 313.044 380.996H30.478C25.6886 380.996 21.806 377.109 21.806 372.315V86.4651Z" fill="black"/>
<path d="M56.5431 149.521C55.1755 149.521 54.1438 149.966 53.4241 150.878C52.7763 151.683 52.4643 152.716 52.4643 153.988C52.4643 155.285 52.7643 156.318 53.3881 157.087C54.0959 157.975 55.1515 158.432 56.5551 158.432C57.4788 158.432 58.2706 158.167 58.9304 157.639C59.6382 157.075 60.0821 156.294 60.274 155.297H59.0024C58.8344 155.97 58.5345 156.474 58.1027 156.81C57.6948 157.123 57.1669 157.279 56.5431 157.279C55.5834 157.279 54.8756 156.978 54.4198 156.378C53.9879 155.814 53.772 155.021 53.772 153.988C53.772 152.992 53.9879 152.199 54.4318 151.623C54.8996 150.986 55.5954 150.674 56.5191 150.674C57.143 150.674 57.6468 150.806 58.0547 151.082C58.4626 151.359 58.7385 151.791 58.8824 152.367H60.1541C60.0221 151.503 59.6382 150.806 59.0144 150.302C58.3666 149.773 57.5388 149.521 56.5431 149.521Z" fill="black"/>
<path d="M61.599 149.689V158.263H67.6092V157.147H62.8946V149.689H61.599Z" fill="black"/>
<path d="M72.4776 149.521C71.17 149.521 70.1383 149.942 69.3945 150.806C68.6747 151.623 68.3268 152.679 68.3268 153.988C68.3268 155.285 68.6747 156.342 69.3945 157.159C70.1383 157.999 71.17 158.432 72.4776 158.432C73.7732 158.432 74.8049 158.011 75.5606 157.171C76.2804 156.354 76.6403 155.297 76.6403 153.988C76.6403 152.667 76.2804 151.599 75.5606 150.794C74.8049 149.942 73.7732 149.521 72.4776 149.521ZM72.4776 150.674C73.3893 150.674 74.0971 150.962 74.5889 151.563C75.0688 152.151 75.3207 152.956 75.3207 153.988C75.3207 155.009 75.0688 155.814 74.5889 156.39C74.0971 156.978 73.3893 157.279 72.4776 157.279C71.5658 157.279 70.858 156.966 70.3542 156.366C69.8743 155.778 69.6344 154.985 69.6344 153.988C69.6344 152.98 69.8743 152.187 70.3542 151.599C70.858 150.974 71.5658 150.674 72.4776 150.674Z" fill="black"/>
<path d="M80.9643 149.521C80.0526 149.521 79.2968 149.725 78.697 150.134C78.0611 150.566 77.7492 151.154 77.7492 151.911C77.7492 152.655 78.0731 153.232 78.7329 153.628C78.9969 153.772 79.6447 154 80.7004 154.337C81.6481 154.625 82.2119 154.817 82.4038 154.913C82.9437 155.189 83.2196 155.561 83.2196 156.042C83.2196 156.426 83.0277 156.726 82.6438 156.942C82.2599 157.159 81.744 157.279 81.0962 157.279C80.3764 157.279 79.8486 157.147 79.5007 156.882C79.1168 156.594 78.8769 156.102 78.7809 155.429H77.4853C77.5573 156.51 77.9412 157.303 78.649 157.807C79.2368 158.215 80.0526 158.432 81.0962 158.432C82.1759 158.432 83.0157 158.215 83.6155 157.783C84.2153 157.339 84.5152 156.738 84.5152 155.97C84.5152 155.177 84.1433 154.565 83.4116 154.12C83.0757 153.916 82.3199 153.64 81.1682 153.28C80.3645 153.04 79.8726 152.86 79.6807 152.752C79.2488 152.523 79.0448 152.223 79.0448 151.839C79.0448 151.407 79.2248 151.094 79.5967 150.902C79.8966 150.734 80.3285 150.65 80.8923 150.65C81.5401 150.65 82.02 150.77 82.3559 151.022C82.6918 151.262 82.9077 151.671 83.0277 152.223H84.3233C84.2393 151.287 83.9034 150.602 83.3036 150.158C82.7397 149.725 81.96 149.521 80.9643 149.521Z" fill="black"/>
<path d="M85.7324 149.689V158.263H92.0905V157.147H87.04V154.421H91.5986V153.304H87.04V150.806H91.8866V149.689H85.7324Z" fill="black"/>
<path d="M93.4176 149.689V158.263H96.5127C97.8923 158.263 98.9359 157.879 99.6557 157.111C100.34 156.366 100.687 155.321 100.687 153.976C100.687 152.619 100.352 151.575 99.6797 150.854C98.9599 150.074 97.9162 149.689 96.5367 149.689H93.4176ZM94.7252 150.806H96.2967C97.3764 150.806 98.1682 151.058 98.672 151.575C99.1519 152.079 99.4038 152.872 99.4038 153.976C99.4038 155.057 99.1519 155.85 98.66 156.366C98.1562 156.882 97.3524 157.147 96.2727 157.147H94.7252V150.806Z" fill="black"/>
<path d="M106.011 149.689V158.263H107.319V154.925H109.538C111.59 154.925 112.622 154.048 112.622 152.295C112.622 150.554 111.602 149.689 109.562 149.689H106.011ZM107.319 150.806H109.454C110.09 150.806 110.558 150.926 110.858 151.166C111.158 151.383 111.314 151.767 111.314 152.295C111.314 152.824 111.158 153.208 110.87 153.448C110.57 153.688 110.102 153.808 109.454 153.808H107.319V150.806Z" fill="black"/>
<path d="M113.837 149.689V158.263H115.145V154.721H117.46C117.952 154.721 118.324 154.817 118.588 155.033C118.84 155.249 118.996 155.586 119.044 156.066L119.152 157.135C119.2 157.615 119.32 157.999 119.524 158.263H120.939C120.651 157.951 120.483 157.531 120.435 157.003L120.291 155.634C120.195 154.793 119.776 154.289 119.008 154.12V154.096C119.476 153.976 119.847 153.724 120.123 153.34C120.363 152.992 120.483 152.595 120.483 152.139C120.483 151.323 120.219 150.71 119.692 150.278C119.188 149.882 118.492 149.689 117.628 149.689H113.837ZM115.145 150.806H117.448C118.048 150.806 118.48 150.914 118.768 151.142C119.032 151.359 119.176 151.707 119.176 152.187C119.176 152.643 119.032 152.992 118.756 153.232C118.468 153.472 118.036 153.604 117.46 153.604H115.145V150.806Z" fill="black"/>
<path d="M122.167 149.689V158.263H123.463V149.689H122.167Z" fill="black"/>
<path d="M128.885 149.521C127.517 149.521 126.486 149.966 125.766 150.878C125.118 151.683 124.806 152.716 124.806 153.988C124.806 155.285 125.106 156.318 125.73 157.087C126.438 157.975 127.493 158.432 128.897 158.432C129.821 158.432 130.612 158.167 131.272 157.639C131.98 157.075 132.424 156.294 132.616 155.297H131.344C131.176 155.97 130.876 156.474 130.444 156.81C130.036 157.123 129.509 157.279 128.885 157.279C127.925 157.279 127.217 156.978 126.761 156.378C126.33 155.814 126.114 155.021 126.114 153.988C126.114 152.992 126.33 152.199 126.773 151.623C127.241 150.986 127.937 150.674 128.861 150.674C129.485 150.674 129.988 150.806 130.396 151.082C130.804 151.359 131.08 151.791 131.224 152.367H132.496C132.364 151.503 131.98 150.806 131.356 150.302C130.708 149.773 129.881 149.521 128.885 149.521Z" fill="black"/>
<path d="M133.941 149.689V158.263H140.299V157.147H135.248V154.421H139.807V153.304H135.248V150.806H140.095V149.689H133.941Z" fill="black"/>
<path d="M199.92 238.323V248.326H206.946V246.925H201.544V238.323H199.92Z" fill="black"/>
<path d="M211.422 240.887C210.316 240.887 209.435 241.237 208.777 241.966C208.105 242.68 207.783 243.591 207.783 244.712C207.783 245.818 208.105 246.729 208.763 247.43C209.435 248.158 210.316 248.522 211.422 248.522C212.514 248.522 213.409 248.158 214.081 247.43C214.725 246.729 215.061 245.818 215.061 244.712C215.061 243.591 214.725 242.68 214.067 241.966C213.395 241.237 212.514 240.887 211.422 240.887ZM211.422 242.19C212.08 242.19 212.598 242.442 212.962 242.974C213.27 243.423 213.437 244.011 213.437 244.712C213.437 245.398 213.27 245.972 212.962 246.435C212.598 246.953 212.08 247.219 211.422 247.219C210.75 247.219 210.246 246.953 209.883 246.435C209.575 245.986 209.421 245.412 209.421 244.712C209.421 244.011 209.575 243.423 209.883 242.974C210.246 242.442 210.75 242.19 211.422 242.19Z" fill="black"/>
<path d="M219.702 240.887C218.568 240.887 217.687 241.265 217.057 242.022C216.469 242.708 216.175 243.605 216.175 244.698C216.175 245.818 216.469 246.729 217.071 247.43C217.687 248.158 218.554 248.522 219.674 248.522C220.612 248.522 221.368 248.284 221.927 247.822C222.501 247.345 222.879 246.617 223.047 245.636H221.466C221.34 246.687 220.752 247.219 219.688 247.219C219.072 247.219 218.61 246.995 218.303 246.561C217.967 246.113 217.813 245.482 217.813 244.684C217.813 243.899 217.981 243.283 218.317 242.848C218.652 242.4 219.114 242.19 219.702 242.19C220.178 242.19 220.57 242.302 220.864 242.526C221.144 242.75 221.34 243.086 221.438 243.549H223.019C222.879 242.638 222.515 241.966 221.941 241.517C221.382 241.097 220.64 240.887 219.702 240.887Z" fill="black"/>
<path d="M224.3 238.127V248.326H225.896V245.79L226.624 245.104L229.157 248.326H231.2L227.715 244.081L230.92 241.083H228.863L225.896 243.955V238.127H224.3Z" fill="black"/>
<path d="M235.115 240.887C234.038 240.887 233.184 241.251 232.568 241.994C231.924 242.722 231.617 243.619 231.617 244.698C231.617 245.902 231.952 246.841 232.624 247.528C233.254 248.186 234.108 248.522 235.185 248.522C236.151 248.522 236.949 248.242 237.593 247.696C238.097 247.247 238.432 246.673 238.6 246.001H237.005C236.809 246.407 236.599 246.701 236.361 246.883C236.053 247.107 235.661 247.219 235.171 247.219C234.598 247.219 234.15 247.037 233.842 246.687C233.534 246.337 233.352 245.818 233.296 245.146H238.712C238.712 243.843 238.418 242.82 237.845 242.092C237.215 241.279 236.305 240.887 235.115 240.887ZM235.157 242.19C236.277 242.19 236.907 242.764 237.047 243.941H233.324C233.422 243.367 233.618 242.932 233.912 242.638C234.22 242.33 234.626 242.19 235.157 242.19Z" fill="black"/>
<path d="M245.128 238.127V242.078C244.526 241.279 243.812 240.887 242.972 240.887C241.937 240.887 241.111 241.265 240.523 242.022C239.963 242.722 239.697 243.605 239.697 244.67C239.697 245.776 239.977 246.687 240.537 247.387C241.139 248.144 241.979 248.522 243.056 248.522C244.008 248.522 244.736 248.2 245.24 247.556V248.326H246.723V238.127H245.128ZM243.35 242.176C243.854 242.176 244.288 242.386 244.624 242.806C244.988 243.255 245.184 243.871 245.184 244.642V244.754C245.184 245.454 245.03 246.043 244.736 246.491C244.4 246.981 243.91 247.233 243.294 247.233C242.581 247.233 242.063 246.981 241.741 246.477C241.461 246.057 241.335 245.454 241.335 244.67C241.335 243.885 241.475 243.297 241.769 242.89C242.105 242.414 242.623 242.176 243.35 242.176Z" fill="black"/>
<path d="M253.197 238.323V248.326H254.835V244.487H257.312C259.747 244.487 260.965 243.451 260.965 241.391C260.965 239.346 259.747 238.323 257.34 238.323H253.197ZM254.835 239.724H257.214C257.928 239.724 258.46 239.85 258.796 240.116C259.132 240.369 259.314 240.789 259.314 241.391C259.314 241.994 259.146 242.428 258.81 242.694C258.474 242.946 257.942 243.086 257.214 243.086H254.835V239.724Z" fill="black"/>
<path d="M265.643 240.887C265.196 240.887 264.818 241.013 264.496 241.279C264.23 241.475 264.006 241.756 263.81 242.12V241.083H262.229V248.326H263.81V244.487C263.81 243.871 263.992 243.381 264.384 243.002C264.72 242.666 265.098 242.512 265.518 242.512C265.853 242.512 266.189 242.554 266.553 242.666V241.069C266.301 240.943 265.993 240.887 265.643 240.887Z" fill="black"/>
<path d="M268.541 238.127C268.233 238.127 267.981 238.225 267.771 238.421C267.561 238.617 267.463 238.87 267.463 239.178C267.463 239.486 267.561 239.738 267.771 239.948C267.981 240.144 268.233 240.243 268.541 240.243C268.849 240.243 269.101 240.144 269.311 239.948C269.521 239.752 269.633 239.486 269.633 239.178C269.633 238.87 269.521 238.617 269.325 238.421C269.115 238.225 268.849 238.127 268.541 238.127ZM267.743 241.083V248.326H269.339V241.083H267.743Z" fill="black"/>
<path d="M274.565 240.887C273.431 240.887 272.549 241.265 271.919 242.022C271.332 242.708 271.038 243.605 271.038 244.698C271.038 245.818 271.332 246.729 271.933 247.43C272.549 248.158 273.417 248.522 274.537 248.522C275.474 248.522 276.23 248.284 276.79 247.822C277.364 247.345 277.742 246.617 277.91 245.636H276.328C276.202 246.687 275.614 247.219 274.551 247.219C273.935 247.219 273.473 246.995 273.165 246.561C272.829 246.113 272.675 245.482 272.675 244.684C272.675 243.899 272.843 243.283 273.179 242.848C273.515 242.4 273.977 242.19 274.565 242.19C275.04 242.19 275.432 242.302 275.726 242.526C276.006 242.75 276.202 243.086 276.3 243.549H277.882C277.742 242.638 277.378 241.966 276.804 241.517C276.244 241.097 275.502 240.887 274.565 240.887Z" fill="black"/>
<path d="M282.242 240.887C281.164 240.887 280.311 241.251 279.695 241.994C279.051 242.722 278.743 243.619 278.743 244.698C278.743 245.902 279.079 246.841 279.751 247.528C280.381 248.186 281.234 248.522 282.312 248.522C283.278 248.522 284.075 248.242 284.719 247.696C285.223 247.247 285.559 246.673 285.727 246.001H284.131C283.936 246.407 283.726 246.701 283.488 246.883C283.18 247.107 282.788 247.219 282.298 247.219C281.724 247.219 281.276 247.037 280.968 246.687C280.66 246.337 280.479 245.818 280.423 245.146H285.839C285.839 243.843 285.545 242.82 284.971 242.092C284.341 241.279 283.432 240.887 282.242 240.887ZM282.284 242.19C283.404 242.19 284.033 242.764 284.173 243.941H280.451C280.549 243.367 280.744 242.932 281.038 242.638C281.346 242.33 281.752 242.19 282.284 242.19Z" fill="black"/>
<path d="M288.182 241.027C287.874 241.027 287.608 241.125 287.412 241.349C287.188 241.559 287.09 241.826 287.09 242.134C287.09 242.442 287.188 242.694 287.412 242.918C287.608 243.115 287.874 243.227 288.182 243.227C288.49 243.227 288.741 243.115 288.965 242.918C289.175 242.694 289.287 242.442 289.287 242.134C289.287 241.826 289.175 241.559 288.965 241.349C288.741 241.125 288.49 241.027 288.182 241.027ZM288.182 246.155C287.874 246.155 287.608 246.253 287.412 246.477C287.188 246.687 287.09 246.953 287.09 247.261C287.09 247.57 287.188 247.822 287.412 248.046C287.608 248.242 287.874 248.354 288.182 248.354C288.49 248.354 288.741 248.242 288.965 248.046C289.175 247.822 289.287 247.57 289.287 247.261C289.287 246.953 289.175 246.687 288.965 246.477C288.741 246.253 288.49 246.155 288.182 246.155Z" fill="black"/>
<path d="M52.9642 238.323V248.326H54.6017V244.487H57.079C59.5142 244.487 60.7319 243.451 60.7319 241.391C60.7319 239.346 59.5142 238.323 57.107 238.323H52.9642ZM54.6017 239.724H56.981C57.6948 239.724 58.2266 239.85 58.5625 240.116C58.8984 240.369 59.0804 240.789 59.0804 241.391C59.0804 241.994 58.9124 242.428 58.5765 242.694C58.2406 242.946 57.7088 243.086 56.981 243.086H54.6017V239.724Z" fill="black"/>
<path d="M65.4103 240.887C64.9624 240.887 64.5846 241.013 64.2626 241.279C63.9967 241.475 63.7728 241.756 63.5769 242.12V241.083H61.9953V248.326H63.5769V244.487C63.5769 243.871 63.7588 243.381 64.1507 243.002C64.4866 242.666 64.8645 242.512 65.2844 242.512C65.6203 242.512 65.9561 242.554 66.32 242.666V241.069C66.0681 240.943 65.7602 240.887 65.4103 240.887Z" fill="black"/>
<path d="M68.3078 238.127C67.9999 238.127 67.7479 238.225 67.538 238.421C67.3281 238.617 67.2301 238.87 67.2301 239.178C67.2301 239.486 67.3281 239.738 67.538 239.948C67.7479 240.144 67.9999 240.243 68.3078 240.243C68.6157 240.243 68.8676 240.144 69.0775 239.948C69.2875 239.752 69.3995 239.486 69.3995 239.178C69.3995 238.87 69.2875 238.617 69.0915 238.421C68.8816 238.225 68.6157 238.127 68.3078 238.127ZM67.51 241.083V248.326H69.1055V241.083H67.51Z" fill="black"/>
<path d="M70.7345 241.083V242.386H74.5974L70.5946 247.247V248.326H76.9767V247.023H72.6939L76.7527 242.106V241.083H70.7345Z" fill="black"/>
<path d="M81.2434 240.887C80.1657 240.887 79.312 241.251 78.6962 241.994C78.0524 242.722 77.7445 243.619 77.7445 244.698C77.7445 245.902 78.0804 246.841 78.7522 247.528C79.382 248.186 80.2357 248.522 81.3134 248.522C82.2791 248.522 83.0769 248.242 83.7207 247.696C84.2245 247.247 84.5604 246.673 84.7284 246.001H83.1328C82.9369 246.407 82.727 246.701 82.489 246.883C82.1811 247.107 81.7892 247.219 81.2994 247.219C80.7256 247.219 80.2777 247.037 79.9698 246.687C79.6619 246.337 79.4799 245.818 79.424 245.146H84.8403C84.8403 243.843 84.5464 242.82 83.9726 242.092C83.3428 241.279 82.4331 240.887 81.2434 240.887ZM81.2854 242.19C82.4051 242.19 83.0349 242.764 83.1748 243.941H79.4519C79.5499 243.367 79.7459 242.932 80.0398 242.638C80.3477 242.33 80.7536 242.19 81.2854 242.19Z" fill="black"/>
<path d="M90.906 238.323V248.326H92.5435V244.487H95.0208C97.456 244.487 98.6737 243.451 98.6737 241.391C98.6737 239.346 97.456 238.323 95.0488 238.323H90.906ZM92.5435 239.724H94.9228C95.6366 239.724 96.1684 239.85 96.5043 240.116C96.8402 240.369 97.0222 240.789 97.0222 241.391C97.0222 241.994 96.8542 242.428 96.5183 242.694C96.1824 242.946 95.6506 243.086 94.9228 243.086H92.5435V239.724Z" fill="black"/>
<path d="M103.296 240.887C102.19 240.887 101.309 241.237 100.651 241.966C99.9791 242.68 99.6572 243.591 99.6572 244.712C99.6572 245.818 99.9791 246.729 100.637 247.43C101.309 248.158 102.19 248.522 103.296 248.522C104.388 248.522 105.284 248.158 105.955 247.43C106.599 246.729 106.935 245.818 106.935 244.712C106.935 243.591 106.599 242.68 105.941 241.966C105.27 241.237 104.388 240.887 103.296 240.887ZM103.296 242.19C103.954 242.19 104.472 242.442 104.836 242.974C105.144 243.423 105.312 244.011 105.312 244.712C105.312 245.398 105.144 245.972 104.836 246.435C104.472 246.953 103.954 247.219 103.296 247.219C102.624 247.219 102.12 246.953 101.757 246.435C101.449 245.986 101.295 245.412 101.295 244.712C101.295 244.011 101.449 243.423 101.757 242.974C102.12 242.442 102.624 242.19 103.296 242.19Z" fill="black"/>
<path d="M111.688 240.887C110.582 240.887 109.701 241.237 109.043 241.966C108.371 242.68 108.049 243.591 108.049 244.712C108.049 245.818 108.371 246.729 109.029 247.43C109.701 248.158 110.582 248.522 111.688 248.522C112.78 248.522 113.676 248.158 114.347 247.43C114.991 246.729 115.327 245.818 115.327 244.712C115.327 243.591 114.991 242.68 114.333 241.966C113.662 241.237 112.78 240.887 111.688 240.887ZM111.688 242.19C112.346 242.19 112.864 242.442 113.228 242.974C113.536 243.423 113.704 244.011 113.704 244.712C113.704 245.398 113.536 245.972 113.228 246.435C112.864 246.953 112.346 247.219 111.688 247.219C111.016 247.219 110.513 246.953 110.149 246.435C109.841 245.986 109.687 245.412 109.687 244.712C109.687 244.011 109.841 243.423 110.149 242.974C110.513 242.442 111.016 242.19 111.688 242.19Z" fill="black"/>
<path d="M116.861 238.127V248.326H118.457V238.127H116.861Z" fill="black"/>
<path d="M121.352 241.027C121.045 241.027 120.779 241.125 120.583 241.349C120.359 241.559 120.261 241.826 120.261 242.134C120.261 242.442 120.359 242.694 120.583 242.918C120.779 243.115 121.045 243.227 121.352 243.227C121.66 243.227 121.912 243.115 122.136 242.918C122.346 242.694 122.458 242.442 122.458 242.134C122.458 241.826 122.346 241.559 122.136 241.349C121.912 241.125 121.66 241.027 121.352 241.027ZM121.352 246.155C121.045 246.155 120.779 246.253 120.583 246.477C120.359 246.687 120.261 246.953 120.261 247.261C120.261 247.57 120.359 247.822 120.583 248.046C120.779 248.242 121.045 248.354 121.352 248.354C121.66 248.354 121.912 248.242 122.136 248.046C122.346 247.822 122.458 247.57 122.458 247.261C122.458 246.953 122.346 246.687 122.136 246.477C121.912 246.253 121.66 246.155 121.352 246.155Z" fill="black"/>
<path d="M56.6606 260.703C55.7329 260.767 54.9811 261.007 54.3733 261.439C53.5575 262 53.1576 262.8 53.1576 263.857C53.1576 265.042 53.7015 265.938 54.8211 266.547L56.6606 267.219V270.966C56.1647 270.902 55.7809 270.742 55.5089 270.486C55.141 270.133 54.9331 269.525 54.8691 268.692H53.0137C53.1097 270.005 53.4935 270.982 54.1653 271.622C54.7412 272.167 55.5729 272.471 56.6606 272.551V273.96H57.7163V272.551C58.692 272.487 59.4917 272.247 60.1316 271.831C60.9953 271.254 61.4272 270.406 61.4272 269.269C61.4272 268.1 60.8673 267.203 59.7637 266.579C59.6677 266.515 58.9799 266.259 57.7163 265.794V262.272C58.1162 262.32 58.4361 262.432 58.676 262.608C59.0599 262.88 59.2998 263.345 59.3958 264.017H61.2192C61.0593 262.848 60.6594 262 60.0036 261.487C59.4438 261.039 58.676 260.767 57.7163 260.703V259.39H56.6606V260.703ZM57.7163 267.604C57.7803 267.62 57.8282 267.636 57.8922 267.668C58.9959 268.052 59.5557 268.612 59.5557 269.333C59.5557 269.861 59.3318 270.277 58.8839 270.566C58.564 270.774 58.1641 270.902 57.7163 270.966V267.604ZM56.6606 265.394C55.5729 264.978 55.0291 264.465 55.0291 263.857C55.0291 263.265 55.237 262.832 55.6689 262.576C55.9088 262.416 56.2447 262.304 56.6606 262.256V265.394Z" fill="black"/>
<path d="M66.8113 260.687C65.4677 260.687 64.428 261.231 63.6922 262.352C62.9885 263.409 62.6366 264.834 62.6366 266.627C62.6366 268.42 62.9885 269.845 63.6922 270.902C64.428 272.007 65.4677 272.567 66.8113 272.567C68.1389 272.567 69.1786 272.007 69.9304 270.902C70.6342 269.845 70.9861 268.42 70.9861 266.627C70.9861 264.834 70.6342 263.409 69.9304 262.352C69.1786 261.231 68.1389 260.687 66.8113 260.687ZM66.8113 262.272C67.707 262.272 68.3469 262.768 68.7307 263.793C68.9867 264.481 69.1146 265.426 69.1146 266.627C69.1146 267.812 68.9867 268.756 68.7307 269.461C68.3469 270.47 67.707 270.982 66.8113 270.982C65.8996 270.982 65.2598 270.47 64.8919 269.461C64.636 268.756 64.508 267.812 64.508 266.627C64.508 265.426 64.636 264.481 64.8919 263.793C65.2598 262.768 65.8996 262.272 66.8113 262.272Z" fill="black"/>
<path d="M73.795 269.925C73.4431 269.925 73.1392 270.037 72.9152 270.293C72.6593 270.534 72.5473 270.838 72.5473 271.19C72.5473 271.542 72.6593 271.831 72.9152 272.087C73.1392 272.311 73.4431 272.439 73.795 272.439C74.1469 272.439 74.4348 272.311 74.6907 272.087C74.9306 271.831 75.0586 271.542 75.0586 271.19C75.0586 270.838 74.9306 270.534 74.6907 270.293C74.4348 270.037 74.1469 269.925 73.795 269.925Z" fill="black"/>
<path d="M80.8071 260.687C79.4635 260.687 78.4238 261.231 77.6881 262.352C76.9843 263.409 76.6324 264.834 76.6324 266.627C76.6324 268.42 76.9843 269.845 77.6881 270.902C78.4238 272.007 79.4635 272.567 80.8071 272.567C82.1347 272.567 83.1744 272.007 83.9262 270.902C84.63 269.845 84.9819 268.42 84.9819 266.627C84.9819 264.834 84.63 263.409 83.9262 262.352C83.1744 261.231 82.1347 260.687 80.8071 260.687ZM80.8071 262.272C81.7029 262.272 82.3427 262.768 82.7266 263.793C82.9825 264.481 83.1105 265.426 83.1105 266.627C83.1105 267.812 82.9825 268.756 82.7266 269.461C82.3427 270.47 81.7029 270.982 80.8071 270.982C79.8954 270.982 79.2556 270.47 78.8877 269.461C78.6318 268.756 78.5038 267.812 78.5038 266.627C78.5038 265.426 78.6318 264.481 78.8877 263.793C79.2556 262.768 79.8954 262.272 80.8071 262.272Z" fill="black"/>
<path d="M90.398 260.687C89.0544 260.687 88.0147 261.231 87.279 262.352C86.5752 263.409 86.2233 264.834 86.2233 266.627C86.2233 268.42 86.5752 269.845 87.279 270.902C88.0147 272.007 89.0544 272.567 90.398 272.567C91.7256 272.567 92.7653 272.007 93.5171 270.902C94.2209 269.845 94.5728 268.42 94.5728 266.627C94.5728 264.834 94.2209 263.409 93.5171 262.352C92.7653 261.231 91.7256 260.687 90.398 260.687ZM90.398 262.272C91.2938 262.272 91.9336 262.768 92.3175 263.793C92.5734 264.481 92.7013 265.426 92.7013 266.627C92.7013 267.812 92.5734 268.756 92.3175 269.461C91.9336 270.47 91.2938 270.982 90.398 270.982C89.4863 270.982 88.8465 270.47 88.4786 269.461C88.2227 268.756 88.0947 267.812 88.0947 266.627C88.0947 265.426 88.2227 264.481 88.4786 263.793C88.8465 262.768 89.4863 262.272 90.398 262.272Z" fill="black"/>
<path d="M100.165 260.687C98.9332 260.687 97.9415 261.103 97.1898 261.936C96.454 262.72 96.0861 263.745 96.0701 265.026H97.9415C97.9735 264.129 98.1655 263.441 98.5174 262.992C98.8693 262.512 99.3971 262.272 100.101 262.272C100.757 262.272 101.253 262.416 101.588 262.72C101.908 263.024 102.084 263.489 102.084 264.113C102.084 264.754 101.828 265.362 101.333 265.922C101.013 266.259 100.501 266.691 99.765 267.203C98.4374 268.116 97.5576 268.82 97.1418 269.301C96.374 270.165 96.0061 271.174 96.0061 272.343H103.972V270.694H98.3414C98.5973 270.117 99.3011 269.445 100.469 268.676C101.588 267.924 102.388 267.315 102.836 266.835C103.572 266.018 103.956 265.122 103.956 264.129C103.956 263.104 103.604 262.288 102.9 261.647C102.18 261.007 101.269 260.687 100.165 260.687Z" fill="black"/>
<path d="M108.492 260.911C108.108 261.311 107.628 261.679 107.053 262.032C106.477 262.352 105.933 262.576 105.421 262.704V264.561C106.477 264.257 107.34 263.793 108.028 263.168V272.343H109.9V260.911H108.492Z" fill="black"/>
<path d="M116.316 260.687C115.085 260.687 114.093 261.103 113.341 261.936C112.605 262.72 112.238 263.745 112.222 265.026H114.093C114.125 264.129 114.317 263.441 114.669 262.992C115.021 262.512 115.549 262.272 116.252 262.272C116.908 262.272 117.404 262.416 117.74 262.72C118.06 263.024 118.236 263.489 118.236 264.113C118.236 264.754 117.98 265.362 117.484 265.922C117.164 266.259 116.652 266.691 115.916 267.203C114.589 268.116 113.709 268.82 113.293 269.301C112.525 270.165 112.158 271.174 112.158 272.343H120.123V270.694H114.493C114.749 270.117 115.453 269.445 116.62 268.676C117.74 267.924 118.54 267.315 118.987 266.835C119.723 266.018 120.107 265.122 120.107 264.129C120.107 263.104 119.755 262.288 119.051 261.647C118.332 261.007 117.42 260.687 116.316 260.687Z" fill="black"/>
<path d="M125.843 260.687C124.724 260.687 123.796 260.991 123.076 261.631C122.308 262.272 121.892 263.168 121.796 264.321H123.636C123.7 263.633 123.924 263.12 124.308 262.784C124.676 262.448 125.187 262.288 125.859 262.288C126.515 262.288 127.011 262.432 127.347 262.72C127.651 263.008 127.811 263.425 127.811 263.985C127.811 264.545 127.635 264.978 127.299 265.266C126.947 265.554 126.435 265.698 125.763 265.698H124.963V267.107H125.763C126.499 267.107 127.059 267.251 127.443 267.572C127.827 267.876 128.035 268.356 128.035 269.013C128.035 269.557 127.843 270.005 127.475 270.374C127.059 270.774 126.483 270.982 125.763 270.982C125.107 270.982 124.58 270.79 124.18 270.422C123.732 270.021 123.508 269.445 123.476 268.708H121.572C121.668 269.989 122.116 270.982 122.916 271.654C123.636 272.263 124.596 272.567 125.779 272.567C127.027 272.567 128.035 272.215 128.802 271.526C129.538 270.854 129.906 269.989 129.906 268.932C129.906 268.26 129.714 267.7 129.33 267.267C128.978 266.851 128.45 266.547 127.779 266.339C129.042 265.922 129.682 265.09 129.682 263.841C129.682 262.848 129.33 262.08 128.642 261.519C127.939 260.959 126.995 260.687 125.843 260.687Z" fill="black"/>
<path d="M226.478 260.703C225.55 260.751 224.798 260.991 224.191 261.439C223.391 262 222.991 262.8 222.991 263.841C222.991 265.026 223.551 265.906 224.67 266.499L226.478 267.171V271.078C225.934 271.014 225.518 270.838 225.23 270.55C224.846 270.181 224.638 269.557 224.574 268.692H222.847C222.943 270.005 223.311 270.966 223.983 271.606C224.558 272.167 225.39 272.487 226.478 272.551V273.96H227.47V272.551C228.461 272.487 229.261 272.247 229.901 271.831C230.733 271.254 231.164 270.406 231.164 269.269C231.164 268.116 230.605 267.235 229.501 266.611C229.341 266.547 228.653 266.275 227.47 265.826V262.16C227.901 262.208 228.253 262.336 228.525 262.544C228.925 262.832 229.181 263.329 229.277 264.017H230.973C230.813 262.864 230.413 262.016 229.757 261.503C229.181 261.039 228.429 260.767 227.47 260.703V259.39H226.478V260.703ZM227.47 267.524C227.566 267.556 227.661 267.604 227.757 267.636C228.877 268.02 229.437 268.596 229.437 269.333C229.437 269.893 229.197 270.325 228.749 270.646C228.397 270.87 227.981 271.014 227.47 271.078V267.524ZM226.478 265.458C226.446 265.458 226.43 265.442 226.414 265.442C225.294 265.026 224.734 264.497 224.734 263.841C224.734 263.233 224.942 262.784 225.39 262.496C225.662 262.304 226.03 262.176 226.478 262.144V265.458Z" fill="black"/>
<path d="M237.748 260.911L232.118 268.212V269.861H237.684V272.343H239.348V269.861H241.075V268.468H239.348V260.911H237.748ZM237.636 263.12H237.684V268.468H233.542L237.636 263.12Z" fill="black"/>
<path d="M246.187 260.687C244.844 260.687 243.804 261.247 243.068 262.384C242.397 263.425 242.061 264.834 242.061 266.627C242.061 268.404 242.397 269.813 243.068 270.87C243.804 271.991 244.844 272.567 246.187 272.567C247.531 272.567 248.571 271.991 249.307 270.87C249.978 269.813 250.314 268.388 250.314 266.627C250.314 264.85 249.978 263.441 249.307 262.384C248.571 261.247 247.531 260.687 246.187 260.687ZM246.187 262.16C247.115 262.16 247.787 262.672 248.171 263.713C248.443 264.417 248.587 265.394 248.587 266.627C248.587 267.844 248.443 268.82 248.171 269.541C247.787 270.566 247.115 271.094 246.187 271.094C245.244 271.094 244.588 270.566 244.204 269.541C243.916 268.82 243.788 267.844 243.788 266.627C243.788 265.394 243.916 264.417 244.204 263.713C244.588 262.672 245.244 262.16 246.187 262.16Z" fill="black"/>
<path d="M255.89 260.687C254.771 260.687 253.859 260.991 253.155 261.631C252.403 262.272 251.988 263.152 251.892 264.289H253.603C253.667 263.585 253.907 263.056 254.291 262.704C254.675 262.352 255.219 262.176 255.906 262.176C256.578 262.176 257.106 262.32 257.458 262.64C257.778 262.944 257.954 263.377 257.954 263.953C257.954 264.529 257.762 264.978 257.41 265.282C257.058 265.586 256.53 265.746 255.826 265.746H255.011V267.059H255.842C256.594 267.059 257.17 267.219 257.554 267.54C257.97 267.86 258.178 268.356 258.178 269.029C258.178 269.605 257.97 270.069 257.586 270.454C257.138 270.87 256.546 271.094 255.81 271.094C255.139 271.094 254.595 270.902 254.179 270.518C253.699 270.101 253.459 269.509 253.427 268.74H251.668C251.764 270.021 252.211 270.998 253.011 271.67C253.715 272.263 254.659 272.567 255.826 272.567C257.042 272.567 258.05 272.215 258.817 271.542C259.537 270.87 259.905 270.005 259.905 268.949C259.905 268.276 259.713 267.716 259.329 267.283C258.977 266.867 258.466 266.547 257.794 266.339C259.041 265.922 259.681 265.074 259.681 263.825C259.681 262.848 259.329 262.08 258.658 261.519C257.954 260.959 257.042 260.687 255.89 260.687Z" fill="black"/>
<path d="M262.746 270.053C262.394 270.053 262.122 270.165 261.914 270.39C261.674 270.614 261.562 270.902 261.562 271.254C261.562 271.574 261.674 271.863 261.914 272.103C262.122 272.311 262.394 272.423 262.746 272.423C263.066 272.423 263.354 272.311 263.594 272.103C263.818 271.863 263.946 271.574 263.946 271.254C263.946 270.902 263.818 270.614 263.594 270.39C263.354 270.165 263.066 270.053 262.746 270.053Z" fill="black"/>
<path d="M268.64 260.911C268.256 261.327 267.776 261.695 267.2 262.048C266.624 262.368 266.096 262.592 265.585 262.72V264.449C266.64 264.145 267.52 263.665 268.208 263.008V272.343H269.951V260.911H268.64Z" fill="black"/>
<path d="M276.257 260.687C274.913 260.687 273.873 261.247 273.138 262.384C272.466 263.425 272.13 264.834 272.13 266.627C272.13 268.404 272.466 269.813 273.138 270.87C273.873 271.991 274.913 272.567 276.257 272.567C277.6 272.567 278.64 271.991 279.376 270.87C280.047 269.813 280.383 268.388 280.383 266.627C280.383 264.85 280.047 263.441 279.376 262.384C278.64 261.247 277.6 260.687 276.257 260.687ZM276.257 262.16C277.184 262.16 277.856 262.672 278.24 263.713C278.512 264.417 278.656 265.394 278.656 266.627C278.656 267.844 278.512 268.82 278.24 269.541C277.856 270.566 277.184 271.094 276.257 271.094C275.313 271.094 274.657 270.566 274.273 269.541C273.985 268.82 273.857 267.844 273.857 266.627C273.857 265.394 273.985 264.417 274.273 263.713C274.657 262.672 275.313 262.16 276.257 262.16Z" fill="black"/>
<path d="M285.848 260.687C284.632 260.687 283.656 261.007 282.952 261.647C282.313 262.224 281.993 262.944 281.993 263.793C281.993 264.385 282.121 264.882 282.377 265.282C282.664 265.714 283.096 266.034 283.672 266.259V266.307C283.112 266.435 282.648 266.755 282.265 267.267C281.817 267.812 281.593 268.436 281.593 269.157C281.593 270.165 281.961 270.982 282.696 271.622C283.432 272.247 284.488 272.567 285.848 272.567C287.191 272.567 288.247 272.247 288.999 271.622C289.734 270.982 290.102 270.165 290.102 269.157C290.102 268.436 289.878 267.812 289.43 267.267C289.047 266.755 288.567 266.435 288.023 266.307V266.259C288.599 266.034 289.031 265.714 289.318 265.282C289.574 264.882 289.702 264.385 289.702 263.793C289.702 262.944 289.382 262.224 288.743 261.647C288.023 261.007 287.063 260.687 285.848 260.687ZM285.848 262.08C286.551 262.08 287.111 262.256 287.527 262.64C287.879 262.96 288.071 263.377 288.071 263.857C288.071 264.401 287.911 264.834 287.623 265.154C287.239 265.538 286.647 265.73 285.848 265.73C285.032 265.73 284.44 265.538 284.072 265.154C283.768 264.834 283.624 264.401 283.624 263.857C283.624 263.377 283.8 262.96 284.168 262.64C284.584 262.256 285.144 262.08 285.848 262.08ZM285.848 267.027C286.679 267.027 287.303 267.235 287.751 267.652C288.167 268.02 288.375 268.516 288.375 269.157C288.375 269.749 288.167 270.229 287.751 270.598C287.287 270.966 286.647 271.158 285.848 271.158C285.032 271.158 284.408 270.966 283.976 270.598C283.528 270.229 283.32 269.749 283.32 269.157C283.32 268.516 283.528 268.02 283.96 267.636C284.376 267.219 285.016 267.027 285.848 267.027Z" fill="black"/>
<path d="M57.237 191.497C56.0774 191.577 55.1376 191.877 54.3779 192.418C53.3582 193.118 52.8583 194.119 52.8583 195.44C52.8583 196.921 53.5381 198.042 54.9377 198.802L57.237 199.643V204.326C56.6172 204.246 56.1373 204.046 55.7975 203.726C55.3376 203.285 55.0777 202.525 54.9977 201.484H52.6784C52.7983 203.125 53.2782 204.346 54.118 205.147C54.8377 205.827 55.8774 206.207 57.237 206.308V208.069H58.5566V206.308C59.7763 206.227 60.776 205.927 61.5757 205.407C62.6554 204.686 63.1952 203.626 63.1952 202.205C63.1952 200.744 62.4955 199.623 61.1159 198.842C60.9959 198.762 60.1362 198.442 58.5566 197.862V193.459C59.0565 193.519 59.4564 193.659 59.7563 193.879C60.2361 194.219 60.536 194.8 60.656 195.64H62.9353C62.7354 194.179 62.2355 193.118 61.4158 192.478C60.716 191.918 59.7563 191.577 58.5566 191.497V189.856H57.237V191.497ZM58.5566 200.123C58.6366 200.143 58.6966 200.163 58.7766 200.203C60.1562 200.684 60.8559 201.384 60.8559 202.285C60.8559 202.945 60.576 203.466 60.0162 203.826C59.6163 204.086 59.1165 204.246 58.5566 204.326V200.123ZM57.237 197.361C55.8774 196.841 55.1976 196.2 55.1976 195.44C55.1976 194.699 55.4576 194.159 55.9974 193.839C56.2973 193.639 56.7172 193.499 57.237 193.439V197.361Z" fill="black"/>
<path d="M72.4847 191.757L65.5067 200.764V202.985H72.4047V206.047H74.624V202.985H76.7434V201.124H74.624V191.757H72.4847ZM72.3447 194.719H72.4047V201.124H67.4062L72.3447 194.719Z" fill="black"/>
<path d="M84.3133 191.477C82.6338 191.477 81.3342 192.158 80.4145 193.559C79.5347 194.88 79.0949 196.661 79.0949 198.902C79.0949 201.144 79.5347 202.925 80.4145 204.246C81.3342 205.627 82.6338 206.328 84.3133 206.328C85.9728 206.328 87.2724 205.627 88.2122 204.246C89.0919 202.925 89.5318 201.144 89.5318 198.902C89.5318 196.661 89.0919 194.88 88.2122 193.559C87.2724 192.158 85.9728 191.477 84.3133 191.477ZM84.3133 193.459C85.433 193.459 86.2327 194.079 86.7126 195.36C87.0325 196.221 87.1925 197.401 87.1925 198.902C87.1925 200.383 87.0325 201.564 86.7126 202.445C86.2327 203.706 85.433 204.346 84.3133 204.346C83.1737 204.346 82.3739 203.706 81.914 202.445C81.5941 201.564 81.4342 200.383 81.4342 198.902C81.4342 197.401 81.5941 196.221 81.914 195.36C82.3739 194.079 83.1737 193.459 84.3133 193.459Z" fill="black"/>
<path d="M97.6415 191.477C96.2419 191.477 95.0823 191.857 94.1826 192.658C93.2228 193.459 92.703 194.579 92.583 196.02H94.8824C94.9623 195.16 95.2422 194.519 95.7221 194.099C96.182 193.679 96.8218 193.479 97.6615 193.479C98.4813 193.479 99.1011 193.659 99.521 194.019C99.9008 194.379 100.101 194.9 100.101 195.6C100.101 196.301 99.8809 196.841 99.461 197.201C99.0211 197.561 98.3813 197.742 97.5416 197.742H96.5419V199.503H97.5416C98.4613 199.503 99.1611 199.683 99.6409 200.083C100.121 200.463 100.381 201.064 100.381 201.884C100.381 202.565 100.141 203.125 99.6809 203.586C99.1611 204.086 98.4413 204.346 97.5416 204.346C96.7218 204.346 96.062 204.106 95.5621 203.646C95.0023 203.145 94.7224 202.425 94.6824 201.504H92.3031C92.4231 203.105 92.9829 204.346 93.9826 205.187C94.8824 205.947 96.082 206.328 97.5615 206.328C99.1211 206.328 100.381 205.887 101.34 205.027C102.26 204.186 102.72 203.105 102.72 201.784C102.72 200.944 102.48 200.243 102 199.703C101.56 199.183 100.901 198.802 100.061 198.542C101.64 198.022 102.44 196.981 102.44 195.42C102.44 194.179 102 193.218 101.14 192.518C100.261 191.817 99.0811 191.477 97.6415 191.477Z" fill="black"/>
<path d="M107.431 203.025C106.991 203.025 106.611 203.165 106.331 203.486C106.011 203.786 105.871 204.166 105.871 204.606C105.871 205.047 106.011 205.407 106.331 205.727C106.611 206.007 106.991 206.167 107.431 206.167C107.871 206.167 108.231 206.007 108.55 205.727C108.85 205.407 109.01 205.047 109.01 204.606C109.01 204.166 108.85 203.786 108.55 203.486C108.231 203.165 107.871 203.025 107.431 203.025Z" fill="black"/>
<path d="M117.536 191.477C116.136 191.477 114.976 191.857 114.077 192.658C113.117 193.459 112.597 194.579 112.477 196.02H114.776C114.856 195.16 115.136 194.519 115.616 194.099C116.076 193.679 116.716 193.479 117.556 193.479C118.375 193.479 118.995 193.659 119.415 194.019C119.795 194.379 119.995 194.9 119.995 195.6C119.995 196.301 119.775 196.841 119.355 197.201C118.915 197.561 118.275 197.742 117.436 197.742H116.436V199.503H117.436C118.355 199.503 119.055 199.683 119.535 200.083C120.015 200.463 120.275 201.064 120.275 201.884C120.275 202.565 120.035 203.125 119.575 203.586C119.055 204.086 118.335 204.346 117.436 204.346C116.616 204.346 115.956 204.106 115.456 203.646C114.896 203.145 114.616 202.425 114.576 201.504H112.197C112.317 203.105 112.877 204.346 113.877 205.187C114.776 205.947 115.976 206.328 117.456 206.328C119.015 206.328 120.275 205.887 121.234 205.027C122.154 204.186 122.614 203.105 122.614 201.784C122.614 200.944 122.374 200.243 121.894 199.703C121.454 199.183 120.795 198.802 119.955 198.542C121.534 198.022 122.334 196.981 122.334 195.42C122.334 194.179 121.894 193.218 121.035 192.518C120.155 191.817 118.975 191.477 117.536 191.477Z" fill="black"/>
<path d="M130.804 191.477C129.264 191.477 128.025 191.998 127.085 193.038C126.165 194.019 125.705 195.3 125.685 196.901H128.025C128.065 195.78 128.305 194.92 128.744 194.359C129.184 193.759 129.844 193.459 130.724 193.459C131.544 193.459 132.163 193.639 132.583 194.019C132.983 194.399 133.203 194.98 133.203 195.76C133.203 196.561 132.883 197.321 132.263 198.022C131.863 198.442 131.224 198.982 130.304 199.623C128.644 200.764 127.545 201.644 127.025 202.245C126.065 203.325 125.605 204.586 125.605 206.047H135.562V203.986H128.524C128.844 203.265 129.724 202.425 131.184 201.464C132.583 200.523 133.583 199.763 134.143 199.163C135.063 198.142 135.542 197.021 135.542 195.78C135.542 194.499 135.103 193.479 134.223 192.678C133.323 191.877 132.183 191.477 130.804 191.477Z" fill="black"/>
<path d="M142.413 191.757C141.933 192.258 141.333 192.718 140.613 193.158C139.893 193.559 139.214 193.839 138.574 193.999V196.321C139.893 195.94 140.973 195.36 141.833 194.579V206.047H144.172V191.757H142.413Z" fill="black"/>
<path d="M41.9875 141.252C41.9875 136.277 46.0157 132.245 50.9848 132.245H291.913C296.882 132.245 300.91 136.277 300.91 141.252V293.358C300.91 298.332 296.882 302.364 291.913 302.364H50.9848C46.0157 302.364 41.9875 298.332 41.9875 293.358V141.252Z" fill="black"/>
<path d="M183.945 189.756C183.945 187.838 185.498 186.283 187.414 186.283H286.445C288.36 186.283 289.913 187.838 289.913 189.756V208.829C289.913 210.747 288.36 212.301 286.445 212.301H187.414C185.498 212.301 183.945 210.747 183.945 208.829V189.756Z" fill="black"/>
<path d="M223.658 193.656C222.73 193.72 221.978 193.96 221.37 194.393C220.555 194.953 220.155 195.754 220.155 196.81C220.155 197.995 220.699 198.892 221.818 199.5L223.658 200.173V203.919C223.162 203.855 222.778 203.695 222.506 203.439C222.138 203.087 221.93 202.478 221.866 201.646H220.011C220.107 202.959 220.491 203.935 221.162 204.576C221.738 205.12 222.57 205.424 223.658 205.504V206.913H224.713V205.504C225.689 205.44 226.489 205.2 227.129 204.784C227.992 204.207 228.424 203.359 228.424 202.222C228.424 201.053 227.864 200.157 226.761 199.532C226.665 199.468 225.977 199.212 224.713 198.748V195.225C225.113 195.273 225.433 195.385 225.673 195.561C226.057 195.834 226.297 196.298 226.393 196.97H228.216C228.056 195.802 227.656 194.953 227.001 194.441C226.441 193.992 225.673 193.72 224.713 193.656V192.343H223.658V193.656ZM224.713 200.557C224.777 200.573 224.825 200.589 224.889 200.621C225.993 201.005 226.553 201.566 226.553 202.286C226.553 202.815 226.329 203.231 225.881 203.519C225.561 203.727 225.161 203.855 224.713 203.919V200.557ZM223.658 198.347C222.57 197.931 222.026 197.419 222.026 196.81C222.026 196.218 222.234 195.786 222.666 195.529C222.906 195.369 223.242 195.257 223.658 195.209V198.347Z" fill="black"/>
<path d="M229.81 200.397V201.902H237.887V200.397H229.81Z" fill="black"/>
<path d="M243.493 193.64C242.149 193.64 241.11 194.184 240.374 195.305C239.67 196.362 239.318 197.787 239.318 199.58C239.318 201.374 239.67 202.798 240.374 203.855C241.11 204.96 242.149 205.52 243.493 205.52C244.821 205.52 245.86 204.96 246.612 203.855C247.316 202.798 247.668 201.374 247.668 199.58C247.668 197.787 247.316 196.362 246.612 195.305C245.86 194.184 244.821 193.64 243.493 193.64ZM243.493 195.225C244.389 195.225 245.029 195.722 245.412 196.746C245.668 197.435 245.796 198.379 245.796 199.58C245.796 200.765 245.668 201.71 245.412 202.414C245.029 203.423 244.389 203.935 243.493 203.935C242.581 203.935 241.941 203.423 241.574 202.414C241.318 201.71 241.19 200.765 241.19 199.58C241.19 198.379 241.318 197.435 241.574 196.746C241.941 195.722 242.581 195.225 243.493 195.225Z" fill="black"/>
<path d="M250.477 202.879C250.125 202.879 249.821 202.991 249.597 203.247C249.341 203.487 249.229 203.791 249.229 204.143C249.229 204.496 249.341 204.784 249.597 205.04C249.821 205.264 250.125 205.392 250.477 205.392C250.829 205.392 251.116 205.264 251.372 205.04C251.612 204.784 251.74 204.496 251.74 204.143C251.74 203.791 251.612 203.487 251.372 203.247C251.116 202.991 250.829 202.879 250.477 202.879Z" fill="black"/>
<path d="M257.665 193.64C256.433 193.64 255.441 194.056 254.69 194.889C253.954 195.674 253.586 196.698 253.57 197.979H255.441C255.473 197.083 255.665 196.394 256.017 195.946C256.369 195.465 256.897 195.225 257.601 195.225C258.257 195.225 258.752 195.369 259.088 195.674C259.408 195.978 259.584 196.442 259.584 197.066C259.584 197.707 259.328 198.315 258.832 198.876C258.512 199.212 258.001 199.644 257.265 200.157C255.937 201.069 255.058 201.774 254.642 202.254C253.874 203.119 253.506 204.127 253.506 205.296H261.472V203.647H255.841C256.097 203.071 256.801 202.398 257.969 201.63C259.088 200.877 259.888 200.269 260.336 199.788C261.072 198.972 261.456 198.075 261.456 197.083C261.456 196.058 261.104 195.241 260.4 194.601C259.68 193.96 258.768 193.64 257.665 193.64Z" fill="black"/>
<path d="M265.992 193.864C265.608 194.265 265.128 194.633 264.552 194.985C263.977 195.305 263.433 195.529 262.921 195.658V197.515C263.977 197.211 264.84 196.746 265.528 196.122V205.296H267.4V193.864H265.992Z" fill="black"/>
<path d="M273.752 193.64C272.633 193.64 271.705 193.944 270.985 194.585C270.217 195.225 269.801 196.122 269.705 197.275H271.545C271.609 196.586 271.833 196.074 272.217 195.738C272.585 195.401 273.096 195.241 273.768 195.241C274.424 195.241 274.92 195.385 275.256 195.674C275.56 195.962 275.72 196.378 275.72 196.938C275.72 197.499 275.544 197.931 275.208 198.219C274.856 198.507 274.344 198.652 273.672 198.652H272.872V200.061H273.672C274.408 200.061 274.968 200.205 275.352 200.525C275.736 200.829 275.944 201.309 275.944 201.966C275.944 202.51 275.752 202.959 275.384 203.327C274.968 203.727 274.392 203.935 273.672 203.935C273.016 203.935 272.489 203.743 272.089 203.375C271.641 202.975 271.417 202.398 271.385 201.662H269.481C269.577 202.943 270.025 203.935 270.825 204.608C271.545 205.216 272.505 205.52 273.688 205.52C274.936 205.52 275.944 205.168 276.711 204.48C277.447 203.807 277.815 202.943 277.815 201.886C277.815 201.213 277.623 200.653 277.239 200.221C276.887 199.804 276.359 199.5 275.688 199.292C276.951 198.876 277.591 198.043 277.591 196.794C277.591 195.802 277.239 195.033 276.551 194.473C275.848 193.912 274.904 193.64 273.752 193.64Z" fill="black"/>
<path fill-rule="evenodd" clip-rule="evenodd" d="M204.939 192.62C205.399 192.62 205.771 192.994 205.771 193.454V205.129C205.771 205.59 205.399 205.963 204.939 205.963C204.479 205.963 204.106 205.59 204.106 205.129V193.454C204.106 192.994 204.479 192.62 204.939 192.62Z" fill="black"/>
<path fill-rule="evenodd" clip-rule="evenodd" d="M198.519 198.702C198.844 198.376 199.371 198.376 199.697 198.702L204.939 203.95L210.182 198.702C210.507 198.376 211.035 198.376 211.36 198.702C211.685 199.028 211.685 199.556 211.36 199.881L205.528 205.719C205.203 206.044 204.675 206.044 204.35 205.719L198.519 199.881C198.193 199.556 198.193 199.028 198.519 198.702Z" fill="black"/>
<path d="M83.4786 336.108V344.974C83.4786 346.835 83.9985 348.256 85.0581 349.257C86.0578 350.197 87.5174 350.678 89.4168 350.678C91.2963 350.678 92.7558 350.197 93.7955 349.237C94.8352 348.256 95.3551 346.835 95.3551 344.974V336.108H93.0158V345.014C93.0158 346.255 92.7158 347.155 92.156 347.756C91.5762 348.336 90.6565 348.636 89.4168 348.636C88.1572 348.636 87.2375 348.336 86.6777 347.756C86.0978 347.155 85.8179 346.255 85.8179 345.014V336.108H83.4786Z" fill="black"/>
<path d="M98.1617 336.108V350.397H100.501V344.914H104.04C107.519 344.914 109.258 343.433 109.258 340.491C109.258 337.569 107.519 336.108 104.08 336.108H98.1617ZM100.501 338.109H103.9C104.92 338.109 105.679 338.289 106.159 338.669C106.639 339.03 106.899 339.63 106.899 340.491C106.899 341.351 106.659 341.972 106.179 342.352C105.699 342.712 104.94 342.912 103.9 342.912H100.501V338.109Z" fill="black"/>
<path d="M60.5061 361.213C59.5264 361.213 58.7146 361.479 58.0848 362.04C57.413 362.6 57.0491 363.385 56.9651 364.393H58.5747C58.6306 363.791 58.8266 363.342 59.1625 363.048C59.4844 362.754 59.9323 362.614 60.5201 362.614C61.0939 362.614 61.5278 362.74 61.8217 362.992C62.0876 363.244 62.2276 363.609 62.2276 364.099C62.2276 364.589 62.0736 364.968 61.7797 365.22C61.4718 365.472 61.0239 365.598 60.4361 365.598H59.7363V366.831H60.4361C61.0799 366.831 61.5698 366.957 61.9057 367.237C62.2416 367.503 62.4235 367.924 62.4235 368.498C62.4235 368.974 62.2556 369.367 61.9337 369.689C61.5698 370.039 61.0659 370.221 60.4361 370.221C59.8623 370.221 59.4004 370.053 59.0505 369.731C58.6586 369.381 58.4627 368.876 58.4347 368.232H56.7692C56.8532 369.353 57.2451 370.221 57.9448 370.81C58.5747 371.342 59.4144 371.608 60.4501 371.608C61.5418 371.608 62.4235 371.3 63.0953 370.698C63.7391 370.109 64.061 369.353 64.061 368.428C64.061 367.84 63.8931 367.349 63.5572 366.971C63.2493 366.607 62.7874 366.341 62.1996 366.158C63.3052 365.794 63.8651 365.066 63.8651 363.973C63.8651 363.104 63.5572 362.432 62.9553 361.941C62.3395 361.451 61.5138 361.213 60.5061 361.213Z" fill="black"/>
<path d="M66.5188 369.297C66.2109 369.297 65.945 369.395 65.749 369.619C65.5251 369.829 65.4271 370.095 65.4271 370.403C65.4271 370.712 65.5251 370.964 65.749 371.188C65.945 371.384 66.2109 371.496 66.5188 371.496C66.8267 371.496 67.0787 371.384 67.3026 371.188C67.5125 370.964 67.6245 370.712 67.6245 370.403C67.6245 370.095 67.5125 369.829 67.3026 369.619C67.0787 369.395 66.8267 369.297 66.5188 369.297Z" fill="black"/>
<path d="M73.6062 361.409L68.7216 367.714V369.269H73.5502V371.412H75.1037V369.269H76.5873V367.966H75.1037V361.409H73.6062ZM73.5082 363.483H73.5502V367.966H70.0512L73.5082 363.483Z" fill="black"/>
<path d="M81.0465 361.213C79.9688 361.213 79.1151 361.493 78.4852 362.068C77.9114 362.572 77.6315 363.202 77.6315 363.959C77.6315 364.463 77.7435 364.898 77.9674 365.248C78.2053 365.612 78.5692 365.906 79.0731 366.102V366.13C78.5972 366.257 78.2053 366.537 77.8694 366.971C77.4775 367.447 77.2956 367.994 77.2956 368.61C77.2956 369.507 77.6175 370.221 78.2753 370.782C78.9191 371.328 79.8428 371.608 81.0465 371.608C82.2361 371.608 83.1599 371.328 83.8177 370.782C84.4615 370.221 84.7974 369.507 84.7974 368.61C84.7974 367.994 84.6014 367.447 84.2235 366.971C83.8876 366.537 83.4818 366.257 83.0199 366.13V366.102C83.5098 365.906 83.8736 365.612 84.1256 365.248C84.3495 364.898 84.4615 364.463 84.4615 363.959C84.4615 363.202 84.1675 362.572 83.6077 362.068C82.9639 361.493 82.1102 361.213 81.0465 361.213ZM81.0465 362.516C81.6343 362.516 82.0962 362.67 82.4601 362.992C82.768 363.272 82.9219 363.609 82.9219 364.015C82.9219 364.477 82.796 364.842 82.544 365.108C82.2361 365.43 81.7323 365.598 81.0465 365.598C80.3467 365.598 79.8568 365.43 79.5489 365.108C79.297 364.842 79.171 364.477 79.171 364.015C79.171 363.609 79.325 363.272 79.6329 362.992C79.9828 362.67 80.4587 362.516 81.0465 362.516ZM81.0465 366.817C81.7463 366.817 82.2781 366.985 82.656 367.335C82.9919 367.643 83.1739 368.078 83.1739 368.61C83.1739 369.115 82.9919 369.507 82.642 369.815C82.2501 370.123 81.7183 370.291 81.0465 370.291C80.3607 370.291 79.8428 370.137 79.479 369.829C79.1011 369.521 78.9191 369.115 78.9191 368.61C78.9191 368.078 79.0871 367.643 79.451 367.321C79.8148 366.985 80.3467 366.817 81.0465 366.817Z" fill="black"/>
<path d="M85.6316 364.169L88.1229 367.559L85.3097 371.412H87.1852L89.0046 368.736L90.8101 371.412H92.6855L89.8724 367.559L92.3636 364.169H90.5022L89.0046 366.383L87.4931 364.169H85.6316Z" fill="black"/>
<path d="M98.2414 362.838V371.412H99.2251V367.906H101.732C103.7 367.906 104.695 367.053 104.695 365.36C104.695 363.679 103.712 362.838 101.744 362.838H98.2414ZM99.2251 363.691H101.684C102.368 363.691 102.872 363.823 103.208 364.111C103.544 364.363 103.712 364.784 103.712 365.36C103.712 365.936 103.544 366.357 103.22 366.633C102.884 366.909 102.38 367.053 101.684 367.053H99.2251V363.691Z" fill="black"/>
<path d="M108.518 365.036C107.774 365.036 107.186 365.18 106.73 365.468C106.226 365.78 105.902 366.273 105.77 366.921L106.718 366.993C106.814 366.597 107.018 366.297 107.342 366.104C107.63 365.912 108.002 365.828 108.458 365.828C109.537 365.828 110.077 366.345 110.077 367.389V367.714L108.59 367.738C107.654 367.75 106.934 367.93 106.43 368.266C105.854 368.626 105.578 369.155 105.578 369.863C105.578 370.367 105.77 370.788 106.154 371.112C106.526 371.424 107.018 371.58 107.642 371.58C108.218 371.58 108.733 371.448 109.189 371.196C109.573 370.98 109.897 370.704 110.137 370.367V371.412H111.037V367.425C111.037 366.705 110.845 366.14 110.485 365.732C110.053 365.264 109.405 365.036 108.518 365.036ZM110.077 368.434V368.962C110.077 369.443 109.849 369.875 109.405 370.247C108.949 370.632 108.434 370.824 107.846 370.824C107.462 370.824 107.15 370.728 106.91 370.548C106.67 370.355 106.562 370.127 106.562 369.839C106.562 368.938 107.258 368.482 108.649 368.458L110.077 368.434Z" fill="black"/>
<path d="M111.836 365.204L114.295 371.268L113.227 373.79H114.271L117.666 365.204H116.61L114.775 370.103L112.879 365.204H111.836Z" fill="black"/>
<path d="M121.242 365.036C120.306 365.036 119.574 365.348 119.023 365.996C118.495 366.609 118.231 367.377 118.231 368.314C118.231 369.239 118.495 370.007 119.023 370.608C119.574 371.256 120.306 371.58 121.242 371.58C122.166 371.58 122.909 371.256 123.473 370.608C123.989 370.007 124.253 369.239 124.253 368.314C124.253 367.377 123.989 366.609 123.461 365.996C122.909 365.348 122.166 365.036 121.242 365.036ZM121.242 365.84C121.89 365.84 122.406 366.092 122.79 366.597C123.113 367.053 123.281 367.617 123.281 368.314C123.281 368.986 123.113 369.563 122.79 370.019C122.406 370.523 121.89 370.776 121.242 370.776C120.582 370.776 120.066 370.523 119.706 370.019C119.371 369.563 119.215 368.998 119.215 368.314C119.215 367.617 119.371 367.053 119.706 366.597C120.066 366.092 120.582 365.84 121.242 365.84Z" fill="black"/>
<path d="M125.5 365.204V369.046C125.5 370.728 126.244 371.58 127.755 371.58C128.595 371.58 129.267 371.196 129.771 370.451V371.412H130.73V365.204H129.771V368.986C129.699 369.515 129.495 369.947 129.159 370.283C128.835 370.596 128.463 370.764 128.055 370.764C127.491 370.764 127.083 370.608 126.832 370.319C126.58 370.031 126.46 369.587 126.46 368.998V365.204H125.5Z" fill="black"/>
<path d="M133.868 363.198L132.921 363.595V365.204H131.673V366.008H132.921V369.959C132.921 370.427 133.017 370.776 133.22 371.016C133.436 371.28 133.808 371.412 134.312 371.412H135.248V370.608H134.456C134.24 370.608 134.084 370.547 134 370.451C133.904 370.355 133.868 370.187 133.868 369.959V366.008H135.404V365.204H133.868V363.198Z" fill="black"/>
<path d="M216.529 355.121V369.411H221.747C224.066 369.411 225.806 368.77 227.006 367.489C228.145 366.268 228.725 364.527 228.725 362.266C228.725 359.984 228.145 358.243 227.006 357.042C225.806 355.761 224.066 355.121 221.747 355.121H216.529ZM218.868 357.122H221.307C223.087 357.122 224.386 357.522 225.206 358.343C226.006 359.143 226.406 360.464 226.406 362.266C226.406 364.027 226.006 365.328 225.206 366.168C224.386 366.989 223.087 367.409 221.307 367.409H218.868V357.122Z" fill="black"/>
<path d="M237.257 354.84C235.058 354.84 233.338 355.541 232.099 356.982C230.899 358.343 230.319 360.104 230.319 362.286C230.319 364.447 230.899 366.208 232.099 367.569C233.338 368.97 235.058 369.691 237.257 369.691C239.436 369.691 241.156 368.99 242.416 367.589C243.615 366.248 244.215 364.487 244.215 362.286C244.215 360.084 243.615 358.303 242.416 356.962C241.156 355.541 239.436 354.84 237.257 354.84ZM237.257 356.902C238.737 356.902 239.876 357.362 240.676 358.323C241.456 359.283 241.856 360.604 241.856 362.286C241.856 363.967 241.456 365.268 240.676 366.208C239.876 367.149 238.737 367.629 237.257 367.629C235.778 367.629 234.618 367.129 233.818 366.148C233.038 365.188 232.658 363.907 232.658 362.286C232.658 360.644 233.038 359.364 233.818 358.403C234.638 357.402 235.778 356.902 237.257 356.902Z" fill="black"/>
<path d="M245.123 355.121L249.221 369.411H251.721L254.52 358.663H254.6L257.379 369.411H259.858L263.977 355.121H261.338L258.659 365.988H258.579L255.759 355.121H253.34L250.521 365.988H250.441L247.762 355.121H245.123Z" fill="black"/>
<path d="M265.479 355.121V369.411H267.818V358.963H267.898L275.036 369.411H277.315V355.121H274.956V365.428H274.876L267.818 355.121H265.479Z" fill="black"/>
<path d="M213.237 334.39C212.901 334.74 212.481 335.063 211.977 335.371C211.473 335.651 210.997 335.847 210.549 335.959V337.584C211.473 337.318 212.229 336.912 212.831 336.365V344.393H214.468V334.39H213.237Z" fill="black"/>
<path d="M217.648 342.278C217.34 342.278 217.074 342.376 216.878 342.6C216.654 342.81 216.556 343.076 216.556 343.384C216.556 343.693 216.654 343.945 216.878 344.169C217.074 344.365 217.34 344.477 217.648 344.477C217.955 344.477 218.207 344.365 218.431 344.169C218.641 343.945 218.753 343.693 218.753 343.384C218.753 343.076 218.641 342.81 218.431 342.6C218.207 342.376 217.955 342.278 217.648 342.278Z" fill="black"/>
<path d="M223.881 334.194C222.901 334.194 222.09 334.46 221.46 335.021C220.788 335.581 220.424 336.365 220.34 337.374H221.95C222.006 336.772 222.202 336.323 222.538 336.029C222.859 335.735 223.307 335.595 223.895 335.595C224.469 335.595 224.903 335.721 225.197 335.973C225.463 336.225 225.603 336.59 225.603 337.08C225.603 337.57 225.449 337.949 225.155 338.201C224.847 338.453 224.399 338.579 223.811 338.579H223.111V339.812H223.811C224.455 339.812 224.945 339.938 225.281 340.218C225.617 340.484 225.799 340.905 225.799 341.479C225.799 341.955 225.631 342.348 225.309 342.67C224.945 343.02 224.441 343.202 223.811 343.202C223.237 343.202 222.775 343.034 222.426 342.712C222.034 342.362 221.838 341.857 221.81 341.213H220.144C220.228 342.334 220.62 343.202 221.32 343.791C221.95 344.323 222.789 344.589 223.825 344.589C224.917 344.589 225.799 344.281 226.47 343.679C227.114 343.09 227.436 342.334 227.436 341.409C227.436 340.821 227.268 340.33 226.932 339.952C226.624 339.588 226.162 339.322 225.575 339.139C226.68 338.775 227.24 338.047 227.24 336.954C227.24 336.085 226.932 335.413 226.33 334.922C225.715 334.432 224.889 334.194 223.881 334.194Z" fill="black"/>
<path d="M232.329 334.194C231.251 334.194 230.384 334.558 229.726 335.287C229.082 335.973 228.76 336.87 228.746 337.991H230.384C230.412 337.206 230.58 336.604 230.888 336.211C231.196 335.791 231.657 335.581 232.273 335.581C232.847 335.581 233.281 335.707 233.575 335.973C233.855 336.239 234.009 336.646 234.009 337.192C234.009 337.752 233.785 338.285 233.351 338.775C233.071 339.069 232.623 339.448 231.979 339.896C230.818 340.695 230.048 341.311 229.684 341.731C229.012 342.488 228.69 343.37 228.69 344.393H235.66V342.95H230.734C230.958 342.446 231.573 341.857 232.595 341.185C233.575 340.526 234.275 339.994 234.666 339.574C235.31 338.859 235.646 338.075 235.646 337.206C235.646 336.309 235.338 335.595 234.722 335.035C234.093 334.474 233.295 334.194 232.329 334.194Z" fill="black"/>
<path d="M236.76 337.15L239.252 340.54L236.438 344.393H238.314L240.133 341.717L241.939 344.393H243.814L241.001 340.54L243.492 337.15H241.631L240.133 339.364L238.622 337.15H236.76Z" fill="black"/>
<path d="M249.37 335.819V344.393H250.354V340.887H252.861C254.828 340.887 255.824 340.034 255.824 338.341C255.824 336.66 254.84 335.819 252.873 335.819H249.37ZM250.354 336.672H252.813C253.497 336.672 254.001 336.804 254.337 337.092C254.673 337.344 254.84 337.764 254.84 338.341C254.84 338.917 254.673 339.338 254.349 339.614C254.013 339.89 253.509 340.034 252.813 340.034H250.354V336.672Z" fill="black"/>
<path d="M259.646 338.017C258.902 338.017 258.315 338.161 257.859 338.449C257.355 338.761 257.031 339.253 256.899 339.902L257.847 339.974C257.943 339.578 258.147 339.278 258.471 339.085C258.758 338.893 259.13 338.809 259.586 338.809C260.666 338.809 261.206 339.326 261.206 340.37V340.695L259.718 340.719C258.782 340.731 258.063 340.911 257.559 341.247C256.983 341.607 256.707 342.135 256.707 342.844C256.707 343.348 256.899 343.769 257.283 344.093C257.655 344.405 258.147 344.561 258.771 344.561C259.346 344.561 259.862 344.429 260.318 344.177C260.702 343.961 261.026 343.685 261.266 343.348V344.393H262.165V340.406C262.165 339.686 261.974 339.121 261.614 338.713C261.182 338.245 260.534 338.017 259.646 338.017ZM261.206 341.415V341.943C261.206 342.424 260.978 342.856 260.534 343.228C260.078 343.613 259.562 343.805 258.974 343.805C258.591 343.805 258.279 343.709 258.039 343.529C257.799 343.336 257.691 343.108 257.691 342.82C257.691 341.919 258.387 341.463 259.778 341.439L261.206 341.415Z" fill="black"/>
<path d="M262.964 338.185L265.424 344.249L264.356 346.771H265.4L268.795 338.185H267.739L265.904 343.084L264.008 338.185H262.964Z" fill="black"/>
<path d="M272.371 338.017C271.435 338.017 270.703 338.329 270.151 338.977C269.624 339.59 269.36 340.358 269.36 341.295C269.36 342.22 269.624 342.988 270.151 343.589C270.703 344.237 271.435 344.561 272.371 344.561C273.294 344.561 274.038 344.237 274.602 343.589C275.118 342.988 275.382 342.22 275.382 341.295C275.382 340.358 275.118 339.59 274.59 338.977C274.038 338.329 273.294 338.017 272.371 338.017ZM272.371 338.821C273.018 338.821 273.534 339.073 273.918 339.578C274.242 340.034 274.41 340.598 274.41 341.295C274.41 341.967 274.242 342.544 273.918 343C273.534 343.504 273.018 343.757 272.371 343.757C271.711 343.757 271.195 343.504 270.835 343C270.499 342.544 270.343 341.979 270.343 341.295C270.343 340.598 270.499 340.034 270.835 339.578C271.195 339.073 271.711 338.821 272.371 338.821Z" fill="black"/>
<path d="M276.629 338.185V342.027C276.629 343.709 277.372 344.561 278.884 344.561C279.724 344.561 280.396 344.177 280.899 343.432V344.393H281.859V338.185H280.899V341.967C280.827 342.496 280.623 342.928 280.288 343.264C279.964 343.577 279.592 343.745 279.184 343.745C278.62 343.745 278.212 343.589 277.96 343.3C277.708 343.012 277.588 342.568 277.588 341.979V338.185H276.629Z" fill="black"/>
<path d="M284.997 336.179L284.049 336.576V338.185H282.802V338.989H284.049V342.94C284.049 343.408 284.145 343.757 284.349 343.997C284.565 344.261 284.937 344.393 285.441 344.393H286.377V343.589H285.585C285.369 343.589 285.213 343.528 285.129 343.432C285.033 343.336 284.997 343.168 284.997 342.94V338.989H286.533V338.185H284.997V336.179Z" fill="black"/>
<path d="M78.9564 101.228V111.231H86.3742V109.928H80.482V106.748H85.8004V105.445H80.482V102.531H86.1363V101.228H78.9564Z" fill="black"/>
<path d="M87.3347 103.988L89.8399 107.378L87.0128 111.231H88.7623L90.6657 108.471L92.5551 111.231H94.2906L91.4775 107.378L93.9827 103.988H92.2472L90.6657 106.285L89.0702 103.988H87.3347Z" fill="black"/>
<path d="M98.8291 103.792C97.8494 103.792 97.0936 104.142 96.5898 104.856V103.988H95.2042V114.005H96.6877V110.166C97.2755 111.007 98.0033 111.427 98.8991 111.427C99.9348 111.427 100.761 111.049 101.348 110.292C101.894 109.592 102.174 108.709 102.174 107.644C102.174 106.523 101.894 105.627 101.334 104.926C100.719 104.17 99.8928 103.792 98.8291 103.792ZM98.6052 104.996C99.3329 104.996 99.8648 105.249 100.215 105.781C100.495 106.229 100.649 106.846 100.649 107.644C100.649 108.443 100.481 109.059 100.173 109.508C99.8228 109.984 99.291 110.222 98.5632 110.222C98.0033 110.222 97.5555 109.998 97.2196 109.564C96.8277 109.087 96.6457 108.457 96.6457 107.686V107.56C96.6457 106.818 96.7997 106.215 97.1076 105.767C97.4575 105.249 97.9613 104.996 98.6052 104.996Z" fill="black"/>
<path d="M104.619 101.088C104.325 101.088 104.087 101.172 103.891 101.368C103.695 101.55 103.597 101.788 103.597 102.082C103.597 102.363 103.695 102.615 103.891 102.811C104.087 102.993 104.325 103.091 104.619 103.091C104.898 103.091 105.15 102.993 105.346 102.811C105.542 102.615 105.654 102.377 105.654 102.082C105.654 101.788 105.556 101.55 105.36 101.368C105.164 101.172 104.912 101.088 104.619 101.088ZM103.877 103.988V111.231H105.36V103.988H103.877Z" fill="black"/>
<path d="M110.728 103.792C110.28 103.792 109.888 103.918 109.552 104.198C109.272 104.394 109.034 104.688 108.852 105.08V103.988H107.369V111.231H108.852V107.392C108.852 106.762 109.034 106.243 109.412 105.851C109.762 105.487 110.168 105.305 110.616 105.305C110.951 105.305 111.301 105.347 111.665 105.459V103.974C111.413 103.848 111.091 103.792 110.728 103.792Z" fill="black"/>
<path d="M115.641 103.792C114.577 103.792 113.724 104.156 113.108 104.898C112.464 105.627 112.156 106.523 112.156 107.602C112.156 108.793 112.492 109.732 113.164 110.432C113.78 111.091 114.633 111.427 115.697 111.427C116.663 111.427 117.46 111.147 118.09 110.6C118.594 110.152 118.916 109.578 119.084 108.905H117.6C117.405 109.325 117.195 109.648 116.943 109.844C116.621 110.082 116.201 110.208 115.683 110.208C115.095 110.208 114.633 110.012 114.297 109.648C113.962 109.269 113.78 108.723 113.724 108.023H119.21C119.196 106.734 118.902 105.725 118.342 104.996C117.726 104.184 116.817 103.792 115.641 103.792ZM115.683 105.01C116.859 105.01 117.516 105.641 117.656 106.902H113.752C113.836 106.285 114.046 105.823 114.353 105.501C114.689 105.165 115.123 105.01 115.683 105.01Z" fill="black"/>
<path d="M125.682 101.032V105.066C125.095 104.212 124.353 103.792 123.471 103.792C122.435 103.792 121.61 104.17 121.022 104.926C120.462 105.627 120.196 106.509 120.196 107.574C120.196 108.681 120.476 109.592 121.036 110.292C121.638 111.049 122.477 111.427 123.541 111.427C124.521 111.427 125.276 111.063 125.78 110.362V111.231H127.166V101.032H125.682ZM123.807 104.996C124.353 104.996 124.801 105.207 125.165 105.655C125.528 106.131 125.724 106.762 125.724 107.546V107.672C125.724 108.401 125.57 108.989 125.263 109.452C124.899 109.956 124.409 110.222 123.765 110.222C123.037 110.222 122.491 109.956 122.155 109.438C121.862 108.989 121.722 108.373 121.722 107.574C121.722 106.776 121.876 106.159 122.183 105.739C122.533 105.235 123.079 104.996 123.807 104.996Z" fill="black"/>
<path d="M174.403 105.457L174.221 106.536H175.662L175.116 109.926H173.871L173.689 111.005H174.948L174.599 113.232H175.816L176.166 111.005H178.027L177.678 113.232H178.895L179.245 111.005H180.673L180.855 109.926H179.413L179.959 106.536H181.205L181.387 105.457H180.127L180.477 103.229H179.273L178.909 105.457H177.048L177.398 103.229H176.194L175.83 105.457H174.403ZM176.334 109.926L176.88 106.536H178.741L178.195 109.926H176.334Z" fill="black"/>
<path d="M184.978 103.229C184.642 103.593 184.222 103.916 183.718 104.224C183.214 104.504 182.753 104.7 182.305 104.812V106.325C183.228 106.059 183.998 105.639 184.6 105.064V113.232H186.126V103.229H184.978Z" fill="black"/>
<path d="M191.643 103.033C190.467 103.033 189.557 103.523 188.914 104.518C188.326 105.429 188.032 106.662 188.032 108.231C188.032 109.786 188.326 111.019 188.914 111.943C189.557 112.924 190.467 113.428 191.643 113.428C192.818 113.428 193.728 112.924 194.372 111.943C194.96 111.019 195.254 109.772 195.254 108.231C195.254 106.676 194.96 105.443 194.372 104.518C193.728 103.523 192.818 103.033 191.643 103.033ZM191.643 104.322C192.455 104.322 193.042 104.77 193.378 105.681C193.616 106.297 193.742 107.152 193.742 108.231C193.742 109.295 193.616 110.15 193.378 110.78C193.042 111.677 192.455 112.139 191.643 112.139C190.817 112.139 190.243 111.677 189.907 110.78C189.655 110.15 189.543 109.295 189.543 108.231C189.543 107.152 189.655 106.297 189.907 105.681C190.243 104.77 190.817 104.322 191.643 104.322Z" fill="black"/>
<path d="M199.083 103.229C198.747 103.593 198.327 103.916 197.824 104.224C197.32 104.504 196.858 104.7 196.41 104.812V106.325C197.334 106.059 198.103 105.639 198.705 105.064V113.232H200.231V103.229H199.083Z" fill="black"/>
<path fill-rule="evenodd" clip-rule="evenodd" d="M55.9835 115.29C61.5357 115.29 66.0364 110.785 66.0364 105.227C66.0364 99.6691 61.5357 95.1634 55.9835 95.1634C50.4314 95.1634 45.9307 99.6691 45.9307 105.227C45.9307 110.785 50.4314 115.29 55.9835 115.29ZM61.2834 112.03C59.8216 113.173 57.982 113.854 55.9835 113.854C51.2242 113.854 47.366 109.991 47.366 105.227C47.366 102.896 48.2898 100.78 49.7909 99.2279L61.2834 112.03ZM62.3376 111.054C63.7432 109.519 64.601 107.473 64.601 105.227C64.601 100.463 60.7429 96.6003 55.9835 96.6003C54.0696 96.6003 52.3014 97.2249 50.8712 98.2816L62.3376 111.054Z" fill="black"/>
<path d="M12.1777 59.6554C-1.21921 61.1832 1.03072 54.5945 1.23532 49.1517L341.268 49.1516C348.938 59.5599 336.462 61.7561 332.985 59.0824C330.367 56.4087 326.644 57.5463 325.008 58.5095C317.133 63.1448 311.407 60.5509 310.486 59.5599C301.405 49.7818 291.363 66.817 275.92 60.1328C257.615 50.966 259.66 62.329 246.468 61.4696C240.639 60.1328 241.252 56.0538 232.969 56.6952C226.322 56.6952 222.129 68.1354 211.698 62.329C203.251 57.6271 199.608 59.1554 197.328 60.1119L197.278 60.1328C185.321 65.1468 177.923 62.1892 174.822 59.3244C174.211 58.7599 173.219 58.6803 172.584 59.2172C169.073 62.1834 161.584 66.4245 156.168 61.5651C150.952 56.8863 150.045 58.1275 148.702 59.3689C138.476 68.8222 129.016 63.8568 125.488 58.1275C123.018 54.117 119.026 56.5043 115.364 60.1328C106.978 68.4403 101.149 65.6437 96.7513 62.711C91.0244 58.8915 86.0816 59.8463 83.6613 61.5651C76.188 66.7631 67.7195 63.4599 63.7054 60.7191C63.218 60.3863 62.5748 60.3765 62.081 60.6997C55.4712 65.0257 50.9623 62.1172 49.3975 61.0301C49.0197 60.7677 48.5498 60.8556 48.1513 61.0852C41.1819 65.1023 38.8334 62.0038 37.6418 60.7057C36.7214 59.9419 35.6988 60.7057 35.6988 60.7057C30.9153 63.7467 29.1705 62.8156 27.7426 62.0536L27.722 62.0426C22.8132 58.5096 21.8928 62.329 18.5182 62.329C14.6288 62.329 14.9387 59.6554 12.1777 59.6554Z" fill="black"/>
<path d="M0.813907 49.1877C0.393004 50.7732 1.62947 52.2724 3.26832 52.2724H340.554C342.193 52.2724 343.429 50.7728 343.053 49.176C336.981 23.3777 316.687 0.000206018 171.911 0.000206018C37.9631 0.000206018 7.664 23.3848 0.813907 49.1877Z" fill="black"/>
<path d="M333.229 46.7981C329.881 51.7042 316.159 51.5732 302.579 46.5055C289 41.4378 280.706 33.3525 284.054 28.4464C287.402 23.5403 301.124 23.6713 314.703 28.739C328.283 33.8066 336.577 41.892 333.229 46.7981Z" fill="black"/>
<path d="M233.458 45.7372C233.284 48.2794 205.522 49.3094 171.449 48.0377C137.376 46.7661 109.894 43.6744 110.068 41.1321C110.241 38.5899 138.004 37.56 172.077 38.8316C206.15 40.1033 233.631 43.195 233.458 45.7372Z" fill="black"/>
<path d="M62.4814 10.1594L139.973 16.4704L128.412 48.53L50.475 38.199L62.4814 10.1594Z" fill="black"/>
<path d="M275.51 9.15575L197.572 19.4821L209.138 51.5399L287.076 41.2136L275.51 9.15575Z" fill="black"/>
<path d="M285.846 29.193L290.608 34.0028L282.269 38.517L277.508 33.7073L285.846 29.193Z" fill="black"/>
<path d="M216.786 11.2229L217.178 14.5514L222.948 14.1795L222.556 10.8511L216.786 11.2229Z" fill="black"/>
<path d="M229.36 31.3322L224.599 36.142L232.937 40.6562L237.699 35.8465L229.36 31.3322Z" fill="black"/>
<path d="M103.699 14.5196L98.9372 19.3294L107.276 23.8436L112.037 19.0339L103.699 14.5196Z" fill="black"/>
<path d="M171.49 3.3624L166.729 8.17324L175.067 12.6891L179.827 7.87824L171.49 3.3624Z" fill="black"/>
<path d="M137.553 29.1003L136.966 33.8313L145.168 34.388L145.755 29.6569L137.553 29.1003Z" fill="black"/>
<path d="M263.126 20.9401L263.585 24.6434L257.165 25.0791L256.705 21.3758L263.126 20.9401Z" fill="black"/>
<path d="M16.3496 40.5043L16.8092 44.2076L10.3891 44.6433L9.92951 40.94L16.3496 40.5043Z" fill="black"/>
<path d="M58.75 39.8225L59.2375 45.7725L69.5525 45.3104L69.0651 39.3604L58.75 39.8225Z" fill="black"/>
<path d="M40.7291 23.8011L38.2446 29.4718L48.0754 31.8273L50.5599 26.1567L40.7291 23.8011Z" fill="black"/>
<path d="M0.104242 409.455C0.103737 409.495 0.103485 409.535 0.103485 409.575C0.103485 431.745 77.0642 437 172 437C266.936 437 343.897 431.745 343.897 409.575C343.897 409.535 343.896 409.495 343.896 409.455H0.104242Z" fill="black"/>
<path d="M0.104242 409.455C0.103737 409.495 0.103485 409.535 0.103485 409.575C0.103485 431.745 77.0642 437 172 437C266.936 437 343.897 431.745 343.897 409.575C343.897 409.535 343.896 409.495 343.896 409.455H0.104242Z" fill="black"/>
<path d="M138.2 417.049C82.2481 417.049 22.7748 412.568 0 409.454C4.13462 408.731 231.056 409.193 344 409.514L342.398 410.939C331.028 415.459 218.721 417.049 138.2 417.049Z" fill="black"/>
<path d="M260.035 418.977L264.797 422.771L256.457 426.331L251.694 422.538L260.035 418.977Z" fill="black"/>
<path d="M180.443 414.88L185.205 418.675L176.865 422.237L172.103 418.442L180.443 414.88Z" fill="black"/>
<path d="M154.687 428.26L152.256 432.626L161.857 434.443L164.287 430.077L154.687 428.26Z" fill="black"/>
<path d="M90.6014 413.312L88.1714 417.679L97.7715 419.497L100.201 415.13L90.6014 413.312Z" fill="black"/>
<path d="M296.067 424.216L296.325 428.071L304.802 427.878L304.543 424.022L296.067 424.216Z" fill="black"/>
<path d="M29.459 415.361L29.2052 418.673L22.2234 418.491L22.4772 415.179L29.459 415.361Z" fill="black"/>
<path d="M55.3595 424.765L51.1658 428.715L59.4934 431.721L63.6871 427.771L55.3595 424.765Z" fill="black"/>
<path d="M223.455 415.361L223.914 418.282L217.493 418.625L217.033 415.705L223.455 415.361Z" fill="black"/>
<path d="M124.025 422.714L120.006 424.479L123.886 427.483L127.904 425.719L124.025 422.714Z" fill="black"/>
<path d="M208.516 424.885L202.699 430.012L213.972 434.361L219.79 429.234L208.516 424.885Z" fill="black"/>
<path d="M318.073 415.156L314.925 417.444L319.956 419.797L323.104 417.509L318.073 415.156Z" fill="black"/>
<path d="M0.104242 409.455C0.104242 404.062 4.47117 399.69 9.85856 399.69H334.142C339.53 399.69 343.897 404.062 343.897 409.455L0.104242 409.455Z" fill="black"/>
<path d="M0.104242 409.455C0.104242 404.062 4.47117 399.69 9.85856 399.69H334.142C339.53 399.69 343.897 404.062 343.897 409.455L0.104242 409.455Z" fill="black"/>
<path d="M27.8464 406.827C27.4078 407.549 25.0457 407.719 22.5706 407.208C20.0954 406.696 18.4444 405.696 18.883 404.975C19.3215 404.253 21.6836 404.083 24.1588 404.594C26.634 405.106 28.285 406.105 27.8464 406.827Z" fill="black"/>
<path d="M127.738 403.613C127.942 403.972 127.11 404.456 125.878 404.695C124.647 404.933 123.483 404.836 123.278 404.477C123.074 404.117 123.906 403.633 125.138 403.394C126.369 403.156 127.533 403.254 127.738 403.613Z" fill="black"/>
<path d="M78.3671 405.221C78.7431 404.786 80.2566 404.789 81.7477 405.227C83.2388 405.666 84.1427 406.374 83.7667 406.808C83.3907 407.243 81.8771 407.24 80.3861 406.802C78.895 406.363 77.991 405.656 78.3671 405.221Z" fill="black"/>
<path d="M161.461 406.064C161.698 406.757 159.965 407.542 157.589 407.818C155.214 408.095 153.097 407.758 152.86 407.065C152.623 406.372 154.356 405.587 156.731 405.311C159.106 405.034 161.224 405.371 161.461 406.064Z" fill="black"/>
<path d="M323.859 405.526C323.699 405.994 324.869 406.524 326.473 406.711C328.076 406.897 329.506 406.669 329.666 406.202C329.826 405.734 328.656 405.204 327.052 405.017C325.449 404.83 324.019 405.058 323.859 405.526Z" fill="black"/>
<path d="M257.155 405.059C256.779 404.624 255.265 404.627 253.774 405.065C252.283 405.503 251.379 406.211 251.755 406.646C252.131 407.081 253.645 407.078 255.136 406.64C256.627 406.201 257.531 405.493 257.155 405.059Z" fill="black"/>
<path d="M195.524 402.285C195.9 401.851 197.414 401.854 198.905 402.292C200.396 402.73 201.3 403.438 200.924 403.873C200.548 404.308 199.035 404.305 197.543 403.867C196.052 403.428 195.148 402.72 195.524 402.285Z" fill="black"/>
<path d="M291.983 402.784C292.655 402.007 295.36 402.012 298.024 402.796C300.689 403.579 302.304 404.844 301.632 405.621C300.96 406.398 298.255 406.393 295.591 405.61C292.926 404.826 291.311 403.561 291.983 402.784Z" fill="black"/>
</g>
</svg>
