<svg width="48" height="48" viewBox="0 0 48 48" fill="none" xmlns="http://www.w3.org/2000/svg">
<path d="M11.6605 29.6153C12.7968 32.3879 14.748 34.7627 17.2636 36.4348C19.7791 38.107 22.7443 39.0003 25.7787 39C34.1862 39 41 32.2844 41 24C41 15.7156 34.1862 9 25.7787 9C17.3729 9 10.5574 15.7156 10.5574 24C10.5574 24.234 10.6517 24.4584 10.8196 24.6239C10.9875 24.7894 11.2153 24.8824 11.4527 24.8824C11.6902 24.8824 11.918 24.7894 12.0859 24.6239C12.2538 24.4584 12.3481 24.234 12.3481 24C12.3481 16.6906 18.3614 10.7647 25.7787 10.7647C33.1968 10.7647 39.2093 16.6906 39.2093 24C39.2093 31.3094 33.1968 37.2353 25.7787 37.2353C20.2542 37.2353 15.3557 33.9176 13.3205 28.9544C13.2781 28.8447 13.214 28.7444 13.1318 28.6594C13.0496 28.5744 12.9511 28.5064 12.8419 28.4595C12.7327 28.4125 12.6151 28.3874 12.496 28.3858C12.3769 28.3842 12.2587 28.406 12.1482 28.45C12.0378 28.4939 11.9373 28.5592 11.8528 28.6419C11.7682 28.7246 11.7013 28.8231 11.6559 28.9316C11.6105 29.0402 11.5875 29.1565 11.5883 29.2739C11.589 29.3913 11.6136 29.5074 11.6605 29.6153Z" fill="white"/>
<path d="M23.7761 26.635C23.7761 26.0468 24.0745 25.7527 24.6714 25.7527H30.0437C30.6406 25.7527 30.939 26.0468 30.939 26.635C30.939 27.2232 30.6406 27.5174 30.0437 27.5174H24.6714C24.0745 27.5174 23.7761 27.2232 23.7761 26.635Z" fill="white"/>
<path d="M24.6294 16.9644C25.2263 16.9644 25.5247 17.2585 25.5247 17.8468V26.6703C25.5247 27.2585 25.2263 27.5526 24.6294 27.5526C24.0324 27.5526 23.734 27.2585 23.734 26.6703V17.8468C23.734 17.2585 24.0324 16.9644 24.6294 16.9644Z" fill="white"/>
<path d="M11.4277 24.2117L13.3267 22.3403C13.4946 22.1747 13.7224 22.0817 13.9599 22.0816C14.1974 22.0815 14.4252 22.1744 14.5932 22.3398C14.7613 22.5053 14.8557 22.7297 14.8558 22.9638C14.8559 23.1978 14.7616 23.4224 14.5937 23.5879L12.0607 26.0841C11.8928 26.2495 11.6651 26.3424 11.4277 26.3424C11.1902 26.3424 10.9625 26.2495 10.7946 26.0841L8.26163 23.5879C8.09386 23.4222 7.99975 23.1977 8 22.9636C8.00025 22.7295 8.09485 22.5052 8.26297 22.3398C8.4311 22.1745 8.65899 22.0818 8.8965 22.082C9.13402 22.0823 9.36171 22.1755 9.52948 22.3412L11.4277 24.2117Z" fill="white"/>
</svg>
