<svg width="41" height="41" viewBox="0 0 41 41" fill="none" xmlns="http://www.w3.org/2000/svg">
<path d="M10.0152 40.9999C15.5375 40.9999 20.0303 36.5089 20.0303 30.9887C20.0303 25.4685 15.5375 20.9775 10.0152 20.9775C4.49293 20.9775 0.000183105 25.4687 0.000183105 30.9887C0.000183105 36.5088 4.49293 40.9999 10.0152 40.9999ZM10.0152 22.0528C14.9444 22.0528 18.9547 26.0615 18.9547 30.9887C18.9547 35.916 14.9444 39.9246 10.0152 39.9246C5.08601 39.9246 1.07577 35.916 1.07577 30.9887C1.07577 26.0615 5.08601 22.0528 10.0152 22.0528Z" fill="black"/>
<path d="M19.3936 31.0518C19.3936 33.5209 18.4124 35.8888 16.6658 37.6347C14.9193 39.3806 12.5504 40.3614 10.0804 40.3614C7.61045 40.3614 5.24163 39.3806 3.49508 37.6347C1.74853 35.8888 0.767332 33.5209 0.767332 31.0518C0.767332 28.5827 1.74853 26.2148 3.49508 24.4689C5.24163 22.723 7.61045 21.7422 10.0804 21.7422C12.5504 21.7422 14.9193 22.723 16.6658 24.4689C18.4124 26.2148 19.3936 28.5827 19.3936 31.0518Z" fill="#F0B80B"/>
<path d="M10.0154 37.0836C13.3772 37.0836 16.1123 34.3496 16.1123 30.989C16.1123 27.6285 13.3772 24.8945 10.0154 24.8945C6.65363 24.8945 3.91856 27.6285 3.91856 30.989C3.91856 34.3496 6.65363 37.0836 10.0154 37.0836Z" fill="white"/>
<path d="M10.0148 37.6206C13.6732 37.6206 16.6494 34.6454 16.6494 30.9885C16.6494 27.3316 13.6732 24.3564 10.0148 24.3564C6.35649 24.3564 3.38024 27.3316 3.38024 30.9885C3.38024 34.6454 6.35649 37.6206 10.0148 37.6206ZM10.0148 25.4317C13.0801 25.4317 15.5738 27.9246 15.5738 30.9887C15.5738 34.0528 13.0801 36.5456 10.0148 36.5456C6.94957 36.5456 4.45582 34.0528 4.45582 30.9887C4.45582 27.9246 6.94941 25.4317 10.0148 25.4317Z" fill="black"/>
<path d="M10.0149 34.2099C11.7923 34.2099 13.2383 32.7644 13.2383 30.9878C13.2383 29.2111 11.7923 27.7656 10.0149 27.7656C8.23749 27.7656 6.79149 29.2111 6.79149 30.9878C6.79149 32.7644 8.23749 34.2099 10.0149 34.2099Z" fill="#F0B80B"/>
<path d="M10.0141 34.7492C12.0881 34.7492 13.7754 33.0626 13.7754 30.9894C13.7754 28.9162 12.0881 27.2295 10.0141 27.2295C7.94019 27.2295 6.25287 28.9162 6.25287 30.9894C6.25287 33.0626 7.94019 34.7492 10.0141 34.7492ZM10.0141 28.3048C11.495 28.3048 12.6998 29.5091 12.6998 30.9894C12.6998 32.4696 11.495 33.6739 10.0141 33.6739C8.53327 33.6739 7.32845 32.4696 7.32845 30.9894C7.32845 29.5091 8.53327 28.3048 10.0141 28.3048Z" fill="black"/>
<path d="M10.8828 30.9891C10.8828 31.2191 10.7914 31.4396 10.6288 31.6022C10.4661 31.7648 10.2455 31.8562 10.0155 31.8562C9.7855 31.8562 9.5649 31.7648 9.40226 31.6022C9.23961 31.4396 9.14823 31.2191 9.14823 30.9891C9.14823 30.7592 9.23961 30.5386 9.40226 30.376C9.5649 30.2134 9.7855 30.1221 10.0155 30.1221C10.2455 30.1221 10.4661 30.2134 10.6288 30.376C10.7914 30.5386 10.8828 30.7592 10.8828 30.9891Z" fill="black"/>
<path d="M24.7091 17.2565L32.3483 18.8575L39.9258 11.2827L32.2866 9.68164L24.7091 17.2565Z" fill="#FFDD50"/>
<path d="M32.3482 19.9306C32.6301 19.9306 32.9041 19.8197 33.1079 19.6162L40.6853 12.0417C40.9642 11.7629 41.0678 11.3537 40.9554 10.9759C40.843 10.5981 40.5323 10.3123 40.1462 10.2313L32.5489 8.99011C32.3741 8.9533 32.2771 8.87092 32.1059 8.92185C32.1742 9.26023 31.6531 8.7955 31.5271 8.92179L23.9493 16.4963C23.8125 16.6334 23.7151 16.8047 23.6676 16.9922C23.6201 17.1798 23.6241 17.3766 23.6793 17.5621C23.7344 17.7474 23.8386 17.9144 23.9811 18.0455C24.1235 18.1766 24.2988 18.2668 24.4884 18.3067L32.1276 19.9078C32.2002 19.9229 32.2741 19.9306 32.3482 19.9306ZM39.5594 11.4879L32.5489 18.4804L26.0391 16.9922L32.5489 10.489L39.5594 11.4879Z" fill="black"/>
<path d="M24.7086 17.2571L23.1068 9.62073L31 1.5L32.2861 9.68227L24.7086 17.2571Z" fill="#FFDD50"/>
<path d="M24.7084 18.3303C24.8495 18.3302 24.9892 18.3024 25.1196 18.2485C25.2499 18.1945 25.3684 18.1155 25.4681 18.0158L33.0459 10.441C33.172 10.3146 33.2648 10.1589 33.3157 9.98797C33.3666 9.81699 33.3741 9.63607 33.3376 9.46148L31.7358 1.8251C31.8667 1.69396 31.9613 1.53119 32.0103 1.35267C32.0593 1.17416 32.0611 0.986021 32.0154 0.806629C31.9697 0.627238 31.8782 0.462732 31.7497 0.329182C31.6212 0.195632 31.4602 0.0976063 31.2824 0.0446802C31.1046 -0.00824591 30.9161 -0.0142618 30.7352 0.02722C30.5544 0.0687017 30.3874 0.156262 30.2507 0.281348C30.1139 0.406434 30.012 0.564768 29.9549 0.74088C29.8978 0.916993 29.8875 1.10486 29.925 1.28613L22.3475 8.86066C22.2213 8.98704 22.1286 9.14272 22.0777 9.31369C22.0268 9.48467 22.0192 9.66559 22.0558 9.84019L23.6576 17.4766C23.7079 17.7175 23.8399 17.9339 24.0312 18.0893C24.2225 18.2448 24.4616 18.3298 24.7084 18.3303ZM32.1046 9.84019L25.1196 16.4824L23.3216 9.84019L30.7352 1.8251L32.1046 9.84019Z" fill="black"/>
<path d="M14.0265 25.1964L13.0195 27.9706L15.8007 26.966L26.0391 17.4818L24.5368 15.9834L14.0265 25.1964Z" fill="#FFDD50"/>
<path d="M12.884 28.9689C12.9827 28.9689 13.0824 28.9531 13.1783 28.9209L16.0176 27.9639C16.137 27.9237 16.2454 27.8595 16.335 27.776L26.7875 18.0453C26.9498 17.894 26.7939 17.9359 26.7939 17.7223C26.7939 17.5088 26.7028 17.304 26.5405 17.1527L24.729 15.4663C24.6487 15.3916 24.5534 15.3322 24.4483 15.2918C24.3433 15.2513 24.2308 15.2305 24.1171 15.2305C24.0034 15.2305 23.8908 15.2513 23.7858 15.2918C23.6808 15.3322 23.5854 15.3916 23.5051 15.4663L13.2999 24.9504C13.2101 25.0338 13.1412 25.1349 13.0981 25.246L12.0701 27.8894C12.0141 28.0333 12.0033 28.189 12.039 28.3384C12.0748 28.4878 12.1555 28.6247 12.2718 28.733C12.3522 28.8078 12.4476 28.8671 12.5526 28.9076C12.6577 28.9481 12.7703 28.9689 12.884 28.9689ZM15.524 26.8206L13.5 27.5L14.3262 25.7721L24.0306 16.7376L25.2284 17.7861L15.524 26.8206Z" fill="black"/>
<path d="M10.7322 31C10.9196 31 11.1067 30.9285 11.2497 30.7856L12.7855 29.2496C12.9229 29.1123 13 28.9261 13 28.7321C13 28.538 12.9229 28.3519 12.7855 28.2145C12.7176 28.1465 12.6369 28.0926 12.5481 28.0558C12.4593 28.0189 12.3641 28 12.2679 28C12.1717 28 12.0765 28.0189 11.9877 28.0558C11.8989 28.0926 11.8182 28.1465 11.7503 28.2145L10.2145 29.7505C10.0772 29.8878 10 30.074 10 30.2681C10 30.4621 10.0772 30.6483 10.2145 30.7856C10.2824 30.8536 10.3631 30.9076 10.4519 30.9444C10.5408 30.9812 10.636 31.0001 10.7322 31Z" fill="black"/>
</svg>
