<svg width="17" height="16" viewBox="0 0 17 16" fill="none" xmlns="http://www.w3.org/2000/svg">
<rect x="0.705078" width="16" height="16" rx="8" fill="#F0B80B"/>
<path d="M8.94664 4.25C9.36367 4.28343 9.94605 4.3015 10.5192 4.3819C11.2403 4.48398 11.9403 4.68272 12.5401 5.11906C12.9663 5.43163 13.2942 5.82731 13.4091 6.3567C13.4734 6.65391 13.5275 6.95474 13.579 7.25466C13.6047 7.40372 13.5312 7.48503 13.3769 7.45973C12.9176 7.38746 12.4666 7.31158 12.0137 7.22756C11.9399 7.20867 11.875 7.16527 11.83 7.1047C11.6831 6.90505 11.4396 6.83369 11.2523 6.98365C11.0649 7.13361 10.8784 7.12187 10.6616 7.11554C9.65853 7.08573 8.65453 7.07399 7.65054 7.05773C7.46682 7.05773 7.31526 7.08031 7.19125 6.8644C7.03234 6.58796 6.52713 6.62862 6.36454 6.90867C6.32614 6.98302 6.26809 7.04582 6.19649 7.09049C6.12488 7.13516 6.04237 7.16004 5.95761 7.16252C5.52405 7.20498 5.09324 7.27002 4.66151 7.32603C4.63487 7.32603 4.60915 7.33236 4.58251 7.33416C4.24448 7.35584 4.18661 7.29983 4.20957 6.96468C4.25367 6.29527 4.50076 5.70716 5.00047 5.24824C5.32472 4.95103 5.73532 4.77035 6.15419 4.62852C7.00203 4.34486 7.8912 4.30149 8.94664 4.25ZM7.96745 4.93748C8.11717 4.83269 8.28527 4.77487 8.33487 4.66646C8.38448 4.55806 8.22465 4.54179 8.13187 4.54089C7.99317 4.54089 7.83609 4.54089 7.81772 4.72157C7.81129 4.77667 7.89672 4.83811 7.96745 4.93748ZM9.65853 4.47675L9.36367 4.65743C9.47215 4.72591 9.58999 4.77884 9.71365 4.81462C9.77244 4.82365 9.85143 4.71615 9.92124 4.66104L9.65853 4.47675ZM6.25982 5.2383L6.6346 4.9429C6.57857 4.90225 6.52621 4.83359 6.4665 4.82727C6.30392 4.80829 6.09264 4.93296 6.11102 5.02782C6.1202 5.08202 6.18266 5.13171 6.25799 5.23379L6.25982 5.2383ZM8.66464 5.13984C8.7565 5.12719 8.80426 5.13441 8.82906 5.11364C8.90045 5.0496 8.96851 4.98206 9.03299 4.91128C8.95133 4.87854 8.86792 4.85019 8.78314 4.82636C8.76372 4.82254 8.74373 4.82258 8.72433 4.82645C8.70493 4.83033 8.68651 4.83798 8.67015 4.84895C8.6058 4.90221 8.54447 4.9589 8.48644 5.01878L8.66464 5.13984ZM11.0851 4.85166C11.1632 5.04769 11.3055 5.14435 11.4764 5.11183C11.5321 5.10058 11.5809 5.0681 11.6123 5.02149C11.6261 4.99891 11.5857 4.92573 11.5517 4.89682C11.4893 4.8404 11.4101 4.80514 11.3258 4.7962C11.2415 4.78726 11.1565 4.80511 11.0832 4.84714L11.0851 4.85166ZM10.1389 5.18591C10.2308 5.17236 10.2841 5.18049 10.3153 5.1561C10.3787 5.10641 10.4761 5.03414 10.4715 4.97542C10.4614 4.86069 10.3557 4.83268 10.2446 4.87063C10.1993 4.87986 10.156 4.897 10.1169 4.92122C10.0707 4.9667 10.0289 5.01629 9.99197 5.06937L10.1389 5.18591ZM7.32169 5.27625C7.41355 5.18591 7.5201 5.13351 7.51826 5.08112C7.51275 4.90044 7.33455 4.92573 7.21973 4.9158C7.15727 4.91037 7.08746 4.98716 7.02132 5.02691L7.32169 5.27625Z" fill="#1E2125"/>
<path d="M8.45977 11.75C7.74788 11.7112 7.03415 11.6976 6.32593 11.6271C5.44594 11.5368 4.71384 11.1836 4.32345 10.3443C4.26216 10.1943 4.22947 10.0344 4.227 9.87276C4.227 9.82488 4.33906 9.7237 4.39602 9.72641C4.84336 9.75081 5.28887 9.80049 5.73621 9.83031C6.15783 9.85741 6.57946 9.87006 7.00108 9.88722C7.13703 9.89264 7.23531 9.92155 7.28308 10.0742C7.32897 10.1817 7.39364 10.2805 7.47414 10.366C7.64224 10.5819 7.83238 10.6018 8.05192 10.4365C8.13185 10.392 8.2059 10.338 8.27238 10.2757C8.52407 9.95226 8.85843 9.89896 9.25158 9.89716C10.4531 9.8867 11.6522 9.78735 12.8386 9.59994C12.981 9.57826 13.1197 9.5349 13.2611 9.5096C13.4274 9.4807 13.5018 9.55026 13.5073 9.7219C13.5284 10.3606 13.1399 10.9062 12.5584 11.1881C11.6215 11.6398 10.6129 11.6714 9.6089 11.7355C9.22769 11.7599 8.84373 11.7355 8.46069 11.7355L8.45977 11.75Z" fill="#1E2125"/>
<path d="M13.604 8.41008C13.2834 8.28993 12.9775 8.19418 12.6854 8.06138C12.4897 7.97104 12.3317 7.92858 12.1398 8.07493C12.0472 8.14618 11.9339 8.18645 11.8164 8.18986C11.6989 8.19327 11.5833 8.15965 11.4867 8.0939C11.4167 8.04681 11.3341 8.02109 11.2493 8.01996C11.1645 8.01884 11.0812 8.04236 11.0099 8.08757C10.8516 8.16956 10.6758 8.21361 10.4968 8.21612C10.3179 8.21863 10.1409 8.17954 9.98021 8.10203C9.90674 8.06034 9.82438 8.03609 9.7397 8.03123C9.65502 8.02637 9.57035 8.04102 9.49245 8.07403C9.40957 8.11705 9.31511 8.13356 9.22224 8.12125C9.12936 8.10894 9.04271 8.06843 8.97437 8.00537C8.9244 7.95303 8.85746 7.91945 8.78504 7.91038C8.71263 7.90131 8.63926 7.91733 8.57755 7.95568C8.4217 8.02796 8.25153 8.06543 8.07923 8.06543C7.90692 8.06543 7.73675 8.02796 7.5809 7.95568C7.43301 7.89606 7.33473 7.8798 7.21348 8.0397C7.12713 8.15533 6.94434 8.22037 6.79093 8.26464C6.64932 8.31172 6.49939 8.32976 6.35041 8.31764C6.20143 8.30552 6.05655 8.2635 5.92472 8.19418C5.84691 8.15173 5.76082 8.126 5.67215 8.11868C5.58348 8.11136 5.49424 8.12262 5.41032 8.15172C5.14394 8.22399 4.87755 8.23302 4.62403 8.08938C4.48165 8.00898 4.36775 8.08938 4.24007 8.15804C4.07606 8.24707 3.89871 8.30988 3.71464 8.34414C3.66227 8.34305 3.61107 8.32867 3.56601 8.3024C3.52094 8.27612 3.48355 8.23885 3.45744 8.19418C3.45083 8.1399 3.45813 8.08485 3.47866 8.03405C3.4992 7.98324 3.53232 7.93829 3.57502 7.90329C3.82303 7.77591 4.08575 7.63679 4.35672 7.60065C4.99972 7.51031 5.6565 7.47599 6.30869 7.43082C7.74533 7.31605 9.18898 7.31393 10.626 7.42449C11.3608 7.48863 12.0957 7.55006 12.8305 7.6413C13.1263 7.67834 13.412 7.79217 13.7023 7.87077C13.8667 7.91593 14.0054 8.0144 13.9374 8.18424C13.9007 8.28 13.7372 8.32517 13.604 8.41008Z" fill="#1E2125"/>
<path d="M6.92037 9.61786C6.09365 9.56908 5.27521 9.52211 4.45217 9.46881C4.28499 9.45887 4.21518 9.32969 4.22253 9.10745C4.22896 8.94123 4.33 8.89426 4.4733 8.90329C5.09792 8.94304 5.72255 8.99363 6.3481 9.02434C7.88486 9.08939 9.42163 9.10926 10.9556 8.95117C11.696 8.87438 12.4382 8.81476 13.1795 8.74881C13.3182 8.73616 13.4716 8.70816 13.5056 8.90329C13.5295 9.0388 13.3954 9.19598 13.2199 9.22399C12.8253 9.30109 12.4266 9.35688 12.0258 9.39112C10.5625 9.46248 9.0983 9.51217 7.63501 9.56637C7.3971 9.57541 7.16011 9.56637 6.9222 9.56637L6.92037 9.61786Z" fill="#1E2125"/>
</svg>
