<svg width="24" height="24" viewBox="0 0 24 24" fill="none" xmlns="http://www.w3.org/2000/svg">
<rect width="24" height="24" rx="12" fill="#F0B80B"/>
<path d="M12.3623 6.375C12.9879 6.42514 13.8615 6.45224 14.7212 6.57284C15.8028 6.72597 16.8528 7.02408 17.7525 7.67859C18.3918 8.14744 18.8837 8.74097 19.056 9.53505C19.1524 9.98087 19.2337 10.4321 19.3109 10.882C19.3494 11.1056 19.2392 11.2275 19.0077 11.1896C18.3188 11.0812 17.6423 10.9674 16.963 10.8413C16.8523 10.813 16.7549 10.7479 16.6874 10.6571C16.467 10.3576 16.1018 10.2505 15.8208 10.4755C15.5397 10.7004 15.26 10.6828 14.9348 10.6733C13.4302 10.6286 11.9242 10.611 10.4182 10.5866C10.1426 10.5866 9.91527 10.6205 9.72926 10.2966C9.49089 9.88195 8.73307 9.94293 8.48919 10.363C8.43159 10.4745 8.34452 10.5687 8.23711 10.6357C8.12971 10.7027 8.00594 10.7401 7.8788 10.7438C7.22846 10.8075 6.58224 10.905 5.93465 10.989C5.89469 10.989 5.85611 10.9985 5.81615 11.0012C5.3091 11.0338 5.2223 10.9498 5.25675 10.447C5.32288 9.4429 5.69353 8.56075 6.44308 7.87237C6.92946 7.42654 7.54536 7.15553 8.17367 6.94278C9.44543 6.51728 10.7792 6.45224 12.3623 6.375ZM10.8936 7.40622C11.1181 7.24903 11.3703 7.1623 11.4447 6.99969C11.5191 6.83708 11.2794 6.81269 11.1402 6.81134C10.9321 6.81134 10.6965 6.81134 10.669 7.08235C10.6593 7.16501 10.7875 7.25716 10.8936 7.40622ZM13.4302 6.71513L12.9879 6.98614C13.1506 7.08886 13.3274 7.16825 13.5129 7.22192C13.601 7.23548 13.7195 7.07422 13.8242 6.99156L13.4302 6.71513ZM8.33212 7.85746L8.89428 7.41435C8.81023 7.35337 8.7317 7.25038 8.64214 7.2409C8.39826 7.21244 8.08135 7.39944 8.10891 7.54173C8.12269 7.62303 8.21638 7.69756 8.32936 7.85068L8.33212 7.85746ZM11.9393 7.70975C12.0771 7.69078 12.1488 7.70162 12.186 7.67046C12.2931 7.5744 12.3952 7.47309 12.4919 7.36692C12.3694 7.31781 12.2443 7.27529 12.1171 7.23954C12.088 7.23382 12.058 7.23386 12.0289 7.23968C11.9998 7.2455 11.9721 7.25697 11.9476 7.27342C11.8511 7.35331 11.7591 7.43836 11.672 7.52817L11.9393 7.70975ZM15.57 7.27748C15.6871 7.57154 15.9007 7.71653 16.157 7.66775C16.2405 7.65087 16.3138 7.60215 16.3609 7.53224C16.3815 7.49836 16.3209 7.3886 16.2699 7.34524C16.1763 7.26061 16.0575 7.20771 15.9311 7.1943C15.8046 7.18088 15.6771 7.20766 15.5672 7.27071L15.57 7.27748ZM14.1508 7.77886C14.2886 7.75854 14.3685 7.77073 14.4153 7.73414C14.5104 7.65962 14.6565 7.55121 14.6496 7.46313C14.6344 7.29103 14.476 7.24903 14.3093 7.30594C14.2413 7.31979 14.1765 7.3455 14.1177 7.38183C14.0484 7.45004 13.9857 7.52444 13.9303 7.60406L14.1508 7.77886ZM9.92492 7.91437C10.0627 7.77886 10.2225 7.70027 10.2198 7.62167C10.2115 7.35066 9.94421 7.3886 9.77198 7.37369C9.67828 7.36556 9.57357 7.48075 9.47436 7.54037L9.92492 7.91437Z" fill="#1E2125"/>
<path d="M11.632 17.625C10.5642 17.5667 9.49361 17.5464 8.43128 17.4407C7.1113 17.3052 6.01315 16.7754 5.42756 15.5165C5.33562 15.2914 5.28658 15.0517 5.28288 14.8091C5.28288 14.7373 5.45098 14.5856 5.53641 14.5896C6.20742 14.6262 6.87568 14.7007 7.5467 14.7455C8.17913 14.7861 8.81157 14.8051 9.44401 14.8308C9.64793 14.839 9.79535 14.8823 9.867 15.1113C9.93584 15.2726 10.0328 15.4207 10.1536 15.549C10.4057 15.8729 10.691 15.9027 11.0203 15.6547C11.1402 15.588 11.2512 15.507 11.351 15.4135C11.7285 14.9284 12.23 14.8484 12.8197 14.8457C14.6221 14.8301 16.4207 14.681 18.2003 14.3999C18.4138 14.3674 18.6219 14.3024 18.8341 14.2644C19.0835 14.221 19.1951 14.3254 19.2033 14.5828C19.235 15.5409 18.6522 16.3594 17.78 16.7821C16.3746 17.4597 14.8617 17.5071 13.3557 17.6033C12.7839 17.6399 12.208 17.6033 11.6334 17.6033L11.632 17.625Z" fill="#1E2125"/>
<path d="M19.3483 12.6151C18.8675 12.4349 18.4086 12.2913 17.9705 12.0921C17.677 11.9566 17.44 11.8929 17.152 12.1124C17.0132 12.2193 16.8432 12.2797 16.667 12.2848C16.4907 12.2899 16.3174 12.2395 16.1724 12.1408C16.0674 12.0702 15.9435 12.0316 15.8163 12.0299C15.6891 12.0283 15.5642 12.0635 15.4573 12.1314C15.2197 12.2543 14.956 12.3204 14.6876 12.3242C14.4192 12.3279 14.1537 12.2693 13.9127 12.153C13.8025 12.0905 13.679 12.0541 13.5519 12.0468C13.4249 12.0395 13.2979 12.0615 13.1811 12.111C13.0567 12.1756 12.915 12.2003 12.7757 12.1819C12.6364 12.1634 12.5065 12.1026 12.4039 12.0081C12.329 11.9296 12.2286 11.8792 12.1199 11.8656C12.0113 11.852 11.9013 11.876 11.8087 11.9335C11.5749 12.0419 11.3197 12.0981 11.0612 12.0981C10.8028 12.0981 10.5475 12.0419 10.3137 11.9335C10.0919 11.8441 9.94448 11.8197 9.7626 12.0595C9.63308 12.233 9.35889 12.3306 9.12878 12.397C8.91636 12.4676 8.69147 12.4946 8.468 12.4765C8.24452 12.4583 8.02721 12.3953 7.82947 12.2913C7.71275 12.2276 7.58362 12.189 7.45061 12.178C7.31761 12.167 7.18375 12.1839 7.05787 12.2276C6.65829 12.336 6.25871 12.3495 5.87842 12.1341C5.66486 12.0135 5.494 12.1341 5.30248 12.2371C5.05647 12.3706 4.79044 12.4648 4.51435 12.5162C4.43579 12.5146 4.35899 12.493 4.29139 12.4536C4.2238 12.4142 4.1677 12.3583 4.12855 12.2913C4.11863 12.2098 4.12957 12.1273 4.16038 12.0511C4.19118 11.9749 4.24086 11.9074 4.30491 11.8549C4.67694 11.6639 5.071 11.4552 5.47747 11.401C6.44197 11.2655 7.42713 11.214 8.40541 11.1462C10.5604 10.9741 12.7259 10.9709 14.8813 11.1367C15.9836 11.2329 17.0859 11.3251 18.1882 11.462C18.6318 11.5175 19.0604 11.6883 19.4958 11.8061C19.7424 11.8739 19.9505 12.0216 19.8485 12.2764C19.7934 12.42 19.5481 12.4877 19.3483 12.6151Z" fill="#1E2125"/>
<path d="M9.32293 14.4268C8.08286 14.3536 6.85519 14.2832 5.62064 14.2032C5.36987 14.1883 5.26515 13.9945 5.27617 13.6612C5.28582 13.4118 5.43738 13.3414 5.65233 13.3549C6.58927 13.4146 7.52621 13.4904 8.46453 13.5365C10.7697 13.6341 13.0748 13.6639 15.3758 13.4268C16.4864 13.3116 17.5997 13.2221 18.7116 13.1232C18.9197 13.1042 19.1498 13.0622 19.2008 13.3549C19.2366 13.5582 19.0354 13.794 18.7723 13.836C18.1803 13.9516 17.5823 14.0353 16.981 14.0867C14.7861 14.1937 12.5898 14.2683 10.3949 14.3496C10.038 14.3631 9.68255 14.3496 9.32569 14.3496L9.32293 14.4268Z" fill="#1E2125"/>
</svg>
