<svg width="14" height="12" viewBox="0 0 14 12" fill="none" xmlns="http://www.w3.org/2000/svg">
<path d="M1.45758 7.04328C1.16501 6.79057 0.722971 6.82288 0.47026 7.11545C0.217548 7.40802 0.249857 7.85005 0.542425 8.10277L1.45758 7.04328ZM5.28572 11.2749L4.82814 11.8047C4.97452 11.9311 5.16669 11.9913 5.35905 11.9711C5.55141 11.9508 5.72681 11.8518 5.84363 11.6977L5.28572 11.2749ZM13.5579 1.5175C13.7914 1.20937 13.7309 0.770305 13.4228 0.536815C13.1146 0.303326 12.6756 0.36383 12.4421 0.671956L13.5579 1.5175ZM0.542425 8.10277L4.82814 11.8047L5.74329 10.7452L1.45758 7.04328L0.542425 8.10277ZM5.84363 11.6977L13.5579 1.5175L12.4421 0.671956L4.7278 10.8521L5.84363 11.6977Z" fill="black"/>
</svg>