<svg width="12" height="12" viewBox="0 0 12 12" fill="none" xmlns="http://www.w3.org/2000/svg">
<g opacity="0.8">
<path d="M3.75 0C3.33579 0 3 0.335786 3 0.75C3 1.16421 3.33579 1.5 3.75 1.5H10.125C10.3321 1.5 10.5 1.66789 10.5 1.875V8.25C10.5 8.66421 10.8358 9 11.25 9C11.6642 9 12 8.66421 12 8.25V1.875C12 0.839466 11.1605 0 10.125 0H3.75Z" fill="black"/>
<path fill-rule="evenodd" clip-rule="evenodd" d="M0 3.75C0 2.92157 0.671573 2.25 1.5 2.25H8.25C9.07843 2.25 9.75 2.92157 9.75 3.75V10.5C9.75 11.3284 9.07843 12 8.25 12H1.5C0.671573 12 0 11.3284 0 10.5V3.75ZM1.5 3.75H8.25V10.5H1.5L1.5 3.75Z" fill="black"/>
</g>
</svg>