<svg width="308" height="145" viewBox="0 0 308 145" fill="none" xmlns="http://www.w3.org/2000/svg">
    <path d="M17.7722 111.726H17.6742V120H16.6102V110.228H18.2762L21.6082 118.418H21.7062V110.228H22.7702V120H21.1042L17.7722 111.726ZM28.0848 120.168C27.5808 120.168 27.1234 120.079 26.7128 119.902C26.3114 119.725 25.9661 119.473 25.6768 119.146C25.3968 118.81 25.1821 118.413 25.0328 117.956C24.8834 117.489 24.8088 116.967 24.8088 116.388C24.8088 115.819 24.8834 115.301 25.0328 114.834C25.1821 114.367 25.3968 113.971 25.6768 113.644C25.9661 113.308 26.3114 113.051 26.7128 112.874C27.1234 112.697 27.5808 112.608 28.0848 112.608C28.5888 112.608 29.0414 112.697 29.4428 112.874C29.8534 113.051 30.1988 113.308 30.4788 113.644C30.7681 113.971 30.9874 114.367 31.1368 114.834C31.2861 115.301 31.3608 115.819 31.3608 116.388C31.3608 116.967 31.2861 117.489 31.1368 117.956C30.9874 118.413 30.7681 118.81 30.4788 119.146C30.1988 119.473 29.8534 119.725 29.4428 119.902C29.0414 120.079 28.5888 120.168 28.0848 120.168ZM28.0848 119.202C28.7101 119.202 29.2141 119.015 29.5968 118.642C29.9794 118.269 30.1708 117.69 30.1708 116.906V115.87C30.1708 115.086 29.9794 114.507 29.5968 114.134C29.2141 113.761 28.7101 113.574 28.0848 113.574C27.4594 113.574 26.9554 113.761 26.5728 114.134C26.1901 114.507 25.9988 115.086 25.9988 115.87V116.906C25.9988 117.69 26.1901 118.269 26.5728 118.642C26.9554 119.015 27.4594 119.202 28.0848 119.202ZM42.0038 112.776H43.1238V113.952H43.1798C43.6465 113.056 44.3885 112.608 45.4058 112.608C46.2925 112.608 46.9832 112.939 47.4778 113.602C47.9818 114.265 48.2338 115.193 48.2338 116.388C48.2338 117.583 47.9818 118.511 47.4778 119.174C46.9832 119.837 46.2925 120.168 45.4058 120.168C44.3885 120.168 43.6465 119.72 43.1798 118.824H43.1238V122.8H42.0038V112.776ZM44.9718 119.174C45.6252 119.174 46.1292 118.978 46.4838 118.586C46.8478 118.185 47.0298 117.657 47.0298 117.004V115.772C47.0298 115.119 46.8478 114.596 46.4838 114.204C46.1292 113.803 45.6252 113.602 44.9718 113.602C44.7198 113.602 44.4818 113.635 44.2578 113.7C44.0338 113.765 43.8378 113.863 43.6698 113.994C43.5018 114.115 43.3665 114.269 43.2638 114.456C43.1705 114.633 43.1238 114.843 43.1238 115.086V117.69C43.1238 117.933 43.1705 118.147 43.2638 118.334C43.3665 118.511 43.5018 118.665 43.6698 118.796C43.8378 118.917 44.0338 119.011 44.2578 119.076C44.4818 119.141 44.7198 119.174 44.9718 119.174ZM53.2684 120.168C52.7644 120.168 52.307 120.079 51.8964 119.902C51.495 119.725 51.1497 119.473 50.8604 119.146C50.5804 118.81 50.3657 118.413 50.2164 117.956C50.067 117.489 49.9924 116.967 49.9924 116.388C49.9924 115.819 50.067 115.301 50.2164 114.834C50.3657 114.367 50.5804 113.971 50.8604 113.644C51.1497 113.308 51.495 113.051 51.8964 112.874C52.307 112.697 52.7644 112.608 53.2684 112.608C53.7724 112.608 54.225 112.697 54.6264 112.874C55.037 113.051 55.3824 113.308 55.6624 113.644C55.9517 113.971 56.171 114.367 56.3204 114.834C56.4697 115.301 56.5444 115.819 56.5444 116.388C56.5444 116.967 56.4697 117.489 56.3204 117.956C56.171 118.413 55.9517 118.81 55.6624 119.146C55.3824 119.473 55.037 119.725 54.6264 119.902C54.225 120.079 53.7724 120.168 53.2684 120.168ZM53.2684 119.202C53.8937 119.202 54.3977 119.015 54.7804 118.642C55.163 118.269 55.3544 117.69 55.3544 116.906V115.87C55.3544 115.086 55.163 114.507 54.7804 114.134C54.3977 113.761 53.8937 113.574 53.2684 113.574C52.643 113.574 52.139 113.761 51.7564 114.134C51.3737 114.507 51.1824 115.086 51.1824 115.87V116.906C51.1824 117.69 51.3737 118.269 51.7564 118.642C52.139 119.015 52.643 119.202 53.2684 119.202ZM61.6629 120.168C61.1589 120.168 60.7016 120.079 60.2909 119.902C59.8896 119.725 59.5442 119.473 59.2549 119.146C58.9749 118.81 58.7602 118.413 58.6109 117.956C58.4616 117.489 58.3869 116.967 58.3869 116.388C58.3869 115.819 58.4616 115.301 58.6109 114.834C58.7602 114.367 58.9749 113.971 59.2549 113.644C59.5442 113.308 59.8896 113.051 60.2909 112.874C60.7016 112.697 61.1589 112.608 61.6629 112.608C62.1669 112.608 62.6196 112.697 63.0209 112.874C63.4316 113.051 63.7769 113.308 64.0569 113.644C64.3462 113.971 64.5656 114.367 64.7149 114.834C64.8642 115.301 64.9389 115.819 64.9389 116.388C64.9389 116.967 64.8642 117.489 64.7149 117.956C64.5656 118.413 64.3462 118.81 64.0569 119.146C63.7769 119.473 63.4316 119.725 63.0209 119.902C62.6196 120.079 62.1669 120.168 61.6629 120.168ZM61.6629 119.202C62.2882 119.202 62.7922 119.015 63.1749 118.642C63.5576 118.269 63.7489 117.69 63.7489 116.906V115.87C63.7489 115.086 63.5576 114.507 63.1749 114.134C62.7922 113.761 62.2882 113.574 61.6629 113.574C61.0376 113.574 60.5336 113.761 60.1509 114.134C59.7682 114.507 59.5769 115.086 59.5769 115.87V116.906C59.5769 117.69 59.7682 118.269 60.1509 118.642C60.5336 119.015 61.0376 119.202 61.6629 119.202ZM66.9774 119.048H69.4974V110.592H66.9774V109.64H70.6174V119.048H73.1374V120H66.9774V119.048ZM78.536 120.168C77.78 120.168 77.1266 120.042 76.576 119.79C76.0346 119.529 75.5726 119.183 75.19 118.754L75.946 118.096C76.2913 118.46 76.6693 118.74 77.08 118.936C77.4906 119.132 77.9853 119.23 78.564 119.23C79.124 119.23 79.5813 119.132 79.936 118.936C80.3 118.731 80.482 118.413 80.482 117.984C80.482 117.797 80.4446 117.643 80.37 117.522C80.3046 117.391 80.2113 117.289 80.09 117.214C79.9686 117.139 79.8333 117.083 79.684 117.046C79.5346 116.999 79.376 116.962 79.208 116.934L78.074 116.766C77.822 116.729 77.5466 116.677 77.248 116.612C76.9586 116.547 76.6926 116.444 76.45 116.304C76.2073 116.155 76.002 115.959 75.834 115.716C75.6753 115.473 75.596 115.156 75.596 114.764C75.596 114.4 75.666 114.087 75.806 113.826C75.9553 113.555 76.1606 113.331 76.422 113.154C76.6833 112.967 76.9913 112.832 77.346 112.748C77.7006 112.655 78.088 112.608 78.508 112.608C79.1613 112.608 79.726 112.711 80.202 112.916C80.6873 113.121 81.1026 113.406 81.448 113.77L80.72 114.456C80.636 114.353 80.5286 114.251 80.398 114.148C80.2766 114.036 80.1226 113.938 79.936 113.854C79.7586 113.761 79.5486 113.686 79.306 113.63C79.0633 113.574 78.7833 113.546 78.466 113.546C77.8966 113.546 77.458 113.644 77.15 113.84C76.8513 114.036 76.702 114.321 76.702 114.694C76.702 114.881 76.7346 115.039 76.8 115.17C76.8746 115.291 76.9726 115.389 77.094 115.464C77.2153 115.539 77.3506 115.599 77.5 115.646C77.6586 115.683 77.8173 115.716 77.976 115.744L79.11 115.912C79.3713 115.949 79.6466 116.001 79.936 116.066C80.2253 116.131 80.4913 116.239 80.734 116.388C80.9766 116.528 81.1773 116.719 81.336 116.962C81.504 117.205 81.588 117.522 81.588 117.914C81.588 118.633 81.308 119.188 80.748 119.58C80.1973 119.972 79.46 120.168 78.536 120.168ZM92.203 119.048H94.639V113.728H92.063V112.776H94.639V111.292C94.639 110.807 94.765 110.41 95.017 110.102C95.2783 109.794 95.6843 109.64 96.235 109.64H98.657V110.592H95.759V112.776H98.657V113.728H95.759V119.048H98.335V120H92.203V119.048ZM103.636 120.168C103.132 120.168 102.674 120.079 102.264 119.902C101.862 119.725 101.517 119.473 101.228 119.146C100.948 118.81 100.733 118.413 100.584 117.956C100.434 117.489 100.36 116.967 100.36 116.388C100.36 115.819 100.434 115.301 100.584 114.834C100.733 114.367 100.948 113.971 101.228 113.644C101.517 113.308 101.862 113.051 102.264 112.874C102.674 112.697 103.132 112.608 103.636 112.608C104.14 112.608 104.592 112.697 104.994 112.874C105.404 113.051 105.75 113.308 106.03 113.644C106.319 113.971 106.538 114.367 106.688 114.834C106.837 115.301 106.912 115.819 106.912 116.388C106.912 116.967 106.837 117.489 106.688 117.956C106.538 118.413 106.319 118.81 106.03 119.146C105.75 119.473 105.404 119.725 104.994 119.902C104.592 120.079 104.14 120.168 103.636 120.168ZM103.636 119.202C104.261 119.202 104.765 119.015 105.148 118.642C105.53 118.269 105.722 117.69 105.722 116.906V115.87C105.722 115.086 105.53 114.507 105.148 114.134C104.765 113.761 104.261 113.574 103.636 113.574C103.01 113.574 102.506 113.761 102.124 114.134C101.741 114.507 101.55 115.086 101.55 115.87V116.906C101.55 117.69 101.741 118.269 102.124 118.642C102.506 119.015 103.01 119.202 103.636 119.202ZM113.738 118.824H113.682C113.607 119.001 113.514 119.174 113.402 119.342C113.29 119.501 113.15 119.641 112.982 119.762C112.823 119.883 112.632 119.981 112.408 120.056C112.184 120.131 111.923 120.168 111.624 120.168C110.868 120.168 110.261 119.93 109.804 119.454C109.347 118.969 109.118 118.287 109.118 117.41V112.776H110.238V117.214C110.238 117.877 110.383 118.371 110.672 118.698C110.961 119.015 111.386 119.174 111.946 119.174C112.17 119.174 112.389 119.146 112.604 119.09C112.819 119.034 113.01 118.95 113.178 118.838C113.346 118.726 113.481 118.586 113.584 118.418C113.687 118.241 113.738 118.031 113.738 117.788V112.776H114.858V120H113.738V118.824ZM117.597 120V112.776H118.717V113.952H118.773C118.847 113.775 118.941 113.607 119.053 113.448C119.165 113.28 119.3 113.135 119.459 113.014C119.627 112.893 119.823 112.795 120.047 112.72C120.271 112.645 120.532 112.608 120.831 112.608C121.587 112.608 122.193 112.851 122.651 113.336C123.108 113.812 123.337 114.489 123.337 115.366V120H122.217V115.562C122.217 114.899 122.072 114.409 121.783 114.092C121.493 113.765 121.069 113.602 120.509 113.602C120.285 113.602 120.065 113.63 119.851 113.686C119.636 113.742 119.445 113.826 119.277 113.938C119.109 114.05 118.973 114.195 118.871 114.372C118.768 114.549 118.717 114.755 118.717 114.988V120H117.597ZM130.569 118.824H130.513C130.046 119.72 129.304 120.168 128.287 120.168C127.4 120.168 126.705 119.837 126.201 119.174C125.706 118.511 125.459 117.583 125.459 116.388C125.459 115.193 125.706 114.265 126.201 113.602C126.705 112.939 127.4 112.608 128.287 112.608C129.304 112.608 130.046 113.056 130.513 113.952H130.569V109.64H131.689V120H130.569V118.824ZM128.721 119.174C128.973 119.174 129.211 119.141 129.435 119.076C129.659 119.011 129.855 118.917 130.023 118.796C130.191 118.665 130.322 118.511 130.415 118.334C130.518 118.147 130.569 117.933 130.569 117.69V115.086C130.569 114.843 130.518 114.633 130.415 114.456C130.322 114.269 130.191 114.115 130.023 113.994C129.855 113.863 129.659 113.765 129.435 113.7C129.211 113.635 128.973 113.602 128.721 113.602C128.068 113.602 127.559 113.803 127.195 114.204C126.84 114.596 126.663 115.119 126.663 115.772V117.004C126.663 117.657 126.84 118.185 127.195 118.586C127.559 118.978 128.068 119.174 128.721 119.174ZM141.828 112.776H142.822L143.648 119.02H143.774L145.006 112.776H146.238L147.47 119.02H147.596L148.422 112.776H149.388L148.282 120H146.826L145.678 113.952H145.566L144.39 120H142.934L141.828 112.776ZM154.451 111.18C154.124 111.18 153.895 111.115 153.765 110.984C153.634 110.844 153.569 110.671 153.569 110.466V110.242C153.569 110.037 153.634 109.869 153.765 109.738C153.895 109.598 154.124 109.528 154.451 109.528C154.777 109.528 155.006 109.598 155.137 109.738C155.267 109.869 155.333 110.037 155.333 110.242V110.466C155.333 110.671 155.267 110.844 155.137 110.984C155.006 111.115 154.777 111.18 154.451 111.18ZM151.287 119.048H153.891V113.728H151.287V112.776H155.011V119.048H157.447V120H151.287V119.048ZM162.747 120C162.197 120 161.791 119.846 161.529 119.538C161.277 119.23 161.151 118.833 161.151 118.348V113.728H158.743V112.776H160.535C160.778 112.776 160.946 112.729 161.039 112.636C161.142 112.533 161.193 112.361 161.193 112.118V110.228H162.271V112.776H165.561V113.728H162.271V119.048H165.561V120H162.747ZM167.964 109.64H169.084V113.952H169.14C169.214 113.775 169.308 113.607 169.42 113.448C169.532 113.28 169.667 113.135 169.826 113.014C169.994 112.893 170.19 112.795 170.414 112.72C170.638 112.645 170.899 112.608 171.198 112.608C171.954 112.608 172.56 112.851 173.018 113.336C173.475 113.812 173.704 114.489 173.704 115.366V120H172.584V115.562C172.584 114.899 172.439 114.409 172.15 114.092C171.86 113.765 171.436 113.602 170.876 113.602C170.652 113.602 170.432 113.63 170.218 113.686C170.003 113.742 169.812 113.826 169.644 113.938C169.476 114.05 169.34 114.195 169.238 114.372C169.135 114.549 169.084 114.755 169.084 114.988V120H167.964V109.64ZM187.931 120C187.38 120 186.974 119.846 186.713 119.538C186.461 119.23 186.335 118.833 186.335 118.348V113.728H183.927V112.776H185.719C185.962 112.776 186.13 112.729 186.223 112.636C186.326 112.533 186.377 112.361 186.377 112.118V110.228H187.455V112.776H190.745V113.728H187.455V119.048H190.745V120H187.931ZM193.147 109.64H194.267V113.952H194.323C194.398 113.775 194.491 113.607 194.603 113.448C194.715 113.28 194.851 113.135 195.009 113.014C195.177 112.893 195.373 112.795 195.597 112.72C195.821 112.645 196.083 112.608 196.381 112.608C197.137 112.608 197.744 112.851 198.201 113.336C198.659 113.812 198.887 114.489 198.887 115.366V120H197.767V115.562C197.767 114.899 197.623 114.409 197.333 114.092C197.044 113.765 196.619 113.602 196.059 113.602C195.835 113.602 195.616 113.63 195.401 113.686C195.187 113.742 194.995 113.826 194.827 113.938C194.659 114.05 194.524 114.195 194.421 114.372C194.319 114.549 194.267 114.755 194.267 114.988V120H193.147V109.64ZM204.818 111.18C204.491 111.18 204.263 111.115 204.132 110.984C204.001 110.844 203.936 110.671 203.936 110.466V110.242C203.936 110.037 204.001 109.869 204.132 109.738C204.263 109.598 204.491 109.528 204.818 109.528C205.145 109.528 205.373 109.598 205.504 109.738C205.635 109.869 205.7 110.037 205.7 110.242V110.466C205.7 110.671 205.635 110.844 205.504 110.984C205.373 111.115 205.145 111.18 204.818 111.18ZM201.654 119.048H204.258V113.728H201.654V112.776H205.378V119.048H207.814V120H201.654V119.048ZM212.848 120.168C212.092 120.168 211.439 120.042 210.888 119.79C210.347 119.529 209.885 119.183 209.502 118.754L210.258 118.096C210.604 118.46 210.982 118.74 211.392 118.936C211.803 119.132 212.298 119.23 212.876 119.23C213.436 119.23 213.894 119.132 214.248 118.936C214.612 118.731 214.794 118.413 214.794 117.984C214.794 117.797 214.757 117.643 214.682 117.522C214.617 117.391 214.524 117.289 214.402 117.214C214.281 117.139 214.146 117.083 213.996 117.046C213.847 116.999 213.688 116.962 213.52 116.934L212.386 116.766C212.134 116.729 211.859 116.677 211.56 116.612C211.271 116.547 211.005 116.444 210.762 116.304C210.52 116.155 210.314 115.959 210.146 115.716C209.988 115.473 209.908 115.156 209.908 114.764C209.908 114.4 209.978 114.087 210.118 113.826C210.268 113.555 210.473 113.331 210.734 113.154C210.996 112.967 211.304 112.832 211.658 112.748C212.013 112.655 212.4 112.608 212.82 112.608C213.474 112.608 214.038 112.711 214.514 112.916C215 113.121 215.415 113.406 215.76 113.77L215.032 114.456C214.948 114.353 214.841 114.251 214.71 114.148C214.589 114.036 214.435 113.938 214.248 113.854C214.071 113.761 213.861 113.686 213.618 113.63C213.376 113.574 213.096 113.546 212.778 113.546C212.209 113.546 211.77 113.644 211.462 113.84C211.164 114.036 211.014 114.321 211.014 114.694C211.014 114.881 211.047 115.039 211.112 115.17C211.187 115.291 211.285 115.389 211.406 115.464C211.528 115.539 211.663 115.599 211.812 115.646C211.971 115.683 212.13 115.716 212.288 115.744L213.422 115.912C213.684 115.949 213.959 116.001 214.248 116.066C214.538 116.131 214.804 116.239 215.046 116.388C215.289 116.528 215.49 116.719 215.648 116.962C215.816 117.205 215.9 117.522 215.9 117.914C215.9 118.633 215.62 119.188 215.06 119.58C214.51 119.972 213.772 120.168 212.848 120.168ZM226.432 119.048H228.546V113.728H226.432V112.776H229.666V114.596H229.736C229.885 114.027 230.165 113.583 230.576 113.266C230.996 112.939 231.528 112.776 232.172 112.776H233.18V113.896H231.822C231.178 113.896 230.655 114.083 230.254 114.456C229.862 114.829 229.666 115.319 229.666 115.926V119.048H232.466V120H226.432V119.048ZM238.074 120.168C237.551 120.168 237.08 120.079 236.66 119.902C236.249 119.725 235.895 119.473 235.596 119.146C235.307 118.81 235.083 118.413 234.924 117.956C234.765 117.489 234.686 116.971 234.686 116.402C234.686 115.823 234.765 115.301 234.924 114.834C235.092 114.367 235.321 113.971 235.61 113.644C235.899 113.308 236.245 113.051 236.646 112.874C237.057 112.697 237.509 112.608 238.004 112.608C238.489 112.608 238.928 112.697 239.32 112.874C239.721 113.051 240.062 113.299 240.342 113.616C240.622 113.924 240.837 114.293 240.986 114.722C241.135 115.151 241.21 115.623 241.21 116.136V116.668H235.862V117.004C235.862 117.321 235.913 117.615 236.016 117.886C236.119 118.157 236.263 118.39 236.45 118.586C236.646 118.782 236.879 118.936 237.15 119.048C237.43 119.151 237.738 119.202 238.074 119.202C238.559 119.202 238.979 119.09 239.334 118.866C239.689 118.642 239.959 118.334 240.146 117.942L240.972 118.502C240.757 118.987 240.398 119.389 239.894 119.706C239.399 120.014 238.793 120.168 238.074 120.168ZM238.004 113.532C237.696 113.532 237.411 113.588 237.15 113.7C236.889 113.812 236.66 113.966 236.464 114.162C236.277 114.358 236.128 114.591 236.016 114.862C235.913 115.123 235.862 115.413 235.862 115.73V115.828H240.006V115.674C240.006 115.357 239.955 115.067 239.852 114.806C239.759 114.545 239.623 114.321 239.446 114.134C239.278 113.938 239.068 113.789 238.816 113.686C238.573 113.583 238.303 113.532 238.004 113.532ZM248.093 118.824H248.037C247.57 119.72 246.828 120.168 245.811 120.168C244.924 120.168 244.229 119.837 243.725 119.174C243.23 118.511 242.983 117.583 242.983 116.388C242.983 115.193 243.23 114.265 243.725 113.602C244.229 112.939 244.924 112.608 245.811 112.608C246.828 112.608 247.57 113.056 248.037 113.952H248.093V112.776H249.213V122.8H248.093V118.824ZM246.245 119.174C246.497 119.174 246.735 119.141 246.959 119.076C247.183 119.011 247.379 118.917 247.547 118.796C247.715 118.665 247.845 118.511 247.939 118.334C248.041 118.147 248.093 117.933 248.093 117.69V115.086C248.093 114.843 248.041 114.633 247.939 114.456C247.845 114.269 247.715 114.115 247.547 113.994C247.379 113.863 247.183 113.765 246.959 113.7C246.735 113.635 246.497 113.602 246.245 113.602C245.591 113.602 245.083 113.803 244.719 114.204C244.364 114.596 244.187 115.119 244.187 115.772V117.004C244.187 117.657 244.364 118.185 244.719 118.586C245.083 118.978 245.591 119.174 246.245 119.174ZM256.445 118.824H256.389C256.314 119.001 256.221 119.174 256.109 119.342C255.997 119.501 255.857 119.641 255.689 119.762C255.53 119.883 255.339 119.981 255.115 120.056C254.891 120.131 254.63 120.168 254.331 120.168C253.575 120.168 252.968 119.93 252.511 119.454C252.054 118.969 251.825 118.287 251.825 117.41V112.776H252.945V117.214C252.945 117.877 253.09 118.371 253.379 118.698C253.668 119.015 254.093 119.174 254.653 119.174C254.877 119.174 255.096 119.146 255.311 119.09C255.526 119.034 255.717 118.95 255.885 118.838C256.053 118.726 256.188 118.586 256.291 118.418C256.394 118.241 256.445 118.031 256.445 117.788V112.776H257.565V120H256.445V118.824ZM263.258 120.168C262.735 120.168 262.264 120.079 261.844 119.902C261.433 119.725 261.078 119.473 260.78 119.146C260.49 118.81 260.266 118.413 260.108 117.956C259.949 117.489 259.87 116.971 259.87 116.402C259.87 115.823 259.949 115.301 260.108 114.834C260.276 114.367 260.504 113.971 260.794 113.644C261.083 113.308 261.428 113.051 261.83 112.874C262.24 112.697 262.693 112.608 263.188 112.608C263.673 112.608 264.112 112.697 264.504 112.874C264.905 113.051 265.246 113.299 265.526 113.616C265.806 113.924 266.02 114.293 266.17 114.722C266.319 115.151 266.394 115.623 266.394 116.136V116.668H261.046V117.004C261.046 117.321 261.097 117.615 261.2 117.886C261.302 118.157 261.447 118.39 261.634 118.586C261.83 118.782 262.063 118.936 262.334 119.048C262.614 119.151 262.922 119.202 263.258 119.202C263.743 119.202 264.163 119.09 264.518 118.866C264.872 118.642 265.143 118.334 265.33 117.942L266.156 118.502C265.941 118.987 265.582 119.389 265.078 119.706C264.583 120.014 263.976 120.168 263.258 120.168ZM263.188 113.532C262.88 113.532 262.595 113.588 262.334 113.7C262.072 113.812 261.844 113.966 261.648 114.162C261.461 114.358 261.312 114.591 261.2 114.862C261.097 115.123 261.046 115.413 261.046 115.73V115.828H265.19V115.674C265.19 115.357 265.138 115.067 265.036 114.806C264.942 114.545 264.807 114.321 264.63 114.134C264.462 113.938 264.252 113.789 264 113.686C263.757 113.583 263.486 113.532 263.188 113.532ZM271.61 120.168C270.854 120.168 270.201 120.042 269.65 119.79C269.109 119.529 268.647 119.183 268.264 118.754L269.02 118.096C269.366 118.46 269.744 118.74 270.154 118.936C270.565 119.132 271.06 119.23 271.638 119.23C272.198 119.23 272.656 119.132 273.01 118.936C273.374 118.731 273.556 118.413 273.556 117.984C273.556 117.797 273.519 117.643 273.444 117.522C273.379 117.391 273.286 117.289 273.164 117.214C273.043 117.139 272.908 117.083 272.758 117.046C272.609 116.999 272.45 116.962 272.282 116.934L271.148 116.766C270.896 116.729 270.621 116.677 270.322 116.612C270.033 116.547 269.767 116.444 269.524 116.304C269.282 116.155 269.076 115.959 268.908 115.716C268.75 115.473 268.67 115.156 268.67 114.764C268.67 114.4 268.74 114.087 268.88 113.826C269.03 113.555 269.235 113.331 269.496 113.154C269.758 112.967 270.066 112.832 270.42 112.748C270.775 112.655 271.162 112.608 271.582 112.608C272.236 112.608 272.8 112.711 273.276 112.916C273.762 113.121 274.177 113.406 274.522 113.77L273.794 114.456C273.71 114.353 273.603 114.251 273.472 114.148C273.351 114.036 273.197 113.938 273.01 113.854C272.833 113.761 272.623 113.686 272.38 113.63C272.138 113.574 271.858 113.546 271.54 113.546C270.971 113.546 270.532 113.644 270.224 113.84C269.926 114.036 269.776 114.321 269.776 114.694C269.776 114.881 269.809 115.039 269.874 115.17C269.949 115.291 270.047 115.389 270.168 115.464C270.29 115.539 270.425 115.599 270.574 115.646C270.733 115.683 270.892 115.716 271.05 115.744L272.184 115.912C272.446 115.949 272.721 116.001 273.01 116.066C273.3 116.131 273.566 116.239 273.808 116.388C274.051 116.528 274.252 116.719 274.41 116.962C274.578 117.205 274.662 117.522 274.662 117.914C274.662 118.633 274.382 119.188 273.822 119.58C273.272 119.972 272.534 120.168 271.61 120.168ZM280.271 120C279.72 120 279.314 119.846 279.053 119.538C278.801 119.23 278.675 118.833 278.675 118.348V113.728H276.267V112.776H278.059C278.301 112.776 278.469 112.729 278.563 112.636C278.665 112.533 278.717 112.361 278.717 112.118V110.228H279.795V112.776H283.085V113.728H279.795V119.048H283.085V120H280.271ZM288.315 120.126C287.933 120.126 287.662 120.047 287.503 119.888C287.354 119.729 287.279 119.529 287.279 119.286V119.034C287.279 118.791 287.354 118.591 287.503 118.432C287.662 118.273 287.933 118.194 288.315 118.194C288.698 118.194 288.964 118.273 289.113 118.432C289.272 118.591 289.351 118.791 289.351 119.034V119.286C289.351 119.529 289.272 119.729 289.113 119.888C288.964 120.047 288.698 120.126 288.315 120.126ZM46.1311 140V130.228H49.6871C50.5924 130.228 51.2831 130.475 51.7591 130.97C52.2351 131.465 52.4731 132.155 52.4731 133.042C52.4731 133.929 52.2351 134.619 51.7591 135.114C51.2831 135.609 50.5924 135.856 49.6871 135.856H47.3071V140H46.1311ZM47.3071 134.834H49.6591C50.1538 134.834 50.5364 134.713 50.8071 134.47C51.0871 134.218 51.2271 133.863 51.2271 133.406V132.678C51.2271 132.221 51.0871 131.871 50.8071 131.628C50.5364 131.376 50.1538 131.25 49.6591 131.25H47.3071V134.834ZM54.3856 139.048H56.9056V130.592H54.3856V129.64H58.0256V139.048H60.5456V140H54.3856V139.048ZM65.9862 140.168C65.4635 140.168 64.9922 140.079 64.5722 139.902C64.1615 139.725 63.8068 139.473 63.5082 139.146C63.2188 138.81 62.9948 138.413 62.8362 137.956C62.6775 137.489 62.5982 136.971 62.5982 136.402C62.5982 135.823 62.6775 135.301 62.8362 134.834C63.0042 134.367 63.2328 133.971 63.5222 133.644C63.8115 133.308 64.1568 133.051 64.5582 132.874C64.9688 132.697 65.4215 132.608 65.9162 132.608C66.4015 132.608 66.8402 132.697 67.2322 132.874C67.6335 133.051 67.9742 133.299 68.2542 133.616C68.5342 133.924 68.7488 134.293 68.8982 134.722C69.0475 135.151 69.1222 135.623 69.1222 136.136V136.668H63.7742V137.004C63.7742 137.321 63.8255 137.615 63.9282 137.886C64.0308 138.157 64.1755 138.39 64.3622 138.586C64.5582 138.782 64.7915 138.936 65.0622 139.048C65.3422 139.151 65.6502 139.202 65.9862 139.202C66.4715 139.202 66.8915 139.09 67.2462 138.866C67.6008 138.642 67.8715 138.334 68.0582 137.942L68.8842 138.502C68.6695 138.987 68.3102 139.389 67.8062 139.706C67.3115 140.014 66.7048 140.168 65.9862 140.168ZM65.9162 133.532C65.6082 133.532 65.3235 133.588 65.0622 133.7C64.8008 133.812 64.5722 133.966 64.3762 134.162C64.1895 134.358 64.0402 134.591 63.9282 134.862C63.8255 135.123 63.7742 135.413 63.7742 135.73V135.828H67.9182V135.674C67.9182 135.357 67.8668 135.067 67.7642 134.806C67.6708 134.545 67.5355 134.321 67.3582 134.134C67.1902 133.938 66.9802 133.789 66.7282 133.686C66.4855 133.583 66.2148 133.532 65.9162 133.532ZM76.9847 140C76.546 140 76.2334 139.888 76.0467 139.664C75.86 139.44 75.7434 139.16 75.6967 138.824H75.6267C75.468 139.244 75.2114 139.575 74.8567 139.818C74.5114 140.051 74.0447 140.168 73.4567 140.168C72.7007 140.168 72.0987 139.972 71.6507 139.58C71.2027 139.188 70.9787 138.651 70.9787 137.97C70.9787 137.298 71.2214 136.78 71.7067 136.416C72.2014 136.052 72.9947 135.87 74.0867 135.87H75.6267V135.156C75.6267 134.624 75.4774 134.227 75.1787 133.966C74.88 133.695 74.4554 133.56 73.9047 133.56C73.4194 133.56 73.0227 133.658 72.7147 133.854C72.4067 134.041 72.1594 134.297 71.9727 134.624L71.2167 134.064C71.31 133.877 71.436 133.695 71.5947 133.518C71.7534 133.341 71.9494 133.187 72.1827 133.056C72.416 132.916 72.682 132.809 72.9807 132.734C73.2794 132.65 73.6107 132.608 73.9747 132.608C74.824 132.608 75.496 132.823 75.9907 133.252C76.4947 133.681 76.7467 134.279 76.7467 135.044V139.02H77.7547V140H76.9847ZM73.6527 139.23C73.942 139.23 74.2034 139.197 74.4367 139.132C74.6794 139.057 74.8894 138.964 75.0667 138.852C75.244 138.731 75.3794 138.591 75.4727 138.432C75.5754 138.264 75.6267 138.087 75.6267 137.9V136.71H74.0867C73.4147 136.71 72.9247 136.803 72.6167 136.99C72.3087 137.177 72.1547 137.447 72.1547 137.802V138.096C72.1547 138.469 72.2854 138.754 72.5467 138.95C72.8174 139.137 73.186 139.23 73.6527 139.23ZM82.7332 140.168C81.9772 140.168 81.3239 140.042 80.7732 139.79C80.2319 139.529 79.7699 139.183 79.3872 138.754L80.1432 138.096C80.4886 138.46 80.8666 138.74 81.2772 138.936C81.6879 139.132 82.1826 139.23 82.7612 139.23C83.3212 139.23 83.7786 139.132 84.1332 138.936C84.4972 138.731 84.6792 138.413 84.6792 137.984C84.6792 137.797 84.6419 137.643 84.5672 137.522C84.5019 137.391 84.4086 137.289 84.2872 137.214C84.1659 137.139 84.0306 137.083 83.8812 137.046C83.7319 136.999 83.5732 136.962 83.4052 136.934L82.2712 136.766C82.0192 136.729 81.7439 136.677 81.4452 136.612C81.1559 136.547 80.8899 136.444 80.6472 136.304C80.4046 136.155 80.1992 135.959 80.0312 135.716C79.8726 135.473 79.7932 135.156 79.7932 134.764C79.7932 134.4 79.8632 134.087 80.0032 133.826C80.1526 133.555 80.3579 133.331 80.6192 133.154C80.8806 132.967 81.1886 132.832 81.5432 132.748C81.8979 132.655 82.2852 132.608 82.7052 132.608C83.3586 132.608 83.9232 132.711 84.3992 132.916C84.8846 133.121 85.2999 133.406 85.6452 133.77L84.9172 134.456C84.8332 134.353 84.7259 134.251 84.5952 134.148C84.4739 134.036 84.3199 133.938 84.1332 133.854C83.9559 133.761 83.7459 133.686 83.5032 133.63C83.2606 133.574 82.9806 133.546 82.6632 133.546C82.0939 133.546 81.6552 133.644 81.3472 133.84C81.0486 134.036 80.8992 134.321 80.8992 134.694C80.8992 134.881 80.9319 135.039 80.9972 135.17C81.0719 135.291 81.1699 135.389 81.2912 135.464C81.4126 135.539 81.5479 135.599 81.6972 135.646C81.8559 135.683 82.0146 135.716 82.1732 135.744L83.3072 135.912C83.5686 135.949 83.8439 136.001 84.1332 136.066C84.4226 136.131 84.6886 136.239 84.9312 136.388C85.1739 136.528 85.3746 136.719 85.5332 136.962C85.7012 137.205 85.7852 137.522 85.7852 137.914C85.7852 138.633 85.5052 139.188 84.9452 139.58C84.3946 139.972 83.6572 140.168 82.7332 140.168ZM91.1698 140.168C90.6471 140.168 90.1758 140.079 89.7558 139.902C89.3451 139.725 88.9904 139.473 88.6917 139.146C88.4024 138.81 88.1784 138.413 88.0198 137.956C87.8611 137.489 87.7818 136.971 87.7818 136.402C87.7818 135.823 87.8611 135.301 88.0198 134.834C88.1878 134.367 88.4164 133.971 88.7058 133.644C88.9951 133.308 89.3404 133.051 89.7418 132.874C90.1524 132.697 90.6051 132.608 91.0998 132.608C91.5851 132.608 92.0238 132.697 92.4158 132.874C92.8171 133.051 93.1578 133.299 93.4378 133.616C93.7178 133.924 93.9324 134.293 94.0818 134.722C94.2311 135.151 94.3058 135.623 94.3058 136.136V136.668H88.9578V137.004C88.9578 137.321 89.0091 137.615 89.1118 137.886C89.2144 138.157 89.3591 138.39 89.5458 138.586C89.7418 138.782 89.9751 138.936 90.2458 139.048C90.5258 139.151 90.8338 139.202 91.1698 139.202C91.6551 139.202 92.0751 139.09 92.4298 138.866C92.7844 138.642 93.0551 138.334 93.2418 137.942L94.0678 138.502C93.8531 138.987 93.4938 139.389 92.9898 139.706C92.4951 140.014 91.8884 140.168 91.1698 140.168ZM91.0998 133.532C90.7918 133.532 90.5071 133.588 90.2458 133.7C89.9844 133.812 89.7558 133.966 89.5598 134.162C89.3731 134.358 89.2238 134.591 89.1118 134.862C89.0091 135.123 88.9578 135.413 88.9578 135.73V135.828H93.1018V135.674C93.1018 135.357 93.0504 135.067 92.9478 134.806C92.8544 134.545 92.7191 134.321 92.5418 134.134C92.3738 133.938 92.1638 133.789 91.9118 133.686C91.6691 133.583 91.3984 133.532 91.0998 133.532ZM108.183 140C107.632 140 107.226 139.846 106.965 139.538C106.713 139.23 106.587 138.833 106.587 138.348V133.728H104.179V132.776H105.971C106.213 132.776 106.381 132.729 106.475 132.636C106.577 132.533 106.629 132.361 106.629 132.118V130.228H107.707V132.776H110.997V133.728H107.707V139.048H110.997V140H108.183ZM113.105 139.048H115.219V133.728H113.105V132.776H116.339V134.596H116.409C116.559 134.027 116.839 133.583 117.249 133.266C117.669 132.939 118.201 132.776 118.845 132.776H119.853V133.896H118.495C117.851 133.896 117.329 134.083 116.927 134.456C116.535 134.829 116.339 135.319 116.339 135.926V139.048H119.139V140H113.105V139.048ZM126.96 132.776H128.08L124.496 141.582C124.412 141.787 124.319 141.965 124.216 142.114C124.113 142.273 123.992 142.399 123.852 142.492C123.712 142.595 123.544 142.669 123.348 142.716C123.152 142.772 122.919 142.8 122.648 142.8H121.584V141.848H123.264L124.076 139.86L121.164 132.776H122.312L123.53 135.8L124.608 138.544H124.664L125.742 135.8L126.96 132.776ZM144.141 140C143.702 140 143.39 139.888 143.203 139.664C143.016 139.44 142.9 139.16 142.853 138.824H142.783C142.624 139.244 142.368 139.575 142.013 139.818C141.668 140.051 141.201 140.168 140.613 140.168C139.857 140.168 139.255 139.972 138.807 139.58C138.359 139.188 138.135 138.651 138.135 137.97C138.135 137.298 138.378 136.78 138.863 136.416C139.358 136.052 140.151 135.87 141.243 135.87H142.783V135.156C142.783 134.624 142.634 134.227 142.335 133.966C142.036 133.695 141.612 133.56 141.061 133.56C140.576 133.56 140.179 133.658 139.871 133.854C139.563 134.041 139.316 134.297 139.129 134.624L138.373 134.064C138.466 133.877 138.592 133.695 138.751 133.518C138.91 133.341 139.106 133.187 139.339 133.056C139.572 132.916 139.838 132.809 140.137 132.734C140.436 132.65 140.767 132.608 141.131 132.608C141.98 132.608 142.652 132.823 143.147 133.252C143.651 133.681 143.903 134.279 143.903 135.044V139.02H144.911V140H144.141ZM140.809 139.23C141.098 139.23 141.36 139.197 141.593 139.132C141.836 139.057 142.046 138.964 142.223 138.852C142.4 138.731 142.536 138.591 142.629 138.432C142.732 138.264 142.783 138.087 142.783 137.9V136.71H141.243C140.571 136.71 140.081 136.803 139.773 136.99C139.465 137.177 139.311 137.447 139.311 137.802V138.096C139.311 138.469 139.442 138.754 139.703 138.95C139.974 139.137 140.342 139.23 140.809 139.23ZM146.977 140V132.776H148.097V133.952H148.153C148.228 133.775 148.321 133.607 148.433 133.448C148.545 133.28 148.681 133.135 148.839 133.014C149.007 132.893 149.203 132.795 149.427 132.72C149.651 132.645 149.913 132.608 150.211 132.608C150.967 132.608 151.574 132.851 152.031 133.336C152.489 133.812 152.717 134.489 152.717 135.366V140H151.597V135.562C151.597 134.899 151.453 134.409 151.163 134.092C150.874 133.765 150.449 133.602 149.889 133.602C149.665 133.602 149.446 133.63 149.231 133.686C149.017 133.742 148.825 133.826 148.657 133.938C148.489 134.05 148.354 134.195 148.251 134.372C148.149 134.549 148.097 134.755 148.097 134.988V140H146.977ZM158.2 140.168C157.696 140.168 157.239 140.079 156.828 139.902C156.427 139.725 156.081 139.473 155.792 139.146C155.512 138.81 155.297 138.413 155.148 137.956C154.999 137.489 154.924 136.967 154.924 136.388C154.924 135.819 154.999 135.301 155.148 134.834C155.297 134.367 155.512 133.971 155.792 133.644C156.081 133.308 156.427 133.051 156.828 132.874C157.239 132.697 157.696 132.608 158.2 132.608C158.704 132.608 159.157 132.697 159.558 132.874C159.969 133.051 160.314 133.308 160.594 133.644C160.883 133.971 161.103 134.367 161.252 134.834C161.401 135.301 161.476 135.819 161.476 136.388C161.476 136.967 161.401 137.489 161.252 137.956C161.103 138.413 160.883 138.81 160.594 139.146C160.314 139.473 159.969 139.725 159.558 139.902C159.157 140.079 158.704 140.168 158.2 140.168ZM158.2 139.202C158.825 139.202 159.329 139.015 159.712 138.642C160.095 138.269 160.286 137.69 160.286 136.906V135.87C160.286 135.086 160.095 134.507 159.712 134.134C159.329 133.761 158.825 133.574 158.2 133.574C157.575 133.574 157.071 133.761 156.688 134.134C156.305 134.507 156.114 135.086 156.114 135.87V136.906C156.114 137.69 156.305 138.269 156.688 138.642C157.071 139.015 157.575 139.202 158.2 139.202ZM166.945 140C166.394 140 165.988 139.846 165.727 139.538C165.475 139.23 165.349 138.833 165.349 138.348V133.728H162.941V132.776H164.733C164.975 132.776 165.143 132.729 165.237 132.636C165.339 132.533 165.391 132.361 165.391 132.118V130.228H166.469V132.776H169.759V133.728H166.469V139.048H169.759V140H166.945ZM172.161 129.64H173.281V133.952H173.337C173.412 133.775 173.505 133.607 173.617 133.448C173.729 133.28 173.864 133.135 174.023 133.014C174.191 132.893 174.387 132.795 174.611 132.72C174.835 132.645 175.096 132.608 175.395 132.608C176.151 132.608 176.758 132.851 177.215 133.336C177.672 133.812 177.901 134.489 177.901 135.366V140H176.781V135.562C176.781 134.899 176.636 134.409 176.347 134.092C176.058 133.765 175.633 133.602 175.073 133.602C174.849 133.602 174.63 133.63 174.415 133.686C174.2 133.742 174.009 133.826 173.841 133.938C173.673 134.05 173.538 134.195 173.435 134.372C173.332 134.549 173.281 134.755 173.281 134.988V140H172.161V129.64ZM183.51 140.168C182.987 140.168 182.516 140.079 182.096 139.902C181.685 139.725 181.33 139.473 181.032 139.146C180.742 138.81 180.518 138.413 180.36 137.956C180.201 137.489 180.122 136.971 180.122 136.402C180.122 135.823 180.201 135.301 180.36 134.834C180.528 134.367 180.756 133.971 181.046 133.644C181.335 133.308 181.68 133.051 182.082 132.874C182.492 132.697 182.945 132.608 183.44 132.608C183.925 132.608 184.364 132.697 184.756 132.874C185.157 133.051 185.498 133.299 185.778 133.616C186.058 133.924 186.272 134.293 186.422 134.722C186.571 135.151 186.646 135.623 186.646 136.136V136.668H181.298V137.004C181.298 137.321 181.349 137.615 181.452 137.886C181.554 138.157 181.699 138.39 181.886 138.586C182.082 138.782 182.315 138.936 182.586 139.048C182.866 139.151 183.174 139.202 183.51 139.202C183.995 139.202 184.415 139.09 184.77 138.866C185.124 138.642 185.395 138.334 185.582 137.942L186.408 138.502C186.193 138.987 185.834 139.389 185.33 139.706C184.835 140.014 184.228 140.168 183.51 140.168ZM183.44 133.532C183.132 133.532 182.847 133.588 182.586 133.7C182.324 133.812 182.096 133.966 181.9 134.162C181.713 134.358 181.564 134.591 181.452 134.862C181.349 135.123 181.298 135.413 181.298 135.73V135.828H185.442V135.674C185.442 135.357 185.39 135.067 185.288 134.806C185.194 134.545 185.059 134.321 184.882 134.134C184.714 133.938 184.504 133.789 184.252 133.686C184.009 133.583 183.738 133.532 183.44 133.532ZM188.656 139.048H190.77V133.728H188.656V132.776H191.89V134.596H191.96C192.109 134.027 192.389 133.583 192.8 133.266C193.22 132.939 193.752 132.776 194.396 132.776H195.404V133.896H194.046C193.402 133.896 192.879 134.083 192.478 134.456C192.086 134.829 191.89 135.319 191.89 135.926V139.048H194.69V140H188.656V139.048ZM208.651 140.168C207.895 140.168 207.242 140.042 206.691 139.79C206.15 139.529 205.688 139.183 205.305 138.754L206.061 138.096C206.407 138.46 206.785 138.74 207.195 138.936C207.606 139.132 208.101 139.23 208.679 139.23C209.239 139.23 209.697 139.132 210.051 138.936C210.415 138.731 210.597 138.413 210.597 137.984C210.597 137.797 210.56 137.643 210.485 137.522C210.42 137.391 210.327 137.289 210.205 137.214C210.084 137.139 209.949 137.083 209.799 137.046C209.65 136.999 209.491 136.962 209.323 136.934L208.189 136.766C207.937 136.729 207.662 136.677 207.363 136.612C207.074 136.547 206.808 136.444 206.565 136.304C206.323 136.155 206.117 135.959 205.949 135.716C205.791 135.473 205.711 135.156 205.711 134.764C205.711 134.4 205.781 134.087 205.921 133.826C206.071 133.555 206.276 133.331 206.537 133.154C206.799 132.967 207.107 132.832 207.461 132.748C207.816 132.655 208.203 132.608 208.623 132.608C209.277 132.608 209.841 132.711 210.317 132.916C210.803 133.121 211.218 133.406 211.563 133.77L210.835 134.456C210.751 134.353 210.644 134.251 210.513 134.148C210.392 134.036 210.238 133.938 210.051 133.854C209.874 133.761 209.664 133.686 209.421 133.63C209.179 133.574 208.899 133.546 208.581 133.546C208.012 133.546 207.573 133.644 207.265 133.84C206.967 134.036 206.817 134.321 206.817 134.694C206.817 134.881 206.85 135.039 206.915 135.17C206.99 135.291 207.088 135.389 207.209 135.464C207.331 135.539 207.466 135.599 207.615 135.646C207.774 135.683 207.933 135.716 208.091 135.744L209.225 135.912C209.487 135.949 209.762 136.001 210.051 136.066C210.341 136.131 210.607 136.239 210.849 136.388C211.092 136.528 211.293 136.719 211.451 136.962C211.619 137.205 211.703 137.522 211.703 137.914C211.703 138.633 211.423 139.188 210.863 139.58C210.313 139.972 209.575 140.168 208.651 140.168ZM217.088 140.168C216.565 140.168 216.094 140.079 215.674 139.902C215.263 139.725 214.908 139.473 214.61 139.146C214.32 138.81 214.096 138.413 213.938 137.956C213.779 137.489 213.7 136.971 213.7 136.402C213.7 135.823 213.779 135.301 213.938 134.834C214.106 134.367 214.334 133.971 214.624 133.644C214.913 133.308 215.258 133.051 215.66 132.874C216.07 132.697 216.523 132.608 217.018 132.608C217.503 132.608 217.942 132.697 218.334 132.874C218.735 133.051 219.076 133.299 219.356 133.616C219.636 133.924 219.85 134.293 220 134.722C220.149 135.151 220.224 135.623 220.224 136.136V136.668H214.876V137.004C214.876 137.321 214.927 137.615 215.03 137.886C215.132 138.157 215.277 138.39 215.464 138.586C215.66 138.782 215.893 138.936 216.164 139.048C216.444 139.151 216.752 139.202 217.088 139.202C217.573 139.202 217.993 139.09 218.348 138.866C218.702 138.642 218.973 138.334 219.16 137.942L219.986 138.502C219.771 138.987 219.412 139.389 218.908 139.706C218.413 140.014 217.806 140.168 217.088 140.168ZM217.018 133.532C216.71 133.532 216.425 133.588 216.164 133.7C215.902 133.812 215.674 133.966 215.478 134.162C215.291 134.358 215.142 134.591 215.03 134.862C214.927 135.123 214.876 135.413 214.876 135.73V135.828H219.02V135.674C219.02 135.357 218.968 135.067 218.866 134.806C218.772 134.545 218.637 134.321 218.46 134.134C218.292 133.938 218.082 133.789 217.83 133.686C217.587 133.583 217.316 133.532 217.018 133.532ZM228.086 140C227.648 140 227.335 139.888 227.148 139.664C226.962 139.44 226.845 139.16 226.798 138.824H226.728C226.57 139.244 226.313 139.575 225.958 139.818C225.613 140.051 225.146 140.168 224.558 140.168C223.802 140.168 223.2 139.972 222.752 139.58C222.304 139.188 222.08 138.651 222.08 137.97C222.08 137.298 222.323 136.78 222.808 136.416C223.303 136.052 224.096 135.87 225.188 135.87H226.728V135.156C226.728 134.624 226.579 134.227 226.28 133.966C225.982 133.695 225.557 133.56 225.006 133.56C224.521 133.56 224.124 133.658 223.816 133.854C223.508 134.041 223.261 134.297 223.074 134.624L222.318 134.064C222.412 133.877 222.538 133.695 222.696 133.518C222.855 133.341 223.051 133.187 223.284 133.056C223.518 132.916 223.784 132.809 224.082 132.734C224.381 132.65 224.712 132.608 225.076 132.608C225.926 132.608 226.598 132.823 227.092 133.252C227.596 133.681 227.848 134.279 227.848 135.044V139.02H228.856V140H228.086ZM224.754 139.23C225.044 139.23 225.305 139.197 225.538 139.132C225.781 139.057 225.991 138.964 226.168 138.852C226.346 138.731 226.481 138.591 226.574 138.432C226.677 138.264 226.728 138.087 226.728 137.9V136.71H225.188C224.516 136.71 224.026 136.803 223.718 136.99C223.41 137.177 223.256 137.447 223.256 137.802V138.096C223.256 138.469 223.387 138.754 223.648 138.95C223.919 139.137 224.288 139.23 224.754 139.23ZM230.629 139.048H232.743V133.728H230.629V132.776H233.863V134.596H233.933C234.082 134.027 234.362 133.583 234.773 133.266C235.193 132.939 235.725 132.776 236.369 132.776H237.377V133.896H236.019C235.375 133.896 234.852 134.083 234.451 134.456C234.059 134.829 233.863 135.319 233.863 135.926V139.048H236.663V140H230.629V139.048ZM242.397 140.168C241.875 140.168 241.408 140.079 240.997 139.902C240.596 139.715 240.255 139.459 239.975 139.132C239.695 138.805 239.481 138.409 239.331 137.942C239.191 137.475 239.121 136.957 239.121 136.388C239.121 135.819 239.196 135.301 239.345 134.834C239.495 134.367 239.709 133.971 239.989 133.644C240.269 133.308 240.61 133.051 241.011 132.874C241.413 132.697 241.87 132.608 242.383 132.608C243.083 132.608 243.653 132.762 244.091 133.07C244.53 133.378 244.852 133.779 245.057 134.274L244.161 134.75C244.031 134.377 243.811 134.087 243.503 133.882C243.205 133.677 242.831 133.574 242.383 133.574C242.057 133.574 241.763 133.63 241.501 133.742C241.249 133.845 241.035 133.994 240.857 134.19C240.68 134.386 240.545 134.619 240.451 134.89C240.367 135.161 240.325 135.455 240.325 135.772V137.004C240.325 137.321 240.367 137.615 240.451 137.886C240.545 138.157 240.68 138.39 240.857 138.586C241.035 138.782 241.254 138.936 241.515 139.048C241.777 139.151 242.075 139.202 242.411 139.202C242.897 139.202 243.298 139.09 243.615 138.866C243.933 138.642 244.185 138.334 244.371 137.942L245.169 138.488C244.955 138.973 244.619 139.375 244.161 139.692C243.713 140.009 243.125 140.168 242.397 140.168ZM247.712 129.64H248.832V133.952H248.888C248.963 133.775 249.056 133.607 249.168 133.448C249.28 133.28 249.415 133.135 249.574 133.014C249.742 132.893 249.938 132.795 250.162 132.72C250.386 132.645 250.647 132.608 250.946 132.608C251.702 132.608 252.309 132.851 252.766 133.336C253.223 133.812 253.452 134.489 253.452 135.366V140H252.332V135.562C252.332 134.899 252.187 134.409 251.898 134.092C251.609 133.765 251.184 133.602 250.624 133.602C250.4 133.602 250.181 133.63 249.966 133.686C249.751 133.742 249.56 133.826 249.392 133.938C249.224 134.05 249.089 134.195 248.986 134.372C248.883 134.549 248.832 134.755 248.832 134.988V140H247.712V129.64ZM258.934 140.126C258.552 140.126 258.281 140.047 258.122 139.888C257.973 139.729 257.898 139.529 257.898 139.286V139.034C257.898 138.791 257.973 138.591 258.122 138.432C258.281 138.273 258.552 138.194 258.934 138.194C259.317 138.194 259.583 138.273 259.732 138.432C259.891 138.591 259.97 138.791 259.97 139.034V139.286C259.97 139.529 259.891 139.729 259.732 139.888C259.583 140.047 259.317 140.126 258.934 140.126Z" fill="black"/>
    <path d="M151.785 1C135.913 1 123 13.913 123 29.7845C123 45.656 135.913 58.5691 151.785 58.5691C158.924 58.5691 165.461 55.9497 170.496 51.6292L181.218 62.351L181.9 62.9981L185 59.8981L184.349 59.2162L173.625 48.4944C177.948 43.459 180.569 36.924 180.569 29.7826C180.569 13.9111 167.656 1 151.785 1ZM151.785 5.42705C165.261 5.42705 176.14 16.3058 176.14 29.7826C176.14 43.2594 165.261 54.1382 151.785 54.1382C138.308 54.1382 127.429 43.2594 127.429 29.7826C127.429 16.3058 138.308 5.42705 151.785 5.42705Z" fill="black" stroke="#F5F5F5" stroke-width="0.2"/>
    <mask id="path-3-outside-1" maskUnits="userSpaceOnUse" x="142.314" y="20.3125" width="19" height="19" fill="black">
        <rect fill="white" x="142.314" y="20.3125" width="19" height="19"/>
        <path fill-rule="evenodd" clip-rule="evenodd" d="M150.342 30.0631L144.315 36.09L146.038 37.8121L152.064 31.7853L158.092 37.8128L159.814 36.0906L153.787 30.0631L159.815 24.0347L158.093 22.3125L152.064 28.3409L146.037 22.3131L144.314 24.0353L150.342 30.0631Z"/>
    </mask>
    <path fill-rule="evenodd" clip-rule="evenodd" d="M150.342 30.0631L144.315 36.09L146.038 37.8121L152.064 31.7853L158.092 37.8128L159.814 36.0906L153.787 30.0631L159.815 24.0347L158.093 22.3125L152.064 28.3409L146.037 22.3131L144.314 24.0353L150.342 30.0631Z" fill="black"/>
    <path d="M144.315 36.09L143.75 35.5243L143.184 36.09L143.75 36.6556L144.315 36.09ZM150.342 30.0631L150.908 30.6288L151.474 30.0631L150.908 29.4974L150.342 30.0631ZM146.038 37.8121L145.472 38.3778L146.038 38.9435L146.603 38.3778L146.038 37.8121ZM152.064 31.7853L152.63 31.2196L152.064 30.6539L151.499 31.2196L152.064 31.7853ZM158.092 37.8128L157.526 38.3785L158.092 38.9442L158.658 38.3785L158.092 37.8128ZM159.814 36.0906L160.38 36.6563L160.945 36.0906L160.38 35.5249L159.814 36.0906ZM153.787 30.0631L153.221 29.4974L152.655 30.0631L153.221 30.6288L153.787 30.0631ZM159.815 24.0347L160.381 24.6004L160.946 24.0347L160.381 23.469L159.815 24.0347ZM158.093 22.3125L158.659 21.7468L158.093 21.1811L157.527 21.7468L158.093 22.3125ZM152.064 28.3409L151.499 28.9066L152.064 29.4723L152.63 28.9066L152.064 28.3409ZM146.037 22.3131L146.602 21.7475L146.037 21.1818L145.471 21.7475L146.037 22.3131ZM144.314 24.0353L143.749 23.4696L143.183 24.0353L143.749 24.601L144.314 24.0353ZM144.881 36.6556L150.908 30.6288L149.777 29.4974L143.75 35.5243L144.881 36.6556ZM146.603 37.2465L144.881 35.5243L143.75 36.6556L145.472 38.3778L146.603 37.2465ZM151.499 31.2196L145.472 37.2465L146.603 38.3778L152.63 32.351L151.499 31.2196ZM158.658 37.2471L152.63 31.2196L151.499 32.351L157.526 38.3785L158.658 37.2471ZM159.248 35.5249L157.526 37.2471L158.658 38.3785L160.38 36.6563L159.248 35.5249ZM153.221 30.6288L159.248 36.6563L160.38 35.5249L154.352 29.4974L153.221 30.6288ZM159.249 23.469L153.221 29.4974L154.352 30.6288L160.381 24.6004L159.249 23.469ZM157.527 22.8782L159.249 24.6004L160.381 23.469L158.659 21.7468L157.527 22.8782ZM152.63 28.9066L158.659 22.8782L157.527 21.7468L151.499 27.7752L152.63 28.9066ZM145.471 22.8788L151.499 28.9066L152.63 27.7752L146.602 21.7475L145.471 22.8788ZM144.88 24.601L146.602 22.8788L145.471 21.7475L143.749 23.4696L144.88 24.601ZM150.908 29.4974L144.88 23.4696L143.749 24.601L149.777 30.6288L150.908 29.4974Z" fill="black" mask="url(#path-3-outside-1)"/>
</svg>
