<svg width="40" height="40" viewBox="0 0 40 40" fill="none" xmlns="http://www.w3.org/2000/svg">
<rect x="0.5" y="0.5" width="39" height="39" rx="5.5" fill="white" stroke="black"/>
<path d="M28.9437 12.0213C28.9381 12.0141 28.9373 12.0045 28.9309 11.9981C28.9013 11.9653 28.8677 11.9373 28.8381 11.9053C28.6098 11.6557 28.3714 11.4157 28.1228 11.1852C28.0636 11.1308 28.0052 11.0764 27.9444 11.0252C27.6899 10.7996 27.4259 10.5867 27.1531 10.3851C27.0971 10.3435 27.0427 10.3011 26.9858 10.2603C26.6957 10.0512 26.3959 9.85598 26.0865 9.67462C26.0441 9.64982 26.0065 9.62262 25.9609 9.59461C25.6281 9.40365 25.2856 9.22843 24.9336 9.06894L24.8704 9.03854C24.4978 8.87196 24.117 8.72455 23.7294 8.59688L23.7166 8.59208C23.3225 8.46282 22.9219 8.35439 22.5164 8.26723H22.5076C22.1188 8.18509 21.7235 8.12161 21.3219 8.07681C21.3019 8.07681 21.2827 8.06961 21.2627 8.06721C20.425 7.9776 19.5801 7.9776 18.7423 8.06721C18.7223 8.06721 18.7031 8.07441 18.6831 8.07681C18.2815 8.12055 17.8862 8.18402 17.4974 8.26723H17.4886C17.0831 8.35439 16.6825 8.46282 16.2884 8.59208L16.2748 8.59688C15.8875 8.72469 15.507 8.8721 15.1347 9.03854C15.1131 9.04814 15.0923 9.05934 15.0707 9.06974C14.7191 9.22976 14.377 9.40472 14.0441 9.59461C14.0017 9.61941 13.9641 9.64662 13.9185 9.67462C13.6097 9.85705 13.3099 10.0523 13.0192 10.2603C12.9624 10.3011 12.908 10.3403 12.852 10.3851C12.5791 10.5891 12.3151 10.802 12.0607 11.0252C11.9998 11.0788 11.9414 11.1332 11.8822 11.1852C11.6337 11.4141 11.3952 11.6541 11.1669 11.9053C11.1373 11.9373 11.1037 11.9653 11.0741 11.9981C11.0677 12.0045 11.0669 12.0141 11.0613 12.0213C9.09048 14.2115 8 17.0536 8 20C8 22.9464 9.09048 25.7885 11.0613 27.9787C11.0669 27.9859 11.0677 27.9955 11.0741 28.0019C11.1037 28.0347 11.1373 28.0627 11.1669 28.0947C11.3952 28.3443 11.6337 28.5843 11.8822 28.8148C11.9414 28.8692 11.9998 28.9236 12.0607 28.9748C12.3151 29.2004 12.5791 29.4133 12.852 29.6149C12.908 29.6565 12.9624 29.6949 13.0192 29.7397C13.3094 29.9483 13.6091 30.1435 13.9185 30.3254C13.9609 30.3502 13.9985 30.3774 14.0441 30.4054C14.377 30.5958 14.7186 30.7708 15.0691 30.9303C15.0915 30.9399 15.1131 30.9519 15.1355 30.9615C15.5073 31.1282 15.8876 31.2754 16.2748 31.4023L16.2884 31.4079C16.6825 31.5372 17.0831 31.6456 17.4886 31.7328H17.4974C17.8862 31.8149 18.2815 31.8784 18.6831 31.9232C18.7031 31.9232 18.7223 31.9304 18.7423 31.9328C19.5801 32.0224 20.425 32.0224 21.2627 31.9328C21.2827 31.9328 21.3019 31.9256 21.3219 31.9232C21.7235 31.8789 22.1188 31.8154 22.5076 31.7328H22.5164C22.9219 31.6456 23.3225 31.5372 23.7166 31.4079L23.7302 31.4023C24.1174 31.2754 24.4978 31.1282 24.8696 30.9615C24.892 30.9519 24.9128 30.9399 24.9352 30.9303C25.2867 30.7702 25.6286 30.5953 25.9609 30.4054C26.0033 30.3806 26.0409 30.3534 26.0865 30.3254C26.3954 30.143 26.6951 29.9477 26.9858 29.7397C27.0427 29.6989 27.0971 29.6597 27.1531 29.6149C27.4259 29.4109 27.6899 29.198 27.9444 28.9748C28.0052 28.9212 28.0636 28.8668 28.1228 28.8148C28.3719 28.5859 28.6103 28.3459 28.8381 28.0947C28.8677 28.0627 28.9013 28.0347 28.9309 28.0019C28.9373 27.9955 28.9381 27.9859 28.9437 27.9787C30.9145 25.7885 32.005 22.9464 32.005 20C32.005 17.0536 30.9145 14.2115 28.9437 12.0213ZM28.1332 26.4705C27.3502 26.0921 26.5351 25.7839 25.6977 25.5495C26.1084 23.9981 26.3385 22.4044 26.3834 20.8001H30.3639C30.2066 22.8714 29.4293 24.8472 28.1332 26.4705ZM26.9234 27.7434C26.7207 27.9243 26.5124 28.0965 26.2986 28.2603C26.2569 28.2923 26.2145 28.3235 26.1721 28.3547C25.955 28.5147 25.7329 28.6668 25.5056 28.8108L25.372 28.8908C25.1432 29.03 24.9088 29.1612 24.6703 29.282C24.6207 29.3068 24.5711 29.3292 24.5215 29.3532C24.2964 29.4631 24.0681 29.5642 23.8366 29.6565C24.3987 28.8582 24.8558 27.991 25.1968 27.0761C25.8039 27.241 26.3992 27.4466 26.9786 27.6914L26.9234 27.7434ZM15.3363 29.2812C15.0963 29.1604 14.8634 29.0292 14.6346 28.89L14.501 28.81C14.2732 28.6665 14.0511 28.5145 13.8345 28.3539C13.7921 28.3227 13.7497 28.2915 13.7081 28.2595C13.4947 28.0957 13.2864 27.9235 13.0832 27.7426L13.0272 27.6914C13.6066 27.4466 14.2019 27.241 14.809 27.0761C15.15 27.991 15.6071 28.8582 16.1692 29.6565C15.9372 29.5637 15.7089 29.4626 15.4843 29.3532C15.4355 29.33 15.3859 29.3076 15.3363 29.2812ZM9.64273 20.8001H13.6233C13.6682 22.4044 13.8982 23.9981 14.309 25.5495C13.4715 25.7839 12.6564 26.0921 11.8734 26.4705C10.5773 24.8472 9.79998 22.8714 9.64273 20.8001ZM11.8734 13.5295C12.6564 13.9079 13.4715 14.2161 14.309 14.4505C13.8982 16.0019 13.6682 17.5956 13.6233 19.1999H9.64273C9.79998 17.1286 10.5773 15.1528 11.8734 13.5295ZM13.0832 12.2566C13.2859 12.0757 13.4942 11.9035 13.7081 11.7397C13.7497 11.7077 13.7881 11.6765 13.8345 11.6453C14.0505 11.4853 14.2724 11.3335 14.5002 11.19L14.6354 11.11C14.8642 10.9716 15.0979 10.8404 15.3363 10.7196C15.3859 10.6948 15.4355 10.6724 15.4851 10.6484C15.7097 10.5385 15.938 10.4374 16.17 10.3451C15.6078 11.1433 15.1506 12.0105 14.8098 12.9255C14.2027 12.7606 13.6074 12.555 13.028 12.3102L13.0832 12.2566ZM24.6703 10.7188C24.9104 10.8396 25.1424 10.9708 25.3712 11.1092L25.5064 11.1892C25.7337 11.3316 25.9556 11.4834 26.1721 11.6445C26.2145 11.6757 26.2569 11.7069 26.2986 11.7389C26.5119 11.9032 26.7202 12.0755 26.9234 12.2558L26.9794 12.307C26.4 12.5518 25.8047 12.7574 25.1976 12.9223C24.8568 12.0073 24.3997 11.1401 23.8374 10.3419C24.0695 10.4347 24.2978 10.5358 24.5223 10.6452C24.5711 10.67 24.6207 10.6924 24.6703 10.7188ZM19.2032 13.5815C18.2532 13.5473 17.3068 13.4465 16.3708 13.2799C17.1229 11.4269 18.1463 10.1907 19.2032 9.76663V13.5815ZM19.2032 15.1818V19.1999H15.2227C15.2637 17.7173 15.476 16.2443 15.8556 14.8105C16.9602 15.0198 18.0795 15.1429 19.2032 15.1786V15.1818ZM19.2032 20.8001V24.8214C18.0795 24.8571 16.9602 24.9802 15.8556 25.1895C15.476 23.7557 15.2637 22.2827 15.2227 20.8001H19.2032ZM19.2032 26.4185V30.2334C18.1463 29.8093 17.1229 28.5731 16.3708 26.7201C17.3068 26.5535 18.2532 26.4527 19.2032 26.4185ZM20.8034 26.4185C21.7534 26.4527 22.6999 26.5535 23.6358 26.7201C22.8837 28.5731 21.8604 29.8093 20.8034 30.2334V26.4185ZM20.8034 24.8182V20.8001H24.7839C24.743 22.2827 24.5306 23.7557 24.1511 25.1895C23.0464 24.9802 21.9272 24.8571 20.8034 24.8214V24.8182ZM20.8034 19.1999V15.1786C21.9272 15.1429 23.0464 15.0198 24.1511 14.8105C24.5306 16.2443 24.743 17.7173 24.7839 19.1999H20.8034ZM20.8034 13.5815V9.76663C21.8604 10.1907 22.8837 11.4269 23.6358 13.2799C22.6999 13.4465 21.7534 13.5473 20.8034 13.5815ZM26.3834 19.1999C26.3385 17.5956 26.1084 16.0019 25.6977 14.4505C26.5351 14.2161 27.3502 13.9079 28.1332 13.5295C29.4293 15.1528 30.2066 17.1286 30.3639 19.1999H26.3834Z" fill="black"/>
</svg>