<svg width="20" height="20" viewBox="0 0 20 20" fill="none" xmlns="http://www.w3.org/2000/svg">
    <path d="M17.6904 19.0242L17.6903 19.0243L17.696 19.0297L17.894 19.2176L18.106 19.4188L18.3127 19.2121L19.2127 18.3121L19.4199 18.1048L19.2175 17.8928L19.0285 17.6948L19.0286 17.6948L19.0237 17.6898L16.1037 14.7704C17.2969 13.2874 18.0141 11.4048 18.0141 9.35649C18.0141 4.58279 14.1307 0.7 9.35706 0.7C4.58337 0.7 0.7 4.58337 0.7 9.35706C0.7 14.1307 4.58337 18.0141 9.35706 18.0141C11.4048 18.0141 13.2878 17.2975 14.7709 16.1048L17.6904 19.0242ZM9.35706 2.58531C13.1041 2.58531 16.1282 5.60943 16.1282 9.35649C16.1282 13.1036 13.1041 16.1277 9.35706 16.1277C5.60999 16.1277 2.58587 13.1036 2.58587 9.35649C2.58587 5.60943 5.60999 2.58531 9.35706 2.58531Z" fill="black" stroke="black" stroke-width="0.6"/>
</svg>
