<svg width="176" height="141" viewBox="0 0 176 141" fill="none" xmlns="http://www.w3.org/2000/svg">
    <path d="M13.7792 106.228H16.5092C17.7039 106.228 18.5952 106.639 19.1832 107.46C19.7712 108.281 20.0652 109.499 20.0652 111.114C20.0652 112.729 19.7712 113.947 19.1832 114.768C18.5952 115.589 17.7039 116 16.5092 116H13.7792V106.228ZM16.4532 114.978C17.2372 114.978 17.8252 114.707 18.2172 114.166C18.6186 113.625 18.8192 112.859 18.8192 111.87V110.358C18.8192 109.369 18.6186 108.603 18.2172 108.062C17.8252 107.521 17.2372 107.25 16.4532 107.25H14.9552V114.978H16.4532ZM27.7738 116C27.3351 116 27.0224 115.888 26.8358 115.664C26.6491 115.44 26.5324 115.16 26.4858 114.824H26.4158C26.2571 115.244 26.0004 115.575 25.6458 115.818C25.3004 116.051 24.8338 116.168 24.2458 116.168C23.4898 116.168 22.8878 115.972 22.4398 115.58C21.9918 115.188 21.7677 114.651 21.7677 113.97C21.7677 113.298 22.0104 112.78 22.4958 112.416C22.9904 112.052 23.7838 111.87 24.8758 111.87H26.4158V111.156C26.4158 110.624 26.2664 110.227 25.9678 109.966C25.6691 109.695 25.2444 109.56 24.6938 109.56C24.2084 109.56 23.8118 109.658 23.5038 109.854C23.1958 110.041 22.9484 110.297 22.7618 110.624L22.0058 110.064C22.0991 109.877 22.2251 109.695 22.3838 109.518C22.5424 109.341 22.7384 109.187 22.9718 109.056C23.2051 108.916 23.4711 108.809 23.7698 108.734C24.0684 108.65 24.3998 108.608 24.7638 108.608C25.6131 108.608 26.2851 108.823 26.7798 109.252C27.2838 109.681 27.5358 110.279 27.5358 111.044V115.02H28.5438V116H27.7738ZM24.4417 115.23C24.7311 115.23 24.9924 115.197 25.2258 115.132C25.4684 115.057 25.6784 114.964 25.8558 114.852C26.0331 114.731 26.1684 114.591 26.2618 114.432C26.3644 114.264 26.4158 114.087 26.4158 113.9V112.71H24.8758C24.2038 112.71 23.7138 112.803 23.4058 112.99C23.0978 113.177 22.9438 113.447 22.9438 113.802V114.096C22.9438 114.469 23.0744 114.754 23.3358 114.95C23.6064 115.137 23.9751 115.23 24.4417 115.23ZM33.7883 116C33.2376 116 32.8316 115.846 32.5703 115.538C32.3183 115.23 32.1923 114.833 32.1923 114.348V109.728H29.7843V108.776H31.5763C31.8189 108.776 31.9869 108.729 32.0803 108.636C32.1829 108.533 32.2343 108.361 32.2343 108.118V106.228H33.3123V108.776H36.6023V109.728H33.3123V115.048H36.6023V116H33.7883ZM44.5628 116C44.1241 116 43.8115 115.888 43.6248 115.664C43.4381 115.44 43.3215 115.16 43.2748 114.824H43.2048C43.0461 115.244 42.7895 115.575 42.4348 115.818C42.0895 116.051 41.6228 116.168 41.0348 116.168C40.2788 116.168 39.6768 115.972 39.2288 115.58C38.7808 115.188 38.5568 114.651 38.5568 113.97C38.5568 113.298 38.7995 112.78 39.2848 112.416C39.7795 112.052 40.5728 111.87 41.6648 111.87H43.2048V111.156C43.2048 110.624 43.0555 110.227 42.7568 109.966C42.4581 109.695 42.0335 109.56 41.4828 109.56C40.9975 109.56 40.6008 109.658 40.2928 109.854C39.9848 110.041 39.7375 110.297 39.5508 110.624L38.7948 110.064C38.8881 109.877 39.0141 109.695 39.1728 109.518C39.3315 109.341 39.5275 109.187 39.7608 109.056C39.9941 108.916 40.2601 108.809 40.5588 108.734C40.8575 108.65 41.1888 108.608 41.5528 108.608C42.4021 108.608 43.0741 108.823 43.5688 109.252C44.0728 109.681 44.3248 110.279 44.3248 111.044V115.02H45.3328V116H44.5628ZM41.2308 115.23C41.5201 115.23 41.7815 115.197 42.0148 115.132C42.2575 115.057 42.4675 114.964 42.6448 114.852C42.8221 114.731 42.9575 114.591 43.0508 114.432C43.1535 114.264 43.2048 114.087 43.2048 113.9V112.71H41.6648C40.9928 112.71 40.5028 112.803 40.1948 112.99C39.8868 113.177 39.7328 113.447 39.7328 113.802V114.096C39.7328 114.469 39.8635 114.754 40.1248 114.95C40.3955 115.137 40.7641 115.23 41.2308 115.23ZM59.0699 107.18C58.7432 107.18 58.5145 107.115 58.3839 106.984C58.2532 106.844 58.1879 106.671 58.1879 106.466V106.242C58.1879 106.037 58.2532 105.869 58.3839 105.738C58.5145 105.598 58.7432 105.528 59.0699 105.528C59.3965 105.528 59.6252 105.598 59.7559 105.738C59.8865 105.869 59.9519 106.037 59.9519 106.242V106.466C59.9519 106.671 59.8865 106.844 59.7559 106.984C59.6252 107.115 59.3965 107.18 59.0699 107.18ZM55.9059 115.048H58.5099V109.728H55.9059V108.776H59.6299V115.048H62.0659V116H55.9059V115.048ZM67.1004 116.168C66.3444 116.168 65.6911 116.042 65.1404 115.79C64.5991 115.529 64.1371 115.183 63.7544 114.754L64.5104 114.096C64.8557 114.46 65.2337 114.74 65.6444 114.936C66.0551 115.132 66.5497 115.23 67.1284 115.23C67.6884 115.23 68.1457 115.132 68.5004 114.936C68.8644 114.731 69.0464 114.413 69.0464 113.984C69.0464 113.797 69.0091 113.643 68.9344 113.522C68.8691 113.391 68.7757 113.289 68.6544 113.214C68.5331 113.139 68.3977 113.083 68.2484 113.046C68.0991 112.999 67.9404 112.962 67.7724 112.934L66.6384 112.766C66.3864 112.729 66.1111 112.677 65.8124 112.612C65.5231 112.547 65.2571 112.444 65.0144 112.304C64.7717 112.155 64.5664 111.959 64.3984 111.716C64.2397 111.473 64.1604 111.156 64.1604 110.764C64.1604 110.4 64.2304 110.087 64.3704 109.826C64.5197 109.555 64.7251 109.331 64.9864 109.154C65.2477 108.967 65.5557 108.832 65.9104 108.748C66.2651 108.655 66.6524 108.608 67.0724 108.608C67.7257 108.608 68.2904 108.711 68.7664 108.916C69.2517 109.121 69.6671 109.406 70.0124 109.77L69.2844 110.456C69.2004 110.353 69.0931 110.251 68.9624 110.148C68.8411 110.036 68.6871 109.938 68.5004 109.854C68.3231 109.761 68.1131 109.686 67.8704 109.63C67.6277 109.574 67.3477 109.546 67.0304 109.546C66.4611 109.546 66.0224 109.644 65.7144 109.84C65.4157 110.036 65.2664 110.321 65.2664 110.694C65.2664 110.881 65.2991 111.039 65.3644 111.17C65.4391 111.291 65.5371 111.389 65.6584 111.464C65.7797 111.539 65.9151 111.599 66.0644 111.646C66.2231 111.683 66.3817 111.716 66.5404 111.744L67.6744 111.912C67.9357 111.949 68.2111 112.001 68.5004 112.066C68.7897 112.131 69.0557 112.239 69.2984 112.388C69.5411 112.528 69.7417 112.719 69.9004 112.962C70.0684 113.205 70.1524 113.522 70.1524 113.914C70.1524 114.633 69.8724 115.188 69.3124 115.58C68.7617 115.972 68.0244 116.168 67.1004 116.168ZM80.7255 115.048H83.2455V106.592H80.7255V105.64H84.3655V115.048H86.8855V116H80.7255V115.048ZM92.2 116.168C91.696 116.168 91.2387 116.079 90.828 115.902C90.4267 115.725 90.0813 115.473 89.792 115.146C89.512 114.81 89.2973 114.413 89.148 113.956C88.9987 113.489 88.924 112.967 88.924 112.388C88.924 111.819 88.9987 111.301 89.148 110.834C89.2973 110.367 89.512 109.971 89.792 109.644C90.0813 109.308 90.4267 109.051 90.828 108.874C91.2387 108.697 91.696 108.608 92.2 108.608C92.704 108.608 93.1567 108.697 93.558 108.874C93.9687 109.051 94.314 109.308 94.594 109.644C94.8833 109.971 95.1027 110.367 95.252 110.834C95.4013 111.301 95.476 111.819 95.476 112.388C95.476 112.967 95.4013 113.489 95.252 113.956C95.1027 114.413 94.8833 114.81 94.594 115.146C94.314 115.473 93.9687 115.725 93.558 115.902C93.1567 116.079 92.704 116.168 92.2 116.168ZM92.2 115.202C92.8253 115.202 93.3293 115.015 93.712 114.642C94.0947 114.269 94.286 113.69 94.286 112.906V111.87C94.286 111.086 94.0947 110.507 93.712 110.134C93.3293 109.761 92.8253 109.574 92.2 109.574C91.5747 109.574 91.0707 109.761 90.688 110.134C90.3053 110.507 90.114 111.086 90.114 111.87V112.906C90.114 113.69 90.3053 114.269 90.688 114.642C91.0707 115.015 91.5747 115.202 92.2 115.202ZM103.325 116C102.886 116 102.573 115.888 102.387 115.664C102.2 115.44 102.083 115.16 102.037 114.824H101.967C101.808 115.244 101.551 115.575 101.197 115.818C100.851 116.051 100.385 116.168 99.7965 116.168C99.0405 116.168 98.4385 115.972 97.9905 115.58C97.5425 115.188 97.3185 114.651 97.3185 113.97C97.3185 113.298 97.5612 112.78 98.0465 112.416C98.5412 112.052 99.3345 111.87 100.427 111.87H101.967V111.156C101.967 110.624 101.817 110.227 101.519 109.966C101.22 109.695 100.795 109.56 100.245 109.56C99.7592 109.56 99.3625 109.658 99.0545 109.854C98.7465 110.041 98.4992 110.297 98.3125 110.624L97.5565 110.064C97.6499 109.877 97.7759 109.695 97.9345 109.518C98.0932 109.341 98.2892 109.187 98.5225 109.056C98.7559 108.916 99.0219 108.809 99.3205 108.734C99.6192 108.65 99.9505 108.608 100.315 108.608C101.164 108.608 101.836 108.823 102.331 109.252C102.835 109.681 103.087 110.279 103.087 111.044V115.02H104.095V116H103.325ZM99.9925 115.23C100.282 115.23 100.543 115.197 100.777 115.132C101.019 115.057 101.229 114.964 101.407 114.852C101.584 114.731 101.719 114.591 101.813 114.432C101.915 114.264 101.967 114.087 101.967 113.9V112.71H100.427C99.7545 112.71 99.2645 112.803 98.9565 112.99C98.6485 113.177 98.4945 113.447 98.4945 113.802V114.096C98.4945 114.469 98.6252 114.754 98.8865 114.95C99.1572 115.137 99.5259 115.23 99.9925 115.23ZM110.739 114.824H110.683C110.216 115.72 109.474 116.168 108.457 116.168C107.57 116.168 106.875 115.837 106.371 115.174C105.876 114.511 105.629 113.583 105.629 112.388C105.629 111.193 105.876 110.265 106.371 109.602C106.875 108.939 107.57 108.608 108.457 108.608C109.474 108.608 110.216 109.056 110.683 109.952H110.739V105.64H111.859V116H110.739V114.824ZM108.891 115.174C109.143 115.174 109.381 115.141 109.605 115.076C109.829 115.011 110.025 114.917 110.193 114.796C110.361 114.665 110.492 114.511 110.585 114.334C110.688 114.147 110.739 113.933 110.739 113.69V111.086C110.739 110.843 110.688 110.633 110.585 110.456C110.492 110.269 110.361 110.115 110.193 109.994C110.025 109.863 109.829 109.765 109.605 109.7C109.381 109.635 109.143 109.602 108.891 109.602C108.238 109.602 107.729 109.803 107.365 110.204C107.01 110.596 106.833 111.119 106.833 111.772V113.004C106.833 113.657 107.01 114.185 107.365 114.586C107.729 114.978 108.238 115.174 108.891 115.174ZM117.832 107.18C117.505 107.18 117.276 107.115 117.146 106.984C117.015 106.844 116.95 106.671 116.95 106.466V106.242C116.95 106.037 117.015 105.869 117.146 105.738C117.276 105.598 117.505 105.528 117.832 105.528C118.158 105.528 118.387 105.598 118.518 105.738C118.648 105.869 118.714 106.037 118.714 106.242V106.466C118.714 106.671 118.648 106.844 118.518 106.984C118.387 107.115 118.158 107.18 117.832 107.18ZM114.668 115.048H117.272V109.728H114.668V108.776H118.392V115.048H120.828V116H114.668V115.048ZM122.95 116V108.776H124.07V109.952H124.126C124.201 109.775 124.294 109.607 124.406 109.448C124.518 109.28 124.653 109.135 124.812 109.014C124.98 108.893 125.176 108.795 125.4 108.72C125.624 108.645 125.885 108.608 126.184 108.608C126.94 108.608 127.547 108.851 128.004 109.336C128.461 109.812 128.69 110.489 128.69 111.366V116H127.57V111.562C127.57 110.899 127.425 110.409 127.136 110.092C126.847 109.765 126.422 109.602 125.862 109.602C125.638 109.602 125.419 109.63 125.204 109.686C124.989 109.742 124.798 109.826 124.63 109.938C124.462 110.05 124.327 110.195 124.224 110.372C124.121 110.549 124.07 110.755 124.07 110.988V116H122.95ZM137.827 116.826C137.827 117.554 137.523 118.091 136.917 118.436C136.31 118.791 135.4 118.968 134.187 118.968C133.02 118.968 132.18 118.814 131.667 118.506C131.163 118.198 130.911 117.755 130.911 117.176C130.911 116.784 131.013 116.481 131.219 116.266C131.424 116.051 131.713 115.893 132.087 115.79V115.622C131.881 115.519 131.723 115.389 131.611 115.23C131.499 115.071 131.443 114.871 131.443 114.628C131.443 114.255 131.564 113.975 131.807 113.788C132.059 113.601 132.371 113.461 132.745 113.368V113.312C132.297 113.116 131.947 112.827 131.695 112.444C131.452 112.061 131.331 111.613 131.331 111.1C131.331 110.736 131.396 110.4 131.527 110.092C131.657 109.784 131.844 109.523 132.087 109.308C132.339 109.084 132.637 108.911 132.983 108.79C133.328 108.669 133.711 108.608 134.131 108.608C134.672 108.608 135.148 108.706 135.559 108.902V108.776C135.559 108.496 135.624 108.263 135.755 108.076C135.885 107.889 136.109 107.796 136.427 107.796H137.757V108.776H136.133V109.266C136.394 109.49 136.595 109.756 136.735 110.064C136.875 110.372 136.945 110.717 136.945 111.1C136.945 111.464 136.875 111.8 136.735 112.108C136.604 112.416 136.417 112.682 136.175 112.906C135.932 113.121 135.633 113.289 135.279 113.41C134.933 113.531 134.551 113.592 134.131 113.592C134.009 113.592 133.893 113.587 133.781 113.578C133.669 113.569 133.557 113.555 133.445 113.536C133.333 113.555 133.216 113.587 133.095 113.634C132.973 113.671 132.861 113.727 132.759 113.802C132.656 113.867 132.572 113.947 132.507 114.04C132.441 114.133 132.409 114.241 132.409 114.362C132.409 114.577 132.516 114.721 132.731 114.796C132.945 114.861 133.225 114.894 133.571 114.894H135.167C136.1 114.894 136.777 115.071 137.197 115.426C137.617 115.771 137.827 116.238 137.827 116.826ZM136.777 116.882C136.777 116.593 136.66 116.359 136.427 116.182C136.193 116.014 135.787 115.93 135.209 115.93H132.703C132.217 116.126 131.975 116.453 131.975 116.91C131.975 117.227 132.101 117.498 132.353 117.722C132.605 117.955 133.025 118.072 133.613 118.072H134.705C135.358 118.072 135.867 117.969 136.231 117.764C136.595 117.568 136.777 117.274 136.777 116.882ZM134.131 112.724C134.691 112.724 135.101 112.593 135.363 112.332C135.633 112.071 135.769 111.725 135.769 111.296V110.89C135.769 110.461 135.633 110.12 135.363 109.868C135.101 109.607 134.691 109.476 134.131 109.476C133.571 109.476 133.16 109.607 132.899 109.868C132.637 110.12 132.507 110.461 132.507 110.89V111.296C132.507 111.725 132.637 112.071 132.899 112.332C133.16 112.593 133.571 112.724 134.131 112.724ZM142.567 116.126C142.185 116.126 141.914 116.047 141.755 115.888C141.606 115.729 141.531 115.529 141.531 115.286V115.034C141.531 114.791 141.606 114.591 141.755 114.432C141.914 114.273 142.185 114.194 142.567 114.194C142.95 114.194 143.216 114.273 143.365 114.432C143.524 114.591 143.603 114.791 143.603 115.034V115.286C143.603 115.529 143.524 115.729 143.365 115.888C143.216 116.047 142.95 116.126 142.567 116.126ZM150.962 116.126C150.579 116.126 150.308 116.047 150.15 115.888C150 115.729 149.926 115.529 149.926 115.286V115.034C149.926 114.791 150 114.591 150.15 114.432C150.308 114.273 150.579 114.194 150.962 114.194C151.344 114.194 151.61 114.273 151.76 114.432C151.918 114.591 151.998 114.791 151.998 115.034V115.286C151.998 115.529 151.918 115.729 151.76 115.888C151.61 116.047 151.344 116.126 150.962 116.126ZM159.356 116.126C158.974 116.126 158.703 116.047 158.544 115.888C158.395 115.729 158.32 115.529 158.32 115.286V115.034C158.32 114.791 158.395 114.591 158.544 114.432C158.703 114.273 158.974 114.194 159.356 114.194C159.739 114.194 160.005 114.273 160.154 114.432C160.313 114.591 160.392 114.791 160.392 115.034V115.286C160.392 115.529 160.313 115.729 160.154 115.888C160.005 116.047 159.739 116.126 159.356 116.126ZM43.0901 136V126.228H46.6461C47.5514 126.228 48.2421 126.475 48.7181 126.97C49.1941 127.465 49.4321 128.155 49.4321 129.042C49.4321 129.929 49.1941 130.619 48.7181 131.114C48.2421 131.609 47.5514 131.856 46.6461 131.856H44.2661V136H43.0901ZM44.2661 130.834H46.6181C47.1127 130.834 47.4954 130.713 47.7661 130.47C48.0461 130.218 48.1861 129.863 48.1861 129.406V128.678C48.1861 128.221 48.0461 127.871 47.7661 127.628C47.4954 127.376 47.1127 127.25 46.6181 127.25H44.2661V130.834ZM51.3446 135.048H53.8646V126.592H51.3446V125.64H54.9846V135.048H57.5046V136H51.3446V135.048ZM62.9451 136.168C62.4225 136.168 61.9511 136.079 61.5311 135.902C61.1205 135.725 60.7658 135.473 60.4671 135.146C60.1778 134.81 59.9538 134.413 59.7951 133.956C59.6365 133.489 59.5571 132.971 59.5571 132.402C59.5571 131.823 59.6365 131.301 59.7951 130.834C59.9631 130.367 60.1918 129.971 60.4811 129.644C60.7705 129.308 61.1158 129.051 61.5171 128.874C61.9278 128.697 62.3805 128.608 62.8751 128.608C63.3605 128.608 63.7991 128.697 64.1911 128.874C64.5925 129.051 64.9331 129.299 65.2131 129.616C65.4931 129.924 65.7078 130.293 65.8571 130.722C66.0065 131.151 66.0811 131.623 66.0811 132.136V132.668H60.7331V133.004C60.7331 133.321 60.7845 133.615 60.8871 133.886C60.9898 134.157 61.1345 134.39 61.3211 134.586C61.5171 134.782 61.7505 134.936 62.0211 135.048C62.3011 135.151 62.6091 135.202 62.9451 135.202C63.4305 135.202 63.8505 135.09 64.2051 134.866C64.5598 134.642 64.8305 134.334 65.0171 133.942L65.8431 134.502C65.6285 134.987 65.2691 135.389 64.7651 135.706C64.2705 136.014 63.6638 136.168 62.9451 136.168ZM62.8751 129.532C62.5671 129.532 62.2825 129.588 62.0211 129.7C61.7598 129.812 61.5311 129.966 61.3351 130.162C61.1485 130.358 60.9991 130.591 60.8871 130.862C60.7845 131.123 60.7331 131.413 60.7331 131.73V131.828H64.8771V131.674C64.8771 131.357 64.8258 131.067 64.7231 130.806C64.6298 130.545 64.4945 130.321 64.3171 130.134C64.1491 129.938 63.9391 129.789 63.6871 129.686C63.4445 129.583 63.1738 129.532 62.8751 129.532ZM73.9437 136C73.505 136 73.1923 135.888 73.0057 135.664C72.819 135.44 72.7023 135.16 72.6557 134.824H72.5857C72.427 135.244 72.1703 135.575 71.8157 135.818C71.4703 136.051 71.0037 136.168 70.4157 136.168C69.6597 136.168 69.0577 135.972 68.6097 135.58C68.1617 135.188 67.9377 134.651 67.9377 133.97C67.9377 133.298 68.1803 132.78 68.6657 132.416C69.1603 132.052 69.9537 131.87 71.0457 131.87H72.5857V131.156C72.5857 130.624 72.4363 130.227 72.1377 129.966C71.839 129.695 71.4143 129.56 70.8637 129.56C70.3783 129.56 69.9817 129.658 69.6737 129.854C69.3657 130.041 69.1183 130.297 68.9317 130.624L68.1757 130.064C68.269 129.877 68.395 129.695 68.5537 129.518C68.7123 129.341 68.9083 129.187 69.1417 129.056C69.375 128.916 69.641 128.809 69.9397 128.734C70.2383 128.65 70.5697 128.608 70.9337 128.608C71.783 128.608 72.455 128.823 72.9497 129.252C73.4537 129.681 73.7057 130.279 73.7057 131.044V135.02H74.7137V136H73.9437ZM70.6117 135.23C70.901 135.23 71.1623 135.197 71.3957 135.132C71.6383 135.057 71.8483 134.964 72.0257 134.852C72.203 134.731 72.3383 134.591 72.4317 134.432C72.5343 134.264 72.5857 134.087 72.5857 133.9V132.71H71.0457C70.3737 132.71 69.8837 132.803 69.5757 132.99C69.2677 133.177 69.1137 133.447 69.1137 133.802V134.096C69.1137 134.469 69.2443 134.754 69.5057 134.95C69.7763 135.137 70.145 135.23 70.6117 135.23ZM79.6922 136.168C78.9362 136.168 78.2829 136.042 77.7322 135.79C77.1909 135.529 76.7289 135.183 76.3462 134.754L77.1022 134.096C77.4475 134.46 77.8255 134.74 78.2362 134.936C78.6469 135.132 79.1415 135.23 79.7202 135.23C80.2802 135.23 80.7375 135.132 81.0922 134.936C81.4562 134.731 81.6382 134.413 81.6382 133.984C81.6382 133.797 81.6009 133.643 81.5262 133.522C81.4609 133.391 81.3675 133.289 81.2462 133.214C81.1249 133.139 80.9895 133.083 80.8402 133.046C80.6909 132.999 80.5322 132.962 80.3642 132.934L79.2302 132.766C78.9782 132.729 78.7029 132.677 78.4042 132.612C78.1149 132.547 77.8489 132.444 77.6062 132.304C77.3635 132.155 77.1582 131.959 76.9902 131.716C76.8315 131.473 76.7522 131.156 76.7522 130.764C76.7522 130.4 76.8222 130.087 76.9622 129.826C77.1115 129.555 77.3169 129.331 77.5782 129.154C77.8395 128.967 78.1475 128.832 78.5022 128.748C78.8569 128.655 79.2442 128.608 79.6642 128.608C80.3175 128.608 80.8822 128.711 81.3582 128.916C81.8435 129.121 82.2589 129.406 82.6042 129.77L81.8762 130.456C81.7922 130.353 81.6849 130.251 81.5542 130.148C81.4329 130.036 81.2789 129.938 81.0922 129.854C80.9149 129.761 80.7049 129.686 80.4622 129.63C80.2195 129.574 79.9395 129.546 79.6222 129.546C79.0529 129.546 78.6142 129.644 78.3062 129.84C78.0075 130.036 77.8582 130.321 77.8582 130.694C77.8582 130.881 77.8909 131.039 77.9562 131.17C78.0309 131.291 78.1289 131.389 78.2502 131.464C78.3715 131.539 78.5069 131.599 78.6562 131.646C78.8149 131.683 78.9735 131.716 79.1322 131.744L80.2662 131.912C80.5275 131.949 80.8029 132.001 81.0922 132.066C81.3815 132.131 81.6475 132.239 81.8902 132.388C82.1329 132.528 82.3335 132.719 82.4922 132.962C82.6602 133.205 82.7442 133.522 82.7442 133.914C82.7442 134.633 82.4642 135.188 81.9042 135.58C81.3535 135.972 80.6162 136.168 79.6922 136.168ZM88.1287 136.168C87.6061 136.168 87.1347 136.079 86.7147 135.902C86.3041 135.725 85.9494 135.473 85.6507 135.146C85.3614 134.81 85.1374 134.413 84.9787 133.956C84.8201 133.489 84.7407 132.971 84.7407 132.402C84.7407 131.823 84.8201 131.301 84.9787 130.834C85.1467 130.367 85.3754 129.971 85.6647 129.644C85.9541 129.308 86.2994 129.051 86.7007 128.874C87.1114 128.697 87.5641 128.608 88.0587 128.608C88.5441 128.608 88.9827 128.697 89.3747 128.874C89.7761 129.051 90.1167 129.299 90.3967 129.616C90.6767 129.924 90.8914 130.293 91.0407 130.722C91.1901 131.151 91.2647 131.623 91.2647 132.136V132.668H85.9167V133.004C85.9167 133.321 85.9681 133.615 86.0707 133.886C86.1734 134.157 86.3181 134.39 86.5047 134.586C86.7007 134.782 86.9341 134.936 87.2047 135.048C87.4847 135.151 87.7927 135.202 88.1287 135.202C88.6141 135.202 89.0341 135.09 89.3887 134.866C89.7434 134.642 90.0141 134.334 90.2007 133.942L91.0267 134.502C90.8121 134.987 90.4527 135.389 89.9487 135.706C89.4541 136.014 88.8474 136.168 88.1287 136.168ZM88.0587 129.532C87.7507 129.532 87.4661 129.588 87.2047 129.7C86.9434 129.812 86.7147 129.966 86.5187 130.162C86.3321 130.358 86.1827 130.591 86.0707 130.862C85.9681 131.123 85.9167 131.413 85.9167 131.73V131.828H90.0607V131.674C90.0607 131.357 90.0094 131.067 89.9067 130.806C89.8134 130.545 89.6781 130.321 89.5007 130.134C89.3327 129.938 89.1227 129.789 88.8707 129.686C88.6281 129.583 88.3574 129.532 88.0587 129.532ZM101.012 128.776H102.006L102.832 135.02H102.958L104.19 128.776H105.422L106.654 135.02H106.78L107.606 128.776H108.572L107.466 136H106.01L104.862 129.952H104.75L103.574 136H102.118L101.012 128.776ZM115.916 136C115.478 136 115.165 135.888 114.978 135.664C114.792 135.44 114.675 135.16 114.628 134.824H114.558C114.4 135.244 114.143 135.575 113.788 135.818C113.443 136.051 112.976 136.168 112.388 136.168C111.632 136.168 111.03 135.972 110.582 135.58C110.134 135.188 109.91 134.651 109.91 133.97C109.91 133.298 110.153 132.78 110.638 132.416C111.133 132.052 111.926 131.87 113.018 131.87H114.558V131.156C114.558 130.624 114.409 130.227 114.11 129.966C113.812 129.695 113.387 129.56 112.836 129.56C112.351 129.56 111.954 129.658 111.646 129.854C111.338 130.041 111.091 130.297 110.904 130.624L110.148 130.064C110.242 129.877 110.368 129.695 110.526 129.518C110.685 129.341 110.881 129.187 111.114 129.056C111.348 128.916 111.614 128.809 111.912 128.734C112.211 128.65 112.542 128.608 112.906 128.608C113.756 128.608 114.428 128.823 114.922 129.252C115.426 129.681 115.678 130.279 115.678 131.044V135.02H116.686V136H115.916ZM112.584 135.23C112.874 135.23 113.135 135.197 113.368 135.132C113.611 135.057 113.821 134.964 113.998 134.852C114.176 134.731 114.311 134.591 114.404 134.432C114.507 134.264 114.558 134.087 114.558 133.9V132.71H113.018C112.346 132.71 111.856 132.803 111.548 132.99C111.24 133.177 111.086 133.447 111.086 133.802V134.096C111.086 134.469 111.217 134.754 111.478 134.95C111.749 135.137 112.118 135.23 112.584 135.23ZM122.029 127.18C121.702 127.18 121.474 127.115 121.343 126.984C121.212 126.844 121.147 126.671 121.147 126.466V126.242C121.147 126.037 121.212 125.869 121.343 125.738C121.474 125.598 121.702 125.528 122.029 125.528C122.356 125.528 122.584 125.598 122.715 125.738C122.846 125.869 122.911 126.037 122.911 126.242V126.466C122.911 126.671 122.846 126.844 122.715 126.984C122.584 127.115 122.356 127.18 122.029 127.18ZM118.865 135.048H121.469V129.728H118.865V128.776H122.589V135.048H125.025V136H118.865V135.048ZM130.325 136C129.775 136 129.369 135.846 129.107 135.538C128.855 135.23 128.729 134.833 128.729 134.348V129.728H126.321V128.776H128.113C128.356 128.776 128.524 128.729 128.617 128.636C128.72 128.533 128.771 128.361 128.771 128.118V126.228H129.849V128.776H133.139V129.728H129.849V135.048H133.139V136H130.325Z" fill="black"/>
    <path fill-rule="evenodd" clip-rule="evenodd" d="M68.0007 2.599C68.0007 1.16361 69.1686 0 70.6093 0H83.9868C85.4275 0 86.5954 1.16361 86.5954 2.599C86.5954 4.03439 85.4275 5.198 83.9868 5.198H70.6093C69.1686 5.198 68.0007 4.03439 68.0007 2.599ZM107.838 7.03179C108.337 8.37868 107.644 9.87282 106.292 10.369L71.5111 23.1361C70.1593 23.6323 68.6596 22.9427 68.1615 21.5958C67.6635 20.2489 68.3556 18.7548 69.7075 18.2585L104.489 5.49153C105.841 4.99531 107.34 5.68491 107.838 7.03179ZM107.838 39.5807C108.337 40.9276 107.644 42.4217 106.292 42.9179L71.5111 55.6849C70.1593 56.1812 68.6596 55.4916 68.1615 54.1447C67.6635 52.7978 68.3556 51.3036 69.7075 50.8074L104.489 38.0404C105.841 37.5442 107.34 38.2338 107.838 39.5807ZM89.4046 58.5775C89.4046 57.1421 90.5725 55.9785 92.0132 55.9785H105.391C106.831 55.9785 107.999 57.1421 107.999 58.5775C107.999 60.0129 106.831 61.1765 105.391 61.1765H92.0132C90.5725 61.1765 89.4046 60.0129 89.4046 58.5775Z" fill="black"/>
    <path fill-rule="evenodd" clip-rule="evenodd" d="M107.825 22.8701C108.343 24.2312 107.672 25.759 106.327 26.2825L71.5457 39.8236C70.2011 40.3471 68.6918 39.6681 68.1746 38.307C67.6574 36.9458 68.3282 35.4181 69.6729 34.8946L104.454 21.3535C105.799 20.83 107.308 21.509 107.825 22.8701Z" fill="black"/>
</svg>
