<svg width="13" height="12" viewBox="0 0 13 12" fill="none" xmlns="http://www.w3.org/2000/svg">
    <path opacity="0.3" fill-rule="evenodd" clip-rule="evenodd" d="M11.3359 6C11.3359 8.76142 9.09736 11 6.33594 11C3.57451 11 1.33594 8.76142 1.33594 6C1.33594 3.23858 3.57451 1 6.33594 1C9.09736 1 11.3359 3.23858 11.3359 6ZM12.3359 6C12.3359 9.31371 9.64965 12 6.33594 12C3.02223 12 0.335938 9.31371 0.335938 6C0.335938 2.68629 3.02223 0 6.33594 0C9.64965 0 12.3359 2.68629 12.3359 6ZM5.52415 9.00008V7.76808H6.78015V9.00008H5.52415ZM5.41215 5.12808H4.23615C4.24148 4.84008 4.28948 4.57608 4.38015 4.33608C4.47615 4.09608 4.60682 3.88808 4.77215 3.71208C4.94282 3.53608 5.14548 3.40008 5.38015 3.30408C5.62015 3.20274 5.88682 3.15208 6.18015 3.15208C6.55882 3.15208 6.87348 3.20541 7.12415 3.31208C7.38015 3.41341 7.58548 3.54141 7.74015 3.69608C7.89482 3.85074 8.00415 4.01874 8.06815 4.20008C8.13748 4.37608 8.17215 4.54141 8.17215 4.69608C8.17215 4.95208 8.13748 5.16274 8.06815 5.32808C8.00415 5.49341 7.92148 5.63474 7.82015 5.75208C7.72415 5.86941 7.61482 5.97074 7.49215 6.05608C7.37482 6.13608 7.26282 6.21874 7.15615 6.30408C7.04948 6.38408 6.95348 6.47741 6.86815 6.58408C6.78815 6.69074 6.73748 6.82408 6.71615 6.98408V7.28808H5.63615V6.92808C5.65215 6.69874 5.69482 6.50674 5.76415 6.35208C5.83882 6.19741 5.92415 6.06674 6.02015 5.96008C6.11615 5.84808 6.21748 5.75208 6.32415 5.67208C6.43082 5.59208 6.52948 5.51208 6.62015 5.43208C6.71082 5.35208 6.78282 5.26408 6.83615 5.16808C6.89482 5.07208 6.92148 4.95208 6.91615 4.80808C6.91615 4.56274 6.85482 4.38141 6.73215 4.26408C6.61482 4.14674 6.44948 4.08808 6.23615 4.08808C6.09215 4.08808 5.96682 4.11741 5.86015 4.17608C5.75882 4.22941 5.67348 4.30408 5.60415 4.40008C5.54015 4.49074 5.49215 4.60008 5.46015 4.72808C5.42815 4.85074 5.41215 4.98408 5.41215 5.12808Z" fill="black"/>
</svg>
