<svg width="96" height="96" viewBox="0 0 96 96" fill="none" xmlns="http://www.w3.org/2000/svg">
<path d="M48 96C74.5097 96 96 74.5097 96 48C96 21.4903 74.5097 0 48 0C21.4903 0 0 21.4903 0 48C0 74.5097 21.4903 96 48 96Z" fill="black"/>
<path fill-rule="evenodd" clip-rule="evenodd" d="M31.7155 25.714C31.7155 24.2938 32.8668 23.1426 34.287 23.1426H44.8364C46.2566 23.1426 47.4078 24.2938 47.4078 25.714C47.4078 27.1342 46.2566 28.2854 44.8364 28.2854H34.287C32.8668 28.2854 31.7155 27.1342 31.7155 25.714ZM64.1284 29.0448C64.6194 30.3774 63.9371 31.8557 62.6045 32.3467L35.1759 42.4519C33.8433 42.9429 32.365 42.2606 31.8741 40.928C31.3831 39.5954 32.0654 38.1171 33.398 37.6262L60.8266 27.5209C62.1592 27.0299 63.6375 27.7122 64.1284 29.0448ZM64.1284 54.8077C64.6194 56.1403 63.9371 57.6186 62.6045 58.1095L35.1759 68.2148C33.8433 68.7058 32.365 68.0235 31.8741 66.6909C31.3831 65.3583 32.0654 63.88 33.398 63.389L60.8266 53.2838C62.1592 52.7928 63.6375 53.4751 64.1284 54.8077ZM48.5947 70.0217C48.5947 68.6015 49.7459 67.4503 51.1661 67.4503H61.7155C63.1357 67.4503 64.287 68.6015 64.287 70.0217C64.287 71.4419 63.1357 72.5931 61.7155 72.5931H51.1661C49.7459 72.5931 48.5947 71.4419 48.5947 70.0217Z" fill="white"/>
<path fill-rule="evenodd" clip-rule="evenodd" d="M64.1156 41.6695C64.6254 42.995 63.9641 44.4829 62.6386 44.9927L35.2101 55.5421C33.8846 56.0519 32.3967 55.3907 31.8869 54.0652C31.3771 52.7397 32.0384 51.2519 33.3639 50.742L60.7924 40.1926C62.1179 39.6828 63.6058 40.344 64.1156 41.6695Z" fill="white"/>
</svg>
