<svg width="165" height="55" viewBox="0 0 165 55" fill="none" xmlns="http://www.w3.org/2000/svg">
    <g opacity="0.8">
        <path d="M7.37695 48.9707C7.29102 49.8809 6.95508 50.5918 6.36914 51.1035C5.7832 51.6113 5.00391 51.8652 4.03125 51.8652C3.35156 51.8652 2.75195 51.7051 2.23242 51.3848C1.7168 51.0605 1.31836 50.6016 1.03711 50.0078C0.755859 49.4141 0.609375 48.7246 0.597656 47.9395V47.1426C0.597656 46.3379 0.740234 45.6289 1.02539 45.0156C1.31055 44.4023 1.71875 43.9297 2.25 43.5977C2.78516 43.2656 3.40234 43.0996 4.10156 43.0996C5.04297 43.0996 5.80078 43.3555 6.375 43.8672C6.94922 44.3789 7.2832 45.1016 7.37695 46.0352H5.90039C5.83008 45.4219 5.65039 44.9805 5.36133 44.7109C5.07617 44.4375 4.65625 44.3008 4.10156 44.3008C3.45703 44.3008 2.96094 44.5371 2.61328 45.0098C2.26953 45.4785 2.09375 46.168 2.08594 47.0781V47.834C2.08594 48.7559 2.25 49.459 2.57812 49.9434C2.91016 50.4277 3.39453 50.6699 4.03125 50.6699C4.61328 50.6699 5.05078 50.5391 5.34375 50.2773C5.63672 50.0156 5.82227 49.5801 5.90039 48.9707H7.37695Z" fill="black"/>
        <path d="M8.18273 48.5195C8.18273 47.8984 8.30578 47.3398 8.55188 46.8438C8.79797 46.3438 9.14367 45.9609 9.58898 45.6953C10.0343 45.4258 10.546 45.291 11.1241 45.291C11.9796 45.291 12.673 45.5664 13.2042 46.1172C13.7394 46.668 14.0284 47.3984 14.0714 48.3086L14.0773 48.6426C14.0773 49.2676 13.9562 49.8262 13.714 50.3184C13.4757 50.8105 13.132 51.1914 12.6827 51.4609C12.2374 51.7305 11.7218 51.8652 11.1359 51.8652C10.2413 51.8652 9.52453 51.5684 8.98547 50.9746C8.45031 50.377 8.18273 49.582 8.18273 48.5898V48.5195ZM9.60656 48.6426C9.60656 49.2949 9.74133 49.8066 10.0109 50.1777C10.2804 50.5449 10.6554 50.7285 11.1359 50.7285C11.6163 50.7285 11.9894 50.541 12.255 50.166C12.5245 49.791 12.6593 49.2422 12.6593 48.5195C12.6593 47.8789 12.5206 47.3711 12.2433 46.9961C11.9698 46.6211 11.5968 46.4336 11.1241 46.4336C10.6593 46.4336 10.2902 46.6191 10.0167 46.9902C9.74328 47.3574 9.60656 47.9082 9.60656 48.6426Z" fill="black"/>
        <path d="M16.5002 45.4082L16.5413 46.0703C16.9866 45.5508 17.5959 45.291 18.3694 45.291C19.217 45.291 19.7971 45.6152 20.1096 46.2637C20.5705 45.6152 21.219 45.291 22.0549 45.291C22.7541 45.291 23.2737 45.4844 23.6135 45.8711C23.9573 46.2578 24.133 46.8281 24.1409 47.582V51.748H22.717V47.623C22.717 47.2207 22.6291 46.9258 22.4534 46.7383C22.2776 46.5508 21.9866 46.457 21.5803 46.457C21.2561 46.457 20.9905 46.5449 20.7834 46.7207C20.5803 46.8926 20.4377 47.1191 20.3557 47.4004L20.3616 51.748H18.9377V47.5762C18.9182 46.8301 18.5373 46.457 17.7952 46.457C17.2248 46.457 16.8205 46.6895 16.5823 47.1543V51.748H15.1584V45.4082H16.5002Z" fill="black"/>
        <path d="M31.0345 48.6426C31.0345 49.623 30.8119 50.4062 30.3666 50.9922C29.9212 51.5742 29.3236 51.8652 28.5736 51.8652C27.8783 51.8652 27.3216 51.6367 26.9037 51.1797V54.1855H25.4798V45.4082H26.7923L26.8509 46.0527C27.2689 45.5449 27.8373 45.291 28.556 45.291C29.3295 45.291 29.9349 45.5801 30.3724 46.1582C30.8138 46.7324 31.0345 47.5312 31.0345 48.5547V48.6426ZM29.6166 48.5195C29.6166 47.8867 29.4896 47.3848 29.2357 47.0137C28.9857 46.6426 28.6263 46.457 28.1576 46.457C27.5755 46.457 27.1576 46.6973 26.9037 47.1777V49.9902C27.1615 50.4824 27.5834 50.7285 28.1693 50.7285C28.6224 50.7285 28.9759 50.5469 29.2298 50.1836C29.4877 49.8164 29.6166 49.2617 29.6166 48.5195Z" fill="black"/>
        <path d="M34.9165 51.8652C34.0141 51.8652 33.2817 51.582 32.7192 51.0156C32.1606 50.4453 31.8813 49.6875 31.8813 48.7422V48.5664C31.8813 47.9336 32.0024 47.3691 32.2446 46.873C32.4907 46.373 32.8345 45.9844 33.2759 45.707C33.7173 45.4297 34.2095 45.291 34.7524 45.291C35.6157 45.291 36.2817 45.5664 36.7505 46.1172C37.2231 46.668 37.4595 47.4473 37.4595 48.4551V49.0293H33.3169C33.3598 49.5527 33.5337 49.9668 33.8384 50.2715C34.147 50.5762 34.5337 50.7285 34.9985 50.7285C35.6509 50.7285 36.1821 50.4648 36.5923 49.9375L37.3598 50.6699C37.1059 51.0488 36.7661 51.3438 36.3403 51.5547C35.9184 51.7617 35.4438 51.8652 34.9165 51.8652ZM34.7466 46.4336C34.3559 46.4336 34.0395 46.5703 33.7973 46.8438C33.5591 47.1172 33.4067 47.498 33.3403 47.9863H36.0532V47.8809C36.022 47.4043 35.895 47.0449 35.6723 46.8027C35.4497 46.5566 35.1411 46.4336 34.7466 46.4336Z" fill="black"/>
        <path d="M40.234 43.8672V45.4082H41.3531V46.4629H40.234V50.002C40.234 50.2441 40.2809 50.4199 40.3746 50.5293C40.4723 50.6348 40.6441 50.6875 40.8902 50.6875C41.0543 50.6875 41.2203 50.668 41.3883 50.6289V51.7305C41.0641 51.8203 40.7516 51.8652 40.4508 51.8652C39.357 51.8652 38.8102 51.2617 38.8102 50.0547V46.4629H37.7672V45.4082H38.8102V43.8672H40.234Z" fill="black"/>
        <path d="M43.8405 51.748H42.4167V45.4082H43.8405V51.748ZM42.3288 43.7617C42.3288 43.543 42.3972 43.3613 42.5339 43.2168C42.6745 43.0723 42.8737 43 43.1316 43C43.3894 43 43.5886 43.0723 43.7292 43.2168C43.8698 43.3613 43.9402 43.543 43.9402 43.7617C43.9402 43.9766 43.8698 44.1562 43.7292 44.3008C43.5886 44.4414 43.3894 44.5117 43.1316 44.5117C42.8737 44.5117 42.6745 44.4414 42.5339 44.3008C42.3972 44.1562 42.3288 43.9766 42.3288 43.7617Z" fill="black"/>
        <path d="M47.0604 43.8672V45.4082H48.1795V46.4629H47.0604V50.002C47.0604 50.2441 47.1073 50.4199 47.201 50.5293C47.2987 50.6348 47.4705 50.6875 47.7166 50.6875C47.8807 50.6875 48.0467 50.668 48.2147 50.6289V51.7305C47.8905 51.8203 47.578 51.8652 47.2772 51.8652C46.1834 51.8652 45.6366 51.2617 45.6366 50.0547V46.4629H44.5936V45.4082H45.6366V43.8672H47.0604Z" fill="black"/>
        <path d="M50.667 51.748H49.2431V45.4082H50.667V51.748ZM49.1552 43.7617C49.1552 43.543 49.2236 43.3613 49.3603 43.2168C49.5009 43.0723 49.7002 43 49.958 43C50.2158 43 50.415 43.0723 50.5556 43.2168C50.6963 43.3613 50.7666 43.543 50.7666 43.7617C50.7666 43.9766 50.6963 44.1562 50.5556 44.3008C50.415 44.4414 50.2158 44.5117 49.958 44.5117C49.7002 44.5117 49.5009 44.4414 49.3603 44.3008C49.2236 44.1562 49.1552 43.9766 49.1552 43.7617Z" fill="black"/>
        <path d="M54.338 49.9434L55.6798 45.4082H57.1505L54.9532 51.748H53.7169L51.502 45.4082H52.9786L54.338 49.9434Z" fill="black"/>
        <path d="M60.634 51.8652C59.7316 51.8652 58.9992 51.582 58.4367 51.0156C57.8781 50.4453 57.5988 49.6875 57.5988 48.7422V48.5664C57.5988 47.9336 57.7199 47.3691 57.9621 46.873C58.2082 46.373 58.552 45.9844 58.9934 45.707C59.4348 45.4297 59.927 45.291 60.4699 45.291C61.3332 45.291 61.9992 45.5664 62.468 46.1172C62.9406 46.668 63.177 47.4473 63.177 48.4551V49.0293H59.0344C59.0773 49.5527 59.2512 49.9668 59.5559 50.2715C59.8645 50.5762 60.2512 50.7285 60.716 50.7285C61.3684 50.7285 61.8996 50.4648 62.3098 49.9375L63.0773 50.6699C62.8234 51.0488 62.4836 51.3438 62.0578 51.5547C61.6359 51.7617 61.1613 51.8652 60.634 51.8652ZM60.4641 46.4336C60.0734 46.4336 59.757 46.5703 59.5148 46.8438C59.2766 47.1172 59.1242 47.498 59.0578 47.9863H61.7707V47.8809C61.7395 47.4043 61.6125 47.0449 61.3898 46.8027C61.1672 46.5566 60.8586 46.4336 60.4641 46.4336Z" fill="black"/>
        <path d="M71.6323 49.5508C71.6323 49.1758 71.4995 48.8867 71.2338 48.6836C70.9721 48.4805 70.4975 48.2754 69.81 48.0684C69.1225 47.8613 68.5756 47.6309 68.1694 47.377C67.392 46.8887 67.0034 46.252 67.0034 45.4668C67.0034 44.7793 67.2827 44.2129 67.8412 43.7676C68.4037 43.3223 69.1323 43.0996 70.0268 43.0996C70.6205 43.0996 71.1498 43.209 71.6147 43.4277C72.0795 43.6465 72.4448 43.959 72.7104 44.3652C72.976 44.7676 73.1088 45.2148 73.1088 45.707H71.6323C71.6323 45.2617 71.4916 44.9141 71.2104 44.6641C70.933 44.4102 70.5346 44.2832 70.0151 44.2832C69.5307 44.2832 69.1537 44.3867 68.8842 44.5938C68.6186 44.8008 68.4858 45.0898 68.4858 45.4609C68.4858 45.7734 68.6303 46.0352 68.9194 46.2461C69.2084 46.4531 69.685 46.6562 70.3491 46.8555C71.0131 47.0508 71.5463 47.2754 71.9487 47.5293C72.351 47.7793 72.6459 48.0684 72.8334 48.3965C73.0209 48.7207 73.1147 49.1016 73.1147 49.5391C73.1147 50.25 72.8412 50.8164 72.2944 51.2383C71.7514 51.6562 71.0131 51.8652 70.0795 51.8652C69.4623 51.8652 68.894 51.752 68.3745 51.5254C67.8588 51.2949 67.4565 50.9785 67.1674 50.5762C66.8823 50.1738 66.7397 49.7051 66.7397 49.1699H68.2221C68.2221 49.6543 68.3823 50.0293 68.7026 50.2949C69.0229 50.5605 69.4819 50.6934 70.0795 50.6934C70.5952 50.6934 70.9819 50.5898 71.2397 50.3828C71.5014 50.1719 71.6323 49.8945 71.6323 49.5508Z" fill="black"/>
        <path d="M79.7271 49.7852L80.7349 45.4082H82.1236L80.3951 51.748H79.2232L77.8638 47.3945L76.5279 51.748H75.356L73.6216 45.4082H75.0103L76.0357 49.7383L77.3365 45.4082H78.4088L79.7271 49.7852Z" fill="black"/>
        <path d="M86.7438 51.748C86.6813 51.627 86.6266 51.4297 86.5798 51.1562C86.1266 51.6289 85.572 51.8652 84.9157 51.8652C84.279 51.8652 83.7595 51.6836 83.3571 51.3203C82.9548 50.957 82.7536 50.5078 82.7536 49.9727C82.7536 49.2969 83.0036 48.7793 83.5036 48.4199C84.0075 48.0566 84.7262 47.875 85.6598 47.875H86.5329V47.459C86.5329 47.1309 86.4411 46.8691 86.2575 46.6738C86.0739 46.4746 85.7946 46.375 85.4196 46.375C85.0954 46.375 84.8298 46.457 84.6227 46.6211C84.4157 46.7812 84.3122 46.9863 84.3122 47.2363H82.8884C82.8884 46.8887 83.0036 46.5645 83.2341 46.2637C83.4645 45.959 83.777 45.7207 84.1716 45.5488C84.57 45.377 85.0134 45.291 85.5016 45.291C86.2438 45.291 86.8356 45.4785 87.277 45.8535C87.7184 46.2246 87.945 46.748 87.9567 47.4238V50.2832C87.9567 50.8535 88.0368 51.3086 88.197 51.6484V51.748H86.7438ZM85.1794 50.7227C85.4606 50.7227 85.7243 50.6543 85.9704 50.5176C86.2204 50.3809 86.4079 50.1973 86.5329 49.9668V48.7715H85.7653C85.238 48.7715 84.8415 48.8633 84.5759 49.0469C84.3102 49.2305 84.1774 49.4902 84.1774 49.8262C84.1774 50.0996 84.2673 50.3184 84.447 50.4824C84.6305 50.6426 84.8747 50.7227 85.1794 50.7227Z" fill="black"/>
        <path d="M94.8797 48.6426C94.8797 49.623 94.657 50.4062 94.2117 50.9922C93.7664 51.5742 93.1687 51.8652 92.4187 51.8652C91.7234 51.8652 91.1668 51.6367 90.7488 51.1797V54.1855H89.325V45.4082H90.6375L90.6961 46.0527C91.1141 45.5449 91.6824 45.291 92.4012 45.291C93.1746 45.291 93.7801 45.5801 94.2176 46.1582C94.659 46.7324 94.8797 47.5312 94.8797 48.5547V48.6426ZM93.4617 48.5195C93.4617 47.8867 93.3348 47.3848 93.0809 47.0137C92.8309 46.6426 92.4715 46.457 92.0027 46.457C91.4207 46.457 91.0027 46.6973 90.7488 47.1777V49.9902C91.0066 50.4824 91.4285 50.7285 92.0145 50.7285C92.4676 50.7285 92.8211 50.5469 93.075 50.1836C93.3328 49.8164 93.4617 49.2617 93.4617 48.5195Z" fill="black"/>
        <path d="M103.962 47.9395H100.458V50.5645H104.554V51.748H98.9756V43.2168H104.513V44.4121H100.458V46.7676H103.962V47.9395Z" fill="black"/>
        <path d="M106.824 45.4082L106.865 46.1406C107.334 45.5742 107.949 45.291 108.711 45.291C110.031 45.291 110.703 46.0469 110.727 47.5586V51.748H109.303V47.6406C109.303 47.2383 109.215 46.9414 109.039 46.75C108.867 46.5547 108.584 46.457 108.19 46.457C107.615 46.457 107.188 46.7168 106.906 47.2363V51.748H105.483V45.4082H106.824Z" fill="black"/>
        <path d="M114.298 49.9434L115.64 45.4082H117.111L114.913 51.748H113.677L111.462 45.4082H112.939L114.298 49.9434Z" fill="black"/>
        <path d="M119.399 51.748H117.975V45.4082H119.399V51.748ZM117.887 43.7617C117.887 43.543 117.955 43.3613 118.092 43.2168C118.233 43.0723 118.432 43 118.69 43C118.948 43 119.147 43.0723 119.287 43.2168C119.428 43.3613 119.498 43.543 119.498 43.7617C119.498 43.9766 119.428 44.1562 119.287 44.3008C119.147 44.4414 118.948 44.5117 118.69 44.5117C118.432 44.5117 118.233 44.4414 118.092 44.3008C117.955 44.1562 117.887 43.9766 117.887 43.7617Z" fill="black"/>
        <path d="M124.154 46.709C123.966 46.6777 123.773 46.6621 123.574 46.6621C122.921 46.6621 122.482 46.9121 122.255 47.4121V51.748H120.832V45.4082H122.191L122.226 46.1172C122.57 45.5664 123.046 45.291 123.656 45.291C123.859 45.291 124.027 45.3184 124.16 45.373L124.154 46.709Z" fill="black"/>
        <path d="M124.456 48.5195C124.456 47.8984 124.579 47.3398 124.825 46.8438C125.071 46.3438 125.417 45.9609 125.862 45.6953C126.307 45.4258 126.819 45.291 127.397 45.291C128.253 45.291 128.946 45.5664 129.477 46.1172C130.012 46.668 130.301 47.3984 130.344 48.3086L130.35 48.6426C130.35 49.2676 130.229 49.8262 129.987 50.3184C129.749 50.8105 129.405 51.1914 128.956 51.4609C128.51 51.7305 127.995 51.8652 127.409 51.8652C126.514 51.8652 125.798 51.5684 125.258 50.9746C124.723 50.377 124.456 49.582 124.456 48.5898V48.5195ZM125.88 48.6426C125.88 49.2949 126.014 49.8066 126.284 50.1777C126.553 50.5449 126.928 50.7285 127.409 50.7285C127.889 50.7285 128.262 50.541 128.528 50.166C128.798 49.791 128.932 49.2422 128.932 48.5195C128.932 47.8789 128.794 47.3711 128.516 46.9961C128.243 46.6211 127.87 46.4336 127.397 46.4336C126.932 46.4336 126.563 46.6191 126.29 46.9902C126.016 47.3574 125.88 47.9082 125.88 48.6426Z" fill="black"/>
        <path d="M132.756 45.4082L132.797 46.1406C133.265 45.5742 133.881 45.291 134.642 45.291C135.963 45.291 136.635 46.0469 136.658 47.5586V51.748H135.234V47.6406C135.234 47.2383 135.146 46.9414 134.97 46.75C134.799 46.5547 134.515 46.457 134.121 46.457C133.547 46.457 133.119 46.7168 132.838 47.2363V51.748H131.414V45.4082H132.756Z" fill="black"/>
        <path d="M139.333 45.4082L139.374 46.0703C139.819 45.5508 140.429 45.291 141.202 45.291C142.05 45.291 142.63 45.6152 142.942 46.2637C143.403 45.6152 144.052 45.291 144.888 45.291C145.587 45.291 146.106 45.4844 146.446 45.8711C146.79 46.2578 146.966 46.8281 146.974 47.582V51.748H145.55V47.623C145.55 47.2207 145.462 46.9258 145.286 46.7383C145.11 46.5508 144.819 46.457 144.413 46.457C144.089 46.457 143.823 46.5449 143.616 46.7207C143.413 46.8926 143.27 47.1191 143.188 47.4004L143.194 51.748H141.77V47.5762C141.751 46.8301 141.37 46.457 140.628 46.457C140.057 46.457 139.653 46.6895 139.415 47.1543V51.748H137.991V45.4082H139.333Z" fill="black"/>
        <path d="M151.107 51.8652C150.205 51.8652 149.473 51.582 148.91 51.0156C148.352 50.4453 148.072 49.6875 148.072 48.7422V48.5664C148.072 47.9336 148.193 47.3691 148.436 46.873C148.682 46.373 149.025 45.9844 149.467 45.707C149.908 45.4297 150.4 45.291 150.943 45.291C151.807 45.291 152.473 45.5664 152.941 46.1172C153.414 46.668 153.65 47.4473 153.65 48.4551V49.0293H149.508C149.551 49.5527 149.725 49.9668 150.029 50.2715C150.338 50.5762 150.725 50.7285 151.189 50.7285C151.842 50.7285 152.373 50.4648 152.783 49.9375L153.551 50.6699C153.297 51.0488 152.957 51.3438 152.531 51.5547C152.109 51.7617 151.635 51.8652 151.107 51.8652ZM150.938 46.4336C150.547 46.4336 150.23 46.5703 149.988 46.8438C149.75 47.1172 149.598 47.498 149.531 47.9863H152.244V47.8809C152.213 47.4043 152.086 47.0449 151.863 46.8027C151.641 46.5566 151.332 46.4336 150.938 46.4336Z" fill="black"/>
        <path d="M155.962 45.4082L156.003 46.1406C156.472 45.5742 157.087 45.291 157.849 45.291C159.169 45.291 159.841 46.0469 159.864 47.5586V51.748H158.441V47.6406C158.441 47.2383 158.353 46.9414 158.177 46.75C158.005 46.5547 157.722 46.457 157.327 46.457C156.753 46.457 156.325 46.7168 156.044 47.2363V51.748H154.62V45.4082H155.962Z" fill="black"/>
        <path d="M162.985 43.8672V45.4082H164.104V46.4629H162.985V50.002C162.985 50.2441 163.031 50.4199 163.125 50.5293C163.223 50.6348 163.395 50.6875 163.641 50.6875C163.805 50.6875 163.971 50.668 164.139 50.6289V51.7305C163.815 51.8203 163.502 51.8652 163.201 51.8652C162.108 51.8652 161.561 51.2617 161.561 50.0547V46.4629H160.518V45.4082H161.561V43.8672H162.985Z" fill="black"/>
    </g>
    <path fill-rule="evenodd" clip-rule="evenodd" d="M2.43197 11.7941C12.8449 10.5341 22.8761 7.74743 32.2454 3.50984C32.7381 3.28756 33.1031 2.89833 33.274 2.41588C33.437 1.95779 33.4029 1.46777 33.1797 1.03779C32.8254 0.355959 32.0878 -0.0492795 31.3011 0.0048161C31.0632 0.0211155 30.8325 0.0787866 30.6142 0.1765C21.5614 4.2617 11.8653 6.93849 1.7973 8.13463C1.22337 8.20315 0.704238 8.48377 0.372055 8.90519C0.0797062 9.2755 -0.0470272 9.72785 0.0156755 10.1794C0.154927 11.1907 1.25663 11.9388 2.43197 11.7941ZM24.2857 12.4024C26.1048 11.756 27.3273 11.2064 28.8661 10.5143C29.2603 10.3371 29.6753 10.1505 30.1264 9.95063C27.0653 9.39467 24.0312 9.02647 20.9285 8.70115C16.9713 9.94506 14.4266 10.6683 10.309 11.4316C15.2096 11.4699 19.4491 11.7767 24.2857 12.4024ZM24.2857 22.6182C26.1048 21.9717 27.3273 21.422 28.8661 20.7301C29.2603 20.553 29.6753 20.3663 30.1264 20.1663C27.0653 19.6103 24.0312 19.2424 20.9285 18.9168C16.9713 20.1609 14.4266 20.8839 10.309 21.6473C15.2096 21.6856 19.4491 21.9925 24.2857 22.6182ZM21.3755 29.4453H32.0711C33.1094 29.4453 33.9547 30.2735 33.9551 31.2902C33.9551 32.3089 33.1094 33.1355 32.0711 33.1355H6.01858C11.8183 32.3837 15.8412 31.1509 21.3755 29.4453ZM25.9152 26.8066C26.3127 26.659 26.709 26.5085 27.1048 26.3559C28.8383 25.6848 30.5526 24.9675 32.2454 24.2024C32.7381 23.9787 33.1031 23.5912 33.274 23.1076C33.437 22.6498 33.4029 22.1604 33.1801 21.7301C32.8254 21.0478 32.0882 20.6424 31.3011 20.6964C31.0632 20.713 30.8325 20.7704 30.6146 20.8694C23.9934 23.8569 17.0279 26.0889 9.82499 27.5434C8.7701 27.7559 7.71023 27.9521 6.64578 28.1305C5.13883 28.3846 3.62253 28.6037 2.098 28.7895L2.01966 28.7995C1.94574 28.8091 1.87193 28.8182 1.79746 28.827C1.67014 28.8424 1.54703 28.8694 1.42574 28.9047C1.00337 29.0286 0.630353 29.2698 0.372182 29.5974C0.0798746 29.9675 -0.0468622 30.4203 0.0158404 30.8723C0.122784 31.6465 0.792847 32.2648 1.62935 32.4482C1.8494 32.496 2.08104 32.5126 2.31771 32.4947L2.33567 32.4939L2.35014 32.4931C2.37729 32.4914 2.40457 32.4898 2.4321 32.486C2.67426 32.4569 2.91592 32.4266 3.15788 32.3945C10.556 31.4478 17.758 29.7276 24.6616 27.2619C25.0799 27.1135 25.4986 26.9621 25.9152 26.8066ZM32.2454 13.8554C22.8761 18.0927 12.8449 20.8806 2.43201 22.1401C1.25663 22.2839 0.155009 21.5367 0.015758 20.5263C-0.0469031 20.0744 0.0797062 19.6207 0.372055 19.2503C0.70428 18.8299 1.22341 18.5492 1.79738 18.481C11.8653 17.284 21.5614 14.6072 30.6146 10.5229C30.8325 10.4247 31.0632 10.3662 31.3011 10.3499C32.0878 10.2958 32.8254 10.7015 33.1797 11.3829C33.4029 11.8133 33.437 12.3029 33.274 12.7622C33.1031 13.2442 32.7381 13.6327 32.2454 13.8554ZM67.067 5.7592H59.0503V28.9775H67.9651C68.941 28.9775 69.8279 28.8224 70.6262 28.5118C71.4466 28.1791 72.1451 27.7247 72.7218 27.148C73.2986 26.5492 73.7418 25.8507 74.0524 25.0523C74.363 24.254 74.5181 23.3779 74.5181 22.4245C74.5181 20.8278 74.1077 19.597 73.2873 18.7322C72.467 17.8453 71.3801 17.2464 70.0275 16.9359V16.7696C71.1584 16.437 72.0566 15.8715 72.7218 15.0731C73.3871 14.2748 73.7198 13.1993 73.7198 11.8465C73.7198 9.96157 73.1322 8.47579 71.9568 7.38914C70.8038 6.30253 69.1738 5.7592 67.067 5.7592ZM69.6948 25.3517C69.0295 25.8619 68.0761 26.1168 66.8341 26.1168H62.7094V18.4661H66.8341C68.0761 18.4661 69.0295 18.7209 69.6948 19.2311C70.3601 19.7413 70.6927 20.5617 70.6927 21.6927V22.8902C70.6927 24.0211 70.3601 24.8415 69.6948 25.3517ZM68.963 15.0731C68.3643 15.5167 67.4774 15.7384 66.3019 15.7384H62.7094V8.61991H66.3019C67.4774 8.61991 68.3643 8.85275 68.963 9.31845C69.5838 9.76198 69.8944 10.516 69.8944 11.5804V12.7779C69.8944 13.8424 69.5838 14.6074 68.963 15.0731ZM80.7921 28.7446C81.8121 29.1658 82.9543 29.3767 84.2183 29.3767C85.4823 29.3767 86.6133 29.1658 87.6112 28.7446C88.6312 28.3234 89.4848 27.7247 90.1726 26.9484C90.8819 26.1721 91.4254 25.2299 91.8025 24.1209C92.1792 23.012 92.368 21.7704 92.368 20.3954C92.368 19.0203 92.1792 17.7787 91.8025 16.6698C91.4254 15.561 90.8819 14.6185 90.1726 13.8424C89.4848 13.0662 88.6312 12.4675 87.6112 12.0461C86.6133 11.6248 85.4823 11.4141 84.2183 11.4141C82.9543 11.4141 81.8121 11.6248 80.7921 12.0461C79.7942 12.4675 78.9401 13.0662 78.2308 13.8424C77.5431 14.6185 77.0108 15.561 76.6341 16.6698C76.257 17.7787 76.0686 19.0203 76.0686 20.3954C76.0686 21.7704 76.257 23.012 76.6341 24.1209C77.0108 25.2299 77.5431 26.1721 78.2308 26.9484C78.9401 27.7247 79.7942 28.3234 80.7921 28.7446ZM87.3784 25.3184C86.6021 26.1168 85.5489 26.5159 84.2183 26.5159C82.8878 26.5159 81.8233 26.1168 81.025 25.3184C80.2487 24.4981 79.8607 23.2893 79.8607 21.6927V19.0981C79.8607 17.5014 80.2487 16.3039 81.025 15.5056C81.8233 14.6851 82.8878 14.2748 84.2183 14.2748C85.5489 14.2748 86.6021 14.6851 87.3784 15.5056C88.1767 16.3039 88.5759 17.5014 88.5759 19.0981V21.6927C88.5759 23.2893 88.1767 24.4981 87.3784 25.3184ZM105.727 26.0503H105.561C105.383 26.4939 105.151 26.9263 104.862 27.3476C104.596 27.7467 104.264 28.1014 103.864 28.412C103.465 28.7001 103 28.933 102.467 29.1105C101.935 29.2881 101.314 29.3767 100.605 29.3767C98.8749 29.3767 97.4778 28.8112 96.4133 27.6802C95.3489 26.5492 94.8167 24.9413 94.8167 22.8569V11.8133H98.4424V22.3247C98.4424 25.0523 99.6287 26.4162 102.002 26.4162C102.467 26.4162 102.922 26.3609 103.366 26.2498C103.809 26.1168 104.208 25.9284 104.563 25.6843C104.918 25.4403 105.195 25.1409 105.395 24.7862C105.616 24.4091 105.727 23.9658 105.727 23.4557V11.8133H109.353V28.9775H105.727V26.0503ZM112.932 11.8133V28.9775H116.558V17.3351C116.558 16.8472 116.658 16.4148 116.857 16.0378C117.079 15.6608 117.368 15.3503 117.722 15.1064C118.077 14.8625 118.477 14.6851 118.92 14.5742C119.363 14.4411 119.818 14.3746 120.284 14.3746C122.657 14.3746 123.843 15.7384 123.843 18.4661V28.9775H127.469V17.9338C127.469 15.8493 126.936 14.2415 125.872 13.1105C124.808 11.9796 123.41 11.4141 121.681 11.4141C120.971 11.4141 120.35 11.5028 119.818 11.6802C119.286 11.8576 118.82 12.1016 118.421 12.412C118.022 12.7003 117.678 13.0551 117.39 13.4765C117.124 13.8756 116.902 14.297 116.724 14.7405H116.558V11.8133H112.932ZM138.699 29.3767C137.413 29.3767 136.259 29.1658 135.24 28.7446C134.242 28.3234 133.388 27.7247 132.678 26.9484C131.991 26.1721 131.459 25.2299 131.082 24.1209C130.727 23.012 130.549 21.7704 130.549 20.3954C130.549 19.0203 130.727 17.7787 131.082 16.6698C131.459 15.561 131.991 14.6185 132.678 13.8424C133.388 13.0662 134.242 12.4675 135.24 12.0461C136.259 11.6248 137.402 11.4141 138.666 11.4141C140.44 11.4141 141.859 11.7911 142.924 12.5451C144.01 13.2991 144.82 14.2748 145.352 15.4723L142.524 17.0024C142.214 16.2041 141.737 15.5721 141.094 15.1064C140.473 14.6407 139.664 14.4078 138.666 14.4078C137.291 14.4078 136.226 14.8292 135.472 15.6719C134.719 16.4924 134.341 17.59 134.341 18.965V21.8257C134.341 23.1783 134.719 24.276 135.472 25.1189C136.226 25.9617 137.313 26.3829 138.732 26.3829C139.797 26.3829 140.662 26.1388 141.327 25.6511C142.014 25.1634 142.558 24.4981 142.957 23.6552L145.618 25.2852C145.064 26.4827 144.221 27.4694 143.09 28.2457C141.959 28.9995 140.495 29.3767 138.699 29.3767ZM152.857 28.7446C153.899 29.1658 155.074 29.3767 156.383 29.3767C158.156 29.3767 159.631 29.0328 160.807 28.3455C162.004 27.6582 162.891 26.8153 163.468 25.8174L161.206 23.8216C160.718 24.6199 160.075 25.2631 159.277 25.7509C158.5 26.2166 157.558 26.4494 156.449 26.4494C154.963 26.4494 153.799 26.0282 152.956 25.1854C152.114 24.3205 151.692 23.2116 151.692 21.859V21.2935H164V19.9297C164 18.6656 163.811 17.5126 163.435 16.4702C163.079 15.428 162.558 14.5298 161.871 13.7758C161.183 13.0219 160.352 12.4453 159.376 12.0461C158.4 11.6248 157.314 11.4141 156.116 11.4141C154.896 11.4141 153.788 11.6248 152.79 12.0461C151.792 12.4675 150.938 13.0773 150.229 13.8756C149.541 14.6518 148.998 15.5943 148.599 16.7031C148.222 17.812 148.033 19.0536 148.033 20.4286C148.033 21.8037 148.222 23.0453 148.599 24.1542C148.975 25.2407 149.519 26.1721 150.229 26.9484C150.938 27.7247 151.814 28.3234 152.857 28.7446ZM154.32 14.5076C154.874 14.2859 155.473 14.175 156.116 14.175C157.38 14.175 158.389 14.5853 159.143 15.4058C159.919 16.2041 160.308 17.2797 160.308 18.6324V18.965H151.692V18.7322C151.692 18.0669 151.803 17.4569 152.025 16.9026C152.247 16.3483 152.546 15.8715 152.923 15.4723C153.322 15.051 153.788 14.7294 154.32 14.5076Z" fill="black"/>
</svg>
