<svg width="32" height="29" viewBox="0 0 32 29" fill="none" xmlns="http://www.w3.org/2000/svg">
<path fill-rule="evenodd" clip-rule="evenodd" d="M9.16895 26.2128L13.3293 27.3192V25.8723L13.6689 25.5319H16.0463V27.234V28.4255H13.4991L10.3576 27.0638L9.16895 26.2128Z" fill="#CDBDB2"/>
<path fill-rule="evenodd" clip-rule="evenodd" d="M22.7539 26.2128L18.6784 27.3192V25.8723L18.3388 25.5319H15.9614V27.234V28.4255H18.5086L21.6501 27.0638L22.7539 26.2128Z" fill="#CDBDB2"/>
<path fill-rule="evenodd" clip-rule="evenodd" d="M13.6697 23.0638L13.3301 25.8723L13.7546 25.5319H18.1697L18.6791 25.8723L18.3395 23.0638L17.6603 22.6383L14.264 22.7234L13.6697 23.0638Z" fill="#393939"/>
<path fill-rule="evenodd" clip-rule="evenodd" d="M11.3779 4.08511L13.4157 8.85107L14.3496 22.7234H17.6609L18.6798 8.85107L20.5477 4.08511H11.3779Z" fill="#F89C35"/>
<path fill-rule="evenodd" clip-rule="evenodd" d="M2.46232 14.5532L0.0849609 21.4468L6.02836 21.1064H9.84911V18.1277L9.6793 12L8.83024 12.6809L2.46232 14.5532Z" fill="#F89D35"/>
<path fill-rule="evenodd" clip-rule="evenodd" d="M6.96289 15.3192L13.9252 15.4894L13.161 19.0638L9.84968 18.2128L6.96289 15.3192Z" fill="#D87C30"/>
<path fill-rule="evenodd" clip-rule="evenodd" d="M6.96289 15.4043L9.84968 18.1277V20.8511L6.96289 15.4043Z" fill="#EA8D3A"/>
<path fill-rule="evenodd" clip-rule="evenodd" d="M9.84961 18.2128L13.2458 19.0638L14.3496 22.7234L13.5855 23.1489L9.84961 20.9362V18.2128Z" fill="#F89D35"/>
<path fill-rule="evenodd" clip-rule="evenodd" d="M9.84819 20.9362L9.16895 26.2128L13.6689 23.0638L9.84819 20.9362Z" fill="#EB8F35"/>
<path fill-rule="evenodd" clip-rule="evenodd" d="M13.9243 15.4894L14.3488 22.7234L13.0752 19.0213L13.9243 15.4894Z" fill="#EA8E3A"/>
<path fill-rule="evenodd" clip-rule="evenodd" d="M5.94336 21.0213L9.84902 20.9362L9.16977 26.2128L5.94336 21.0213Z" fill="#D87C30"/>
<path fill-rule="evenodd" clip-rule="evenodd" d="M1.95289 28.5106L9.16987 26.2128L5.94345 21.0213L0.0849609 21.4468L1.95289 28.5106Z" fill="#EB8F35"/>
<path fill-rule="evenodd" clip-rule="evenodd" d="M13.4157 8.85107L9.76478 11.9149L6.96289 15.3192L13.9252 15.5745L13.4157 8.85107Z" fill="#E8821E"/>
<path fill-rule="evenodd" clip-rule="evenodd" d="M9.16895 26.2128L13.6689 23.0638L13.3293 25.7872V27.3192L10.2727 26.7234L9.16895 26.2128Z" fill="#DFCEC3"/>
<path fill-rule="evenodd" clip-rule="evenodd" d="M22.7539 26.2128L18.3388 23.0638L18.6784 25.7872V27.3192L21.735 26.7234L22.7539 26.2128Z" fill="#DFCEC3"/>
<path fill-rule="evenodd" clip-rule="evenodd" d="M12.0563 17.0213L12.9902 18.9787L9.67891 18.1277L12.0563 17.0213Z" fill="#393939"/>
<path fill-rule="evenodd" clip-rule="evenodd" d="M1.86719 0.0851135L13.4144 8.85107L11.4615 4.08511L1.86719 0.0851135Z" fill="#E88F35"/>
<path fill-rule="evenodd" clip-rule="evenodd" d="M1.86815 0.0851135L0.339844 4.76596L1.1889 9.87235L0.594561 10.2128L1.44362 10.9787L0.764372 11.5745L1.69833 12.4255L1.10399 12.9362L2.46249 14.6383L8.83041 12.6809C8.83041 12.6809 13.5002 8.93618 13.4153 8.85107C13.3304 8.76596 1.86815 0.0851135 1.86815 0.0851135Z" fill="#8E5A30"/>
<path fill-rule="evenodd" clip-rule="evenodd" d="M29.4625 14.5532L31.8398 21.4468L25.8964 21.1064H22.0757V18.1277L22.2455 12L23.0946 12.6809L29.4625 14.5532Z" fill="#F89D35"/>
<path fill-rule="evenodd" clip-rule="evenodd" d="M24.9619 15.3192L17.9997 15.4894L18.7638 19.0638L22.0751 18.2128L24.9619 15.3192Z" fill="#D87C30"/>
<path fill-rule="evenodd" clip-rule="evenodd" d="M24.9619 15.4043L22.0751 18.1277V20.8511L24.9619 15.4043Z" fill="#EA8D3A"/>
<path fill-rule="evenodd" clip-rule="evenodd" d="M22.0762 18.2128L18.6799 19.0638L17.5762 22.7234L18.3403 23.1489L22.0762 20.9362V18.2128Z" fill="#F89D35"/>
<path fill-rule="evenodd" clip-rule="evenodd" d="M22.0766 20.9362L22.7559 26.2128L18.3408 23.1489L22.0766 20.9362Z" fill="#EB8F35"/>
<path fill-rule="evenodd" clip-rule="evenodd" d="M18.0006 15.4894L17.576 22.7234L18.8496 19.0213L18.0006 15.4894Z" fill="#EA8E3A"/>
<path fill-rule="evenodd" clip-rule="evenodd" d="M25.9814 21.0213L22.0758 20.9362L22.755 26.2128L25.9814 21.0213Z" fill="#D87C30"/>
<path fill-rule="evenodd" clip-rule="evenodd" d="M29.9719 28.5106L22.7549 26.2128L25.9814 21.0213L31.8398 21.4468L29.9719 28.5106Z" fill="#EB8F35"/>
<path fill-rule="evenodd" clip-rule="evenodd" d="M18.5091 8.85107L22.16 11.9149L24.9619 15.3192L17.9997 15.5745L18.5091 8.85107Z" fill="#E8821E"/>
<path fill-rule="evenodd" clip-rule="evenodd" d="M19.8685 17.0213L18.9346 18.9787L22.2459 18.1277L19.8685 17.0213Z" fill="#393939"/>
<path fill-rule="evenodd" clip-rule="evenodd" d="M30.0576 0.0851135L18.5105 8.85107L20.4633 4.08511L30.0576 0.0851135Z" fill="#E88F35"/>
<path fill-rule="evenodd" clip-rule="evenodd" d="M30.0567 0.0851135L31.585 4.76596L30.7359 9.87235L31.3302 10.2128L30.4812 10.9787L31.1604 11.5745L30.2265 12.4255L30.8208 12.9362L29.4623 14.6383L23.0944 12.6809C23.0944 12.6809 18.4246 8.93618 18.5095 8.85107C18.5944 8.76596 30.0567 0.0851135 30.0567 0.0851135Z" fill="#8E5A30"/>
</svg>