<svg width="178" height="73" viewBox="0 0 178 73" fill="none" xmlns="http://www.w3.org/2000/svg">
    <path d="M31.8586 71V57.5H0.258594V46.3L28.0586 1.2H44.3586V47.3H53.4586V57.5H44.3586V71H31.8586ZM11.0586 47.3H31.8586V14H31.0586L11.0586 47.3ZM89.0195 72.2C84.5529 72.2 80.6862 71.4 77.4195 69.8C74.1529 68.1333 71.4529 65.7667 69.3195 62.7C67.1862 59.6333 65.5862 55.8667 64.5195 51.4C63.5195 46.9333 63.0195 41.8333 63.0195 36.1C63.0195 30.4333 63.5195 25.3667 64.5195 20.9C65.5862 16.3667 67.1862 12.5667 69.3195 9.5C71.4529 6.43333 74.1529 4.1 77.4195 2.49999C80.6862 0.833329 84.5529 -3.8147e-06 89.0195 -3.8147e-06C97.8862 -3.8147e-06 104.42 3.16666 108.62 9.5C112.886 15.8333 115.02 24.7 115.02 36.1C115.02 47.5 112.886 56.3667 108.62 62.7C104.42 69.0333 97.8862 72.2 89.0195 72.2ZM89.0195 61.1C93.4862 61.1 96.5862 59.4333 98.3195 56.1C100.12 52.7 101.02 48.1333 101.02 42.4V29.8C101.02 24.0667 100.12 19.5333 98.3195 16.2C96.5862 12.8 93.4862 11.1 89.0195 11.1C84.5529 11.1 81.4195 12.8 79.6195 16.2C77.8862 19.5333 77.0195 24.0667 77.0195 29.8V42.4C77.0195 48.1333 77.8862 52.7 79.6195 56.1C81.4195 59.4333 84.5529 61.1 89.0195 61.1ZM155.78 71V57.5H124.18V46.3L151.98 1.2H168.28V47.3H177.38V57.5H168.28V71H155.78ZM134.98 47.3H155.78V14H154.98L134.98 47.3Z" fill="black"/>
</svg>
