<svg id="图层_1" data-name="图层 1" xmlns="http://www.w3.org/2000/svg" viewBox="0 0 250 250"><defs><style>.cls-1{fill:#1c1c1c;}.cls-2{fill:#fff;fill-rule:evenodd;}</style></defs><title>logo(1)</title><rect class="cls-1" width="250" height="250" rx="6"/><path class="cls-2" d="M96,116a203.94,203.94,0,0,0,59.7-16.59,3.76,3.76,0,0,0,2.06-2.19,3.41,3.41,0,0,0-.19-2.76,3.93,3.93,0,0,0-3.76-2.07,4.07,4.07,0,0,0-1.37.35A196.64,196.64,0,0,1,94.71,108.7a4.24,4.24,0,0,0-2.86,1.54,3.35,3.35,0,0,0-.71,2.55C91.42,114.82,93.62,116.31,96,116Zm43.76,1.22c3.65-1.29,6.09-2.39,9.18-3.78l2.52-1.13c-6.13-1.11-12.21-1.85-18.42-2.5a159.46,159.46,0,0,1-21.27,5.47A223.18,223.18,0,0,1,139.74,117.24Zm0,20.46c3.65-1.29,6.09-2.39,9.18-3.78l2.52-1.13c-6.13-1.11-12.21-1.85-18.42-2.5a159.46,159.46,0,0,1-21.27,5.47A221.31,221.31,0,0,1,139.74,137.7Zm-5.83,13.67h21.42a3.7,3.7,0,1,1,0,7.39H103.16C114.77,157.26,122.83,154.79,133.91,151.37Zm9.1-5.28,2.38-.9c3.47-1.35,6.9-2.78,10.29-4.32a3.76,3.76,0,0,0,2.06-2.19,3.41,3.41,0,0,0-.19-2.76,3.92,3.92,0,0,0-3.76-2.07,4.07,4.07,0,0,0-1.37.35,194.92,194.92,0,0,1-41.64,13.36q-3.16.65-6.36,1.18-4.53.76-9.11,1.32l-.16,0-.44,0a5.85,5.85,0,0,0-.75.16,4.2,4.2,0,0,0-2.11,1.39,3.35,3.35,0,0,0-.71,2.55,4,4,0,0,0,3.23,3.16,4.84,4.84,0,0,0,1.38.09h.06l.17,0,1.45-.18A205.44,205.44,0,0,0,140.49,147Zm12.67-25.94A203.94,203.94,0,0,1,96,136.74c-2.36.29-4.56-1.2-4.84-3.23a3.35,3.35,0,0,1,.71-2.55,4.24,4.24,0,0,1,2.86-1.54,196.64,196.64,0,0,0,57.71-15.94,3.85,3.85,0,0,1,1.37-.35,3.92,3.92,0,0,1,3.76,2.07,3.41,3.41,0,0,1,.19,2.76A3.76,3.76,0,0,1,155.68,120.15Z" transform="translate(-0.11 -0.11)"/></svg>