<svg width="64" height="64" viewBox="0 0 64 64" fill="none" xmlns="http://www.w3.org/2000/svg">
<path fill-rule="evenodd" clip-rule="evenodd" d="M31.8467 6C18.3973 6 7.32983 16.2143 5.98427 29.3067C5.81488 30.9549 4.34146 32.1537 2.69328 31.9843C1.04511 31.8149 -0.15368 30.3415 0.0157095 28.6933C1.67252 12.5724 15.2895 0 31.8467 0C49.5198 0 63.8467 14.3269 63.8467 32C63.8467 48.5508 51.284 62.1636 35.1721 63.8291C33.524 63.9994 32.0499 62.8015 31.8795 61.1534C31.7092 59.5053 32.9071 58.0312 34.5552 57.8609C47.6403 56.5083 57.8467 45.4441 57.8467 32C57.8467 17.6406 46.2061 6 31.8467 6Z" fill="#1F65ED"/>
</svg>