<svg width="64" height="64" viewBox="0 0 64 64" fill="none" xmlns="http://www.w3.org/2000/svg">
<path d="M29.7131 0.00199994C13.3296 0.00199994 0 13.3316 0 29.7151C0 46.0986 13.3296 59.4281 29.7131 59.4281C37.0828 59.4281 43.8306 56.7242 49.0285 52.2644L60.0961 63.332C60.5101 63.746 61.0821 64 61.7121 64C62.974 64 63.998 62.976 63.998 61.7141C63.998 61.0821 63.742 60.5101 63.328 60.0961L52.2584 49.0285C56.7202 43.8306 59.4261 37.0848 59.4261 29.7131C59.4261 13.3296 46.0966 0 29.7131 0V0.00199994ZM29.7131 4.57186C43.6246 4.57186 54.8543 15.8015 54.8543 29.7131C54.8543 43.6246 43.6246 54.8543 29.7131 54.8543C15.8015 54.8543 4.57186 43.6246 4.57186 29.7131C4.57186 15.8015 15.8015 4.57186 29.7131 4.57186Z" fill="#E1E4EC"/>
<path fill-rule="evenodd" clip-rule="evenodd" d="M38.4979 21.4979C37.834 20.834 36.7576 20.834 36.0938 21.4979L29.9979 27.5938L23.9021 21.4979C23.2382 20.834 22.1618 20.834 21.4979 21.4979C20.834 22.1618 20.834 23.2382 21.4979 23.9021L27.5937 29.9979L21.5274 36.0643C20.8635 36.7282 20.8635 37.8046 21.5274 38.4685C22.1912 39.1324 23.2676 39.1324 23.9315 38.4685L29.9979 32.4021L36.0643 38.4685C36.7282 39.1324 37.8046 39.1324 38.4685 38.4685C39.1324 37.8046 39.1324 36.7282 38.4685 36.0643L32.4021 29.9979L38.4979 23.9021C39.1618 23.2382 39.1618 22.1618 38.4979 21.4979Z" fill="#E1E4EC"/>
</svg>