<svg width="28" height="28" viewBox="0 0 28 28" fill="none" xmlns="http://www.w3.org/2000/svg">
<path d="M14 28C21.732 28 28 21.732 28 14C28 6.26801 21.732 0 14 0C6.26801 0 0 6.26801 0 14C0 21.732 6.26801 28 14 28Z" fill="#26A17B"/>
<path d="M14 24C19.5228 24 24 19.5228 24 14C24 8.47715 19.5228 4 14 4C8.47715 4 4 8.47715 4 14C4 19.5228 8.47715 24 14 24Z" fill="#26A17B"/>
<path fill-rule="evenodd" clip-rule="evenodd" d="M15.2013 14.8645V14.8632C15.1325 14.8682 14.7781 14.8895 13.9875 14.8895C13.3563 14.8895 12.9119 14.8707 12.7556 14.8632V14.8651C10.3256 14.7582 8.51187 14.3351 8.51187 13.8288C8.51187 13.3232 10.3256 12.9001 12.7556 12.7913V14.4438C12.9144 14.4551 13.3694 14.482 13.9981 14.482C14.7525 14.482 15.1306 14.4507 15.2013 14.4445V12.7926C17.6263 12.9007 19.4356 13.3238 19.4356 13.8288C19.4356 14.3351 17.6263 14.757 15.2013 14.8645ZM15.2013 12.6207V11.142H18.585V8.88696H9.37188V11.142H12.7556V12.6201C10.0056 12.7463 7.9375 13.2913 7.9375 13.9438C7.9375 14.5963 10.0056 15.1407 12.7556 15.2676V20.0063H15.2013V15.2663C17.9469 15.1401 20.01 14.5957 20.01 13.9438C20.01 13.292 17.9469 12.7476 15.2013 12.6207Z" fill="white"/>
</svg>
