<svg width="10" height="10" viewBox="0 0 10 10" fill="none" xmlns="http://www.w3.org/2000/svg">
<path opacity="0.5" fill-rule="evenodd" clip-rule="evenodd" d="M8.75 5C8.75 7.07107 7.07107 8.75 5 8.75C2.92893 8.75 1.25 7.07107 1.25 5C1.25 2.92893 2.92893 1.25 5 1.25C7.07107 1.25 8.75 2.92893 8.75 5ZM10 5C10 7.76142 7.76142 10 5 10C2.23858 10 0 7.76142 0 5C0 2.23858 2.23858 0 5 0C7.76142 0 10 2.23858 10 5ZM5.57932 6.58203V7.63672C5.57932 7.68799 5.56413 7.7301 5.53376 7.76306C5.5034 7.79602 5.46459 7.8125 5.41735 7.8125H4.44559C4.39835 7.8125 4.35955 7.79602 4.32918 7.76306C4.29881 7.7301 4.28363 7.68799 4.28363 7.63672V6.58203C4.28363 6.53076 4.29881 6.48865 4.32918 6.45569C4.35955 6.42273 4.39835 6.40625 4.44559 6.40625H5.41735C5.46459 6.40625 5.5034 6.42273 5.53376 6.45569C5.56413 6.48865 5.57932 6.53076 5.57932 6.58203ZM6.5941 3.04993C6.78137 3.32458 6.875 3.62304 6.875 3.94531C6.875 4.10644 6.85391 4.25476 6.81173 4.39026C6.76956 4.52576 6.72232 4.63653 6.67002 4.7226C6.61772 4.80866 6.54264 4.89655 6.44479 4.98627C6.34694 5.07599 6.26933 5.14008 6.21197 5.17853C6.15461 5.21698 6.07194 5.26917 5.96397 5.33508C5.85262 5.40466 5.76068 5.4953 5.68813 5.60699C5.61559 5.71869 5.57932 5.80932 5.57932 5.87891C5.57932 5.93017 5.56413 5.97229 5.53376 6.00525C5.5034 6.03821 5.46459 6.05469 5.41735 6.05469H4.44559C4.39835 6.05469 4.35955 6.03821 4.32918 6.00525C4.29881 5.97229 4.28363 5.93017 4.28363 5.87891V5.68115C4.28363 5.43579 4.3722 5.20599 4.54935 4.99176C4.72649 4.77753 4.92135 4.61914 5.13392 4.5166C5.29588 4.43603 5.41061 4.35364 5.47809 4.26941C5.54557 4.18518 5.57932 4.07348 5.57932 3.93433C5.57932 3.81348 5.51605 3.70544 5.38952 3.61023C5.26299 3.51502 5.11874 3.46741 4.95678 3.46741C4.78132 3.46741 4.63623 3.51135 4.52151 3.59924C4.41016 3.68713 4.26507 3.85559 4.08624 4.10461C4.05587 4.14856 4.0137 4.17053 3.95971 4.17053C3.91922 4.17053 3.88717 4.15955 3.86355 4.13757L3.19546 3.58826C3.11785 3.52234 3.10435 3.44543 3.15497 3.35754C3.58686 2.57751 4.21277 2.1875 5.0327 2.1875C5.32625 2.1875 5.61306 2.26258 5.89311 2.41272C6.17317 2.56286 6.40683 2.77527 6.5941 3.04993Z" fill="#252A2F"/>
</svg>